<?xml version="1.0"?>
<Project_Data Version="8.00">
<Project_Settings>
<ProfileName></ProfileName>
<ProjectWidth>1278</ProjectWidth>
<ProjectHeight>720</ProjectHeight>
<IsCustomProject>1</IsCustomProject>
<SavedProjectSettings>1</SavedProjectSettings>
<LastFlashTemplate>-1</LastFlashTemplate>
</Project_Settings>


<AutoSaveFile>C:\Users\Carlos\AppData\Local\TechSmith\Camtasia Studio\8.0\Auto-Saves\videob07a9e.autosave.camproj</AutoSaveFile>

<ProjectID>6CCFA2C4-0768-47B8-AD42-F806FECDFCCF</ProjectID>

<PowerPointProject>0</PowerPointProject>

<PowerPointFilename></PowerPointFilename>


<Project_Notes>
</Project_Notes>

<Project_MetaData>
<Project_MetaData_Object>
<FieldArrayKey>8</FieldArrayKey>
<Value>video</Value>
</Project_MetaData_Object>
<Project_MetaData_Object>
<FieldArrayKey>13</FieldArrayKey>
<Value>2014-11-03 01:02:02 PM</Value>
</Project_MetaData_Object>
<Project_MetaData_Object>
<FieldArrayKey>16</FieldArrayKey>
<Value>ENU</Value>
</Project_MetaData_Object>
</Project_MetaData>

<CSMLData>
 <GoProject id="1" version="3.0" >
  <Project id="2" editRate="30/1" version="3.0" >
   <Author></Author>
   <Comment></Comment>
   <System></System>
   <SourceBin id="3"  >
     <Source id="4" src="capture-5.trec" lastMod="20141117T185512" rect="(0,0,1364,768)" >
       <SourceTrack range="(0,10230)" type="0" editRate="30/1" trackRect="(0,0,1364,768)" sampleRate="0/1" bitDepth="0" numChannels="0" filename="capture-5.trec!Strack0.tsc2" metaData="capture-5.trec;" />
       <SourceTrack range="(0,15039488)" type="2" editRate="44100/1" trackRect="(0,0,0,0)" sampleRate="44100/1" bitDepth="16" numChannels="2" filename="capture-5.trec!Maudio1.mp4" metaData="" />
       <SourceTrack range="(0,14995456)" type="2" editRate="44100/1" trackRect="(0,0,0,0)" sampleRate="44100/1" bitDepth="16" numChannels="2" filename="capture-5.trec!$audio2.mp4" metaData="" />
     </Source>
     <Source id="5" src="capture-6.trec" lastMod="20141117T193350" rect="(0,0,1364,768)" >
       <SourceTrack range="(0,4331)" type="0" editRate="30/1" trackRect="(0,0,1364,768)" sampleRate="0/1" bitDepth="0" numChannels="0" filename="capture-6.trec!Strack0.tsc2" metaData="capture-6.trec;" />
       <SourceTrack range="(0,6351872)" type="2" editRate="44100/1" trackRect="(0,0,0,0)" sampleRate="44100/1" bitDepth="16" numChannels="2" filename="capture-6.trec!Maudio1.mp4" metaData="" />
       <SourceTrack range="(0,6351872)" type="2" editRate="44100/1" trackRect="(0,0,0,0)" sampleRate="44100/1" bitDepth="16" numChannels="2" filename="capture-6.trec!$audio2.mp4" metaData="" />
     </Source>
     <Source id="6" src="capture-7.trec" lastMod="20141117T203546" rect="(0,0,1364,768)" >
       <SourceTrack range="(0,20667)" type="0" editRate="30/1" trackRect="(0,0,1364,768)" sampleRate="0/1" bitDepth="0" numChannels="0" filename="capture-7.trec!Strack0.tsc2" metaData="capture-7.trec;" />
       <SourceTrack range="(0,30364672)" type="2" editRate="44100/1" trackRect="(0,0,0,0)" sampleRate="44100/1" bitDepth="16" numChannels="2" filename="capture-7.trec!Maudio1.mp4" metaData="" />
       <SourceTrack range="(0,30342144)" type="2" editRate="44100/1" trackRect="(0,0,0,0)" sampleRate="44100/1" bitDepth="16" numChannels="2" filename="capture-7.trec!$audio2.mp4" metaData="" />
     </Source>
     <Source id="7" src="capture-8.trec" lastMod="20141117T210337" rect="(0,0,1364,768)" >
       <SourceTrack range="(0,343)" type="0" editRate="30/1" trackRect="(0,0,1364,768)" sampleRate="0/1" bitDepth="0" numChannels="0" filename="capture-8.trec!Strack0.tsc2" metaData="capture-8.trec;" />
       <SourceTrack range="(0,486400)" type="2" editRate="44100/1" trackRect="(0,0,0,0)" sampleRate="44100/1" bitDepth="16" numChannels="2" filename="capture-8.trec!Maudio1.mp4" metaData="" />
       <SourceTrack range="(0,486400)" type="2" editRate="44100/1" trackRect="(0,0,0,0)" sampleRate="44100/1" bitDepth="16" numChannels="2" filename="capture-8.trec!$audio2.mp4" metaData="" />
     </Source>
   </SourceBin>
   <Timeline id="8"  >
    <Attributes>
     <Attribute id="9" value="1278" name="width"/>
     <Attribute id="10" value="720" name="height"/>
     <Attribute id="11" value="(0,0,0,255)" name="backgroundColor"/>
    </Attributes>
     <GenericMixer id="12"  name="Unified Mixer">
      <MetaData>
       <entry key="MixerType" val="TimelineMixer"/>
      </MetaData>
      <Tracks>
       <GenericTrack id="13"  >
        <Attributes>
         <Attribute id="14" value="" name="ident"/>
         <Attribute id="15" value="0" name="audioMuted"/>
         <Attribute id="16" value="0" name="videoHidden"/>
        </Attributes>
        <MetaData>
         <entry key="IsLocked" val="False"/>
         <entry key="WinTrackHeight" val="59.613636363636367"/>
        </MetaData>
        <Medias>
         <StitchedMedia id="17" start="0" duration="3596" scalar="1/1" mediaStart="0/1" mediaDuration="3596/1" minMediaStart="0/1" >
          <Transformer>
           <VectorParam id="18"  name="translation">
            <InterpolatingParam id="19" interp="linr"  time="0/1" value="0" leadInLength="0/1"  />
            <InterpolatingParam id="20" interp="linr"  time="0/1" value="0" leadInLength="0/1"  />
            <InterpolatingParam id="21" interp="linr"  time="0/1" value="0" leadInLength="0/1"  />
           </VectorParam>
           <VectorParam id="22"  name="rotation">
            <InterpolatingParam id="23" interp="linr"  time="0/1" value="0" leadInLength="0/1"  />
            <InterpolatingParam id="24" interp="linr"  time="0/1" value="0" leadInLength="0/1"  />
            <InterpolatingParam id="25" interp="linr"  time="0/1" value="0" leadInLength="0/1"  />
           </VectorParam>
           <VectorParam id="26"  name="shear">
            <InterpolatingParam id="27" interp="linr"  time="0/1" value="0" leadInLength="0/1"  />
            <InterpolatingParam id="28" interp="linr"  time="0/1" value="0" leadInLength="0/1"  />
            <InterpolatingParam id="29" interp="linr"  time="0/1" value="0" leadInLength="0/1"  />
           </VectorParam>
           <VectorParam id="30"  name="scale">
            <InterpolatingParam id="31" interp="linr"  time="0/1" value="1" leadInLength="0/1"  />
            <InterpolatingParam id="32" interp="linr"  time="0/1" value="1" leadInLength="0/1"  />
            <InterpolatingParam id="33" interp="linr"  time="0/1" value="1" leadInLength="0/1"  />
           </VectorParam>
           <VectorParam id="34"  name="anchor">
            <InterpolatingParam id="35" interp="linr"  time="0/1" value="0" leadInLength="0/1"  />
            <InterpolatingParam id="36" interp="linr"  time="0/1" value="0" leadInLength="0/1"  />
            <InterpolatingParam id="37" interp="linr"  time="0/1" value="0" leadInLength="0/1"  />
           </VectorParam>
          </Transformer>
          <Parameters>
           <InterpolatingParam id="38" interp="linr"  time="0/1" value="1" leadInLength="0/1"  name="cursorOpacity"/>
           <InterpolatingParam id="39" interp="linr"  time="0/1" value="1" leadInLength="0/1"  name="cursorScale"/>
           <InterpolatingParam id="40" interp="linr"  time="0/1" value="1" leadInLength="0/1"  name="volume"/>
           <Parameter id="41"  name="captions"/>
          </Parameters>
          <Attributes>
           <Attribute id="42" value="" name="ident"/>
           <Attribute id="43" value="0" name="mixToMono"/>
          </Attributes>
          <MetaData>
           <entry key="WinSubProjectDisplayName" val=""/>
          </MetaData>
          <ExtraData>
           <Entry key="ZoomPanBin">
            <ZoomPanBin id="44"  >
             <ZoomPanKeyframes>
             </ZoomPanKeyframes>
            </ZoomPanBin>
           </Entry>
           <Entry key="CursorEffectBin">
            <CursorEffectBin id="45"  >
             <CursorEffectKeyframes>
             </CursorEffectKeyframes>
            </CursorEffectBin>
           </Entry>
          </ExtraData>
          <GenericTrack id="46"  >
           <Attributes>
            <Attribute id="47" value="" name="ident"/>
            <Attribute id="48" value="0" name="audioMuted"/>
            <Attribute id="49" value="0" name="videoHidden"/>
           </Attributes>
           <MetaData>
            <entry key="IsLocked" val="False"/>
            <entry key="WinTrackHeight" val="0"/>
           </MetaData>
           <Medias>
            <AMFile id="50" start="0" duration="113" scalar="1/1" mediaStart="0/1" mediaDuration="113/1" trackNumber="2" src="5" channelNumber="0,1" >
             <Parameters>
              <InterpolatingParam id="51" interp="linr"  time="0/1" value="1" leadInLength="0/1"  name="volume"/>
              <Parameter id="52"  name="captions"/>
             </Parameters>
             <Attributes>
              <Attribute id="53" value="" name="ident"/>
              <Attribute id="54" value="44100" name="sampleRate"/>
              <Attribute id="55" value="16" name="bitDepth"/>
              <Attribute id="56" value="1" name="gain"/>
              <Attribute id="57" value="0" name="mixToMono"/>
             </Attributes>
             <MetaData>
              <entry key="WinSubProjectDisplayName" val=""/>
             </MetaData>
            </AMFile>
            <AMFile id="58" start="113" duration="331" scalar="1/1" mediaStart="125/1" mediaDuration="331/1" trackNumber="2" src="5" channelNumber="0,1" >
             <Parameters>
              <InterpolatingParam id="59" interp="linr"  time="0/1" value="1" leadInLength="0/1"  name="volume"/>
              <Parameter id="60"  name="captions"/>
             </Parameters>
             <Attributes>
              <Attribute id="61" value="" name="ident"/>
              <Attribute id="62" value="44100" name="sampleRate"/>
              <Attribute id="63" value="16" name="bitDepth"/>
              <Attribute id="64" value="1" name="gain"/>
              <Attribute id="65" value="0" name="mixToMono"/>
             </Attributes>
             <MetaData>
              <entry key="WinSubProjectDisplayName" val=""/>
             </MetaData>
            </AMFile>
            <AMFile id="66" start="444" duration="216" scalar="1/1" mediaStart="491/1" mediaDuration="216/1" trackNumber="2" src="5" channelNumber="0,1" >
             <Parameters>
              <InterpolatingParam id="67" interp="linr"  time="0/1" value="1" leadInLength="0/1"  name="volume"/>
              <Parameter id="68"  name="captions"/>
             </Parameters>
             <Attributes>
              <Attribute id="69" value="" name="ident"/>
              <Attribute id="70" value="44100" name="sampleRate"/>
              <Attribute id="71" value="16" name="bitDepth"/>
              <Attribute id="72" value="1" name="gain"/>
              <Attribute id="73" value="0" name="mixToMono"/>
             </Attributes>
             <MetaData>
              <entry key="WinSubProjectDisplayName" val=""/>
             </MetaData>
            </AMFile>
            <AMFile id="74" start="660" duration="297" scalar="1/1" mediaStart="724/1" mediaDuration="297/1" trackNumber="2" src="5" channelNumber="0,1" >
             <Parameters>
              <InterpolatingParam id="75" interp="linr"  time="0/1" value="1" leadInLength="0/1"  name="volume"/>
              <Parameter id="76"  name="captions"/>
             </Parameters>
             <Attributes>
              <Attribute id="77" value="" name="ident"/>
              <Attribute id="78" value="44100" name="sampleRate"/>
              <Attribute id="79" value="16" name="bitDepth"/>
              <Attribute id="80" value="1" name="gain"/>
              <Attribute id="81" value="0" name="mixToMono"/>
             </Attributes>
             <MetaData>
              <entry key="WinSubProjectDisplayName" val=""/>
             </MetaData>
            </AMFile>
            <AMFile id="82" start="957" duration="492" scalar="1/1" mediaStart="1424/1" mediaDuration="492/1" trackNumber="2" src="5" channelNumber="0,1" >
             <Parameters>
              <InterpolatingParam id="83" interp="linr"  time="0/1" value="1" leadInLength="0/1"  name="volume"/>
              <Parameter id="84"  name="captions"/>
             </Parameters>
             <Attributes>
              <Attribute id="85" value="" name="ident"/>
              <Attribute id="86" value="44100" name="sampleRate"/>
              <Attribute id="87" value="16" name="bitDepth"/>
              <Attribute id="88" value="1" name="gain"/>
              <Attribute id="89" value="0" name="mixToMono"/>
             </Attributes>
             <MetaData>
              <entry key="WinSubProjectDisplayName" val=""/>
             </MetaData>
            </AMFile>
            <AMFile id="90" start="1449" duration="2340" scalar="1/1" mediaStart="1981/1" mediaDuration="2340/1" trackNumber="2" src="5" channelNumber="0,1" >
             <Parameters>
              <InterpolatingParam id="91" interp="linr"  time="0/1" value="1" leadInLength="0/1"  name="volume"/>
              <Parameter id="92"  name="captions"/>
             </Parameters>
             <Attributes>
              <Attribute id="93" value="" name="ident"/>
              <Attribute id="94" value="44100" name="sampleRate"/>
              <Attribute id="95" value="16" name="bitDepth"/>
              <Attribute id="96" value="1" name="gain"/>
              <Attribute id="97" value="0" name="mixToMono"/>
             </Attributes>
             <MetaData>
              <entry key="WinSubProjectDisplayName" val=""/>
             </MetaData>
            </AMFile>
           </Medias>
          </GenericTrack>
         </StitchedMedia>
         <StitchedMedia id="98" start="3596" duration="8909" scalar="1/1" mediaStart="114/1" mediaDuration="8909/1" minMediaStart="0/1" >
          <Transformer>
           <VectorParam id="99"  name="translation">
            <InterpolatingParam id="100" interp="linr"  time="0/1" value="0" leadInLength="0/1"  />
            <InterpolatingParam id="101" interp="linr"  time="0/1" value="0" leadInLength="0/1"  />
            <InterpolatingParam id="102" interp="linr"  time="0/1" value="0" leadInLength="0/1"  />
           </VectorParam>
           <VectorParam id="103"  name="rotation">
            <InterpolatingParam id="104" interp="linr"  time="0/1" value="0" leadInLength="0/1"  />
            <InterpolatingParam id="105" interp="linr"  time="0/1" value="0" leadInLength="0/1"  />
            <InterpolatingParam id="106" interp="linr"  time="0/1" value="0" leadInLength="0/1"  />
           </VectorParam>
           <VectorParam id="107"  name="shear">
            <InterpolatingParam id="108" interp="linr"  time="0/1" value="0" leadInLength="0/1"  />
            <InterpolatingParam id="109" interp="linr"  time="0/1" value="0" leadInLength="0/1"  />
            <InterpolatingParam id="110" interp="linr"  time="0/1" value="0" leadInLength="0/1"  />
           </VectorParam>
           <VectorParam id="111"  name="scale">
            <InterpolatingParam id="112" interp="linr"  time="0/1" value="1" leadInLength="0/1"  />
            <InterpolatingParam id="113" interp="linr"  time="0/1" value="1" leadInLength="0/1"  />
            <InterpolatingParam id="114" interp="linr"  time="0/1" value="1" leadInLength="0/1"  />
           </VectorParam>
           <VectorParam id="115"  name="anchor">
            <InterpolatingParam id="116" interp="linr"  time="0/1" value="0" leadInLength="0/1"  />
            <InterpolatingParam id="117" interp="linr"  time="0/1" value="0" leadInLength="0/1"  />
            <InterpolatingParam id="118" interp="linr"  time="0/1" value="0" leadInLength="0/1"  />
           </VectorParam>
          </Transformer>
          <Parameters>
           <InterpolatingParam id="119" interp="linr"  time="0/1" value="1" leadInLength="0/1"  name="cursorOpacity"/>
           <InterpolatingParam id="120" interp="linr"  time="0/1" value="1" leadInLength="0/1"  name="cursorScale"/>
           <InterpolatingParam id="121" interp="linr"  time="0/1" value="1" leadInLength="0/1"  name="volume"/>
           <Parameter id="122"  name="captions"/>
          </Parameters>
          <Attributes>
           <Attribute id="123" value="" name="ident"/>
           <Attribute id="124" value="0" name="mixToMono"/>
          </Attributes>
          <MetaData>
           <entry key="WinSubProjectDisplayName" val=""/>
          </MetaData>
          <ExtraData>
           <Entry key="ZoomPanBin">
            <ZoomPanBin id="125"  >
             <ZoomPanKeyframes>
             </ZoomPanKeyframes>
            </ZoomPanBin>
           </Entry>
           <Entry key="CursorEffectBin">
            <CursorEffectBin id="126"  >
             <CursorEffectKeyframes>
             </CursorEffectKeyframes>
            </CursorEffectBin>
           </Entry>
          </ExtraData>
          <GenericTrack id="127"  >
           <Attributes>
            <Attribute id="128" value="" name="ident"/>
            <Attribute id="129" value="0" name="audioMuted"/>
            <Attribute id="130" value="0" name="videoHidden"/>
           </Attributes>
           <MetaData>
            <entry key="IsLocked" val="False"/>
            <entry key="WinTrackHeight" val="0"/>
           </MetaData>
           <Medias>
            <AMFile id="131" start="0" duration="552" scalar="1/1" mediaStart="0/1" mediaDuration="552/1" trackNumber="2" src="4" channelNumber="0,1" >
             <Parameters>
              <InterpolatingParam id="132" interp="linr"  time="0/1" value="1" leadInLength="0/1"  name="volume"/>
              <Parameter id="133"  name="captions"/>
             </Parameters>
             <Attributes>
              <Attribute id="134" value="" name="ident"/>
              <Attribute id="135" value="44100" name="sampleRate"/>
              <Attribute id="136" value="16" name="bitDepth"/>
              <Attribute id="137" value="1" name="gain"/>
              <Attribute id="138" value="0" name="mixToMono"/>
             </Attributes>
             <MetaData>
              <entry key="WinSubProjectDisplayName" val=""/>
             </MetaData>
            </AMFile>
            <AMFile id="139" start="552" duration="128" scalar="1/1" mediaStart="606/1" mediaDuration="128/1" trackNumber="2" src="4" channelNumber="0,1" >
             <Parameters>
              <InterpolatingParam id="140" interp="linr"  time="0/1" value="1" leadInLength="0/1"  name="volume"/>
              <Parameter id="141"  name="captions"/>
             </Parameters>
             <Attributes>
              <Attribute id="142" value="" name="ident"/>
              <Attribute id="143" value="44100" name="sampleRate"/>
              <Attribute id="144" value="16" name="bitDepth"/>
              <Attribute id="145" value="1" name="gain"/>
              <Attribute id="146" value="0" name="mixToMono"/>
             </Attributes>
             <MetaData>
              <entry key="WinSubProjectDisplayName" val=""/>
             </MetaData>
            </AMFile>
            <AMFile id="147" start="680" duration="1218" scalar="1/1" mediaStart="753/1" mediaDuration="1218/1" trackNumber="2" src="4" channelNumber="0,1" >
             <Parameters>
              <InterpolatingParam id="148" interp="linr"  time="0/1" value="1" leadInLength="0/1"  name="volume"/>
              <Parameter id="149"  name="captions"/>
             </Parameters>
             <Attributes>
              <Attribute id="150" value="" name="ident"/>
              <Attribute id="151" value="44100" name="sampleRate"/>
              <Attribute id="152" value="16" name="bitDepth"/>
              <Attribute id="153" value="1" name="gain"/>
              <Attribute id="154" value="0" name="mixToMono"/>
             </Attributes>
             <MetaData>
              <entry key="WinSubProjectDisplayName" val=""/>
             </MetaData>
            </AMFile>
            <AMFile id="155" start="1898" duration="269" scalar="1/1" mediaStart="2088/1" mediaDuration="269/1" trackNumber="2" src="4" channelNumber="0,1" >
             <Parameters>
              <InterpolatingParam id="156" interp="linr"  time="0/1" value="1" leadInLength="0/1"  name="volume"/>
              <Parameter id="157"  name="captions"/>
             </Parameters>
             <Attributes>
              <Attribute id="158" value="" name="ident"/>
              <Attribute id="159" value="44100" name="sampleRate"/>
              <Attribute id="160" value="16" name="bitDepth"/>
              <Attribute id="161" value="1" name="gain"/>
              <Attribute id="162" value="0" name="mixToMono"/>
             </Attributes>
             <MetaData>
              <entry key="WinSubProjectDisplayName" val=""/>
             </MetaData>
            </AMFile>
            <AMFile id="163" start="2167" duration="95" scalar="1/1" mediaStart="2369/1" mediaDuration="95/1" trackNumber="2" src="4" channelNumber="0,1" >
             <Parameters>
              <InterpolatingParam id="164" interp="linr"  time="0/1" value="1" leadInLength="0/1"  name="volume"/>
              <Parameter id="165"  name="captions"/>
             </Parameters>
             <Attributes>
              <Attribute id="166" value="" name="ident"/>
              <Attribute id="167" value="44100" name="sampleRate"/>
              <Attribute id="168" value="16" name="bitDepth"/>
              <Attribute id="169" value="1" name="gain"/>
              <Attribute id="170" value="0" name="mixToMono"/>
             </Attributes>
             <MetaData>
              <entry key="WinSubProjectDisplayName" val=""/>
             </MetaData>
            </AMFile>
            <AMFile id="171" start="2262" duration="84" scalar="1/1" mediaStart="2477/1" mediaDuration="84/1" trackNumber="2" src="4" channelNumber="0,1" >
             <Parameters>
              <InterpolatingParam id="172" interp="linr"  time="0/1" value="1" leadInLength="0/1"  name="volume"/>
              <Parameter id="173"  name="captions"/>
             </Parameters>
             <Attributes>
              <Attribute id="174" value="" name="ident"/>
              <Attribute id="175" value="44100" name="sampleRate"/>
              <Attribute id="176" value="16" name="bitDepth"/>
              <Attribute id="177" value="1" name="gain"/>
              <Attribute id="178" value="0" name="mixToMono"/>
             </Attributes>
             <MetaData>
              <entry key="WinSubProjectDisplayName" val=""/>
             </MetaData>
            </AMFile>
            <AMFile id="179" start="2346" duration="283" scalar="1/1" mediaStart="2574/1" mediaDuration="283/1" trackNumber="2" src="4" channelNumber="0,1" >
             <Parameters>
              <InterpolatingParam id="180" interp="linr"  time="0/1" value="1" leadInLength="0/1"  name="volume"/>
              <Parameter id="181"  name="captions"/>
             </Parameters>
             <Attributes>
              <Attribute id="182" value="" name="ident"/>
              <Attribute id="183" value="44100" name="sampleRate"/>
              <Attribute id="184" value="16" name="bitDepth"/>
              <Attribute id="185" value="1" name="gain"/>
              <Attribute id="186" value="0" name="mixToMono"/>
             </Attributes>
             <MetaData>
              <entry key="WinSubProjectDisplayName" val=""/>
             </MetaData>
            </AMFile>
            <AMFile id="187" start="2629" duration="165" scalar="1/1" mediaStart="2866/1" mediaDuration="165/1" trackNumber="2" src="4" channelNumber="0,1" >
             <Parameters>
              <InterpolatingParam id="188" interp="linr"  time="0/1" value="1" leadInLength="0/1"  name="volume"/>
              <Parameter id="189"  name="captions"/>
             </Parameters>
             <Attributes>
              <Attribute id="190" value="" name="ident"/>
              <Attribute id="191" value="44100" name="sampleRate"/>
              <Attribute id="192" value="16" name="bitDepth"/>
              <Attribute id="193" value="1" name="gain"/>
              <Attribute id="194" value="0" name="mixToMono"/>
             </Attributes>
             <MetaData>
              <entry key="WinSubProjectDisplayName" val=""/>
             </MetaData>
            </AMFile>
            <AMFile id="195" start="2794" duration="438" scalar="1/1" mediaStart="3053/1" mediaDuration="438/1" trackNumber="2" src="4" channelNumber="0,1" >
             <Parameters>
              <InterpolatingParam id="196" interp="linr"  time="0/1" value="1" leadInLength="0/1"  name="volume"/>
              <Parameter id="197"  name="captions"/>
             </Parameters>
             <Attributes>
              <Attribute id="198" value="" name="ident"/>
              <Attribute id="199" value="44100" name="sampleRate"/>
              <Attribute id="200" value="16" name="bitDepth"/>
              <Attribute id="201" value="1" name="gain"/>
              <Attribute id="202" value="0" name="mixToMono"/>
             </Attributes>
             <MetaData>
              <entry key="WinSubProjectDisplayName" val=""/>
             </MetaData>
            </AMFile>
            <AMFile id="203" start="3232" duration="290" scalar="1/1" mediaStart="3505/1" mediaDuration="290/1" trackNumber="2" src="4" channelNumber="0,1" >
             <Parameters>
              <InterpolatingParam id="204" interp="linr"  time="0/1" value="1" leadInLength="0/1"  name="volume"/>
              <Parameter id="205"  name="captions"/>
             </Parameters>
             <Attributes>
              <Attribute id="206" value="" name="ident"/>
              <Attribute id="207" value="44100" name="sampleRate"/>
              <Attribute id="208" value="16" name="bitDepth"/>
              <Attribute id="209" value="1" name="gain"/>
              <Attribute id="210" value="0" name="mixToMono"/>
             </Attributes>
             <MetaData>
              <entry key="WinSubProjectDisplayName" val=""/>
             </MetaData>
            </AMFile>
            <AMFile id="211" start="3522" duration="67" scalar="1/1" mediaStart="3803/1" mediaDuration="67/1" trackNumber="2" src="4" channelNumber="0,1" >
             <Parameters>
              <InterpolatingParam id="212" interp="linr"  time="0/1" value="1" leadInLength="0/1"  name="volume"/>
              <Parameter id="213"  name="captions"/>
             </Parameters>
             <Attributes>
              <Attribute id="214" value="" name="ident"/>
              <Attribute id="215" value="44100" name="sampleRate"/>
              <Attribute id="216" value="16" name="bitDepth"/>
              <Attribute id="217" value="1" name="gain"/>
              <Attribute id="218" value="0" name="mixToMono"/>
             </Attributes>
             <MetaData>
              <entry key="WinSubProjectDisplayName" val=""/>
             </MetaData>
            </AMFile>
            <AMFile id="219" start="3589" duration="148" scalar="1/1" mediaStart="3933/1" mediaDuration="148/1" trackNumber="2" src="4" channelNumber="0,1" >
             <Parameters>
              <InterpolatingParam id="220" interp="linr"  time="0/1" value="1" leadInLength="0/1"  name="volume"/>
              <Parameter id="221"  name="captions"/>
             </Parameters>
             <Attributes>
              <Attribute id="222" value="" name="ident"/>
              <Attribute id="223" value="44100" name="sampleRate"/>
              <Attribute id="224" value="16" name="bitDepth"/>
              <Attribute id="225" value="1" name="gain"/>
              <Attribute id="226" value="0" name="mixToMono"/>
             </Attributes>
             <MetaData>
              <entry key="WinSubProjectDisplayName" val=""/>
             </MetaData>
            </AMFile>
            <AMFile id="227" start="3737" duration="81" scalar="1/1" mediaStart="4106/1" mediaDuration="81/1" trackNumber="2" src="4" channelNumber="0,1" >
             <Parameters>
              <InterpolatingParam id="228" interp="linr"  time="0/1" value="1" leadInLength="0/1"  name="volume"/>
              <Parameter id="229"  name="captions"/>
             </Parameters>
             <Attributes>
              <Attribute id="230" value="" name="ident"/>
              <Attribute id="231" value="44100" name="sampleRate"/>
              <Attribute id="232" value="16" name="bitDepth"/>
              <Attribute id="233" value="1" name="gain"/>
              <Attribute id="234" value="0" name="mixToMono"/>
             </Attributes>
             <MetaData>
              <entry key="WinSubProjectDisplayName" val=""/>
             </MetaData>
            </AMFile>
            <AMFile id="235" start="3818" duration="108" scalar="1/1" mediaStart="4201/1" mediaDuration="108/1" trackNumber="2" src="4" channelNumber="0,1" >
             <Parameters>
              <InterpolatingParam id="236" interp="linr"  time="0/1" value="1" leadInLength="0/1"  name="volume"/>
              <Parameter id="237"  name="captions"/>
             </Parameters>
             <Attributes>
              <Attribute id="238" value="" name="ident"/>
              <Attribute id="239" value="44100" name="sampleRate"/>
              <Attribute id="240" value="16" name="bitDepth"/>
              <Attribute id="241" value="1" name="gain"/>
              <Attribute id="242" value="0" name="mixToMono"/>
             </Attributes>
             <MetaData>
              <entry key="WinSubProjectDisplayName" val=""/>
             </MetaData>
            </AMFile>
            <AMFile id="243" start="3926" duration="501" scalar="1/1" mediaStart="4368/1" mediaDuration="501/1" trackNumber="2" src="4" channelNumber="0,1" >
             <Parameters>
              <InterpolatingParam id="244" interp="linr"  time="0/1" value="1" leadInLength="0/1"  name="volume"/>
              <Parameter id="245"  name="captions"/>
             </Parameters>
             <Attributes>
              <Attribute id="246" value="" name="ident"/>
              <Attribute id="247" value="44100" name="sampleRate"/>
              <Attribute id="248" value="16" name="bitDepth"/>
              <Attribute id="249" value="1" name="gain"/>
              <Attribute id="250" value="0" name="mixToMono"/>
             </Attributes>
             <MetaData>
              <entry key="WinSubProjectDisplayName" val=""/>
             </MetaData>
            </AMFile>
            <AMFile id="251" start="4427" duration="1847" scalar="1/1" mediaStart="4975/1" mediaDuration="1847/1" trackNumber="2" src="4" channelNumber="0,1" >
             <Parameters>
              <InterpolatingParam id="252" interp="linr"  time="0/1" value="1" leadInLength="0/1"  name="volume"/>
              <Parameter id="253"  name="captions"/>
             </Parameters>
             <Attributes>
              <Attribute id="254" value="" name="ident"/>
              <Attribute id="255" value="44100" name="sampleRate"/>
              <Attribute id="256" value="16" name="bitDepth"/>
              <Attribute id="257" value="1" name="gain"/>
              <Attribute id="258" value="0" name="mixToMono"/>
             </Attributes>
             <MetaData>
              <entry key="WinSubProjectDisplayName" val=""/>
             </MetaData>
            </AMFile>
            <AMFile id="259" start="6274" duration="1100" scalar="1/1" mediaStart="7006/1" mediaDuration="1100/1" trackNumber="2" src="4" channelNumber="0,1" >
             <Parameters>
              <InterpolatingParam id="260" interp="linr"  time="0/1" value="1" leadInLength="0/1"  name="volume"/>
              <Parameter id="261"  name="captions"/>
             </Parameters>
             <Attributes>
              <Attribute id="262" value="" name="ident"/>
              <Attribute id="263" value="44100" name="sampleRate"/>
              <Attribute id="264" value="16" name="bitDepth"/>
              <Attribute id="265" value="1" name="gain"/>
              <Attribute id="266" value="0" name="mixToMono"/>
             </Attributes>
             <MetaData>
              <entry key="WinSubProjectDisplayName" val=""/>
             </MetaData>
            </AMFile>
            <AMFile id="267" start="7374" duration="79" scalar="1/1" mediaStart="8131/1" mediaDuration="79/1" trackNumber="2" src="4" channelNumber="0,1" >
             <Parameters>
              <InterpolatingParam id="268" interp="linr"  time="0/1" value="1" leadInLength="0/1"  name="volume"/>
              <Parameter id="269"  name="captions"/>
             </Parameters>
             <Attributes>
              <Attribute id="270" value="" name="ident"/>
              <Attribute id="271" value="44100" name="sampleRate"/>
              <Attribute id="272" value="16" name="bitDepth"/>
              <Attribute id="273" value="1" name="gain"/>
              <Attribute id="274" value="0" name="mixToMono"/>
             </Attributes>
             <MetaData>
              <entry key="WinSubProjectDisplayName" val=""/>
             </MetaData>
            </AMFile>
            <AMFile id="275" start="7453" duration="162" scalar="1/1" mediaStart="8229/1" mediaDuration="162/1" trackNumber="2" src="4" channelNumber="0,1" >
             <Parameters>
              <InterpolatingParam id="276" interp="linr"  time="0/1" value="1" leadInLength="0/1"  name="volume"/>
              <Parameter id="277"  name="captions"/>
             </Parameters>
             <Attributes>
              <Attribute id="278" value="" name="ident"/>
              <Attribute id="279" value="44100" name="sampleRate"/>
              <Attribute id="280" value="16" name="bitDepth"/>
              <Attribute id="281" value="1" name="gain"/>
              <Attribute id="282" value="0" name="mixToMono"/>
             </Attributes>
             <MetaData>
              <entry key="WinSubProjectDisplayName" val=""/>
             </MetaData>
            </AMFile>
            <AMFile id="283" start="7615" duration="188" scalar="1/1" mediaStart="8407/1" mediaDuration="188/1" trackNumber="2" src="4" channelNumber="0,1" >
             <Parameters>
              <InterpolatingParam id="284" interp="linr"  time="0/1" value="1" leadInLength="0/1"  name="volume"/>
              <Parameter id="285"  name="captions"/>
             </Parameters>
             <Attributes>
              <Attribute id="286" value="" name="ident"/>
              <Attribute id="287" value="44100" name="sampleRate"/>
              <Attribute id="288" value="16" name="bitDepth"/>
              <Attribute id="289" value="1" name="gain"/>
              <Attribute id="290" value="0" name="mixToMono"/>
             </Attributes>
             <MetaData>
              <entry key="WinSubProjectDisplayName" val=""/>
             </MetaData>
            </AMFile>
            <AMFile id="291" start="7803" duration="370" scalar="1/1" mediaStart="8619/1" mediaDuration="370/1" trackNumber="2" src="4" channelNumber="0,1" >
             <Parameters>
              <InterpolatingParam id="292" interp="linr"  time="0/1" value="1" leadInLength="0/1"  name="volume"/>
              <Parameter id="293"  name="captions"/>
             </Parameters>
             <Attributes>
              <Attribute id="294" value="" name="ident"/>
              <Attribute id="295" value="44100" name="sampleRate"/>
              <Attribute id="296" value="16" name="bitDepth"/>
              <Attribute id="297" value="1" name="gain"/>
              <Attribute id="298" value="0" name="mixToMono"/>
             </Attributes>
             <MetaData>
              <entry key="WinSubProjectDisplayName" val=""/>
             </MetaData>
            </AMFile>
            <AMFile id="299" start="8173" duration="291" scalar="1/1" mediaStart="9012/1" mediaDuration="291/1" trackNumber="2" src="4" channelNumber="0,1" >
             <Parameters>
              <InterpolatingParam id="300" interp="linr"  time="0/1" value="1" leadInLength="0/1"  name="volume"/>
              <Parameter id="301"  name="captions"/>
             </Parameters>
             <Attributes>
              <Attribute id="302" value="" name="ident"/>
              <Attribute id="303" value="44100" name="sampleRate"/>
              <Attribute id="304" value="16" name="bitDepth"/>
              <Attribute id="305" value="1" name="gain"/>
              <Attribute id="306" value="0" name="mixToMono"/>
             </Attributes>
             <MetaData>
              <entry key="WinSubProjectDisplayName" val=""/>
             </MetaData>
            </AMFile>
            <AMFile id="307" start="8464" duration="70" scalar="1/1" mediaStart="9349/1" mediaDuration="70/1" trackNumber="2" src="4" channelNumber="0,1" >
             <Parameters>
              <InterpolatingParam id="308" interp="linr"  time="0/1" value="1" leadInLength="0/1"  name="volume"/>
              <Parameter id="309"  name="captions"/>
             </Parameters>
             <Attributes>
              <Attribute id="310" value="" name="ident"/>
              <Attribute id="311" value="44100" name="sampleRate"/>
              <Attribute id="312" value="16" name="bitDepth"/>
              <Attribute id="313" value="1" name="gain"/>
              <Attribute id="314" value="0" name="mixToMono"/>
             </Attributes>
             <MetaData>
              <entry key="WinSubProjectDisplayName" val=""/>
             </MetaData>
            </AMFile>
            <AMFile id="315" start="8534" duration="20" scalar="1/1" mediaStart="9441/1" mediaDuration="20/1" trackNumber="2" src="4" channelNumber="0,1" >
             <Parameters>
              <InterpolatingParam id="316" interp="linr"  time="0/1" value="1" leadInLength="0/1"  name="volume"/>
              <Parameter id="317"  name="captions"/>
             </Parameters>
             <Attributes>
              <Attribute id="318" value="" name="ident"/>
              <Attribute id="319" value="44100" name="sampleRate"/>
              <Attribute id="320" value="16" name="bitDepth"/>
              <Attribute id="321" value="1" name="gain"/>
              <Attribute id="322" value="0" name="mixToMono"/>
             </Attributes>
             <MetaData>
              <entry key="WinSubProjectDisplayName" val=""/>
             </MetaData>
            </AMFile>
            <AMFile id="323" start="8554" duration="7" scalar="1/1" mediaStart="9489/1" mediaDuration="7/1" trackNumber="2" src="4" channelNumber="0,1" >
             <Parameters>
              <InterpolatingParam id="324" interp="linr"  time="0/1" value="1" leadInLength="0/1"  name="volume"/>
              <Parameter id="325"  name="captions"/>
             </Parameters>
             <Attributes>
              <Attribute id="326" value="" name="ident"/>
              <Attribute id="327" value="44100" name="sampleRate"/>
              <Attribute id="328" value="16" name="bitDepth"/>
              <Attribute id="329" value="1" name="gain"/>
              <Attribute id="330" value="0" name="mixToMono"/>
             </Attributes>
             <MetaData>
              <entry key="WinSubProjectDisplayName" val=""/>
             </MetaData>
            </AMFile>
            <AMFile id="331" start="8561" duration="17" scalar="1/1" mediaStart="9510/1" mediaDuration="17/1" trackNumber="2" src="4" channelNumber="0,1" >
             <Parameters>
              <InterpolatingParam id="332" interp="linr"  time="0/1" value="1" leadInLength="0/1"  name="volume"/>
              <Parameter id="333"  name="captions"/>
             </Parameters>
             <Attributes>
              <Attribute id="334" value="" name="ident"/>
              <Attribute id="335" value="44100" name="sampleRate"/>
              <Attribute id="336" value="16" name="bitDepth"/>
              <Attribute id="337" value="1" name="gain"/>
              <Attribute id="338" value="0" name="mixToMono"/>
             </Attributes>
             <MetaData>
              <entry key="WinSubProjectDisplayName" val=""/>
             </MetaData>
            </AMFile>
            <AMFile id="339" start="8578" duration="48" scalar="1/1" mediaStart="9549/1" mediaDuration="48/1" trackNumber="2" src="4" channelNumber="0,1" >
             <Parameters>
              <InterpolatingParam id="340" interp="linr"  time="0/1" value="1" leadInLength="0/1"  name="volume"/>
              <Parameter id="341"  name="captions"/>
             </Parameters>
             <Attributes>
              <Attribute id="342" value="" name="ident"/>
              <Attribute id="343" value="44100" name="sampleRate"/>
              <Attribute id="344" value="16" name="bitDepth"/>
              <Attribute id="345" value="1" name="gain"/>
              <Attribute id="346" value="0" name="mixToMono"/>
             </Attributes>
             <MetaData>
              <entry key="WinSubProjectDisplayName" val=""/>
             </MetaData>
            </AMFile>
            <AMFile id="347" start="8626" duration="272" scalar="1/1" mediaStart="9694/1" mediaDuration="272/1" trackNumber="2" src="4" channelNumber="0,1" >
             <Parameters>
              <InterpolatingParam id="348" interp="linr"  time="0/1" value="1" leadInLength="0/1"  name="volume"/>
              <Parameter id="349"  name="captions"/>
             </Parameters>
             <Attributes>
              <Attribute id="350" value="" name="ident"/>
              <Attribute id="351" value="44100" name="sampleRate"/>
              <Attribute id="352" value="16" name="bitDepth"/>
              <Attribute id="353" value="1" name="gain"/>
              <Attribute id="354" value="0" name="mixToMono"/>
             </Attributes>
             <MetaData>
              <entry key="WinSubProjectDisplayName" val=""/>
             </MetaData>
            </AMFile>
            <AMFile id="355" start="8898" duration="22" scalar="1/1" mediaStart="9987/1" mediaDuration="22/1" trackNumber="2" src="4" channelNumber="0,1" >
             <Parameters>
              <InterpolatingParam id="356" interp="linr"  time="0/1" value="1" leadInLength="0/1"  name="volume"/>
              <Parameter id="357"  name="captions"/>
             </Parameters>
             <Attributes>
              <Attribute id="358" value="" name="ident"/>
              <Attribute id="359" value="44100" name="sampleRate"/>
              <Attribute id="360" value="16" name="bitDepth"/>
              <Attribute id="361" value="1" name="gain"/>
              <Attribute id="362" value="0" name="mixToMono"/>
             </Attributes>
             <MetaData>
              <entry key="WinSubProjectDisplayName" val=""/>
             </MetaData>
            </AMFile>
            <AMFile id="363" start="8920" duration="103" scalar="1/1" mediaStart="10097/1" mediaDuration="103/1" trackNumber="2" src="4" channelNumber="0,1" >
             <Parameters>
              <InterpolatingParam id="364" interp="linr"  time="0/1" value="1" leadInLength="0/1"  name="volume"/>
              <Parameter id="365"  name="captions"/>
             </Parameters>
             <Attributes>
              <Attribute id="366" value="" name="ident"/>
              <Attribute id="367" value="44100" name="sampleRate"/>
              <Attribute id="368" value="16" name="bitDepth"/>
              <Attribute id="369" value="1" name="gain"/>
              <Attribute id="370" value="0" name="mixToMono"/>
             </Attributes>
             <MetaData>
              <entry key="WinSubProjectDisplayName" val=""/>
             </MetaData>
            </AMFile>
           </Medias>
          </GenericTrack>
         </StitchedMedia>
        </Medias>
       </GenericTrack>
       <GenericTrack id="371"  >
        <Attributes>
         <Attribute id="372" value="" name="ident"/>
         <Attribute id="373" value="0" name="audioMuted"/>
         <Attribute id="374" value="0" name="videoHidden"/>
        </Attributes>
        <MetaData>
         <entry key="IsLocked" val="False"/>
         <entry key="WinTrackHeight" val="59.613636363636367"/>
        </MetaData>
        <Medias>
         <StitchedMedia id="375" start="0" duration="3596" scalar="1/1" mediaStart="0/1" mediaDuration="3596/1" minMediaStart="0/1" >
          <Transformer>
           <VectorParam id="376"  name="translation">
            <InterpolatingParam id="377" interp="linr"  time="-9999999/1" value="0" leadInLength="0/1"  />
            <InterpolatingParam id="378" interp="linr"  time="-9999999/1" value="0" leadInLength="0/1"  />
            <InterpolatingParam id="379" interp="linr"  time="-9999999/1" value="0" leadInLength="0/1"  />
           </VectorParam>
           <VectorParam id="380"  name="rotation">
            <InterpolatingParam id="381" interp="linr"  time="-9999999/1" value="0" leadInLength="0/1"  />
            <InterpolatingParam id="382" interp="linr"  time="-9999999/1" value="0" leadInLength="0/1"  />
            <InterpolatingParam id="383" interp="linr"  time="-9999999/1" value="0" leadInLength="0/1"  />
           </VectorParam>
           <VectorParam id="384"  name="shear">
            <InterpolatingParam id="385" interp="linr"  time="-9999999/1" value="0" leadInLength="0/1"  />
            <InterpolatingParam id="386" interp="linr"  time="-9999999/1" value="0" leadInLength="0/1"  />
            <InterpolatingParam id="387" interp="linr"  time="-9999999/1" value="0" leadInLength="0/1"  />
           </VectorParam>
           <VectorParam id="388"  name="scale">
            <InterpolatingParam id="389" interp="linr"  time="-9999999/1" value="0.93695014662756593" leadInLength="0/1"  />
            <InterpolatingParam id="390" interp="linr"  time="-9999999/1" value="0.93695014662756593" leadInLength="0/1"  />
            <InterpolatingParam id="391" interp="linr"  time="-9999999/1" value="1" leadInLength="0/1"  />
           </VectorParam>
           <VectorParam id="392"  name="anchor">
            <InterpolatingParam id="393" interp="linr"  time="0/1" value="0" leadInLength="0/1"  />
            <InterpolatingParam id="394" interp="linr"  time="0/1" value="0" leadInLength="0/1"  />
            <InterpolatingParam id="395" interp="linr"  time="0/1" value="0" leadInLength="0/1"  />
           </VectorParam>
          </Transformer>
          <Parameters>
           <VectorParam id="396"  name="sourceCrop">
            <InterpolatingParam id="397" interp="linr"  time="0/1" value="0" leadInLength="0/1"  />
            <InterpolatingParam id="398" interp="linr"  time="0/1" value="0" leadInLength="0/1"  />
            <InterpolatingParam id="399" interp="linr"  time="0/1" value="0" leadInLength="0/1"  />
            <InterpolatingParam id="400" interp="linr"  time="0/1" value="0" leadInLength="0/1"  />
           </VectorParam>
           <VectorParam id="401"  name="geometryCrop">
            <InterpolatingParam id="402" interp="linr"  time="-9999999/1" value="0" leadInLength="0/1"  />
            <InterpolatingParam id="403" interp="linr"  time="-9999999/1" value="0" leadInLength="0/1"  />
            <InterpolatingParam id="404" interp="linr"  time="-9999999/1" value="0" leadInLength="0/1"  />
            <InterpolatingParam id="405" interp="linr"  time="-9999999/1" value="0" leadInLength="0/1"  />
           </VectorParam>
           <InterpolatingParam id="406" interp="linr"  time="-9999999/1" value="1" leadInLength="0/1"  name="opacity"/>
           <InterpolatingParam id="407" interp="linr"  time="0/1" value="1" leadInLength="0/1"  name="cursorOpacity"/>
           <InterpolatingParam id="408" interp="linr"  time="0/1" value="1" leadInLength="0/1"  name="cursorScale"/>
           <InterpolatingParam id="409" interp="linr"  time="0/1" value="1" leadInLength="0/1"  name="volume"/>
           <Parameter id="410"  name="captions"/>
          </Parameters>
          <Effects>
           <GenericEffect id="411" name = "CursorBaseEffectName" >
            <Parameters>
            <InterpolatingParam id="412" interp="linr"  time="-9999999/1" value="1" leadInLength="0/1"   name="cursorSize"/>
            <InterpolatingParam id="413" interp="linr"  time="-9999999/1" value="0" leadInLength="0/1"   name="highlightBlurRadius"/>
            <InterpolatingParam id="414" interp="linr"  time="-9999999/1" value="0" leadInLength="0/1"   name="highlightColorBlue"/>
            <InterpolatingParam id="415" interp="linr"  time="-9999999/1" value="255" leadInLength="0/1"   name="highlightColorGreen"/>
            <InterpolatingParam id="416" interp="linr"  time="-9999999/1" value="255" leadInLength="0/1"   name="highlightColorRed"/>
            <InterpolatingParam id="417" interp="linr"  time="-9999999/1" value="5" leadInLength="0/1"   name="highlightFeatherSize"/>
            <InterpolatingParam id="418" interp="linr"  time="-9999999/1" value="2" leadInLength="0/1"   name="highlightMagnification"/>
            <InterpolatingParam id="419" interp="linr"  time="-9999999/1" value="1" leadInLength="0/1"   name="highlightOpacity"/>
            <InterpolatingParam id="420" interp="linr"  time="-9999999/1" value="45" leadInLength="0/1"   name="highlightSize"/>
            <Parameter id="421"   name="highlightType">
             <Keyframes>
             <Keyframe id="422"  time="-9999999/1" value="0" leadInLength="0/1"  />
             </Keyframes>
            </Parameter>
            <InterpolatingParam id="423" interp="linr"  time="-9999999/1" value="0" leadInLength="0/1"   name="leftClickColorBlue"/>
            <InterpolatingParam id="424" interp="linr"  time="-9999999/1" value="0" leadInLength="0/1"   name="leftClickColorGreen"/>
            <InterpolatingParam id="425" interp="linr"  time="-9999999/1" value="255" leadInLength="0/1"   name="leftClickColorRed"/>
            <InterpolatingParam id="426" interp="linr"  time="-9999999/1" value="0.80000000000000004" leadInLength="0/1"   name="leftClickDuration"/>
            <InterpolatingParam id="427" interp="linr"  time="-9999999/1" value="20" leadInLength="0/1"   name="leftClickSize"/>
            <Parameter id="428"   name="leftClickSoundFilename">
             <Keyframes>
             <Keyframe id="429"  time="-9999999/1" value="" leadInLength="0/1"  />
             </Keyframes>
            </Parameter>
            <InterpolatingParam id="430" interp="linr"  time="-9999999/1" value="1" leadInLength="0/1"   name="leftClickSoundVolume"/>
            <Parameter id="431"   name="leftClickType">
             <Keyframes>
             <Keyframe id="432"  time="-9999999/1" value="0" leadInLength="0/1"  />
             </Keyframes>
            </Parameter>
            <InterpolatingParam id="433" interp="linr"  time="-9999999/1" value="1" leadInLength="0/1"   name="opacity"/>
            <InterpolatingParam id="434" interp="linr"  time="-9999999/1" value="255" leadInLength="0/1"   name="rightClickColorBlue"/>
            <InterpolatingParam id="435" interp="linr"  time="-9999999/1" value="0" leadInLength="0/1"   name="rightClickColorGreen"/>
            <InterpolatingParam id="436" interp="linr"  time="-9999999/1" value="0" leadInLength="0/1"   name="rightClickColorRed"/>
            <InterpolatingParam id="437" interp="linr"  time="-9999999/1" value="0.80000000000000004" leadInLength="0/1"   name="rightClickDuration"/>
            <InterpolatingParam id="438" interp="linr"  time="-9999999/1" value="20" leadInLength="0/1"   name="rightClickSize"/>
            <Parameter id="439"   name="rightClickSoundFilename">
             <Keyframes>
             <Keyframe id="440"  time="-9999999/1" value="" leadInLength="0/1"  />
             </Keyframes>
            </Parameter>
            <InterpolatingParam id="441" interp="linr"  time="-9999999/1" value="1" leadInLength="0/1"   name="rightClickSoundVolume"/>
            <Parameter id="442"   name="rightClickType">
             <Keyframes>
             <Keyframe id="443"  time="-9999999/1" value="0" leadInLength="0/1"  />
             </Keyframes>
            </Parameter>
            </Parameters>
            <MetaData>
             <entry key="effectIndex" val="0"/>
            </MetaData>
           </GenericEffect>
          </Effects>
          <Attributes>
           <Attribute id="444" value="" name="ident"/>
           <Attribute id="445" value="0" name="mixToMono"/>
          </Attributes>
          <MetaData>
           <entry key="AutoAppliedSmartFocus" val="False"/>
           <entry key="WinSubProjectDisplayName" val=""/>
          </MetaData>
          <ExtraData>
           <Entry key="ZoomPanBin">
            <ZoomPanBin id="446"  >
             <ZoomPanKeyframes>
              <ZoomPanKeyframe id="447" timeRangeEnd="-9999999/1" timeRangeDuration="0/1" interpolaterName="linr"  />
             </ZoomPanKeyframes>
            </ZoomPanBin>
           </Entry>
           <Entry key="CursorEffectBin">
            <CursorEffectBin id="448"  >
             <CursorEffectKeyframes>
              <CursorEffectKeyframe id="449" timeRangeEnd="-9999999/1" timeRangeDuration="0/1" interpolaterName=""  />
             </CursorEffectKeyframes>
            </CursorEffectBin>
           </Entry>
          </ExtraData>
          <GenericTrack id="450"  >
           <Attributes>
            <Attribute id="451" value="" name="ident"/>
            <Attribute id="452" value="0" name="audioMuted"/>
            <Attribute id="453" value="0" name="videoHidden"/>
           </Attributes>
           <MetaData>
            <entry key="IsLocked" val="False"/>
            <entry key="WinTrackHeight" val="0"/>
           </MetaData>
           <Medias>
            <UnifiedMedia id="454"  >
             <AMFile id="455" start="0" duration="113" scalar="1/1" mediaStart="0/1" mediaDuration="113/1" trackNumber="1" src="5" channelNumber="0,1" >
              <Parameters>
               <InterpolatingParam id="456" interp="linr"  time="0/1" value="1" leadInLength="0/1"  name="volume"/>
               <Parameter id="457"  name="captions"/>
              </Parameters>
              <Attributes>
               <Attribute id="458" value="" name="ident"/>
               <Attribute id="459" value="44100" name="sampleRate"/>
               <Attribute id="460" value="16" name="bitDepth"/>
               <Attribute id="461" value="1" name="gain"/>
               <Attribute id="462" value="0" name="mixToMono"/>
              </Attributes>
             </AMFile>
             <ScreenVMFile id="463" start="0" duration="113" scalar="1/1" mediaStart="0/1" mediaDuration="113/1" trackNumber="0" src="5" >
              <Transformer>
               <VectorParam id="464"  name="translation">
                <InterpolatingParam id="465" interp="linr"  time="-9999999/1" value="0" leadInLength="0/1"  />
                <InterpolatingParam id="466" interp="linr"  time="-9999999/1" value="0" leadInLength="0/1"  />
                <InterpolatingParam id="467" interp="linr"  time="-9999999/1" value="0" leadInLength="0/1"  />
               </VectorParam>
               <VectorParam id="468"  name="rotation">
                <InterpolatingParam id="469" interp="linr"  time="-9999999/1" value="0" leadInLength="0/1"  />
                <InterpolatingParam id="470" interp="linr"  time="-9999999/1" value="0" leadInLength="0/1"  />
                <InterpolatingParam id="471" interp="linr"  time="-9999999/1" value="0" leadInLength="0/1"  />
               </VectorParam>
               <VectorParam id="472"  name="shear">
                <InterpolatingParam id="473" interp="linr"  time="-9999999/1" value="0" leadInLength="0/1"  />
                <InterpolatingParam id="474" interp="linr"  time="-9999999/1" value="0" leadInLength="0/1"  />
                <InterpolatingParam id="475" interp="linr"  time="-9999999/1" value="0" leadInLength="0/1"  />
               </VectorParam>
               <VectorParam id="476"  name="scale">
                <InterpolatingParam id="477" interp="linr"  time="-9999999/1" value="1" leadInLength="0/1"  />
                <InterpolatingParam id="478" interp="linr"  time="-9999999/1" value="1" leadInLength="0/1"  />
                <InterpolatingParam id="479" interp="linr"  time="-9999999/1" value="1" leadInLength="0/1"  />
               </VectorParam>
               <VectorParam id="480"  name="anchor">
                <InterpolatingParam id="481" interp="linr"  time="0/1" value="0" leadInLength="0/1"  />
                <InterpolatingParam id="482" interp="linr"  time="0/1" value="0" leadInLength="0/1"  />
                <InterpolatingParam id="483" interp="linr"  time="0/1" value="0" leadInLength="0/1"  />
               </VectorParam>
              </Transformer>
              <Parameters>
               <VectorParam id="484"  name="sourceCrop">
                <InterpolatingParam id="485" interp="linr"  time="0/1" value="0" leadInLength="0/1"  />
                <InterpolatingParam id="486" interp="linr"  time="0/1" value="0" leadInLength="0/1"  />
                <InterpolatingParam id="487" interp="linr"  time="0/1" value="0" leadInLength="0/1"  />
                <InterpolatingParam id="488" interp="linr"  time="0/1" value="0" leadInLength="0/1"  />
               </VectorParam>
               <VectorParam id="489"  name="geometryCrop">
                <InterpolatingParam id="490" interp="linr"  time="-9999999/1" value="0" leadInLength="0/1"  />
                <InterpolatingParam id="491" interp="linr"  time="-9999999/1" value="0" leadInLength="0/1"  />
                <InterpolatingParam id="492" interp="linr"  time="-9999999/1" value="0" leadInLength="0/1"  />
                <InterpolatingParam id="493" interp="linr"  time="-9999999/1" value="0" leadInLength="0/1"  />
               </VectorParam>
               <InterpolatingParam id="494" interp="linr"  time="-9999999/1" value="1" leadInLength="0/1"  name="opacity"/>
               <InterpolatingParam id="495" interp="linr"  time="0/1" value="0" leadInLength="0/1"  name="cursorOpacity"/>
               <InterpolatingParam id="496" interp="linr"  time="0/1" value="0" leadInLength="0/1"  name="cursorScale"/>
              </Parameters>
              <Attributes>
               <Attribute id="497" value="" name="ident"/>
              </Attributes>
              <ExtraData>
               <Entry key="ZoomPanBin">
                <ZoomPanBin id="498"  >
                 <ZoomPanKeyframes>
                  <ZoomPanKeyframe id="499" timeRangeEnd="-9999999/1" timeRangeDuration="0/1" interpolaterName="linr"  />
                 </ZoomPanKeyframes>
                </ZoomPanBin>
               </Entry>
               <Entry key="CursorEffectBin">
                <CursorEffectBin id="500"  >
                 <CursorEffectKeyframes>
                 </CursorEffectKeyframes>
                </CursorEffectBin>
               </Entry>
              </ExtraData>
             </ScreenVMFile>
             <MetaData>
              <entry key="AutoAppliedSmartFocus" val="False"/>
              <entry key="WinSubProjectDisplayName" val=""/>
             </MetaData>
            </UnifiedMedia>
            <UnifiedMedia id="501"  >
             <AMFile id="502" start="113" duration="331" scalar="1/1" mediaStart="125/1" mediaDuration="331/1" trackNumber="1" src="5" channelNumber="0,1" >
              <Parameters>
               <InterpolatingParam id="503" interp="linr"  time="0/1" value="1" leadInLength="0/1"  name="volume"/>
               <Parameter id="504"  name="captions"/>
              </Parameters>
              <Attributes>
               <Attribute id="505" value="" name="ident"/>
               <Attribute id="506" value="44100" name="sampleRate"/>
               <Attribute id="507" value="16" name="bitDepth"/>
               <Attribute id="508" value="1" name="gain"/>
               <Attribute id="509" value="0" name="mixToMono"/>
              </Attributes>
             </AMFile>
             <ScreenVMFile id="510" start="113" duration="331" scalar="1/1" mediaStart="125/1" mediaDuration="331/1" trackNumber="0" src="5" >
              <Transformer>
               <VectorParam id="511"  name="translation">
                <InterpolatingParam id="512" interp="linr"  time="-9999999/1" value="0" leadInLength="0/1"  />
                <InterpolatingParam id="513" interp="linr"  time="-9999999/1" value="0" leadInLength="0/1"  />
                <InterpolatingParam id="514" interp="linr"  time="-9999999/1" value="0" leadInLength="0/1"  />
               </VectorParam>
               <VectorParam id="515"  name="rotation">
                <InterpolatingParam id="516" interp="linr"  time="-9999999/1" value="0" leadInLength="0/1"  />
                <InterpolatingParam id="517" interp="linr"  time="-9999999/1" value="0" leadInLength="0/1"  />
                <InterpolatingParam id="518" interp="linr"  time="-9999999/1" value="0" leadInLength="0/1"  />
               </VectorParam>
               <VectorParam id="519"  name="shear">
                <InterpolatingParam id="520" interp="linr"  time="-9999999/1" value="0" leadInLength="0/1"  />
                <InterpolatingParam id="521" interp="linr"  time="-9999999/1" value="0" leadInLength="0/1"  />
                <InterpolatingParam id="522" interp="linr"  time="-9999999/1" value="0" leadInLength="0/1"  />
               </VectorParam>
               <VectorParam id="523"  name="scale">
                <InterpolatingParam id="524" interp="linr"  time="-9999999/1" value="1" leadInLength="0/1"  />
                <InterpolatingParam id="525" interp="linr"  time="-9999999/1" value="1" leadInLength="0/1"  />
                <InterpolatingParam id="526" interp="linr"  time="-9999999/1" value="1" leadInLength="0/1"  />
               </VectorParam>
               <VectorParam id="527"  name="anchor">
                <InterpolatingParam id="528" interp="linr"  time="0/1" value="0" leadInLength="0/1"  />
                <InterpolatingParam id="529" interp="linr"  time="0/1" value="0" leadInLength="0/1"  />
                <InterpolatingParam id="530" interp="linr"  time="0/1" value="0" leadInLength="0/1"  />
               </VectorParam>
              </Transformer>
              <Parameters>
               <VectorParam id="531"  name="sourceCrop">
                <InterpolatingParam id="532" interp="linr"  time="0/1" value="0" leadInLength="0/1"  />
                <InterpolatingParam id="533" interp="linr"  time="0/1" value="0" leadInLength="0/1"  />
                <InterpolatingParam id="534" interp="linr"  time="0/1" value="0" leadInLength="0/1"  />
                <InterpolatingParam id="535" interp="linr"  time="0/1" value="0" leadInLength="0/1"  />
               </VectorParam>
               <VectorParam id="536"  name="geometryCrop">
                <InterpolatingParam id="537" interp="linr"  time="-9999999/1" value="0" leadInLength="0/1"  />
                <InterpolatingParam id="538" interp="linr"  time="-9999999/1" value="0" leadInLength="0/1"  />
                <InterpolatingParam id="539" interp="linr"  time="-9999999/1" value="0" leadInLength="0/1"  />
                <InterpolatingParam id="540" interp="linr"  time="-9999999/1" value="0" leadInLength="0/1"  />
               </VectorParam>
               <InterpolatingParam id="541" interp="linr"  time="-9999999/1" value="1" leadInLength="0/1"  name="opacity"/>
               <InterpolatingParam id="542" interp="linr"  time="0/1" value="0" leadInLength="0/1"  name="cursorOpacity"/>
               <InterpolatingParam id="543" interp="linr"  time="0/1" value="0" leadInLength="0/1"  name="cursorScale"/>
              </Parameters>
              <Attributes>
               <Attribute id="544" value="" name="ident"/>
              </Attributes>
              <ExtraData>
               <Entry key="ZoomPanBin">
                <ZoomPanBin id="545"  >
                 <ZoomPanKeyframes>
                  <ZoomPanKeyframe id="546" timeRangeEnd="-9999999/1" timeRangeDuration="0/1" interpolaterName="linr"  />
                 </ZoomPanKeyframes>
                </ZoomPanBin>
               </Entry>
               <Entry key="CursorEffectBin">
                <CursorEffectBin id="547"  >
                 <CursorEffectKeyframes>
                 </CursorEffectKeyframes>
                </CursorEffectBin>
               </Entry>
              </ExtraData>
             </ScreenVMFile>
             <MetaData>
              <entry key="AutoAppliedSmartFocus" val="False"/>
              <entry key="WinSubProjectDisplayName" val=""/>
             </MetaData>
            </UnifiedMedia>
            <UnifiedMedia id="548"  >
             <AMFile id="549" start="444" duration="216" scalar="1/1" mediaStart="491/1" mediaDuration="216/1" trackNumber="1" src="5" channelNumber="0,1" >
              <Parameters>
               <InterpolatingParam id="550" interp="linr"  time="0/1" value="1" leadInLength="0/1"  name="volume"/>
               <Parameter id="551"  name="captions"/>
              </Parameters>
              <Attributes>
               <Attribute id="552" value="" name="ident"/>
               <Attribute id="553" value="44100" name="sampleRate"/>
               <Attribute id="554" value="16" name="bitDepth"/>
               <Attribute id="555" value="1" name="gain"/>
               <Attribute id="556" value="0" name="mixToMono"/>
              </Attributes>
             </AMFile>
             <ScreenVMFile id="557" start="444" duration="216" scalar="1/1" mediaStart="491/1" mediaDuration="216/1" trackNumber="0" src="5" >
              <Transformer>
               <VectorParam id="558"  name="translation">
                <InterpolatingParam id="559" interp="linr"  time="-9999999/1" value="0" leadInLength="0/1"  />
                <InterpolatingParam id="560" interp="linr"  time="-9999999/1" value="0" leadInLength="0/1"  />
                <InterpolatingParam id="561" interp="linr"  time="-9999999/1" value="0" leadInLength="0/1"  />
               </VectorParam>
               <VectorParam id="562"  name="rotation">
                <InterpolatingParam id="563" interp="linr"  time="-9999999/1" value="0" leadInLength="0/1"  />
                <InterpolatingParam id="564" interp="linr"  time="-9999999/1" value="0" leadInLength="0/1"  />
                <InterpolatingParam id="565" interp="linr"  time="-9999999/1" value="0" leadInLength="0/1"  />
               </VectorParam>
               <VectorParam id="566"  name="shear">
                <InterpolatingParam id="567" interp="linr"  time="-9999999/1" value="0" leadInLength="0/1"  />
                <InterpolatingParam id="568" interp="linr"  time="-9999999/1" value="0" leadInLength="0/1"  />
                <InterpolatingParam id="569" interp="linr"  time="-9999999/1" value="0" leadInLength="0/1"  />
               </VectorParam>
               <VectorParam id="570"  name="scale">
                <InterpolatingParam id="571" interp="linr"  time="-9999999/1" value="1" leadInLength="0/1"  />
                <InterpolatingParam id="572" interp="linr"  time="-9999999/1" value="1" leadInLength="0/1"  />
                <InterpolatingParam id="573" interp="linr"  time="-9999999/1" value="1" leadInLength="0/1"  />
               </VectorParam>
               <VectorParam id="574"  name="anchor">
                <InterpolatingParam id="575" interp="linr"  time="0/1" value="0" leadInLength="0/1"  />
                <InterpolatingParam id="576" interp="linr"  time="0/1" value="0" leadInLength="0/1"  />
                <InterpolatingParam id="577" interp="linr"  time="0/1" value="0" leadInLength="0/1"  />
               </VectorParam>
              </Transformer>
              <Parameters>
               <VectorParam id="578"  name="sourceCrop">
                <InterpolatingParam id="579" interp="linr"  time="0/1" value="0" leadInLength="0/1"  />
                <InterpolatingParam id="580" interp="linr"  time="0/1" value="0" leadInLength="0/1"  />
                <InterpolatingParam id="581" interp="linr"  time="0/1" value="0" leadInLength="0/1"  />
                <InterpolatingParam id="582" interp="linr"  time="0/1" value="0" leadInLength="0/1"  />
               </VectorParam>
               <VectorParam id="583"  name="geometryCrop">
                <InterpolatingParam id="584" interp="linr"  time="-9999999/1" value="0" leadInLength="0/1"  />
                <InterpolatingParam id="585" interp="linr"  time="-9999999/1" value="0" leadInLength="0/1"  />
                <InterpolatingParam id="586" interp="linr"  time="-9999999/1" value="0" leadInLength="0/1"  />
                <InterpolatingParam id="587" interp="linr"  time="-9999999/1" value="0" leadInLength="0/1"  />
               </VectorParam>
               <InterpolatingParam id="588" interp="linr"  time="-9999999/1" value="1" leadInLength="0/1"  name="opacity"/>
               <InterpolatingParam id="589" interp="linr"  time="0/1" value="0" leadInLength="0/1"  name="cursorOpacity"/>
               <InterpolatingParam id="590" interp="linr"  time="0/1" value="0" leadInLength="0/1"  name="cursorScale"/>
              </Parameters>
              <Attributes>
               <Attribute id="591" value="" name="ident"/>
              </Attributes>
              <ExtraData>
               <Entry key="ZoomPanBin">
                <ZoomPanBin id="592"  >
                 <ZoomPanKeyframes>
                  <ZoomPanKeyframe id="593" timeRangeEnd="-9999999/1" timeRangeDuration="0/1" interpolaterName="linr"  />
                 </ZoomPanKeyframes>
                </ZoomPanBin>
               </Entry>
               <Entry key="CursorEffectBin">
                <CursorEffectBin id="594"  >
                 <CursorEffectKeyframes>
                 </CursorEffectKeyframes>
                </CursorEffectBin>
               </Entry>
              </ExtraData>
             </ScreenVMFile>
             <MetaData>
              <entry key="AutoAppliedSmartFocus" val="False"/>
              <entry key="WinSubProjectDisplayName" val=""/>
             </MetaData>
            </UnifiedMedia>
            <UnifiedMedia id="595"  >
             <AMFile id="596" start="660" duration="297" scalar="1/1" mediaStart="724/1" mediaDuration="297/1" trackNumber="1" src="5" channelNumber="0,1" >
              <Parameters>
               <InterpolatingParam id="597" interp="linr"  time="0/1" value="1" leadInLength="0/1"  name="volume"/>
               <Parameter id="598"  name="captions"/>
              </Parameters>
              <Attributes>
               <Attribute id="599" value="" name="ident"/>
               <Attribute id="600" value="44100" name="sampleRate"/>
               <Attribute id="601" value="16" name="bitDepth"/>
               <Attribute id="602" value="1" name="gain"/>
               <Attribute id="603" value="0" name="mixToMono"/>
              </Attributes>
             </AMFile>
             <ScreenVMFile id="604" start="660" duration="297" scalar="1/1" mediaStart="724/1" mediaDuration="297/1" trackNumber="0" src="5" >
              <Transformer>
               <VectorParam id="605"  name="translation">
                <InterpolatingParam id="606" interp="linr"  time="-9999999/1" value="0" leadInLength="0/1"  />
                <InterpolatingParam id="607" interp="linr"  time="-9999999/1" value="0" leadInLength="0/1"  />
                <InterpolatingParam id="608" interp="linr"  time="-9999999/1" value="0" leadInLength="0/1"  />
               </VectorParam>
               <VectorParam id="609"  name="rotation">
                <InterpolatingParam id="610" interp="linr"  time="-9999999/1" value="0" leadInLength="0/1"  />
                <InterpolatingParam id="611" interp="linr"  time="-9999999/1" value="0" leadInLength="0/1"  />
                <InterpolatingParam id="612" interp="linr"  time="-9999999/1" value="0" leadInLength="0/1"  />
               </VectorParam>
               <VectorParam id="613"  name="shear">
                <InterpolatingParam id="614" interp="linr"  time="-9999999/1" value="0" leadInLength="0/1"  />
                <InterpolatingParam id="615" interp="linr"  time="-9999999/1" value="0" leadInLength="0/1"  />
                <InterpolatingParam id="616" interp="linr"  time="-9999999/1" value="0" leadInLength="0/1"  />
               </VectorParam>
               <VectorParam id="617"  name="scale">
                <InterpolatingParam id="618" interp="linr"  time="-9999999/1" value="1" leadInLength="0/1"  />
                <InterpolatingParam id="619" interp="linr"  time="-9999999/1" value="1" leadInLength="0/1"  />
                <InterpolatingParam id="620" interp="linr"  time="-9999999/1" value="1" leadInLength="0/1"  />
               </VectorParam>
               <VectorParam id="621"  name="anchor">
                <InterpolatingParam id="622" interp="linr"  time="0/1" value="0" leadInLength="0/1"  />
                <InterpolatingParam id="623" interp="linr"  time="0/1" value="0" leadInLength="0/1"  />
                <InterpolatingParam id="624" interp="linr"  time="0/1" value="0" leadInLength="0/1"  />
               </VectorParam>
              </Transformer>
              <Parameters>
               <VectorParam id="625"  name="sourceCrop">
                <InterpolatingParam id="626" interp="linr"  time="0/1" value="0" leadInLength="0/1"  />
                <InterpolatingParam id="627" interp="linr"  time="0/1" value="0" leadInLength="0/1"  />
                <InterpolatingParam id="628" interp="linr"  time="0/1" value="0" leadInLength="0/1"  />
                <InterpolatingParam id="629" interp="linr"  time="0/1" value="0" leadInLength="0/1"  />
               </VectorParam>
               <VectorParam id="630"  name="geometryCrop">
                <InterpolatingParam id="631" interp="linr"  time="-9999999/1" value="0" leadInLength="0/1"  />
                <InterpolatingParam id="632" interp="linr"  time="-9999999/1" value="0" leadInLength="0/1"  />
                <InterpolatingParam id="633" interp="linr"  time="-9999999/1" value="0" leadInLength="0/1"  />
                <InterpolatingParam id="634" interp="linr"  time="-9999999/1" value="0" leadInLength="0/1"  />
               </VectorParam>
               <InterpolatingParam id="635" interp="linr"  time="-9999999/1" value="1" leadInLength="0/1"  name="opacity"/>
               <InterpolatingParam id="636" interp="linr"  time="0/1" value="0" leadInLength="0/1"  name="cursorOpacity"/>
               <InterpolatingParam id="637" interp="linr"  time="0/1" value="0" leadInLength="0/1"  name="cursorScale"/>
              </Parameters>
              <Attributes>
               <Attribute id="638" value="" name="ident"/>
              </Attributes>
              <ExtraData>
               <Entry key="ZoomPanBin">
                <ZoomPanBin id="639"  >
                 <ZoomPanKeyframes>
                  <ZoomPanKeyframe id="640" timeRangeEnd="-9999999/1" timeRangeDuration="0/1" interpolaterName="linr"  />
                 </ZoomPanKeyframes>
                </ZoomPanBin>
               </Entry>
               <Entry key="CursorEffectBin">
                <CursorEffectBin id="641"  >
                 <CursorEffectKeyframes>
                 </CursorEffectKeyframes>
                </CursorEffectBin>
               </Entry>
              </ExtraData>
             </ScreenVMFile>
             <MetaData>
              <entry key="AutoAppliedSmartFocus" val="False"/>
              <entry key="WinSubProjectDisplayName" val=""/>
             </MetaData>
            </UnifiedMedia>
            <UnifiedMedia id="642"  >
             <AMFile id="643" start="957" duration="492" scalar="1/1" mediaStart="1424/1" mediaDuration="492/1" trackNumber="1" src="5" channelNumber="0,1" >
              <Parameters>
               <InterpolatingParam id="644" interp="linr"  time="0/1" value="1" leadInLength="0/1"  name="volume"/>
               <Parameter id="645"  name="captions"/>
              </Parameters>
              <Attributes>
               <Attribute id="646" value="" name="ident"/>
               <Attribute id="647" value="44100" name="sampleRate"/>
               <Attribute id="648" value="16" name="bitDepth"/>
               <Attribute id="649" value="1" name="gain"/>
               <Attribute id="650" value="0" name="mixToMono"/>
              </Attributes>
             </AMFile>
             <ScreenVMFile id="651" start="957" duration="492" scalar="1/1" mediaStart="1424/1" mediaDuration="492/1" trackNumber="0" src="5" >
              <Transformer>
               <VectorParam id="652"  name="translation">
                <InterpolatingParam id="653" interp="linr"  time="-9999999/1" value="0" leadInLength="0/1"  />
                <InterpolatingParam id="654" interp="linr"  time="-9999999/1" value="0" leadInLength="0/1"  />
                <InterpolatingParam id="655" interp="linr"  time="-9999999/1" value="0" leadInLength="0/1"  />
               </VectorParam>
               <VectorParam id="656"  name="rotation">
                <InterpolatingParam id="657" interp="linr"  time="-9999999/1" value="0" leadInLength="0/1"  />
                <InterpolatingParam id="658" interp="linr"  time="-9999999/1" value="0" leadInLength="0/1"  />
                <InterpolatingParam id="659" interp="linr"  time="-9999999/1" value="0" leadInLength="0/1"  />
               </VectorParam>
               <VectorParam id="660"  name="shear">
                <InterpolatingParam id="661" interp="linr"  time="-9999999/1" value="0" leadInLength="0/1"  />
                <InterpolatingParam id="662" interp="linr"  time="-9999999/1" value="0" leadInLength="0/1"  />
                <InterpolatingParam id="663" interp="linr"  time="-9999999/1" value="0" leadInLength="0/1"  />
               </VectorParam>
               <VectorParam id="664"  name="scale">
                <InterpolatingParam id="665" interp="linr"  time="-9999999/1" value="1" leadInLength="0/1"  />
                <InterpolatingParam id="666" interp="linr"  time="-9999999/1" value="1" leadInLength="0/1"  />
                <InterpolatingParam id="667" interp="linr"  time="-9999999/1" value="1" leadInLength="0/1"  />
               </VectorParam>
               <VectorParam id="668"  name="anchor">
                <InterpolatingParam id="669" interp="linr"  time="0/1" value="0" leadInLength="0/1"  />
                <InterpolatingParam id="670" interp="linr"  time="0/1" value="0" leadInLength="0/1"  />
                <InterpolatingParam id="671" interp="linr"  time="0/1" value="0" leadInLength="0/1"  />
               </VectorParam>
              </Transformer>
              <Parameters>
               <VectorParam id="672"  name="sourceCrop">
                <InterpolatingParam id="673" interp="linr"  time="0/1" value="0" leadInLength="0/1"  />
                <InterpolatingParam id="674" interp="linr"  time="0/1" value="0" leadInLength="0/1"  />
                <InterpolatingParam id="675" interp="linr"  time="0/1" value="0" leadInLength="0/1"  />
                <InterpolatingParam id="676" interp="linr"  time="0/1" value="0" leadInLength="0/1"  />
               </VectorParam>
               <VectorParam id="677"  name="geometryCrop">
                <InterpolatingParam id="678" interp="linr"  time="-9999999/1" value="0" leadInLength="0/1"  />
                <InterpolatingParam id="679" interp="linr"  time="-9999999/1" value="0" leadInLength="0/1"  />
                <InterpolatingParam id="680" interp="linr"  time="-9999999/1" value="0" leadInLength="0/1"  />
                <InterpolatingParam id="681" interp="linr"  time="-9999999/1" value="0" leadInLength="0/1"  />
               </VectorParam>
               <InterpolatingParam id="682" interp="linr"  time="-9999999/1" value="1" leadInLength="0/1"  name="opacity"/>
               <InterpolatingParam id="683" interp="linr"  time="0/1" value="0" leadInLength="0/1"  name="cursorOpacity"/>
               <InterpolatingParam id="684" interp="linr"  time="0/1" value="0" leadInLength="0/1"  name="cursorScale"/>
              </Parameters>
              <Attributes>
               <Attribute id="685" value="" name="ident"/>
              </Attributes>
              <ExtraData>
               <Entry key="ZoomPanBin">
                <ZoomPanBin id="686"  >
                 <ZoomPanKeyframes>
                  <ZoomPanKeyframe id="687" timeRangeEnd="-9999999/1" timeRangeDuration="0/1" interpolaterName="linr"  />
                 </ZoomPanKeyframes>
                </ZoomPanBin>
               </Entry>
               <Entry key="CursorEffectBin">
                <CursorEffectBin id="688"  >
                 <CursorEffectKeyframes>
                 </CursorEffectKeyframes>
                </CursorEffectBin>
               </Entry>
              </ExtraData>
             </ScreenVMFile>
             <MetaData>
              <entry key="AutoAppliedSmartFocus" val="False"/>
              <entry key="WinSubProjectDisplayName" val=""/>
             </MetaData>
            </UnifiedMedia>
            <UnifiedMedia id="689"  >
             <AMFile id="690" start="1449" duration="2340" scalar="1/1" mediaStart="1981/1" mediaDuration="2340/1" trackNumber="1" src="5" channelNumber="0,1" >
              <Parameters>
               <InterpolatingParam id="691" interp="linr"  time="0/1" value="1" leadInLength="0/1"  name="volume"/>
               <Parameter id="692"  name="captions"/>
              </Parameters>
              <Attributes>
               <Attribute id="693" value="" name="ident"/>
               <Attribute id="694" value="44100" name="sampleRate"/>
               <Attribute id="695" value="16" name="bitDepth"/>
               <Attribute id="696" value="1" name="gain"/>
               <Attribute id="697" value="0" name="mixToMono"/>
              </Attributes>
             </AMFile>
             <ScreenVMFile id="698" start="1449" duration="2340" scalar="1/1" mediaStart="1981/1" mediaDuration="2340/1" trackNumber="0" src="5" >
              <Transformer>
               <VectorParam id="699"  name="translation">
                <InterpolatingParam id="700" interp="linr"  time="-9999999/1" value="0" leadInLength="0/1"  />
                <InterpolatingParam id="701" interp="linr"  time="-9999999/1" value="0" leadInLength="0/1"  />
                <InterpolatingParam id="702" interp="linr"  time="-9999999/1" value="0" leadInLength="0/1"  />
               </VectorParam>
               <VectorParam id="703"  name="rotation">
                <InterpolatingParam id="704" interp="linr"  time="-9999999/1" value="0" leadInLength="0/1"  />
                <InterpolatingParam id="705" interp="linr"  time="-9999999/1" value="0" leadInLength="0/1"  />
                <InterpolatingParam id="706" interp="linr"  time="-9999999/1" value="0" leadInLength="0/1"  />
               </VectorParam>
               <VectorParam id="707"  name="shear">
                <InterpolatingParam id="708" interp="linr"  time="-9999999/1" value="0" leadInLength="0/1"  />
                <InterpolatingParam id="709" interp="linr"  time="-9999999/1" value="0" leadInLength="0/1"  />
                <InterpolatingParam id="710" interp="linr"  time="-9999999/1" value="0" leadInLength="0/1"  />
               </VectorParam>
               <VectorParam id="711"  name="scale">
                <InterpolatingParam id="712" interp="linr"  time="-9999999/1" value="1" leadInLength="0/1"  />
                <InterpolatingParam id="713" interp="linr"  time="-9999999/1" value="1" leadInLength="0/1"  />
                <InterpolatingParam id="714" interp="linr"  time="-9999999/1" value="1" leadInLength="0/1"  />
               </VectorParam>
               <VectorParam id="715"  name="anchor">
                <InterpolatingParam id="716" interp="linr"  time="0/1" value="0" leadInLength="0/1"  />
                <InterpolatingParam id="717" interp="linr"  time="0/1" value="0" leadInLength="0/1"  />
                <InterpolatingParam id="718" interp="linr"  time="0/1" value="0" leadInLength="0/1"  />
               </VectorParam>
              </Transformer>
              <Parameters>
               <VectorParam id="719"  name="sourceCrop">
                <InterpolatingParam id="720" interp="linr"  time="0/1" value="0" leadInLength="0/1"  />
                <InterpolatingParam id="721" interp="linr"  time="0/1" value="0" leadInLength="0/1"  />
                <InterpolatingParam id="722" interp="linr"  time="0/1" value="0" leadInLength="0/1"  />
                <InterpolatingParam id="723" interp="linr"  time="0/1" value="0" leadInLength="0/1"  />
               </VectorParam>
               <VectorParam id="724"  name="geometryCrop">
                <InterpolatingParam id="725" interp="linr"  time="-9999999/1" value="0" leadInLength="0/1"  />
                <InterpolatingParam id="726" interp="linr"  time="-9999999/1" value="0" leadInLength="0/1"  />
                <InterpolatingParam id="727" interp="linr"  time="-9999999/1" value="0" leadInLength="0/1"  />
                <InterpolatingParam id="728" interp="linr"  time="-9999999/1" value="0" leadInLength="0/1"  />
               </VectorParam>
               <InterpolatingParam id="729" interp="linr"  time="-9999999/1" value="1" leadInLength="0/1"  name="opacity"/>
               <InterpolatingParam id="730" interp="linr"  time="0/1" value="0" leadInLength="0/1"  name="cursorOpacity"/>
               <InterpolatingParam id="731" interp="linr"  time="0/1" value="0" leadInLength="0/1"  name="cursorScale"/>
              </Parameters>
              <Attributes>
               <Attribute id="732" value="" name="ident"/>
              </Attributes>
              <ExtraData>
               <Entry key="ZoomPanBin">
                <ZoomPanBin id="733"  >
                 <ZoomPanKeyframes>
                  <ZoomPanKeyframe id="734" timeRangeEnd="-9999999/1" timeRangeDuration="0/1" interpolaterName="linr"  />
                 </ZoomPanKeyframes>
                </ZoomPanBin>
               </Entry>
               <Entry key="CursorEffectBin">
                <CursorEffectBin id="735"  >
                 <CursorEffectKeyframes>
                 </CursorEffectKeyframes>
                </CursorEffectBin>
               </Entry>
              </ExtraData>
             </ScreenVMFile>
             <MetaData>
              <entry key="AutoAppliedSmartFocus" val="False"/>
              <entry key="WinSubProjectDisplayName" val=""/>
             </MetaData>
            </UnifiedMedia>
           </Medias>
          </GenericTrack>
         </StitchedMedia>
         <StitchedMedia id="736" start="3596" duration="8909" scalar="1/1" mediaStart="60/1" mediaDuration="8909/1" minMediaStart="0/1" >
          <Transformer>
           <VectorParam id="737"  name="translation">
            <InterpolatingParam id="738" interp="linr"  time="-9999999/1" value="0" leadInLength="0/1"  />
            <InterpolatingParam id="739" interp="linr"  time="-9999999/1" value="0" leadInLength="0/1"  />
            <InterpolatingParam id="740" interp="linr"  time="-9999999/1" value="0" leadInLength="0/1"  />
           </VectorParam>
           <VectorParam id="741"  name="rotation">
            <InterpolatingParam id="742" interp="linr"  time="-9999999/1" value="0" leadInLength="0/1"  />
            <InterpolatingParam id="743" interp="linr"  time="-9999999/1" value="0" leadInLength="0/1"  />
            <InterpolatingParam id="744" interp="linr"  time="-9999999/1" value="0" leadInLength="0/1"  />
           </VectorParam>
           <VectorParam id="745"  name="shear">
            <InterpolatingParam id="746" interp="linr"  time="-9999999/1" value="0" leadInLength="0/1"  />
            <InterpolatingParam id="747" interp="linr"  time="-9999999/1" value="0" leadInLength="0/1"  />
            <InterpolatingParam id="748" interp="linr"  time="-9999999/1" value="0" leadInLength="0/1"  />
           </VectorParam>
           <VectorParam id="749"  name="scale">
            <InterpolatingParam id="750" interp="linr"  time="-9999999/1" value="0.93695014662756593" leadInLength="0/1"  />
            <InterpolatingParam id="751" interp="linr"  time="-9999999/1" value="0.93695014662756593" leadInLength="0/1"  />
            <InterpolatingParam id="752" interp="linr"  time="-9999999/1" value="1" leadInLength="0/1"  />
           </VectorParam>
           <VectorParam id="753"  name="anchor">
            <InterpolatingParam id="754" interp="linr"  time="0/1" value="0" leadInLength="0/1"  />
            <InterpolatingParam id="755" interp="linr"  time="0/1" value="0" leadInLength="0/1"  />
            <InterpolatingParam id="756" interp="linr"  time="0/1" value="0" leadInLength="0/1"  />
           </VectorParam>
          </Transformer>
          <Parameters>
           <VectorParam id="757"  name="sourceCrop">
            <InterpolatingParam id="758" interp="linr"  time="0/1" value="0" leadInLength="0/1"  />
            <InterpolatingParam id="759" interp="linr"  time="0/1" value="0" leadInLength="0/1"  />
            <InterpolatingParam id="760" interp="linr"  time="0/1" value="0" leadInLength="0/1"  />
            <InterpolatingParam id="761" interp="linr"  time="0/1" value="0" leadInLength="0/1"  />
           </VectorParam>
           <VectorParam id="762"  name="geometryCrop">
            <InterpolatingParam id="763" interp="linr"  time="-9999999/1" value="0" leadInLength="0/1"  />
            <InterpolatingParam id="764" interp="linr"  time="-9999999/1" value="0" leadInLength="0/1"  />
            <InterpolatingParam id="765" interp="linr"  time="-9999999/1" value="0" leadInLength="0/1"  />
            <InterpolatingParam id="766" interp="linr"  time="-9999999/1" value="0" leadInLength="0/1"  />
           </VectorParam>
           <InterpolatingParam id="767" interp="linr"  time="-9999999/1" value="1" leadInLength="0/1"  name="opacity"/>
           <InterpolatingParam id="768" interp="linr"  time="0/1" value="1" leadInLength="0/1"  name="cursorOpacity"/>
           <InterpolatingParam id="769" interp="linr"  time="0/1" value="1" leadInLength="0/1"  name="cursorScale"/>
           <InterpolatingParam id="770" interp="linr"  time="0/1" value="1" leadInLength="0/1"  name="volume"/>
           <Parameter id="771"  name="captions"/>
          </Parameters>
          <Effects>
           <GenericEffect id="772" name = "CursorBaseEffectName" >
            <Parameters>
            <InterpolatingParam id="773" interp="linr"  time="-9999999/1" value="1" leadInLength="0/1"   name="cursorSize"/>
            <InterpolatingParam id="774" interp="linr"  time="-9999999/1" value="0" leadInLength="0/1"   name="highlightBlurRadius"/>
            <InterpolatingParam id="775" interp="linr"  time="-9999999/1" value="0" leadInLength="0/1"   name="highlightColorBlue"/>
            <InterpolatingParam id="776" interp="linr"  time="-9999999/1" value="255" leadInLength="0/1"   name="highlightColorGreen"/>
            <InterpolatingParam id="777" interp="linr"  time="-9999999/1" value="255" leadInLength="0/1"   name="highlightColorRed"/>
            <InterpolatingParam id="778" interp="linr"  time="-9999999/1" value="5" leadInLength="0/1"   name="highlightFeatherSize"/>
            <InterpolatingParam id="779" interp="linr"  time="-9999999/1" value="2" leadInLength="0/1"   name="highlightMagnification"/>
            <InterpolatingParam id="780" interp="linr"  time="-9999999/1" value="1" leadInLength="0/1"   name="highlightOpacity"/>
            <InterpolatingParam id="781" interp="linr"  time="-9999999/1" value="45" leadInLength="0/1"   name="highlightSize"/>
            <Parameter id="782"   name="highlightType">
             <Keyframes>
             <Keyframe id="783"  time="-9999999/1" value="0" leadInLength="0/1"  />
             </Keyframes>
            </Parameter>
            <InterpolatingParam id="784" interp="linr"  time="-9999999/1" value="0" leadInLength="0/1"   name="leftClickColorBlue"/>
            <InterpolatingParam id="785" interp="linr"  time="-9999999/1" value="0" leadInLength="0/1"   name="leftClickColorGreen"/>
            <InterpolatingParam id="786" interp="linr"  time="-9999999/1" value="255" leadInLength="0/1"   name="leftClickColorRed"/>
            <InterpolatingParam id="787" interp="linr"  time="-9999999/1" value="0.80000000000000004" leadInLength="0/1"   name="leftClickDuration"/>
            <InterpolatingParam id="788" interp="linr"  time="-9999999/1" value="20" leadInLength="0/1"   name="leftClickSize"/>
            <Parameter id="789"   name="leftClickSoundFilename">
             <Keyframes>
             <Keyframe id="790"  time="-9999999/1" value="" leadInLength="0/1"  />
             </Keyframes>
            </Parameter>
            <InterpolatingParam id="791" interp="linr"  time="-9999999/1" value="1" leadInLength="0/1"   name="leftClickSoundVolume"/>
            <Parameter id="792"   name="leftClickType">
             <Keyframes>
             <Keyframe id="793"  time="-9999999/1" value="0" leadInLength="0/1"  />
             </Keyframes>
            </Parameter>
            <InterpolatingParam id="794" interp="linr"  time="-9999999/1" value="1" leadInLength="0/1"   name="opacity"/>
            <InterpolatingParam id="795" interp="linr"  time="-9999999/1" value="255" leadInLength="0/1"   name="rightClickColorBlue"/>
            <InterpolatingParam id="796" interp="linr"  time="-9999999/1" value="0" leadInLength="0/1"   name="rightClickColorGreen"/>
            <InterpolatingParam id="797" interp="linr"  time="-9999999/1" value="0" leadInLength="0/1"   name="rightClickColorRed"/>
            <InterpolatingParam id="798" interp="linr"  time="-9999999/1" value="0.80000000000000004" leadInLength="0/1"   name="rightClickDuration"/>
            <InterpolatingParam id="799" interp="linr"  time="-9999999/1" value="20" leadInLength="0/1"   name="rightClickSize"/>
            <Parameter id="800"   name="rightClickSoundFilename">
             <Keyframes>
             <Keyframe id="801"  time="-9999999/1" value="" leadInLength="0/1"  />
             </Keyframes>
            </Parameter>
            <InterpolatingParam id="802" interp="linr"  time="-9999999/1" value="1" leadInLength="0/1"   name="rightClickSoundVolume"/>
            <Parameter id="803"   name="rightClickType">
             <Keyframes>
             <Keyframe id="804"  time="-9999999/1" value="0" leadInLength="0/1"  />
             </Keyframes>
            </Parameter>
            </Parameters>
            <MetaData>
             <entry key="effectIndex" val="0"/>
            </MetaData>
           </GenericEffect>
          </Effects>
          <Attributes>
           <Attribute id="805" value="" name="ident"/>
           <Attribute id="806" value="0" name="mixToMono"/>
          </Attributes>
          <MetaData>
           <entry key="AutoAppliedSmartFocus" val="False"/>
           <entry key="WinSubProjectDisplayName" val=""/>
          </MetaData>
          <ExtraData>
           <Entry key="ZoomPanBin">
            <ZoomPanBin id="807"  >
             <ZoomPanKeyframes>
              <ZoomPanKeyframe id="808" timeRangeEnd="-9999999/1" timeRangeDuration="0/1" interpolaterName="linr"  />
             </ZoomPanKeyframes>
            </ZoomPanBin>
           </Entry>
           <Entry key="CursorEffectBin">
            <CursorEffectBin id="809"  >
             <CursorEffectKeyframes>
              <CursorEffectKeyframe id="810" timeRangeEnd="-9999999/1" timeRangeDuration="0/1" interpolaterName=""  />
             </CursorEffectKeyframes>
            </CursorEffectBin>
           </Entry>
          </ExtraData>
          <GenericTrack id="811"  >
           <Attributes>
            <Attribute id="812" value="" name="ident"/>
            <Attribute id="813" value="0" name="audioMuted"/>
            <Attribute id="814" value="0" name="videoHidden"/>
           </Attributes>
           <MetaData>
            <entry key="IsLocked" val="False"/>
            <entry key="WinTrackHeight" val="0"/>
           </MetaData>
           <Medias>
            <UnifiedMedia id="815"  >
             <AMFile id="816" start="0" duration="498" scalar="1/1" mediaStart="0/1" mediaDuration="498/1" trackNumber="1" src="4" channelNumber="0,1" >
              <Parameters>
               <InterpolatingParam id="817" interp="linr"  time="0/1" value="1" leadInLength="0/1"  name="volume"/>
               <Parameter id="818"  name="captions"/>
              </Parameters>
              <Attributes>
               <Attribute id="819" value="" name="ident"/>
               <Attribute id="820" value="44100" name="sampleRate"/>
               <Attribute id="821" value="16" name="bitDepth"/>
               <Attribute id="822" value="1" name="gain"/>
               <Attribute id="823" value="0" name="mixToMono"/>
              </Attributes>
             </AMFile>
             <ScreenVMFile id="824" start="0" duration="498" scalar="1/1" mediaStart="0/1" mediaDuration="498/1" trackNumber="0" src="4" >
              <Transformer>
               <VectorParam id="825"  name="translation">
                <InterpolatingParam id="826" interp="linr"  time="-9999999/1" value="0" leadInLength="0/1"  />
                <InterpolatingParam id="827" interp="linr"  time="-9999999/1" value="0" leadInLength="0/1"  />
                <InterpolatingParam id="828" interp="linr"  time="-9999999/1" value="0" leadInLength="0/1"  />
               </VectorParam>
               <VectorParam id="829"  name="rotation">
                <InterpolatingParam id="830" interp="linr"  time="-9999999/1" value="0" leadInLength="0/1"  />
                <InterpolatingParam id="831" interp="linr"  time="-9999999/1" value="0" leadInLength="0/1"  />
                <InterpolatingParam id="832" interp="linr"  time="-9999999/1" value="0" leadInLength="0/1"  />
               </VectorParam>
               <VectorParam id="833"  name="shear">
                <InterpolatingParam id="834" interp="linr"  time="-9999999/1" value="0" leadInLength="0/1"  />
                <InterpolatingParam id="835" interp="linr"  time="-9999999/1" value="0" leadInLength="0/1"  />
                <InterpolatingParam id="836" interp="linr"  time="-9999999/1" value="0" leadInLength="0/1"  />
               </VectorParam>
               <VectorParam id="837"  name="scale">
                <InterpolatingParam id="838" interp="linr"  time="-9999999/1" value="1" leadInLength="0/1"  />
                <InterpolatingParam id="839" interp="linr"  time="-9999999/1" value="1" leadInLength="0/1"  />
                <InterpolatingParam id="840" interp="linr"  time="-9999999/1" value="1" leadInLength="0/1"  />
               </VectorParam>
               <VectorParam id="841"  name="anchor">
                <InterpolatingParam id="842" interp="linr"  time="0/1" value="0" leadInLength="0/1"  />
                <InterpolatingParam id="843" interp="linr"  time="0/1" value="0" leadInLength="0/1"  />
                <InterpolatingParam id="844" interp="linr"  time="0/1" value="0" leadInLength="0/1"  />
               </VectorParam>
              </Transformer>
              <Parameters>
               <VectorParam id="845"  name="sourceCrop">
                <InterpolatingParam id="846" interp="linr"  time="0/1" value="0" leadInLength="0/1"  />
                <InterpolatingParam id="847" interp="linr"  time="0/1" value="0" leadInLength="0/1"  />
                <InterpolatingParam id="848" interp="linr"  time="0/1" value="0" leadInLength="0/1"  />
                <InterpolatingParam id="849" interp="linr"  time="0/1" value="0" leadInLength="0/1"  />
               </VectorParam>
               <VectorParam id="850"  name="geometryCrop">
                <InterpolatingParam id="851" interp="linr"  time="-9999999/1" value="0" leadInLength="0/1"  />
                <InterpolatingParam id="852" interp="linr"  time="-9999999/1" value="0" leadInLength="0/1"  />
                <InterpolatingParam id="853" interp="linr"  time="-9999999/1" value="0" leadInLength="0/1"  />
                <InterpolatingParam id="854" interp="linr"  time="-9999999/1" value="0" leadInLength="0/1"  />
               </VectorParam>
               <InterpolatingParam id="855" interp="linr"  time="-9999999/1" value="1" leadInLength="0/1"  name="opacity"/>
               <InterpolatingParam id="856" interp="linr"  time="0/1" value="0" leadInLength="0/1"  name="cursorOpacity"/>
               <InterpolatingParam id="857" interp="linr"  time="0/1" value="0" leadInLength="0/1"  name="cursorScale"/>
              </Parameters>
              <Attributes>
               <Attribute id="858" value="" name="ident"/>
              </Attributes>
              <ExtraData>
               <Entry key="ZoomPanBin">
                <ZoomPanBin id="859"  >
                 <ZoomPanKeyframes>
                  <ZoomPanKeyframe id="860" timeRangeEnd="-9999999/1" timeRangeDuration="0/1" interpolaterName="linr"  />
                 </ZoomPanKeyframes>
                </ZoomPanBin>
               </Entry>
               <Entry key="CursorEffectBin">
                <CursorEffectBin id="861"  >
                 <CursorEffectKeyframes>
                 </CursorEffectKeyframes>
                </CursorEffectBin>
               </Entry>
              </ExtraData>
             </ScreenVMFile>
             <MetaData>
              <entry key="AutoAppliedSmartFocus" val="False"/>
              <entry key="WinSubProjectDisplayName" val=""/>
             </MetaData>
            </UnifiedMedia>
            <UnifiedMedia id="862"  >
             <AMFile id="863" start="498" duration="128" scalar="1/1" mediaStart="552/1" mediaDuration="128/1" trackNumber="1" src="4" channelNumber="0,1" >
              <Parameters>
               <InterpolatingParam id="864" interp="linr"  time="0/1" value="1" leadInLength="0/1"  name="volume"/>
               <Parameter id="865"  name="captions"/>
              </Parameters>
              <Attributes>
               <Attribute id="866" value="" name="ident"/>
               <Attribute id="867" value="44100" name="sampleRate"/>
               <Attribute id="868" value="16" name="bitDepth"/>
               <Attribute id="869" value="1" name="gain"/>
               <Attribute id="870" value="0" name="mixToMono"/>
              </Attributes>
             </AMFile>
             <ScreenVMFile id="871" start="498" duration="128" scalar="1/1" mediaStart="552/1" mediaDuration="128/1" trackNumber="0" src="4" >
              <Transformer>
               <VectorParam id="872"  name="translation">
                <InterpolatingParam id="873" interp="linr"  time="-9999999/1" value="0" leadInLength="0/1"  />
                <InterpolatingParam id="874" interp="linr"  time="-9999999/1" value="0" leadInLength="0/1"  />
                <InterpolatingParam id="875" interp="linr"  time="-9999999/1" value="0" leadInLength="0/1"  />
               </VectorParam>
               <VectorParam id="876"  name="rotation">
                <InterpolatingParam id="877" interp="linr"  time="-9999999/1" value="0" leadInLength="0/1"  />
                <InterpolatingParam id="878" interp="linr"  time="-9999999/1" value="0" leadInLength="0/1"  />
                <InterpolatingParam id="879" interp="linr"  time="-9999999/1" value="0" leadInLength="0/1"  />
               </VectorParam>
               <VectorParam id="880"  name="shear">
                <InterpolatingParam id="881" interp="linr"  time="-9999999/1" value="0" leadInLength="0/1"  />
                <InterpolatingParam id="882" interp="linr"  time="-9999999/1" value="0" leadInLength="0/1"  />
                <InterpolatingParam id="883" interp="linr"  time="-9999999/1" value="0" leadInLength="0/1"  />
               </VectorParam>
               <VectorParam id="884"  name="scale">
                <InterpolatingParam id="885" interp="linr"  time="-9999999/1" value="1" leadInLength="0/1"  />
                <InterpolatingParam id="886" interp="linr"  time="-9999999/1" value="1" leadInLength="0/1"  />
                <InterpolatingParam id="887" interp="linr"  time="-9999999/1" value="1" leadInLength="0/1"  />
               </VectorParam>
               <VectorParam id="888"  name="anchor">
                <InterpolatingParam id="889" interp="linr"  time="0/1" value="0" leadInLength="0/1"  />
                <InterpolatingParam id="890" interp="linr"  time="0/1" value="0" leadInLength="0/1"  />
                <InterpolatingParam id="891" interp="linr"  time="0/1" value="0" leadInLength="0/1"  />
               </VectorParam>
              </Transformer>
              <Parameters>
               <VectorParam id="892"  name="sourceCrop">
                <InterpolatingParam id="893" interp="linr"  time="0/1" value="0" leadInLength="0/1"  />
                <InterpolatingParam id="894" interp="linr"  time="0/1" value="0" leadInLength="0/1"  />
                <InterpolatingParam id="895" interp="linr"  time="0/1" value="0" leadInLength="0/1"  />
                <InterpolatingParam id="896" interp="linr"  time="0/1" value="0" leadInLength="0/1"  />
               </VectorParam>
               <VectorParam id="897"  name="geometryCrop">
                <InterpolatingParam id="898" interp="linr"  time="-9999999/1" value="0" leadInLength="0/1"  />
                <InterpolatingParam id="899" interp="linr"  time="-9999999/1" value="0" leadInLength="0/1"  />
                <InterpolatingParam id="900" interp="linr"  time="-9999999/1" value="0" leadInLength="0/1"  />
                <InterpolatingParam id="901" interp="linr"  time="-9999999/1" value="0" leadInLength="0/1"  />
               </VectorParam>
               <InterpolatingParam id="902" interp="linr"  time="-9999999/1" value="1" leadInLength="0/1"  name="opacity"/>
               <InterpolatingParam id="903" interp="linr"  time="0/1" value="0" leadInLength="0/1"  name="cursorOpacity"/>
               <InterpolatingParam id="904" interp="linr"  time="0/1" value="0" leadInLength="0/1"  name="cursorScale"/>
              </Parameters>
              <Attributes>
               <Attribute id="905" value="" name="ident"/>
              </Attributes>
              <ExtraData>
               <Entry key="ZoomPanBin">
                <ZoomPanBin id="906"  >
                 <ZoomPanKeyframes>
                  <ZoomPanKeyframe id="907" timeRangeEnd="-9999999/1" timeRangeDuration="0/1" interpolaterName="linr"  />
                 </ZoomPanKeyframes>
                </ZoomPanBin>
               </Entry>
               <Entry key="CursorEffectBin">
                <CursorEffectBin id="908"  >
                 <CursorEffectKeyframes>
                 </CursorEffectKeyframes>
                </CursorEffectBin>
               </Entry>
              </ExtraData>
             </ScreenVMFile>
             <MetaData>
              <entry key="AutoAppliedSmartFocus" val="False"/>
              <entry key="WinSubProjectDisplayName" val=""/>
             </MetaData>
            </UnifiedMedia>
            <UnifiedMedia id="909"  >
             <AMFile id="910" start="626" duration="1218" scalar="1/1" mediaStart="699/1" mediaDuration="1218/1" trackNumber="1" src="4" channelNumber="0,1" >
              <Parameters>
               <InterpolatingParam id="911" interp="linr"  time="0/1" value="1" leadInLength="0/1"  name="volume"/>
               <Parameter id="912"  name="captions"/>
              </Parameters>
              <Attributes>
               <Attribute id="913" value="" name="ident"/>
               <Attribute id="914" value="44100" name="sampleRate"/>
               <Attribute id="915" value="16" name="bitDepth"/>
               <Attribute id="916" value="1" name="gain"/>
               <Attribute id="917" value="0" name="mixToMono"/>
              </Attributes>
             </AMFile>
             <ScreenVMFile id="918" start="626" duration="1218" scalar="1/1" mediaStart="699/1" mediaDuration="1218/1" trackNumber="0" src="4" >
              <Transformer>
               <VectorParam id="919"  name="translation">
                <InterpolatingParam id="920" interp="linr"  time="-9999999/1" value="0" leadInLength="0/1"  />
                <InterpolatingParam id="921" interp="linr"  time="-9999999/1" value="0" leadInLength="0/1"  />
                <InterpolatingParam id="922" interp="linr"  time="-9999999/1" value="0" leadInLength="0/1"  />
               </VectorParam>
               <VectorParam id="923"  name="rotation">
                <InterpolatingParam id="924" interp="linr"  time="-9999999/1" value="0" leadInLength="0/1"  />
                <InterpolatingParam id="925" interp="linr"  time="-9999999/1" value="0" leadInLength="0/1"  />
                <InterpolatingParam id="926" interp="linr"  time="-9999999/1" value="0" leadInLength="0/1"  />
               </VectorParam>
               <VectorParam id="927"  name="shear">
                <InterpolatingParam id="928" interp="linr"  time="-9999999/1" value="0" leadInLength="0/1"  />
                <InterpolatingParam id="929" interp="linr"  time="-9999999/1" value="0" leadInLength="0/1"  />
                <InterpolatingParam id="930" interp="linr"  time="-9999999/1" value="0" leadInLength="0/1"  />
               </VectorParam>
               <VectorParam id="931"  name="scale">
                <InterpolatingParam id="932" interp="linr"  time="-9999999/1" value="1" leadInLength="0/1"  />
                <InterpolatingParam id="933" interp="linr"  time="-9999999/1" value="1" leadInLength="0/1"  />
                <InterpolatingParam id="934" interp="linr"  time="-9999999/1" value="1" leadInLength="0/1"  />
               </VectorParam>
               <VectorParam id="935"  name="anchor">
                <InterpolatingParam id="936" interp="linr"  time="0/1" value="0" leadInLength="0/1"  />
                <InterpolatingParam id="937" interp="linr"  time="0/1" value="0" leadInLength="0/1"  />
                <InterpolatingParam id="938" interp="linr"  time="0/1" value="0" leadInLength="0/1"  />
               </VectorParam>
              </Transformer>
              <Parameters>
               <VectorParam id="939"  name="sourceCrop">
                <InterpolatingParam id="940" interp="linr"  time="0/1" value="0" leadInLength="0/1"  />
                <InterpolatingParam id="941" interp="linr"  time="0/1" value="0" leadInLength="0/1"  />
                <InterpolatingParam id="942" interp="linr"  time="0/1" value="0" leadInLength="0/1"  />
                <InterpolatingParam id="943" interp="linr"  time="0/1" value="0" leadInLength="0/1"  />
               </VectorParam>
               <VectorParam id="944"  name="geometryCrop">
                <InterpolatingParam id="945" interp="linr"  time="-9999999/1" value="0" leadInLength="0/1"  />
                <InterpolatingParam id="946" interp="linr"  time="-9999999/1" value="0" leadInLength="0/1"  />
                <InterpolatingParam id="947" interp="linr"  time="-9999999/1" value="0" leadInLength="0/1"  />
                <InterpolatingParam id="948" interp="linr"  time="-9999999/1" value="0" leadInLength="0/1"  />
               </VectorParam>
               <InterpolatingParam id="949" interp="linr"  time="-9999999/1" value="1" leadInLength="0/1"  name="opacity"/>
               <InterpolatingParam id="950" interp="linr"  time="0/1" value="0" leadInLength="0/1"  name="cursorOpacity"/>
               <InterpolatingParam id="951" interp="linr"  time="0/1" value="0" leadInLength="0/1"  name="cursorScale"/>
              </Parameters>
              <Attributes>
               <Attribute id="952" value="" name="ident"/>
              </Attributes>
              <ExtraData>
               <Entry key="ZoomPanBin">
                <ZoomPanBin id="953"  >
                 <ZoomPanKeyframes>
                  <ZoomPanKeyframe id="954" timeRangeEnd="-9999999/1" timeRangeDuration="0/1" interpolaterName="linr"  />
                 </ZoomPanKeyframes>
                </ZoomPanBin>
               </Entry>
               <Entry key="CursorEffectBin">
                <CursorEffectBin id="955"  >
                 <CursorEffectKeyframes>
                 </CursorEffectKeyframes>
                </CursorEffectBin>
               </Entry>
              </ExtraData>
             </ScreenVMFile>
             <MetaData>
              <entry key="AutoAppliedSmartFocus" val="False"/>
              <entry key="WinSubProjectDisplayName" val=""/>
             </MetaData>
            </UnifiedMedia>
            <UnifiedMedia id="956"  >
             <AMFile id="957" start="1844" duration="269" scalar="1/1" mediaStart="2034/1" mediaDuration="269/1" trackNumber="1" src="4" channelNumber="0,1" >
              <Parameters>
               <InterpolatingParam id="958" interp="linr"  time="0/1" value="1" leadInLength="0/1"  name="volume"/>
               <Parameter id="959"  name="captions"/>
              </Parameters>
              <Attributes>
               <Attribute id="960" value="" name="ident"/>
               <Attribute id="961" value="44100" name="sampleRate"/>
               <Attribute id="962" value="16" name="bitDepth"/>
               <Attribute id="963" value="1" name="gain"/>
               <Attribute id="964" value="0" name="mixToMono"/>
              </Attributes>
             </AMFile>
             <ScreenVMFile id="965" start="1844" duration="269" scalar="1/1" mediaStart="2034/1" mediaDuration="269/1" trackNumber="0" src="4" >
              <Transformer>
               <VectorParam id="966"  name="translation">
                <InterpolatingParam id="967" interp="linr"  time="-9999999/1" value="0" leadInLength="0/1"  />
                <InterpolatingParam id="968" interp="linr"  time="-9999999/1" value="0" leadInLength="0/1"  />
                <InterpolatingParam id="969" interp="linr"  time="-9999999/1" value="0" leadInLength="0/1"  />
               </VectorParam>
               <VectorParam id="970"  name="rotation">
                <InterpolatingParam id="971" interp="linr"  time="-9999999/1" value="0" leadInLength="0/1"  />
                <InterpolatingParam id="972" interp="linr"  time="-9999999/1" value="0" leadInLength="0/1"  />
                <InterpolatingParam id="973" interp="linr"  time="-9999999/1" value="0" leadInLength="0/1"  />
               </VectorParam>
               <VectorParam id="974"  name="shear">
                <InterpolatingParam id="975" interp="linr"  time="-9999999/1" value="0" leadInLength="0/1"  />
                <InterpolatingParam id="976" interp="linr"  time="-9999999/1" value="0" leadInLength="0/1"  />
                <InterpolatingParam id="977" interp="linr"  time="-9999999/1" value="0" leadInLength="0/1"  />
               </VectorParam>
               <VectorParam id="978"  name="scale">
                <InterpolatingParam id="979" interp="linr"  time="-9999999/1" value="1" leadInLength="0/1"  />
                <InterpolatingParam id="980" interp="linr"  time="-9999999/1" value="1" leadInLength="0/1"  />
                <InterpolatingParam id="981" interp="linr"  time="-9999999/1" value="1" leadInLength="0/1"  />
               </VectorParam>
               <VectorParam id="982"  name="anchor">
                <InterpolatingParam id="983" interp="linr"  time="0/1" value="0" leadInLength="0/1"  />
                <InterpolatingParam id="984" interp="linr"  time="0/1" value="0" leadInLength="0/1"  />
                <InterpolatingParam id="985" interp="linr"  time="0/1" value="0" leadInLength="0/1"  />
               </VectorParam>
              </Transformer>
              <Parameters>
               <VectorParam id="986"  name="sourceCrop">
                <InterpolatingParam id="987" interp="linr"  time="0/1" value="0" leadInLength="0/1"  />
                <InterpolatingParam id="988" interp="linr"  time="0/1" value="0" leadInLength="0/1"  />
                <InterpolatingParam id="989" interp="linr"  time="0/1" value="0" leadInLength="0/1"  />
                <InterpolatingParam id="990" interp="linr"  time="0/1" value="0" leadInLength="0/1"  />
               </VectorParam>
               <VectorParam id="991"  name="geometryCrop">
                <InterpolatingParam id="992" interp="linr"  time="-9999999/1" value="0" leadInLength="0/1"  />
                <InterpolatingParam id="993" interp="linr"  time="-9999999/1" value="0" leadInLength="0/1"  />
                <InterpolatingParam id="994" interp="linr"  time="-9999999/1" value="0" leadInLength="0/1"  />
                <InterpolatingParam id="995" interp="linr"  time="-9999999/1" value="0" leadInLength="0/1"  />
               </VectorParam>
               <InterpolatingParam id="996" interp="linr"  time="-9999999/1" value="1" leadInLength="0/1"  name="opacity"/>
               <InterpolatingParam id="997" interp="linr"  time="0/1" value="0" leadInLength="0/1"  name="cursorOpacity"/>
               <InterpolatingParam id="998" interp="linr"  time="0/1" value="0" leadInLength="0/1"  name="cursorScale"/>
              </Parameters>
              <Attributes>
               <Attribute id="999" value="" name="ident"/>
              </Attributes>
              <ExtraData>
               <Entry key="ZoomPanBin">
                <ZoomPanBin id="1000"  >
                 <ZoomPanKeyframes>
                  <ZoomPanKeyframe id="1001" timeRangeEnd="-9999999/1" timeRangeDuration="0/1" interpolaterName="linr"  />
                 </ZoomPanKeyframes>
                </ZoomPanBin>
               </Entry>
               <Entry key="CursorEffectBin">
                <CursorEffectBin id="1002"  >
                 <CursorEffectKeyframes>
                 </CursorEffectKeyframes>
                </CursorEffectBin>
               </Entry>
              </ExtraData>
             </ScreenVMFile>
             <MetaData>
              <entry key="AutoAppliedSmartFocus" val="False"/>
              <entry key="WinSubProjectDisplayName" val=""/>
             </MetaData>
            </UnifiedMedia>
            <UnifiedMedia id="1003"  >
             <AMFile id="1004" start="2113" duration="95" scalar="1/1" mediaStart="2315/1" mediaDuration="95/1" trackNumber="1" src="4" channelNumber="0,1" >
              <Parameters>
               <InterpolatingParam id="1005" interp="linr"  time="0/1" value="1" leadInLength="0/1"  name="volume"/>
               <Parameter id="1006"  name="captions"/>
              </Parameters>
              <Attributes>
               <Attribute id="1007" value="" name="ident"/>
               <Attribute id="1008" value="44100" name="sampleRate"/>
               <Attribute id="1009" value="16" name="bitDepth"/>
               <Attribute id="1010" value="1" name="gain"/>
               <Attribute id="1011" value="0" name="mixToMono"/>
              </Attributes>
             </AMFile>
             <ScreenVMFile id="1012" start="2113" duration="95" scalar="1/1" mediaStart="2315/1" mediaDuration="95/1" trackNumber="0" src="4" >
              <Transformer>
               <VectorParam id="1013"  name="translation">
                <InterpolatingParam id="1014" interp="linr"  time="-9999999/1" value="0" leadInLength="0/1"  />
                <InterpolatingParam id="1015" interp="linr"  time="-9999999/1" value="0" leadInLength="0/1"  />
                <InterpolatingParam id="1016" interp="linr"  time="-9999999/1" value="0" leadInLength="0/1"  />
               </VectorParam>
               <VectorParam id="1017"  name="rotation">
                <InterpolatingParam id="1018" interp="linr"  time="-9999999/1" value="0" leadInLength="0/1"  />
                <InterpolatingParam id="1019" interp="linr"  time="-9999999/1" value="0" leadInLength="0/1"  />
                <InterpolatingParam id="1020" interp="linr"  time="-9999999/1" value="0" leadInLength="0/1"  />
               </VectorParam>
               <VectorParam id="1021"  name="shear">
                <InterpolatingParam id="1022" interp="linr"  time="-9999999/1" value="0" leadInLength="0/1"  />
                <InterpolatingParam id="1023" interp="linr"  time="-9999999/1" value="0" leadInLength="0/1"  />
                <InterpolatingParam id="1024" interp="linr"  time="-9999999/1" value="0" leadInLength="0/1"  />
               </VectorParam>
               <VectorParam id="1025"  name="scale">
                <InterpolatingParam id="1026" interp="linr"  time="-9999999/1" value="1" leadInLength="0/1"  />
                <InterpolatingParam id="1027" interp="linr"  time="-9999999/1" value="1" leadInLength="0/1"  />
                <InterpolatingParam id="1028" interp="linr"  time="-9999999/1" value="1" leadInLength="0/1"  />
               </VectorParam>
               <VectorParam id="1029"  name="anchor">
                <InterpolatingParam id="1030" interp="linr"  time="0/1" value="0" leadInLength="0/1"  />
                <InterpolatingParam id="1031" interp="linr"  time="0/1" value="0" leadInLength="0/1"  />
                <InterpolatingParam id="1032" interp="linr"  time="0/1" value="0" leadInLength="0/1"  />
               </VectorParam>
              </Transformer>
              <Parameters>
               <VectorParam id="1033"  name="sourceCrop">
                <InterpolatingParam id="1034" interp="linr"  time="0/1" value="0" leadInLength="0/1"  />
                <InterpolatingParam id="1035" interp="linr"  time="0/1" value="0" leadInLength="0/1"  />
                <InterpolatingParam id="1036" interp="linr"  time="0/1" value="0" leadInLength="0/1"  />
                <InterpolatingParam id="1037" interp="linr"  time="0/1" value="0" leadInLength="0/1"  />
               </VectorParam>
               <VectorParam id="1038"  name="geometryCrop">
                <InterpolatingParam id="1039" interp="linr"  time="-9999999/1" value="0" leadInLength="0/1"  />
                <InterpolatingParam id="1040" interp="linr"  time="-9999999/1" value="0" leadInLength="0/1"  />
                <InterpolatingParam id="1041" interp="linr"  time="-9999999/1" value="0" leadInLength="0/1"  />
                <InterpolatingParam id="1042" interp="linr"  time="-9999999/1" value="0" leadInLength="0/1"  />
               </VectorParam>
               <InterpolatingParam id="1043" interp="linr"  time="-9999999/1" value="1" leadInLength="0/1"  name="opacity"/>
               <InterpolatingParam id="1044" interp="linr"  time="0/1" value="0" leadInLength="0/1"  name="cursorOpacity"/>
               <InterpolatingParam id="1045" interp="linr"  time="0/1" value="0" leadInLength="0/1"  name="cursorScale"/>
              </Parameters>
              <Attributes>
               <Attribute id="1046" value="" name="ident"/>
              </Attributes>
              <ExtraData>
               <Entry key="ZoomPanBin">
                <ZoomPanBin id="1047"  >
                 <ZoomPanKeyframes>
                  <ZoomPanKeyframe id="1048" timeRangeEnd="-9999999/1" timeRangeDuration="0/1" interpolaterName="linr"  />
                 </ZoomPanKeyframes>
                </ZoomPanBin>
               </Entry>
               <Entry key="CursorEffectBin">
                <CursorEffectBin id="1049"  >
                 <CursorEffectKeyframes>
                 </CursorEffectKeyframes>
                </CursorEffectBin>
               </Entry>
              </ExtraData>
             </ScreenVMFile>
             <MetaData>
              <entry key="AutoAppliedSmartFocus" val="False"/>
              <entry key="WinSubProjectDisplayName" val=""/>
             </MetaData>
            </UnifiedMedia>
            <UnifiedMedia id="1050"  >
             <AMFile id="1051" start="2208" duration="84" scalar="1/1" mediaStart="2423/1" mediaDuration="84/1" trackNumber="1" src="4" channelNumber="0,1" >
              <Parameters>
               <InterpolatingParam id="1052" interp="linr"  time="0/1" value="1" leadInLength="0/1"  name="volume"/>
               <Parameter id="1053"  name="captions"/>
              </Parameters>
              <Attributes>
               <Attribute id="1054" value="" name="ident"/>
               <Attribute id="1055" value="44100" name="sampleRate"/>
               <Attribute id="1056" value="16" name="bitDepth"/>
               <Attribute id="1057" value="1" name="gain"/>
               <Attribute id="1058" value="0" name="mixToMono"/>
              </Attributes>
             </AMFile>
             <ScreenVMFile id="1059" start="2208" duration="84" scalar="1/1" mediaStart="2423/1" mediaDuration="84/1" trackNumber="0" src="4" >
              <Transformer>
               <VectorParam id="1060"  name="translation">
                <InterpolatingParam id="1061" interp="linr"  time="-9999999/1" value="0" leadInLength="0/1"  />
                <InterpolatingParam id="1062" interp="linr"  time="-9999999/1" value="0" leadInLength="0/1"  />
                <InterpolatingParam id="1063" interp="linr"  time="-9999999/1" value="0" leadInLength="0/1"  />
               </VectorParam>
               <VectorParam id="1064"  name="rotation">
                <InterpolatingParam id="1065" interp="linr"  time="-9999999/1" value="0" leadInLength="0/1"  />
                <InterpolatingParam id="1066" interp="linr"  time="-9999999/1" value="0" leadInLength="0/1"  />
                <InterpolatingParam id="1067" interp="linr"  time="-9999999/1" value="0" leadInLength="0/1"  />
               </VectorParam>
               <VectorParam id="1068"  name="shear">
                <InterpolatingParam id="1069" interp="linr"  time="-9999999/1" value="0" leadInLength="0/1"  />
                <InterpolatingParam id="1070" interp="linr"  time="-9999999/1" value="0" leadInLength="0/1"  />
                <InterpolatingParam id="1071" interp="linr"  time="-9999999/1" value="0" leadInLength="0/1"  />
               </VectorParam>
               <VectorParam id="1072"  name="scale">
                <InterpolatingParam id="1073" interp="linr"  time="-9999999/1" value="1" leadInLength="0/1"  />
                <InterpolatingParam id="1074" interp="linr"  time="-9999999/1" value="1" leadInLength="0/1"  />
                <InterpolatingParam id="1075" interp="linr"  time="-9999999/1" value="1" leadInLength="0/1"  />
               </VectorParam>
               <VectorParam id="1076"  name="anchor">
                <InterpolatingParam id="1077" interp="linr"  time="0/1" value="0" leadInLength="0/1"  />
                <InterpolatingParam id="1078" interp="linr"  time="0/1" value="0" leadInLength="0/1"  />
                <InterpolatingParam id="1079" interp="linr"  time="0/1" value="0" leadInLength="0/1"  />
               </VectorParam>
              </Transformer>
              <Parameters>
               <VectorParam id="1080"  name="sourceCrop">
                <InterpolatingParam id="1081" interp="linr"  time="0/1" value="0" leadInLength="0/1"  />
                <InterpolatingParam id="1082" interp="linr"  time="0/1" value="0" leadInLength="0/1"  />
                <InterpolatingParam id="1083" interp="linr"  time="0/1" value="0" leadInLength="0/1"  />
                <InterpolatingParam id="1084" interp="linr"  time="0/1" value="0" leadInLength="0/1"  />
               </VectorParam>
               <VectorParam id="1085"  name="geometryCrop">
                <InterpolatingParam id="1086" interp="linr"  time="-9999999/1" value="0" leadInLength="0/1"  />
                <InterpolatingParam id="1087" interp="linr"  time="-9999999/1" value="0" leadInLength="0/1"  />
                <InterpolatingParam id="1088" interp="linr"  time="-9999999/1" value="0" leadInLength="0/1"  />
                <InterpolatingParam id="1089" interp="linr"  time="-9999999/1" value="0" leadInLength="0/1"  />
               </VectorParam>
               <InterpolatingParam id="1090" interp="linr"  time="-9999999/1" value="1" leadInLength="0/1"  name="opacity"/>
               <InterpolatingParam id="1091" interp="linr"  time="0/1" value="0" leadInLength="0/1"  name="cursorOpacity"/>
               <InterpolatingParam id="1092" interp="linr"  time="0/1" value="0" leadInLength="0/1"  name="cursorScale"/>
              </Parameters>
              <Attributes>
               <Attribute id="1093" value="" name="ident"/>
              </Attributes>
              <ExtraData>
               <Entry key="ZoomPanBin">
                <ZoomPanBin id="1094"  >
                 <ZoomPanKeyframes>
                  <ZoomPanKeyframe id="1095" timeRangeEnd="-9999999/1" timeRangeDuration="0/1" interpolaterName="linr"  />
                 </ZoomPanKeyframes>
                </ZoomPanBin>
               </Entry>
               <Entry key="CursorEffectBin">
                <CursorEffectBin id="1096"  >
                 <CursorEffectKeyframes>
                 </CursorEffectKeyframes>
                </CursorEffectBin>
               </Entry>
              </ExtraData>
             </ScreenVMFile>
             <MetaData>
              <entry key="AutoAppliedSmartFocus" val="False"/>
              <entry key="WinSubProjectDisplayName" val=""/>
             </MetaData>
            </UnifiedMedia>
            <UnifiedMedia id="1097"  >
             <AMFile id="1098" start="2292" duration="283" scalar="1/1" mediaStart="2520/1" mediaDuration="283/1" trackNumber="1" src="4" channelNumber="0,1" >
              <Parameters>
               <InterpolatingParam id="1099" interp="linr"  time="0/1" value="1" leadInLength="0/1"  name="volume"/>
               <Parameter id="1100"  name="captions"/>
              </Parameters>
              <Attributes>
               <Attribute id="1101" value="" name="ident"/>
               <Attribute id="1102" value="44100" name="sampleRate"/>
               <Attribute id="1103" value="16" name="bitDepth"/>
               <Attribute id="1104" value="1" name="gain"/>
               <Attribute id="1105" value="0" name="mixToMono"/>
              </Attributes>
             </AMFile>
             <ScreenVMFile id="1106" start="2292" duration="283" scalar="1/1" mediaStart="2520/1" mediaDuration="283/1" trackNumber="0" src="4" >
              <Transformer>
               <VectorParam id="1107"  name="translation">
                <InterpolatingParam id="1108" interp="linr"  time="-9999999/1" value="0" leadInLength="0/1"  />
                <InterpolatingParam id="1109" interp="linr"  time="-9999999/1" value="0" leadInLength="0/1"  />
                <InterpolatingParam id="1110" interp="linr"  time="-9999999/1" value="0" leadInLength="0/1"  />
               </VectorParam>
               <VectorParam id="1111"  name="rotation">
                <InterpolatingParam id="1112" interp="linr"  time="-9999999/1" value="0" leadInLength="0/1"  />
                <InterpolatingParam id="1113" interp="linr"  time="-9999999/1" value="0" leadInLength="0/1"  />
                <InterpolatingParam id="1114" interp="linr"  time="-9999999/1" value="0" leadInLength="0/1"  />
               </VectorParam>
               <VectorParam id="1115"  name="shear">
                <InterpolatingParam id="1116" interp="linr"  time="-9999999/1" value="0" leadInLength="0/1"  />
                <InterpolatingParam id="1117" interp="linr"  time="-9999999/1" value="0" leadInLength="0/1"  />
                <InterpolatingParam id="1118" interp="linr"  time="-9999999/1" value="0" leadInLength="0/1"  />
               </VectorParam>
               <VectorParam id="1119"  name="scale">
                <InterpolatingParam id="1120" interp="linr"  time="-9999999/1" value="1" leadInLength="0/1"  />
                <InterpolatingParam id="1121" interp="linr"  time="-9999999/1" value="1" leadInLength="0/1"  />
                <InterpolatingParam id="1122" interp="linr"  time="-9999999/1" value="1" leadInLength="0/1"  />
               </VectorParam>
               <VectorParam id="1123"  name="anchor">
                <InterpolatingParam id="1124" interp="linr"  time="0/1" value="0" leadInLength="0/1"  />
                <InterpolatingParam id="1125" interp="linr"  time="0/1" value="0" leadInLength="0/1"  />
                <InterpolatingParam id="1126" interp="linr"  time="0/1" value="0" leadInLength="0/1"  />
               </VectorParam>
              </Transformer>
              <Parameters>
               <VectorParam id="1127"  name="sourceCrop">
                <InterpolatingParam id="1128" interp="linr"  time="0/1" value="0" leadInLength="0/1"  />
                <InterpolatingParam id="1129" interp="linr"  time="0/1" value="0" leadInLength="0/1"  />
                <InterpolatingParam id="1130" interp="linr"  time="0/1" value="0" leadInLength="0/1"  />
                <InterpolatingParam id="1131" interp="linr"  time="0/1" value="0" leadInLength="0/1"  />
               </VectorParam>
               <VectorParam id="1132"  name="geometryCrop">
                <InterpolatingParam id="1133" interp="linr"  time="-9999999/1" value="0" leadInLength="0/1"  />
                <InterpolatingParam id="1134" interp="linr"  time="-9999999/1" value="0" leadInLength="0/1"  />
                <InterpolatingParam id="1135" interp="linr"  time="-9999999/1" value="0" leadInLength="0/1"  />
                <InterpolatingParam id="1136" interp="linr"  time="-9999999/1" value="0" leadInLength="0/1"  />
               </VectorParam>
               <InterpolatingParam id="1137" interp="linr"  time="-9999999/1" value="1" leadInLength="0/1"  name="opacity"/>
               <InterpolatingParam id="1138" interp="linr"  time="0/1" value="0" leadInLength="0/1"  name="cursorOpacity"/>
               <InterpolatingParam id="1139" interp="linr"  time="0/1" value="0" leadInLength="0/1"  name="cursorScale"/>
              </Parameters>
              <Attributes>
               <Attribute id="1140" value="" name="ident"/>
              </Attributes>
              <ExtraData>
               <Entry key="ZoomPanBin">
                <ZoomPanBin id="1141"  >
                 <ZoomPanKeyframes>
                  <ZoomPanKeyframe id="1142" timeRangeEnd="-9999999/1" timeRangeDuration="0/1" interpolaterName="linr"  />
                 </ZoomPanKeyframes>
                </ZoomPanBin>
               </Entry>
               <Entry key="CursorEffectBin">
                <CursorEffectBin id="1143"  >
                 <CursorEffectKeyframes>
                 </CursorEffectKeyframes>
                </CursorEffectBin>
               </Entry>
              </ExtraData>
             </ScreenVMFile>
             <MetaData>
              <entry key="AutoAppliedSmartFocus" val="False"/>
              <entry key="WinSubProjectDisplayName" val=""/>
             </MetaData>
            </UnifiedMedia>
            <UnifiedMedia id="1144"  >
             <AMFile id="1145" start="2575" duration="165" scalar="1/1" mediaStart="2812/1" mediaDuration="165/1" trackNumber="1" src="4" channelNumber="0,1" >
              <Parameters>
               <InterpolatingParam id="1146" interp="linr"  time="0/1" value="1" leadInLength="0/1"  name="volume"/>
               <Parameter id="1147"  name="captions"/>
              </Parameters>
              <Attributes>
               <Attribute id="1148" value="" name="ident"/>
               <Attribute id="1149" value="44100" name="sampleRate"/>
               <Attribute id="1150" value="16" name="bitDepth"/>
               <Attribute id="1151" value="1" name="gain"/>
               <Attribute id="1152" value="0" name="mixToMono"/>
              </Attributes>
             </AMFile>
             <ScreenVMFile id="1153" start="2575" duration="165" scalar="1/1" mediaStart="2812/1" mediaDuration="165/1" trackNumber="0" src="4" >
              <Transformer>
               <VectorParam id="1154"  name="translation">
                <InterpolatingParam id="1155" interp="linr"  time="-9999999/1" value="0" leadInLength="0/1"  />
                <InterpolatingParam id="1156" interp="linr"  time="-9999999/1" value="0" leadInLength="0/1"  />
                <InterpolatingParam id="1157" interp="linr"  time="-9999999/1" value="0" leadInLength="0/1"  />
               </VectorParam>
               <VectorParam id="1158"  name="rotation">
                <InterpolatingParam id="1159" interp="linr"  time="-9999999/1" value="0" leadInLength="0/1"  />
                <InterpolatingParam id="1160" interp="linr"  time="-9999999/1" value="0" leadInLength="0/1"  />
                <InterpolatingParam id="1161" interp="linr"  time="-9999999/1" value="0" leadInLength="0/1"  />
               </VectorParam>
               <VectorParam id="1162"  name="shear">
                <InterpolatingParam id="1163" interp="linr"  time="-9999999/1" value="0" leadInLength="0/1"  />
                <InterpolatingParam id="1164" interp="linr"  time="-9999999/1" value="0" leadInLength="0/1"  />
                <InterpolatingParam id="1165" interp="linr"  time="-9999999/1" value="0" leadInLength="0/1"  />
               </VectorParam>
               <VectorParam id="1166"  name="scale">
                <InterpolatingParam id="1167" interp="linr"  time="-9999999/1" value="1" leadInLength="0/1"  />
                <InterpolatingParam id="1168" interp="linr"  time="-9999999/1" value="1" leadInLength="0/1"  />
                <InterpolatingParam id="1169" interp="linr"  time="-9999999/1" value="1" leadInLength="0/1"  />
               </VectorParam>
               <VectorParam id="1170"  name="anchor">
                <InterpolatingParam id="1171" interp="linr"  time="0/1" value="0" leadInLength="0/1"  />
                <InterpolatingParam id="1172" interp="linr"  time="0/1" value="0" leadInLength="0/1"  />
                <InterpolatingParam id="1173" interp="linr"  time="0/1" value="0" leadInLength="0/1"  />
               </VectorParam>
              </Transformer>
              <Parameters>
               <VectorParam id="1174"  name="sourceCrop">
                <InterpolatingParam id="1175" interp="linr"  time="0/1" value="0" leadInLength="0/1"  />
                <InterpolatingParam id="1176" interp="linr"  time="0/1" value="0" leadInLength="0/1"  />
                <InterpolatingParam id="1177" interp="linr"  time="0/1" value="0" leadInLength="0/1"  />
                <InterpolatingParam id="1178" interp="linr"  time="0/1" value="0" leadInLength="0/1"  />
               </VectorParam>
               <VectorParam id="1179"  name="geometryCrop">
                <InterpolatingParam id="1180" interp="linr"  time="-9999999/1" value="0" leadInLength="0/1"  />
                <InterpolatingParam id="1181" interp="linr"  time="-9999999/1" value="0" leadInLength="0/1"  />
                <InterpolatingParam id="1182" interp="linr"  time="-9999999/1" value="0" leadInLength="0/1"  />
                <InterpolatingParam id="1183" interp="linr"  time="-9999999/1" value="0" leadInLength="0/1"  />
               </VectorParam>
               <InterpolatingParam id="1184" interp="linr"  time="-9999999/1" value="1" leadInLength="0/1"  name="opacity"/>
               <InterpolatingParam id="1185" interp="linr"  time="0/1" value="0" leadInLength="0/1"  name="cursorOpacity"/>
               <InterpolatingParam id="1186" interp="linr"  time="0/1" value="0" leadInLength="0/1"  name="cursorScale"/>
              </Parameters>
              <Attributes>
               <Attribute id="1187" value="" name="ident"/>
              </Attributes>
              <ExtraData>
               <Entry key="ZoomPanBin">
                <ZoomPanBin id="1188"  >
                 <ZoomPanKeyframes>
                  <ZoomPanKeyframe id="1189" timeRangeEnd="-9999999/1" timeRangeDuration="0/1" interpolaterName="linr"  />
                 </ZoomPanKeyframes>
                </ZoomPanBin>
               </Entry>
               <Entry key="CursorEffectBin">
                <CursorEffectBin id="1190"  >
                 <CursorEffectKeyframes>
                 </CursorEffectKeyframes>
                </CursorEffectBin>
               </Entry>
              </ExtraData>
             </ScreenVMFile>
             <MetaData>
              <entry key="AutoAppliedSmartFocus" val="False"/>
              <entry key="WinSubProjectDisplayName" val=""/>
             </MetaData>
            </UnifiedMedia>
            <UnifiedMedia id="1191"  >
             <AMFile id="1192" start="2740" duration="438" scalar="1/1" mediaStart="2999/1" mediaDuration="438/1" trackNumber="1" src="4" channelNumber="0,1" >
              <Parameters>
               <InterpolatingParam id="1193" interp="linr"  time="0/1" value="1" leadInLength="0/1"  name="volume"/>
               <Parameter id="1194"  name="captions"/>
              </Parameters>
              <Attributes>
               <Attribute id="1195" value="" name="ident"/>
               <Attribute id="1196" value="44100" name="sampleRate"/>
               <Attribute id="1197" value="16" name="bitDepth"/>
               <Attribute id="1198" value="1" name="gain"/>
               <Attribute id="1199" value="0" name="mixToMono"/>
              </Attributes>
             </AMFile>
             <ScreenVMFile id="1200" start="2740" duration="438" scalar="1/1" mediaStart="2999/1" mediaDuration="438/1" trackNumber="0" src="4" >
              <Transformer>
               <VectorParam id="1201"  name="translation">
                <InterpolatingParam id="1202" interp="linr"  time="-9999999/1" value="0" leadInLength="0/1"  />
                <InterpolatingParam id="1203" interp="linr"  time="-9999999/1" value="0" leadInLength="0/1"  />
                <InterpolatingParam id="1204" interp="linr"  time="-9999999/1" value="0" leadInLength="0/1"  />
               </VectorParam>
               <VectorParam id="1205"  name="rotation">
                <InterpolatingParam id="1206" interp="linr"  time="-9999999/1" value="0" leadInLength="0/1"  />
                <InterpolatingParam id="1207" interp="linr"  time="-9999999/1" value="0" leadInLength="0/1"  />
                <InterpolatingParam id="1208" interp="linr"  time="-9999999/1" value="0" leadInLength="0/1"  />
               </VectorParam>
               <VectorParam id="1209"  name="shear">
                <InterpolatingParam id="1210" interp="linr"  time="-9999999/1" value="0" leadInLength="0/1"  />
                <InterpolatingParam id="1211" interp="linr"  time="-9999999/1" value="0" leadInLength="0/1"  />
                <InterpolatingParam id="1212" interp="linr"  time="-9999999/1" value="0" leadInLength="0/1"  />
               </VectorParam>
               <VectorParam id="1213"  name="scale">
                <InterpolatingParam id="1214" interp="linr"  time="-9999999/1" value="1" leadInLength="0/1"  />
                <InterpolatingParam id="1215" interp="linr"  time="-9999999/1" value="1" leadInLength="0/1"  />
                <InterpolatingParam id="1216" interp="linr"  time="-9999999/1" value="1" leadInLength="0/1"  />
               </VectorParam>
               <VectorParam id="1217"  name="anchor">
                <InterpolatingParam id="1218" interp="linr"  time="0/1" value="0" leadInLength="0/1"  />
                <InterpolatingParam id="1219" interp="linr"  time="0/1" value="0" leadInLength="0/1"  />
                <InterpolatingParam id="1220" interp="linr"  time="0/1" value="0" leadInLength="0/1"  />
               </VectorParam>
              </Transformer>
              <Parameters>
               <VectorParam id="1221"  name="sourceCrop">
                <InterpolatingParam id="1222" interp="linr"  time="0/1" value="0" leadInLength="0/1"  />
                <InterpolatingParam id="1223" interp="linr"  time="0/1" value="0" leadInLength="0/1"  />
                <InterpolatingParam id="1224" interp="linr"  time="0/1" value="0" leadInLength="0/1"  />
                <InterpolatingParam id="1225" interp="linr"  time="0/1" value="0" leadInLength="0/1"  />
               </VectorParam>
               <VectorParam id="1226"  name="geometryCrop">
                <InterpolatingParam id="1227" interp="linr"  time="-9999999/1" value="0" leadInLength="0/1"  />
                <InterpolatingParam id="1228" interp="linr"  time="-9999999/1" value="0" leadInLength="0/1"  />
                <InterpolatingParam id="1229" interp="linr"  time="-9999999/1" value="0" leadInLength="0/1"  />
                <InterpolatingParam id="1230" interp="linr"  time="-9999999/1" value="0" leadInLength="0/1"  />
               </VectorParam>
               <InterpolatingParam id="1231" interp="linr"  time="-9999999/1" value="1" leadInLength="0/1"  name="opacity"/>
               <InterpolatingParam id="1232" interp="linr"  time="0/1" value="0" leadInLength="0/1"  name="cursorOpacity"/>
               <InterpolatingParam id="1233" interp="linr"  time="0/1" value="0" leadInLength="0/1"  name="cursorScale"/>
              </Parameters>
              <Attributes>
               <Attribute id="1234" value="" name="ident"/>
              </Attributes>
              <ExtraData>
               <Entry key="ZoomPanBin">
                <ZoomPanBin id="1235"  >
                 <ZoomPanKeyframes>
                  <ZoomPanKeyframe id="1236" timeRangeEnd="-9999999/1" timeRangeDuration="0/1" interpolaterName="linr"  />
                 </ZoomPanKeyframes>
                </ZoomPanBin>
               </Entry>
               <Entry key="CursorEffectBin">
                <CursorEffectBin id="1237"  >
                 <CursorEffectKeyframes>
                 </CursorEffectKeyframes>
                </CursorEffectBin>
               </Entry>
              </ExtraData>
             </ScreenVMFile>
             <MetaData>
              <entry key="AutoAppliedSmartFocus" val="False"/>
              <entry key="WinSubProjectDisplayName" val=""/>
             </MetaData>
            </UnifiedMedia>
            <UnifiedMedia id="1238"  >
             <AMFile id="1239" start="3178" duration="290" scalar="1/1" mediaStart="3451/1" mediaDuration="290/1" trackNumber="1" src="4" channelNumber="0,1" >
              <Parameters>
               <InterpolatingParam id="1240" interp="linr"  time="0/1" value="1" leadInLength="0/1"  name="volume"/>
               <Parameter id="1241"  name="captions"/>
              </Parameters>
              <Attributes>
               <Attribute id="1242" value="" name="ident"/>
               <Attribute id="1243" value="44100" name="sampleRate"/>
               <Attribute id="1244" value="16" name="bitDepth"/>
               <Attribute id="1245" value="1" name="gain"/>
               <Attribute id="1246" value="0" name="mixToMono"/>
              </Attributes>
             </AMFile>
             <ScreenVMFile id="1247" start="3178" duration="290" scalar="1/1" mediaStart="3451/1" mediaDuration="290/1" trackNumber="0" src="4" >
              <Transformer>
               <VectorParam id="1248"  name="translation">
                <InterpolatingParam id="1249" interp="linr"  time="-9999999/1" value="0" leadInLength="0/1"  />
                <InterpolatingParam id="1250" interp="linr"  time="-9999999/1" value="0" leadInLength="0/1"  />
                <InterpolatingParam id="1251" interp="linr"  time="-9999999/1" value="0" leadInLength="0/1"  />
               </VectorParam>
               <VectorParam id="1252"  name="rotation">
                <InterpolatingParam id="1253" interp="linr"  time="-9999999/1" value="0" leadInLength="0/1"  />
                <InterpolatingParam id="1254" interp="linr"  time="-9999999/1" value="0" leadInLength="0/1"  />
                <InterpolatingParam id="1255" interp="linr"  time="-9999999/1" value="0" leadInLength="0/1"  />
               </VectorParam>
               <VectorParam id="1256"  name="shear">
                <InterpolatingParam id="1257" interp="linr"  time="-9999999/1" value="0" leadInLength="0/1"  />
                <InterpolatingParam id="1258" interp="linr"  time="-9999999/1" value="0" leadInLength="0/1"  />
                <InterpolatingParam id="1259" interp="linr"  time="-9999999/1" value="0" leadInLength="0/1"  />
               </VectorParam>
               <VectorParam id="1260"  name="scale">
                <InterpolatingParam id="1261" interp="linr"  time="-9999999/1" value="1" leadInLength="0/1"  />
                <InterpolatingParam id="1262" interp="linr"  time="-9999999/1" value="1" leadInLength="0/1"  />
                <InterpolatingParam id="1263" interp="linr"  time="-9999999/1" value="1" leadInLength="0/1"  />
               </VectorParam>
               <VectorParam id="1264"  name="anchor">
                <InterpolatingParam id="1265" interp="linr"  time="0/1" value="0" leadInLength="0/1"  />
                <InterpolatingParam id="1266" interp="linr"  time="0/1" value="0" leadInLength="0/1"  />
                <InterpolatingParam id="1267" interp="linr"  time="0/1" value="0" leadInLength="0/1"  />
               </VectorParam>
              </Transformer>
              <Parameters>
               <VectorParam id="1268"  name="sourceCrop">
                <InterpolatingParam id="1269" interp="linr"  time="0/1" value="0" leadInLength="0/1"  />
                <InterpolatingParam id="1270" interp="linr"  time="0/1" value="0" leadInLength="0/1"  />
                <InterpolatingParam id="1271" interp="linr"  time="0/1" value="0" leadInLength="0/1"  />
                <InterpolatingParam id="1272" interp="linr"  time="0/1" value="0" leadInLength="0/1"  />
               </VectorParam>
               <VectorParam id="1273"  name="geometryCrop">
                <InterpolatingParam id="1274" interp="linr"  time="-9999999/1" value="0" leadInLength="0/1"  />
                <InterpolatingParam id="1275" interp="linr"  time="-9999999/1" value="0" leadInLength="0/1"  />
                <InterpolatingParam id="1276" interp="linr"  time="-9999999/1" value="0" leadInLength="0/1"  />
                <InterpolatingParam id="1277" interp="linr"  time="-9999999/1" value="0" leadInLength="0/1"  />
               </VectorParam>
               <InterpolatingParam id="1278" interp="linr"  time="-9999999/1" value="1" leadInLength="0/1"  name="opacity"/>
               <InterpolatingParam id="1279" interp="linr"  time="0/1" value="0" leadInLength="0/1"  name="cursorOpacity"/>
               <InterpolatingParam id="1280" interp="linr"  time="0/1" value="0" leadInLength="0/1"  name="cursorScale"/>
              </Parameters>
              <Attributes>
               <Attribute id="1281" value="" name="ident"/>
              </Attributes>
              <ExtraData>
               <Entry key="ZoomPanBin">
                <ZoomPanBin id="1282"  >
                 <ZoomPanKeyframes>
                  <ZoomPanKeyframe id="1283" timeRangeEnd="-9999999/1" timeRangeDuration="0/1" interpolaterName="linr"  />
                 </ZoomPanKeyframes>
                </ZoomPanBin>
               </Entry>
               <Entry key="CursorEffectBin">
                <CursorEffectBin id="1284"  >
                 <CursorEffectKeyframes>
                 </CursorEffectKeyframes>
                </CursorEffectBin>
               </Entry>
              </ExtraData>
             </ScreenVMFile>
             <MetaData>
              <entry key="AutoAppliedSmartFocus" val="False"/>
              <entry key="WinSubProjectDisplayName" val=""/>
             </MetaData>
            </UnifiedMedia>
            <UnifiedMedia id="1285"  >
             <AMFile id="1286" start="3468" duration="67" scalar="1/1" mediaStart="3749/1" mediaDuration="67/1" trackNumber="1" src="4" channelNumber="0,1" >
              <Parameters>
               <InterpolatingParam id="1287" interp="linr"  time="0/1" value="1" leadInLength="0/1"  name="volume"/>
               <Parameter id="1288"  name="captions"/>
              </Parameters>
              <Attributes>
               <Attribute id="1289" value="" name="ident"/>
               <Attribute id="1290" value="44100" name="sampleRate"/>
               <Attribute id="1291" value="16" name="bitDepth"/>
               <Attribute id="1292" value="1" name="gain"/>
               <Attribute id="1293" value="0" name="mixToMono"/>
              </Attributes>
             </AMFile>
             <ScreenVMFile id="1294" start="3468" duration="67" scalar="1/1" mediaStart="3749/1" mediaDuration="67/1" trackNumber="0" src="4" >
              <Transformer>
               <VectorParam id="1295"  name="translation">
                <InterpolatingParam id="1296" interp="linr"  time="-9999999/1" value="0" leadInLength="0/1"  />
                <InterpolatingParam id="1297" interp="linr"  time="-9999999/1" value="0" leadInLength="0/1"  />
                <InterpolatingParam id="1298" interp="linr"  time="-9999999/1" value="0" leadInLength="0/1"  />
               </VectorParam>
               <VectorParam id="1299"  name="rotation">
                <InterpolatingParam id="1300" interp="linr"  time="-9999999/1" value="0" leadInLength="0/1"  />
                <InterpolatingParam id="1301" interp="linr"  time="-9999999/1" value="0" leadInLength="0/1"  />
                <InterpolatingParam id="1302" interp="linr"  time="-9999999/1" value="0" leadInLength="0/1"  />
               </VectorParam>
               <VectorParam id="1303"  name="shear">
                <InterpolatingParam id="1304" interp="linr"  time="-9999999/1" value="0" leadInLength="0/1"  />
                <InterpolatingParam id="1305" interp="linr"  time="-9999999/1" value="0" leadInLength="0/1"  />
                <InterpolatingParam id="1306" interp="linr"  time="-9999999/1" value="0" leadInLength="0/1"  />
               </VectorParam>
               <VectorParam id="1307"  name="scale">
                <InterpolatingParam id="1308" interp="linr"  time="-9999999/1" value="1" leadInLength="0/1"  />
                <InterpolatingParam id="1309" interp="linr"  time="-9999999/1" value="1" leadInLength="0/1"  />
                <InterpolatingParam id="1310" interp="linr"  time="-9999999/1" value="1" leadInLength="0/1"  />
               </VectorParam>
               <VectorParam id="1311"  name="anchor">
                <InterpolatingParam id="1312" interp="linr"  time="0/1" value="0" leadInLength="0/1"  />
                <InterpolatingParam id="1313" interp="linr"  time="0/1" value="0" leadInLength="0/1"  />
                <InterpolatingParam id="1314" interp="linr"  time="0/1" value="0" leadInLength="0/1"  />
               </VectorParam>
              </Transformer>
              <Parameters>
               <VectorParam id="1315"  name="sourceCrop">
                <InterpolatingParam id="1316" interp="linr"  time="0/1" value="0" leadInLength="0/1"  />
                <InterpolatingParam id="1317" interp="linr"  time="0/1" value="0" leadInLength="0/1"  />
                <InterpolatingParam id="1318" interp="linr"  time="0/1" value="0" leadInLength="0/1"  />
                <InterpolatingParam id="1319" interp="linr"  time="0/1" value="0" leadInLength="0/1"  />
               </VectorParam>
               <VectorParam id="1320"  name="geometryCrop">
                <InterpolatingParam id="1321" interp="linr"  time="-9999999/1" value="0" leadInLength="0/1"  />
                <InterpolatingParam id="1322" interp="linr"  time="-9999999/1" value="0" leadInLength="0/1"  />
                <InterpolatingParam id="1323" interp="linr"  time="-9999999/1" value="0" leadInLength="0/1"  />
                <InterpolatingParam id="1324" interp="linr"  time="-9999999/1" value="0" leadInLength="0/1"  />
               </VectorParam>
               <InterpolatingParam id="1325" interp="linr"  time="-9999999/1" value="1" leadInLength="0/1"  name="opacity"/>
               <InterpolatingParam id="1326" interp="linr"  time="0/1" value="0" leadInLength="0/1"  name="cursorOpacity"/>
               <InterpolatingParam id="1327" interp="linr"  time="0/1" value="0" leadInLength="0/1"  name="cursorScale"/>
              </Parameters>
              <Attributes>
               <Attribute id="1328" value="" name="ident"/>
              </Attributes>
              <ExtraData>
               <Entry key="ZoomPanBin">
                <ZoomPanBin id="1329"  >
                 <ZoomPanKeyframes>
                  <ZoomPanKeyframe id="1330" timeRangeEnd="-9999999/1" timeRangeDuration="0/1" interpolaterName="linr"  />
                 </ZoomPanKeyframes>
                </ZoomPanBin>
               </Entry>
               <Entry key="CursorEffectBin">
                <CursorEffectBin id="1331"  >
                 <CursorEffectKeyframes>
                 </CursorEffectKeyframes>
                </CursorEffectBin>
               </Entry>
              </ExtraData>
             </ScreenVMFile>
             <MetaData>
              <entry key="AutoAppliedSmartFocus" val="False"/>
              <entry key="WinSubProjectDisplayName" val=""/>
             </MetaData>
            </UnifiedMedia>
            <UnifiedMedia id="1332"  >
             <AMFile id="1333" start="3535" duration="148" scalar="1/1" mediaStart="3879/1" mediaDuration="148/1" trackNumber="1" src="4" channelNumber="0,1" >
              <Parameters>
               <InterpolatingParam id="1334" interp="linr"  time="0/1" value="1" leadInLength="0/1"  name="volume"/>
               <Parameter id="1335"  name="captions"/>
              </Parameters>
              <Attributes>
               <Attribute id="1336" value="" name="ident"/>
               <Attribute id="1337" value="44100" name="sampleRate"/>
               <Attribute id="1338" value="16" name="bitDepth"/>
               <Attribute id="1339" value="1" name="gain"/>
               <Attribute id="1340" value="0" name="mixToMono"/>
              </Attributes>
             </AMFile>
             <ScreenVMFile id="1341" start="3535" duration="148" scalar="1/1" mediaStart="3879/1" mediaDuration="148/1" trackNumber="0" src="4" >
              <Transformer>
               <VectorParam id="1342"  name="translation">
                <InterpolatingParam id="1343" interp="linr"  time="-9999999/1" value="0" leadInLength="0/1"  />
                <InterpolatingParam id="1344" interp="linr"  time="-9999999/1" value="0" leadInLength="0/1"  />
                <InterpolatingParam id="1345" interp="linr"  time="-9999999/1" value="0" leadInLength="0/1"  />
               </VectorParam>
               <VectorParam id="1346"  name="rotation">
                <InterpolatingParam id="1347" interp="linr"  time="-9999999/1" value="0" leadInLength="0/1"  />
                <InterpolatingParam id="1348" interp="linr"  time="-9999999/1" value="0" leadInLength="0/1"  />
                <InterpolatingParam id="1349" interp="linr"  time="-9999999/1" value="0" leadInLength="0/1"  />
               </VectorParam>
               <VectorParam id="1350"  name="shear">
                <InterpolatingParam id="1351" interp="linr"  time="-9999999/1" value="0" leadInLength="0/1"  />
                <InterpolatingParam id="1352" interp="linr"  time="-9999999/1" value="0" leadInLength="0/1"  />
                <InterpolatingParam id="1353" interp="linr"  time="-9999999/1" value="0" leadInLength="0/1"  />
               </VectorParam>
               <VectorParam id="1354"  name="scale">
                <InterpolatingParam id="1355" interp="linr"  time="-9999999/1" value="1" leadInLength="0/1"  />
                <InterpolatingParam id="1356" interp="linr"  time="-9999999/1" value="1" leadInLength="0/1"  />
                <InterpolatingParam id="1357" interp="linr"  time="-9999999/1" value="1" leadInLength="0/1"  />
               </VectorParam>
               <VectorParam id="1358"  name="anchor">
                <InterpolatingParam id="1359" interp="linr"  time="0/1" value="0" leadInLength="0/1"  />
                <InterpolatingParam id="1360" interp="linr"  time="0/1" value="0" leadInLength="0/1"  />
                <InterpolatingParam id="1361" interp="linr"  time="0/1" value="0" leadInLength="0/1"  />
               </VectorParam>
              </Transformer>
              <Parameters>
               <VectorParam id="1362"  name="sourceCrop">
                <InterpolatingParam id="1363" interp="linr"  time="0/1" value="0" leadInLength="0/1"  />
                <InterpolatingParam id="1364" interp="linr"  time="0/1" value="0" leadInLength="0/1"  />
                <InterpolatingParam id="1365" interp="linr"  time="0/1" value="0" leadInLength="0/1"  />
                <InterpolatingParam id="1366" interp="linr"  time="0/1" value="0" leadInLength="0/1"  />
               </VectorParam>
               <VectorParam id="1367"  name="geometryCrop">
                <InterpolatingParam id="1368" interp="linr"  time="-9999999/1" value="0" leadInLength="0/1"  />
                <InterpolatingParam id="1369" interp="linr"  time="-9999999/1" value="0" leadInLength="0/1"  />
                <InterpolatingParam id="1370" interp="linr"  time="-9999999/1" value="0" leadInLength="0/1"  />
                <InterpolatingParam id="1371" interp="linr"  time="-9999999/1" value="0" leadInLength="0/1"  />
               </VectorParam>
               <InterpolatingParam id="1372" interp="linr"  time="-9999999/1" value="1" leadInLength="0/1"  name="opacity"/>
               <InterpolatingParam id="1373" interp="linr"  time="0/1" value="0" leadInLength="0/1"  name="cursorOpacity"/>
               <InterpolatingParam id="1374" interp="linr"  time="0/1" value="0" leadInLength="0/1"  name="cursorScale"/>
              </Parameters>
              <Attributes>
               <Attribute id="1375" value="" name="ident"/>
              </Attributes>
              <ExtraData>
               <Entry key="ZoomPanBin">
                <ZoomPanBin id="1376"  >
                 <ZoomPanKeyframes>
                  <ZoomPanKeyframe id="1377" timeRangeEnd="-9999999/1" timeRangeDuration="0/1" interpolaterName="linr"  />
                 </ZoomPanKeyframes>
                </ZoomPanBin>
               </Entry>
               <Entry key="CursorEffectBin">
                <CursorEffectBin id="1378"  >
                 <CursorEffectKeyframes>
                 </CursorEffectKeyframes>
                </CursorEffectBin>
               </Entry>
              </ExtraData>
             </ScreenVMFile>
             <MetaData>
              <entry key="AutoAppliedSmartFocus" val="False"/>
              <entry key="WinSubProjectDisplayName" val=""/>
             </MetaData>
            </UnifiedMedia>
            <UnifiedMedia id="1379"  >
             <AMFile id="1380" start="3683" duration="81" scalar="1/1" mediaStart="4052/1" mediaDuration="81/1" trackNumber="1" src="4" channelNumber="0,1" >
              <Parameters>
               <InterpolatingParam id="1381" interp="linr"  time="0/1" value="1" leadInLength="0/1"  name="volume"/>
               <Parameter id="1382"  name="captions"/>
              </Parameters>
              <Attributes>
               <Attribute id="1383" value="" name="ident"/>
               <Attribute id="1384" value="44100" name="sampleRate"/>
               <Attribute id="1385" value="16" name="bitDepth"/>
               <Attribute id="1386" value="1" name="gain"/>
               <Attribute id="1387" value="0" name="mixToMono"/>
              </Attributes>
             </AMFile>
             <ScreenVMFile id="1388" start="3683" duration="81" scalar="1/1" mediaStart="4052/1" mediaDuration="81/1" trackNumber="0" src="4" >
              <Transformer>
               <VectorParam id="1389"  name="translation">
                <InterpolatingParam id="1390" interp="linr"  time="-9999999/1" value="0" leadInLength="0/1"  />
                <InterpolatingParam id="1391" interp="linr"  time="-9999999/1" value="0" leadInLength="0/1"  />
                <InterpolatingParam id="1392" interp="linr"  time="-9999999/1" value="0" leadInLength="0/1"  />
               </VectorParam>
               <VectorParam id="1393"  name="rotation">
                <InterpolatingParam id="1394" interp="linr"  time="-9999999/1" value="0" leadInLength="0/1"  />
                <InterpolatingParam id="1395" interp="linr"  time="-9999999/1" value="0" leadInLength="0/1"  />
                <InterpolatingParam id="1396" interp="linr"  time="-9999999/1" value="0" leadInLength="0/1"  />
               </VectorParam>
               <VectorParam id="1397"  name="shear">
                <InterpolatingParam id="1398" interp="linr"  time="-9999999/1" value="0" leadInLength="0/1"  />
                <InterpolatingParam id="1399" interp="linr"  time="-9999999/1" value="0" leadInLength="0/1"  />
                <InterpolatingParam id="1400" interp="linr"  time="-9999999/1" value="0" leadInLength="0/1"  />
               </VectorParam>
               <VectorParam id="1401"  name="scale">
                <InterpolatingParam id="1402" interp="linr"  time="-9999999/1" value="1" leadInLength="0/1"  />
                <InterpolatingParam id="1403" interp="linr"  time="-9999999/1" value="1" leadInLength="0/1"  />
                <InterpolatingParam id="1404" interp="linr"  time="-9999999/1" value="1" leadInLength="0/1"  />
               </VectorParam>
               <VectorParam id="1405"  name="anchor">
                <InterpolatingParam id="1406" interp="linr"  time="0/1" value="0" leadInLength="0/1"  />
                <InterpolatingParam id="1407" interp="linr"  time="0/1" value="0" leadInLength="0/1"  />
                <InterpolatingParam id="1408" interp="linr"  time="0/1" value="0" leadInLength="0/1"  />
               </VectorParam>
              </Transformer>
              <Parameters>
               <VectorParam id="1409"  name="sourceCrop">
                <InterpolatingParam id="1410" interp="linr"  time="0/1" value="0" leadInLength="0/1"  />
                <InterpolatingParam id="1411" interp="linr"  time="0/1" value="0" leadInLength="0/1"  />
                <InterpolatingParam id="1412" interp="linr"  time="0/1" value="0" leadInLength="0/1"  />
                <InterpolatingParam id="1413" interp="linr"  time="0/1" value="0" leadInLength="0/1"  />
               </VectorParam>
               <VectorParam id="1414"  name="geometryCrop">
                <InterpolatingParam id="1415" interp="linr"  time="-9999999/1" value="0" leadInLength="0/1"  />
                <InterpolatingParam id="1416" interp="linr"  time="-9999999/1" value="0" leadInLength="0/1"  />
                <InterpolatingParam id="1417" interp="linr"  time="-9999999/1" value="0" leadInLength="0/1"  />
                <InterpolatingParam id="1418" interp="linr"  time="-9999999/1" value="0" leadInLength="0/1"  />
               </VectorParam>
               <InterpolatingParam id="1419" interp="linr"  time="-9999999/1" value="1" leadInLength="0/1"  name="opacity"/>
               <InterpolatingParam id="1420" interp="linr"  time="0/1" value="0" leadInLength="0/1"  name="cursorOpacity"/>
               <InterpolatingParam id="1421" interp="linr"  time="0/1" value="0" leadInLength="0/1"  name="cursorScale"/>
              </Parameters>
              <Attributes>
               <Attribute id="1422" value="" name="ident"/>
              </Attributes>
              <ExtraData>
               <Entry key="ZoomPanBin">
                <ZoomPanBin id="1423"  >
                 <ZoomPanKeyframes>
                  <ZoomPanKeyframe id="1424" timeRangeEnd="-9999999/1" timeRangeDuration="0/1" interpolaterName="linr"  />
                 </ZoomPanKeyframes>
                </ZoomPanBin>
               </Entry>
               <Entry key="CursorEffectBin">
                <CursorEffectBin id="1425"  >
                 <CursorEffectKeyframes>
                 </CursorEffectKeyframes>
                </CursorEffectBin>
               </Entry>
              </ExtraData>
             </ScreenVMFile>
             <MetaData>
              <entry key="AutoAppliedSmartFocus" val="False"/>
              <entry key="WinSubProjectDisplayName" val=""/>
             </MetaData>
            </UnifiedMedia>
            <UnifiedMedia id="1426"  >
             <AMFile id="1427" start="3764" duration="108" scalar="1/1" mediaStart="4147/1" mediaDuration="108/1" trackNumber="1" src="4" channelNumber="0,1" >
              <Parameters>
               <InterpolatingParam id="1428" interp="linr"  time="0/1" value="1" leadInLength="0/1"  name="volume"/>
               <Parameter id="1429"  name="captions"/>
              </Parameters>
              <Attributes>
               <Attribute id="1430" value="" name="ident"/>
               <Attribute id="1431" value="44100" name="sampleRate"/>
               <Attribute id="1432" value="16" name="bitDepth"/>
               <Attribute id="1433" value="1" name="gain"/>
               <Attribute id="1434" value="0" name="mixToMono"/>
              </Attributes>
             </AMFile>
             <ScreenVMFile id="1435" start="3764" duration="108" scalar="1/1" mediaStart="4147/1" mediaDuration="108/1" trackNumber="0" src="4" >
              <Transformer>
               <VectorParam id="1436"  name="translation">
                <InterpolatingParam id="1437" interp="linr"  time="-9999999/1" value="0" leadInLength="0/1"  />
                <InterpolatingParam id="1438" interp="linr"  time="-9999999/1" value="0" leadInLength="0/1"  />
                <InterpolatingParam id="1439" interp="linr"  time="-9999999/1" value="0" leadInLength="0/1"  />
               </VectorParam>
               <VectorParam id="1440"  name="rotation">
                <InterpolatingParam id="1441" interp="linr"  time="-9999999/1" value="0" leadInLength="0/1"  />
                <InterpolatingParam id="1442" interp="linr"  time="-9999999/1" value="0" leadInLength="0/1"  />
                <InterpolatingParam id="1443" interp="linr"  time="-9999999/1" value="0" leadInLength="0/1"  />
               </VectorParam>
               <VectorParam id="1444"  name="shear">
                <InterpolatingParam id="1445" interp="linr"  time="-9999999/1" value="0" leadInLength="0/1"  />
                <InterpolatingParam id="1446" interp="linr"  time="-9999999/1" value="0" leadInLength="0/1"  />
                <InterpolatingParam id="1447" interp="linr"  time="-9999999/1" value="0" leadInLength="0/1"  />
               </VectorParam>
               <VectorParam id="1448"  name="scale">
                <InterpolatingParam id="1449" interp="linr"  time="-9999999/1" value="1" leadInLength="0/1"  />
                <InterpolatingParam id="1450" interp="linr"  time="-9999999/1" value="1" leadInLength="0/1"  />
                <InterpolatingParam id="1451" interp="linr"  time="-9999999/1" value="1" leadInLength="0/1"  />
               </VectorParam>
               <VectorParam id="1452"  name="anchor">
                <InterpolatingParam id="1453" interp="linr"  time="0/1" value="0" leadInLength="0/1"  />
                <InterpolatingParam id="1454" interp="linr"  time="0/1" value="0" leadInLength="0/1"  />
                <InterpolatingParam id="1455" interp="linr"  time="0/1" value="0" leadInLength="0/1"  />
               </VectorParam>
              </Transformer>
              <Parameters>
               <VectorParam id="1456"  name="sourceCrop">
                <InterpolatingParam id="1457" interp="linr"  time="0/1" value="0" leadInLength="0/1"  />
                <InterpolatingParam id="1458" interp="linr"  time="0/1" value="0" leadInLength="0/1"  />
                <InterpolatingParam id="1459" interp="linr"  time="0/1" value="0" leadInLength="0/1"  />
                <InterpolatingParam id="1460" interp="linr"  time="0/1" value="0" leadInLength="0/1"  />
               </VectorParam>
               <VectorParam id="1461"  name="geometryCrop">
                <InterpolatingParam id="1462" interp="linr"  time="-9999999/1" value="0" leadInLength="0/1"  />
                <InterpolatingParam id="1463" interp="linr"  time="-9999999/1" value="0" leadInLength="0/1"  />
                <InterpolatingParam id="1464" interp="linr"  time="-9999999/1" value="0" leadInLength="0/1"  />
                <InterpolatingParam id="1465" interp="linr"  time="-9999999/1" value="0" leadInLength="0/1"  />
               </VectorParam>
               <InterpolatingParam id="1466" interp="linr"  time="-9999999/1" value="1" leadInLength="0/1"  name="opacity"/>
               <InterpolatingParam id="1467" interp="linr"  time="0/1" value="0" leadInLength="0/1"  name="cursorOpacity"/>
               <InterpolatingParam id="1468" interp="linr"  time="0/1" value="0" leadInLength="0/1"  name="cursorScale"/>
              </Parameters>
              <Attributes>
               <Attribute id="1469" value="" name="ident"/>
              </Attributes>
              <ExtraData>
               <Entry key="ZoomPanBin">
                <ZoomPanBin id="1470"  >
                 <ZoomPanKeyframes>
                  <ZoomPanKeyframe id="1471" timeRangeEnd="-9999999/1" timeRangeDuration="0/1" interpolaterName="linr"  />
                 </ZoomPanKeyframes>
                </ZoomPanBin>
               </Entry>
               <Entry key="CursorEffectBin">
                <CursorEffectBin id="1472"  >
                 <CursorEffectKeyframes>
                 </CursorEffectKeyframes>
                </CursorEffectBin>
               </Entry>
              </ExtraData>
             </ScreenVMFile>
             <MetaData>
              <entry key="AutoAppliedSmartFocus" val="False"/>
              <entry key="WinSubProjectDisplayName" val=""/>
             </MetaData>
            </UnifiedMedia>
            <UnifiedMedia id="1473"  >
             <AMFile id="1474" start="3872" duration="501" scalar="1/1" mediaStart="4314/1" mediaDuration="501/1" trackNumber="1" src="4" channelNumber="0,1" >
              <Parameters>
               <InterpolatingParam id="1475" interp="linr"  time="0/1" value="1" leadInLength="0/1"  name="volume"/>
               <Parameter id="1476"  name="captions"/>
              </Parameters>
              <Attributes>
               <Attribute id="1477" value="" name="ident"/>
               <Attribute id="1478" value="44100" name="sampleRate"/>
               <Attribute id="1479" value="16" name="bitDepth"/>
               <Attribute id="1480" value="1" name="gain"/>
               <Attribute id="1481" value="0" name="mixToMono"/>
              </Attributes>
             </AMFile>
             <ScreenVMFile id="1482" start="3872" duration="501" scalar="1/1" mediaStart="4314/1" mediaDuration="501/1" trackNumber="0" src="4" >
              <Transformer>
               <VectorParam id="1483"  name="translation">
                <InterpolatingParam id="1484" interp="linr"  time="-9999999/1" value="0" leadInLength="0/1"  />
                <InterpolatingParam id="1485" interp="linr"  time="-9999999/1" value="0" leadInLength="0/1"  />
                <InterpolatingParam id="1486" interp="linr"  time="-9999999/1" value="0" leadInLength="0/1"  />
               </VectorParam>
               <VectorParam id="1487"  name="rotation">
                <InterpolatingParam id="1488" interp="linr"  time="-9999999/1" value="0" leadInLength="0/1"  />
                <InterpolatingParam id="1489" interp="linr"  time="-9999999/1" value="0" leadInLength="0/1"  />
                <InterpolatingParam id="1490" interp="linr"  time="-9999999/1" value="0" leadInLength="0/1"  />
               </VectorParam>
               <VectorParam id="1491"  name="shear">
                <InterpolatingParam id="1492" interp="linr"  time="-9999999/1" value="0" leadInLength="0/1"  />
                <InterpolatingParam id="1493" interp="linr"  time="-9999999/1" value="0" leadInLength="0/1"  />
                <InterpolatingParam id="1494" interp="linr"  time="-9999999/1" value="0" leadInLength="0/1"  />
               </VectorParam>
               <VectorParam id="1495"  name="scale">
                <InterpolatingParam id="1496" interp="linr"  time="-9999999/1" value="1" leadInLength="0/1"  />
                <InterpolatingParam id="1497" interp="linr"  time="-9999999/1" value="1" leadInLength="0/1"  />
                <InterpolatingParam id="1498" interp="linr"  time="-9999999/1" value="1" leadInLength="0/1"  />
               </VectorParam>
               <VectorParam id="1499"  name="anchor">
                <InterpolatingParam id="1500" interp="linr"  time="0/1" value="0" leadInLength="0/1"  />
                <InterpolatingParam id="1501" interp="linr"  time="0/1" value="0" leadInLength="0/1"  />
                <InterpolatingParam id="1502" interp="linr"  time="0/1" value="0" leadInLength="0/1"  />
               </VectorParam>
              </Transformer>
              <Parameters>
               <VectorParam id="1503"  name="sourceCrop">
                <InterpolatingParam id="1504" interp="linr"  time="0/1" value="0" leadInLength="0/1"  />
                <InterpolatingParam id="1505" interp="linr"  time="0/1" value="0" leadInLength="0/1"  />
                <InterpolatingParam id="1506" interp="linr"  time="0/1" value="0" leadInLength="0/1"  />
                <InterpolatingParam id="1507" interp="linr"  time="0/1" value="0" leadInLength="0/1"  />
               </VectorParam>
               <VectorParam id="1508"  name="geometryCrop">
                <InterpolatingParam id="1509" interp="linr"  time="-9999999/1" value="0" leadInLength="0/1"  />
                <InterpolatingParam id="1510" interp="linr"  time="-9999999/1" value="0" leadInLength="0/1"  />
                <InterpolatingParam id="1511" interp="linr"  time="-9999999/1" value="0" leadInLength="0/1"  />
                <InterpolatingParam id="1512" interp="linr"  time="-9999999/1" value="0" leadInLength="0/1"  />
               </VectorParam>
               <InterpolatingParam id="1513" interp="linr"  time="-9999999/1" value="1" leadInLength="0/1"  name="opacity"/>
               <InterpolatingParam id="1514" interp="linr"  time="0/1" value="0" leadInLength="0/1"  name="cursorOpacity"/>
               <InterpolatingParam id="1515" interp="linr"  time="0/1" value="0" leadInLength="0/1"  name="cursorScale"/>
              </Parameters>
              <Attributes>
               <Attribute id="1516" value="" name="ident"/>
              </Attributes>
              <ExtraData>
               <Entry key="ZoomPanBin">
                <ZoomPanBin id="1517"  >
                 <ZoomPanKeyframes>
                  <ZoomPanKeyframe id="1518" timeRangeEnd="-9999999/1" timeRangeDuration="0/1" interpolaterName="linr"  />
                 </ZoomPanKeyframes>
                </ZoomPanBin>
               </Entry>
               <Entry key="CursorEffectBin">
                <CursorEffectBin id="1519"  >
                 <CursorEffectKeyframes>
                 </CursorEffectKeyframes>
                </CursorEffectBin>
               </Entry>
              </ExtraData>
             </ScreenVMFile>
             <MetaData>
              <entry key="AutoAppliedSmartFocus" val="False"/>
              <entry key="WinSubProjectDisplayName" val=""/>
             </MetaData>
            </UnifiedMedia>
            <UnifiedMedia id="1520"  >
             <AMFile id="1521" start="4373" duration="1847" scalar="1/1" mediaStart="4921/1" mediaDuration="1847/1" trackNumber="1" src="4" channelNumber="0,1" >
              <Parameters>
               <InterpolatingParam id="1522" interp="linr"  time="0/1" value="1" leadInLength="0/1"  name="volume"/>
               <Parameter id="1523"  name="captions"/>
              </Parameters>
              <Attributes>
               <Attribute id="1524" value="" name="ident"/>
               <Attribute id="1525" value="44100" name="sampleRate"/>
               <Attribute id="1526" value="16" name="bitDepth"/>
               <Attribute id="1527" value="1" name="gain"/>
               <Attribute id="1528" value="0" name="mixToMono"/>
              </Attributes>
             </AMFile>
             <ScreenVMFile id="1529" start="4373" duration="1847" scalar="1/1" mediaStart="4921/1" mediaDuration="1847/1" trackNumber="0" src="4" >
              <Transformer>
               <VectorParam id="1530"  name="translation">
                <InterpolatingParam id="1531" interp="linr"  time="-9999999/1" value="0" leadInLength="0/1"  />
                <InterpolatingParam id="1532" interp="linr"  time="-9999999/1" value="0" leadInLength="0/1"  />
                <InterpolatingParam id="1533" interp="linr"  time="-9999999/1" value="0" leadInLength="0/1"  />
               </VectorParam>
               <VectorParam id="1534"  name="rotation">
                <InterpolatingParam id="1535" interp="linr"  time="-9999999/1" value="0" leadInLength="0/1"  />
                <InterpolatingParam id="1536" interp="linr"  time="-9999999/1" value="0" leadInLength="0/1"  />
                <InterpolatingParam id="1537" interp="linr"  time="-9999999/1" value="0" leadInLength="0/1"  />
               </VectorParam>
               <VectorParam id="1538"  name="shear">
                <InterpolatingParam id="1539" interp="linr"  time="-9999999/1" value="0" leadInLength="0/1"  />
                <InterpolatingParam id="1540" interp="linr"  time="-9999999/1" value="0" leadInLength="0/1"  />
                <InterpolatingParam id="1541" interp="linr"  time="-9999999/1" value="0" leadInLength="0/1"  />
               </VectorParam>
               <VectorParam id="1542"  name="scale">
                <InterpolatingParam id="1543" interp="linr"  time="-9999999/1" value="1" leadInLength="0/1"  />
                <InterpolatingParam id="1544" interp="linr"  time="-9999999/1" value="1" leadInLength="0/1"  />
                <InterpolatingParam id="1545" interp="linr"  time="-9999999/1" value="1" leadInLength="0/1"  />
               </VectorParam>
               <VectorParam id="1546"  name="anchor">
                <InterpolatingParam id="1547" interp="linr"  time="0/1" value="0" leadInLength="0/1"  />
                <InterpolatingParam id="1548" interp="linr"  time="0/1" value="0" leadInLength="0/1"  />
                <InterpolatingParam id="1549" interp="linr"  time="0/1" value="0" leadInLength="0/1"  />
               </VectorParam>
              </Transformer>
              <Parameters>
               <VectorParam id="1550"  name="sourceCrop">
                <InterpolatingParam id="1551" interp="linr"  time="0/1" value="0" leadInLength="0/1"  />
                <InterpolatingParam id="1552" interp="linr"  time="0/1" value="0" leadInLength="0/1"  />
                <InterpolatingParam id="1553" interp="linr"  time="0/1" value="0" leadInLength="0/1"  />
                <InterpolatingParam id="1554" interp="linr"  time="0/1" value="0" leadInLength="0/1"  />
               </VectorParam>
               <VectorParam id="1555"  name="geometryCrop">
                <InterpolatingParam id="1556" interp="linr"  time="-9999999/1" value="0" leadInLength="0/1"  />
                <InterpolatingParam id="1557" interp="linr"  time="-9999999/1" value="0" leadInLength="0/1"  />
                <InterpolatingParam id="1558" interp="linr"  time="-9999999/1" value="0" leadInLength="0/1"  />
                <InterpolatingParam id="1559" interp="linr"  time="-9999999/1" value="0" leadInLength="0/1"  />
               </VectorParam>
               <InterpolatingParam id="1560" interp="linr"  time="-9999999/1" value="1" leadInLength="0/1"  name="opacity"/>
               <InterpolatingParam id="1561" interp="linr"  time="0/1" value="0" leadInLength="0/1"  name="cursorOpacity"/>
               <InterpolatingParam id="1562" interp="linr"  time="0/1" value="0" leadInLength="0/1"  name="cursorScale"/>
              </Parameters>
              <Attributes>
               <Attribute id="1563" value="" name="ident"/>
              </Attributes>
              <ExtraData>
               <Entry key="ZoomPanBin">
                <ZoomPanBin id="1564"  >
                 <ZoomPanKeyframes>
                  <ZoomPanKeyframe id="1565" timeRangeEnd="-9999999/1" timeRangeDuration="0/1" interpolaterName="linr"  />
                 </ZoomPanKeyframes>
                </ZoomPanBin>
               </Entry>
               <Entry key="CursorEffectBin">
                <CursorEffectBin id="1566"  >
                 <CursorEffectKeyframes>
                 </CursorEffectKeyframes>
                </CursorEffectBin>
               </Entry>
              </ExtraData>
             </ScreenVMFile>
             <MetaData>
              <entry key="AutoAppliedSmartFocus" val="False"/>
              <entry key="WinSubProjectDisplayName" val=""/>
             </MetaData>
            </UnifiedMedia>
            <UnifiedMedia id="1567"  >
             <AMFile id="1568" start="6220" duration="1100" scalar="1/1" mediaStart="6952/1" mediaDuration="1100/1" trackNumber="1" src="4" channelNumber="0,1" >
              <Parameters>
               <InterpolatingParam id="1569" interp="linr"  time="0/1" value="1" leadInLength="0/1"  name="volume"/>
               <Parameter id="1570"  name="captions"/>
              </Parameters>
              <Attributes>
               <Attribute id="1571" value="" name="ident"/>
               <Attribute id="1572" value="44100" name="sampleRate"/>
               <Attribute id="1573" value="16" name="bitDepth"/>
               <Attribute id="1574" value="1" name="gain"/>
               <Attribute id="1575" value="0" name="mixToMono"/>
              </Attributes>
             </AMFile>
             <ScreenVMFile id="1576" start="6220" duration="1100" scalar="1/1" mediaStart="6952/1" mediaDuration="1100/1" trackNumber="0" src="4" >
              <Transformer>
               <VectorParam id="1577"  name="translation">
                <InterpolatingParam id="1578" interp="linr"  time="-9999999/1" value="0" leadInLength="0/1"  />
                <InterpolatingParam id="1579" interp="linr"  time="-9999999/1" value="0" leadInLength="0/1"  />
                <InterpolatingParam id="1580" interp="linr"  time="-9999999/1" value="0" leadInLength="0/1"  />
               </VectorParam>
               <VectorParam id="1581"  name="rotation">
                <InterpolatingParam id="1582" interp="linr"  time="-9999999/1" value="0" leadInLength="0/1"  />
                <InterpolatingParam id="1583" interp="linr"  time="-9999999/1" value="0" leadInLength="0/1"  />
                <InterpolatingParam id="1584" interp="linr"  time="-9999999/1" value="0" leadInLength="0/1"  />
               </VectorParam>
               <VectorParam id="1585"  name="shear">
                <InterpolatingParam id="1586" interp="linr"  time="-9999999/1" value="0" leadInLength="0/1"  />
                <InterpolatingParam id="1587" interp="linr"  time="-9999999/1" value="0" leadInLength="0/1"  />
                <InterpolatingParam id="1588" interp="linr"  time="-9999999/1" value="0" leadInLength="0/1"  />
               </VectorParam>
               <VectorParam id="1589"  name="scale">
                <InterpolatingParam id="1590" interp="linr"  time="-9999999/1" value="1" leadInLength="0/1"  />
                <InterpolatingParam id="1591" interp="linr"  time="-9999999/1" value="1" leadInLength="0/1"  />
                <InterpolatingParam id="1592" interp="linr"  time="-9999999/1" value="1" leadInLength="0/1"  />
               </VectorParam>
               <VectorParam id="1593"  name="anchor">
                <InterpolatingParam id="1594" interp="linr"  time="0/1" value="0" leadInLength="0/1"  />
                <InterpolatingParam id="1595" interp="linr"  time="0/1" value="0" leadInLength="0/1"  />
                <InterpolatingParam id="1596" interp="linr"  time="0/1" value="0" leadInLength="0/1"  />
               </VectorParam>
              </Transformer>
              <Parameters>
               <VectorParam id="1597"  name="sourceCrop">
                <InterpolatingParam id="1598" interp="linr"  time="0/1" value="0" leadInLength="0/1"  />
                <InterpolatingParam id="1599" interp="linr"  time="0/1" value="0" leadInLength="0/1"  />
                <InterpolatingParam id="1600" interp="linr"  time="0/1" value="0" leadInLength="0/1"  />
                <InterpolatingParam id="1601" interp="linr"  time="0/1" value="0" leadInLength="0/1"  />
               </VectorParam>
               <VectorParam id="1602"  name="geometryCrop">
                <InterpolatingParam id="1603" interp="linr"  time="-9999999/1" value="0" leadInLength="0/1"  />
                <InterpolatingParam id="1604" interp="linr"  time="-9999999/1" value="0" leadInLength="0/1"  />
                <InterpolatingParam id="1605" interp="linr"  time="-9999999/1" value="0" leadInLength="0/1"  />
                <InterpolatingParam id="1606" interp="linr"  time="-9999999/1" value="0" leadInLength="0/1"  />
               </VectorParam>
               <InterpolatingParam id="1607" interp="linr"  time="-9999999/1" value="1" leadInLength="0/1"  name="opacity"/>
               <InterpolatingParam id="1608" interp="linr"  time="0/1" value="0" leadInLength="0/1"  name="cursorOpacity"/>
               <InterpolatingParam id="1609" interp="linr"  time="0/1" value="0" leadInLength="0/1"  name="cursorScale"/>
              </Parameters>
              <Attributes>
               <Attribute id="1610" value="" name="ident"/>
              </Attributes>
              <ExtraData>
               <Entry key="ZoomPanBin">
                <ZoomPanBin id="1611"  >
                 <ZoomPanKeyframes>
                  <ZoomPanKeyframe id="1612" timeRangeEnd="-9999999/1" timeRangeDuration="0/1" interpolaterName="linr"  />
                 </ZoomPanKeyframes>
                </ZoomPanBin>
               </Entry>
               <Entry key="CursorEffectBin">
                <CursorEffectBin id="1613"  >
                 <CursorEffectKeyframes>
                 </CursorEffectKeyframes>
                </CursorEffectBin>
               </Entry>
              </ExtraData>
             </ScreenVMFile>
             <MetaData>
              <entry key="AutoAppliedSmartFocus" val="False"/>
              <entry key="WinSubProjectDisplayName" val=""/>
             </MetaData>
            </UnifiedMedia>
            <UnifiedMedia id="1614"  >
             <AMFile id="1615" start="7320" duration="79" scalar="1/1" mediaStart="8077/1" mediaDuration="79/1" trackNumber="1" src="4" channelNumber="0,1" >
              <Parameters>
               <InterpolatingParam id="1616" interp="linr"  time="0/1" value="1" leadInLength="0/1"  name="volume"/>
               <Parameter id="1617"  name="captions"/>
              </Parameters>
              <Attributes>
               <Attribute id="1618" value="" name="ident"/>
               <Attribute id="1619" value="44100" name="sampleRate"/>
               <Attribute id="1620" value="16" name="bitDepth"/>
               <Attribute id="1621" value="1" name="gain"/>
               <Attribute id="1622" value="0" name="mixToMono"/>
              </Attributes>
             </AMFile>
             <ScreenVMFile id="1623" start="7320" duration="79" scalar="1/1" mediaStart="8077/1" mediaDuration="79/1" trackNumber="0" src="4" >
              <Transformer>
               <VectorParam id="1624"  name="translation">
                <InterpolatingParam id="1625" interp="linr"  time="-9999999/1" value="0" leadInLength="0/1"  />
                <InterpolatingParam id="1626" interp="linr"  time="-9999999/1" value="0" leadInLength="0/1"  />
                <InterpolatingParam id="1627" interp="linr"  time="-9999999/1" value="0" leadInLength="0/1"  />
               </VectorParam>
               <VectorParam id="1628"  name="rotation">
                <InterpolatingParam id="1629" interp="linr"  time="-9999999/1" value="0" leadInLength="0/1"  />
                <InterpolatingParam id="1630" interp="linr"  time="-9999999/1" value="0" leadInLength="0/1"  />
                <InterpolatingParam id="1631" interp="linr"  time="-9999999/1" value="0" leadInLength="0/1"  />
               </VectorParam>
               <VectorParam id="1632"  name="shear">
                <InterpolatingParam id="1633" interp="linr"  time="-9999999/1" value="0" leadInLength="0/1"  />
                <InterpolatingParam id="1634" interp="linr"  time="-9999999/1" value="0" leadInLength="0/1"  />
                <InterpolatingParam id="1635" interp="linr"  time="-9999999/1" value="0" leadInLength="0/1"  />
               </VectorParam>
               <VectorParam id="1636"  name="scale">
                <InterpolatingParam id="1637" interp="linr"  time="-9999999/1" value="1" leadInLength="0/1"  />
                <InterpolatingParam id="1638" interp="linr"  time="-9999999/1" value="1" leadInLength="0/1"  />
                <InterpolatingParam id="1639" interp="linr"  time="-9999999/1" value="1" leadInLength="0/1"  />
               </VectorParam>
               <VectorParam id="1640"  name="anchor">
                <InterpolatingParam id="1641" interp="linr"  time="0/1" value="0" leadInLength="0/1"  />
                <InterpolatingParam id="1642" interp="linr"  time="0/1" value="0" leadInLength="0/1"  />
                <InterpolatingParam id="1643" interp="linr"  time="0/1" value="0" leadInLength="0/1"  />
               </VectorParam>
              </Transformer>
              <Parameters>
               <VectorParam id="1644"  name="sourceCrop">
                <InterpolatingParam id="1645" interp="linr"  time="0/1" value="0" leadInLength="0/1"  />
                <InterpolatingParam id="1646" interp="linr"  time="0/1" value="0" leadInLength="0/1"  />
                <InterpolatingParam id="1647" interp="linr"  time="0/1" value="0" leadInLength="0/1"  />
                <InterpolatingParam id="1648" interp="linr"  time="0/1" value="0" leadInLength="0/1"  />
               </VectorParam>
               <VectorParam id="1649"  name="geometryCrop">
                <InterpolatingParam id="1650" interp="linr"  time="-9999999/1" value="0" leadInLength="0/1"  />
                <InterpolatingParam id="1651" interp="linr"  time="-9999999/1" value="0" leadInLength="0/1"  />
                <InterpolatingParam id="1652" interp="linr"  time="-9999999/1" value="0" leadInLength="0/1"  />
                <InterpolatingParam id="1653" interp="linr"  time="-9999999/1" value="0" leadInLength="0/1"  />
               </VectorParam>
               <InterpolatingParam id="1654" interp="linr"  time="-9999999/1" value="1" leadInLength="0/1"  name="opacity"/>
               <InterpolatingParam id="1655" interp="linr"  time="0/1" value="0" leadInLength="0/1"  name="cursorOpacity"/>
               <InterpolatingParam id="1656" interp="linr"  time="0/1" value="0" leadInLength="0/1"  name="cursorScale"/>
              </Parameters>
              <Attributes>
               <Attribute id="1657" value="" name="ident"/>
              </Attributes>
              <ExtraData>
               <Entry key="ZoomPanBin">
                <ZoomPanBin id="1658"  >
                 <ZoomPanKeyframes>
                  <ZoomPanKeyframe id="1659" timeRangeEnd="-9999999/1" timeRangeDuration="0/1" interpolaterName="linr"  />
                 </ZoomPanKeyframes>
                </ZoomPanBin>
               </Entry>
               <Entry key="CursorEffectBin">
                <CursorEffectBin id="1660"  >
                 <CursorEffectKeyframes>
                 </CursorEffectKeyframes>
                </CursorEffectBin>
               </Entry>
              </ExtraData>
             </ScreenVMFile>
             <MetaData>
              <entry key="AutoAppliedSmartFocus" val="False"/>
              <entry key="WinSubProjectDisplayName" val=""/>
             </MetaData>
            </UnifiedMedia>
            <UnifiedMedia id="1661"  >
             <AMFile id="1662" start="7399" duration="162" scalar="1/1" mediaStart="8175/1" mediaDuration="162/1" trackNumber="1" src="4" channelNumber="0,1" >
              <Parameters>
               <InterpolatingParam id="1663" interp="linr"  time="0/1" value="1" leadInLength="0/1"  name="volume"/>
               <Parameter id="1664"  name="captions"/>
              </Parameters>
              <Attributes>
               <Attribute id="1665" value="" name="ident"/>
               <Attribute id="1666" value="44100" name="sampleRate"/>
               <Attribute id="1667" value="16" name="bitDepth"/>
               <Attribute id="1668" value="1" name="gain"/>
               <Attribute id="1669" value="0" name="mixToMono"/>
              </Attributes>
             </AMFile>
             <ScreenVMFile id="1670" start="7399" duration="162" scalar="1/1" mediaStart="8175/1" mediaDuration="162/1" trackNumber="0" src="4" >
              <Transformer>
               <VectorParam id="1671"  name="translation">
                <InterpolatingParam id="1672" interp="linr"  time="-9999999/1" value="0" leadInLength="0/1"  />
                <InterpolatingParam id="1673" interp="linr"  time="-9999999/1" value="0" leadInLength="0/1"  />
                <InterpolatingParam id="1674" interp="linr"  time="-9999999/1" value="0" leadInLength="0/1"  />
               </VectorParam>
               <VectorParam id="1675"  name="rotation">
                <InterpolatingParam id="1676" interp="linr"  time="-9999999/1" value="0" leadInLength="0/1"  />
                <InterpolatingParam id="1677" interp="linr"  time="-9999999/1" value="0" leadInLength="0/1"  />
                <InterpolatingParam id="1678" interp="linr"  time="-9999999/1" value="0" leadInLength="0/1"  />
               </VectorParam>
               <VectorParam id="1679"  name="shear">
                <InterpolatingParam id="1680" interp="linr"  time="-9999999/1" value="0" leadInLength="0/1"  />
                <InterpolatingParam id="1681" interp="linr"  time="-9999999/1" value="0" leadInLength="0/1"  />
                <InterpolatingParam id="1682" interp="linr"  time="-9999999/1" value="0" leadInLength="0/1"  />
               </VectorParam>
               <VectorParam id="1683"  name="scale">
                <InterpolatingParam id="1684" interp="linr"  time="-9999999/1" value="1" leadInLength="0/1"  />
                <InterpolatingParam id="1685" interp="linr"  time="-9999999/1" value="1" leadInLength="0/1"  />
                <InterpolatingParam id="1686" interp="linr"  time="-9999999/1" value="1" leadInLength="0/1"  />
               </VectorParam>
               <VectorParam id="1687"  name="anchor">
                <InterpolatingParam id="1688" interp="linr"  time="0/1" value="0" leadInLength="0/1"  />
                <InterpolatingParam id="1689" interp="linr"  time="0/1" value="0" leadInLength="0/1"  />
                <InterpolatingParam id="1690" interp="linr"  time="0/1" value="0" leadInLength="0/1"  />
               </VectorParam>
              </Transformer>
              <Parameters>
               <VectorParam id="1691"  name="sourceCrop">
                <InterpolatingParam id="1692" interp="linr"  time="0/1" value="0" leadInLength="0/1"  />
                <InterpolatingParam id="1693" interp="linr"  time="0/1" value="0" leadInLength="0/1"  />
                <InterpolatingParam id="1694" interp="linr"  time="0/1" value="0" leadInLength="0/1"  />
                <InterpolatingParam id="1695" interp="linr"  time="0/1" value="0" leadInLength="0/1"  />
               </VectorParam>
               <VectorParam id="1696"  name="geometryCrop">
                <InterpolatingParam id="1697" interp="linr"  time="-9999999/1" value="0" leadInLength="0/1"  />
                <InterpolatingParam id="1698" interp="linr"  time="-9999999/1" value="0" leadInLength="0/1"  />
                <InterpolatingParam id="1699" interp="linr"  time="-9999999/1" value="0" leadInLength="0/1"  />
                <InterpolatingParam id="1700" interp="linr"  time="-9999999/1" value="0" leadInLength="0/1"  />
               </VectorParam>
               <InterpolatingParam id="1701" interp="linr"  time="-9999999/1" value="1" leadInLength="0/1"  name="opacity"/>
               <InterpolatingParam id="1702" interp="linr"  time="0/1" value="0" leadInLength="0/1"  name="cursorOpacity"/>
               <InterpolatingParam id="1703" interp="linr"  time="0/1" value="0" leadInLength="0/1"  name="cursorScale"/>
              </Parameters>
              <Attributes>
               <Attribute id="1704" value="" name="ident"/>
              </Attributes>
              <ExtraData>
               <Entry key="ZoomPanBin">
                <ZoomPanBin id="1705"  >
                 <ZoomPanKeyframes>
                  <ZoomPanKeyframe id="1706" timeRangeEnd="-9999999/1" timeRangeDuration="0/1" interpolaterName="linr"  />
                 </ZoomPanKeyframes>
                </ZoomPanBin>
               </Entry>
               <Entry key="CursorEffectBin">
                <CursorEffectBin id="1707"  >
                 <CursorEffectKeyframes>
                 </CursorEffectKeyframes>
                </CursorEffectBin>
               </Entry>
              </ExtraData>
             </ScreenVMFile>
             <MetaData>
              <entry key="AutoAppliedSmartFocus" val="False"/>
              <entry key="WinSubProjectDisplayName" val=""/>
             </MetaData>
            </UnifiedMedia>
            <UnifiedMedia id="1708"  >
             <AMFile id="1709" start="7561" duration="188" scalar="1/1" mediaStart="8353/1" mediaDuration="188/1" trackNumber="1" src="4" channelNumber="0,1" >
              <Parameters>
               <InterpolatingParam id="1710" interp="linr"  time="0/1" value="1" leadInLength="0/1"  name="volume"/>
               <Parameter id="1711"  name="captions"/>
              </Parameters>
              <Attributes>
               <Attribute id="1712" value="" name="ident"/>
               <Attribute id="1713" value="44100" name="sampleRate"/>
               <Attribute id="1714" value="16" name="bitDepth"/>
               <Attribute id="1715" value="1" name="gain"/>
               <Attribute id="1716" value="0" name="mixToMono"/>
              </Attributes>
             </AMFile>
             <ScreenVMFile id="1717" start="7561" duration="188" scalar="1/1" mediaStart="8353/1" mediaDuration="188/1" trackNumber="0" src="4" >
              <Transformer>
               <VectorParam id="1718"  name="translation">
                <InterpolatingParam id="1719" interp="linr"  time="-9999999/1" value="0" leadInLength="0/1"  />
                <InterpolatingParam id="1720" interp="linr"  time="-9999999/1" value="0" leadInLength="0/1"  />
                <InterpolatingParam id="1721" interp="linr"  time="-9999999/1" value="0" leadInLength="0/1"  />
               </VectorParam>
               <VectorParam id="1722"  name="rotation">
                <InterpolatingParam id="1723" interp="linr"  time="-9999999/1" value="0" leadInLength="0/1"  />
                <InterpolatingParam id="1724" interp="linr"  time="-9999999/1" value="0" leadInLength="0/1"  />
                <InterpolatingParam id="1725" interp="linr"  time="-9999999/1" value="0" leadInLength="0/1"  />
               </VectorParam>
               <VectorParam id="1726"  name="shear">
                <InterpolatingParam id="1727" interp="linr"  time="-9999999/1" value="0" leadInLength="0/1"  />
                <InterpolatingParam id="1728" interp="linr"  time="-9999999/1" value="0" leadInLength="0/1"  />
                <InterpolatingParam id="1729" interp="linr"  time="-9999999/1" value="0" leadInLength="0/1"  />
               </VectorParam>
               <VectorParam id="1730"  name="scale">
                <InterpolatingParam id="1731" interp="linr"  time="-9999999/1" value="1" leadInLength="0/1"  />
                <InterpolatingParam id="1732" interp="linr"  time="-9999999/1" value="1" leadInLength="0/1"  />
                <InterpolatingParam id="1733" interp="linr"  time="-9999999/1" value="1" leadInLength="0/1"  />
               </VectorParam>
               <VectorParam id="1734"  name="anchor">
                <InterpolatingParam id="1735" interp="linr"  time="0/1" value="0" leadInLength="0/1"  />
                <InterpolatingParam id="1736" interp="linr"  time="0/1" value="0" leadInLength="0/1"  />
                <InterpolatingParam id="1737" interp="linr"  time="0/1" value="0" leadInLength="0/1"  />
               </VectorParam>
              </Transformer>
              <Parameters>
               <VectorParam id="1738"  name="sourceCrop">
                <InterpolatingParam id="1739" interp="linr"  time="0/1" value="0" leadInLength="0/1"  />
                <InterpolatingParam id="1740" interp="linr"  time="0/1" value="0" leadInLength="0/1"  />
                <InterpolatingParam id="1741" interp="linr"  time="0/1" value="0" leadInLength="0/1"  />
                <InterpolatingParam id="1742" interp="linr"  time="0/1" value="0" leadInLength="0/1"  />
               </VectorParam>
               <VectorParam id="1743"  name="geometryCrop">
                <InterpolatingParam id="1744" interp="linr"  time="-9999999/1" value="0" leadInLength="0/1"  />
                <InterpolatingParam id="1745" interp="linr"  time="-9999999/1" value="0" leadInLength="0/1"  />
                <InterpolatingParam id="1746" interp="linr"  time="-9999999/1" value="0" leadInLength="0/1"  />
                <InterpolatingParam id="1747" interp="linr"  time="-9999999/1" value="0" leadInLength="0/1"  />
               </VectorParam>
               <InterpolatingParam id="1748" interp="linr"  time="-9999999/1" value="1" leadInLength="0/1"  name="opacity"/>
               <InterpolatingParam id="1749" interp="linr"  time="0/1" value="0" leadInLength="0/1"  name="cursorOpacity"/>
               <InterpolatingParam id="1750" interp="linr"  time="0/1" value="0" leadInLength="0/1"  name="cursorScale"/>
              </Parameters>
              <Attributes>
               <Attribute id="1751" value="" name="ident"/>
              </Attributes>
              <ExtraData>
               <Entry key="ZoomPanBin">
                <ZoomPanBin id="1752"  >
                 <ZoomPanKeyframes>
                  <ZoomPanKeyframe id="1753" timeRangeEnd="-9999999/1" timeRangeDuration="0/1" interpolaterName="linr"  />
                 </ZoomPanKeyframes>
                </ZoomPanBin>
               </Entry>
               <Entry key="CursorEffectBin">
                <CursorEffectBin id="1754"  >
                 <CursorEffectKeyframes>
                 </CursorEffectKeyframes>
                </CursorEffectBin>
               </Entry>
              </ExtraData>
             </ScreenVMFile>
             <MetaData>
              <entry key="AutoAppliedSmartFocus" val="False"/>
              <entry key="WinSubProjectDisplayName" val=""/>
             </MetaData>
            </UnifiedMedia>
            <UnifiedMedia id="1755"  >
             <AMFile id="1756" start="7749" duration="370" scalar="1/1" mediaStart="8565/1" mediaDuration="370/1" trackNumber="1" src="4" channelNumber="0,1" >
              <Parameters>
               <InterpolatingParam id="1757" interp="linr"  time="0/1" value="1" leadInLength="0/1"  name="volume"/>
               <Parameter id="1758"  name="captions"/>
              </Parameters>
              <Attributes>
               <Attribute id="1759" value="" name="ident"/>
               <Attribute id="1760" value="44100" name="sampleRate"/>
               <Attribute id="1761" value="16" name="bitDepth"/>
               <Attribute id="1762" value="1" name="gain"/>
               <Attribute id="1763" value="0" name="mixToMono"/>
              </Attributes>
             </AMFile>
             <ScreenVMFile id="1764" start="7749" duration="370" scalar="1/1" mediaStart="8565/1" mediaDuration="370/1" trackNumber="0" src="4" >
              <Transformer>
               <VectorParam id="1765"  name="translation">
                <InterpolatingParam id="1766" interp="linr"  time="-9999999/1" value="0" leadInLength="0/1"  />
                <InterpolatingParam id="1767" interp="linr"  time="-9999999/1" value="0" leadInLength="0/1"  />
                <InterpolatingParam id="1768" interp="linr"  time="-9999999/1" value="0" leadInLength="0/1"  />
               </VectorParam>
               <VectorParam id="1769"  name="rotation">
                <InterpolatingParam id="1770" interp="linr"  time="-9999999/1" value="0" leadInLength="0/1"  />
                <InterpolatingParam id="1771" interp="linr"  time="-9999999/1" value="0" leadInLength="0/1"  />
                <InterpolatingParam id="1772" interp="linr"  time="-9999999/1" value="0" leadInLength="0/1"  />
               </VectorParam>
               <VectorParam id="1773"  name="shear">
                <InterpolatingParam id="1774" interp="linr"  time="-9999999/1" value="0" leadInLength="0/1"  />
                <InterpolatingParam id="1775" interp="linr"  time="-9999999/1" value="0" leadInLength="0/1"  />
                <InterpolatingParam id="1776" interp="linr"  time="-9999999/1" value="0" leadInLength="0/1"  />
               </VectorParam>
               <VectorParam id="1777"  name="scale">
                <InterpolatingParam id="1778" interp="linr"  time="-9999999/1" value="1" leadInLength="0/1"  />
                <InterpolatingParam id="1779" interp="linr"  time="-9999999/1" value="1" leadInLength="0/1"  />
                <InterpolatingParam id="1780" interp="linr"  time="-9999999/1" value="1" leadInLength="0/1"  />
               </VectorParam>
               <VectorParam id="1781"  name="anchor">
                <InterpolatingParam id="1782" interp="linr"  time="0/1" value="0" leadInLength="0/1"  />
                <InterpolatingParam id="1783" interp="linr"  time="0/1" value="0" leadInLength="0/1"  />
                <InterpolatingParam id="1784" interp="linr"  time="0/1" value="0" leadInLength="0/1"  />
               </VectorParam>
              </Transformer>
              <Parameters>
               <VectorParam id="1785"  name="sourceCrop">
                <InterpolatingParam id="1786" interp="linr"  time="0/1" value="0" leadInLength="0/1"  />
                <InterpolatingParam id="1787" interp="linr"  time="0/1" value="0" leadInLength="0/1"  />
                <InterpolatingParam id="1788" interp="linr"  time="0/1" value="0" leadInLength="0/1"  />
                <InterpolatingParam id="1789" interp="linr"  time="0/1" value="0" leadInLength="0/1"  />
               </VectorParam>
               <VectorParam id="1790"  name="geometryCrop">
                <InterpolatingParam id="1791" interp="linr"  time="-9999999/1" value="0" leadInLength="0/1"  />
                <InterpolatingParam id="1792" interp="linr"  time="-9999999/1" value="0" leadInLength="0/1"  />
                <InterpolatingParam id="1793" interp="linr"  time="-9999999/1" value="0" leadInLength="0/1"  />
                <InterpolatingParam id="1794" interp="linr"  time="-9999999/1" value="0" leadInLength="0/1"  />
               </VectorParam>
               <InterpolatingParam id="1795" interp="linr"  time="-9999999/1" value="1" leadInLength="0/1"  name="opacity"/>
               <InterpolatingParam id="1796" interp="linr"  time="0/1" value="0" leadInLength="0/1"  name="cursorOpacity"/>
               <InterpolatingParam id="1797" interp="linr"  time="0/1" value="0" leadInLength="0/1"  name="cursorScale"/>
              </Parameters>
              <Attributes>
               <Attribute id="1798" value="" name="ident"/>
              </Attributes>
              <ExtraData>
               <Entry key="ZoomPanBin">
                <ZoomPanBin id="1799"  >
                 <ZoomPanKeyframes>
                  <ZoomPanKeyframe id="1800" timeRangeEnd="-9999999/1" timeRangeDuration="0/1" interpolaterName="linr"  />
                 </ZoomPanKeyframes>
                </ZoomPanBin>
               </Entry>
               <Entry key="CursorEffectBin">
                <CursorEffectBin id="1801"  >
                 <CursorEffectKeyframes>
                 </CursorEffectKeyframes>
                </CursorEffectBin>
               </Entry>
              </ExtraData>
             </ScreenVMFile>
             <MetaData>
              <entry key="AutoAppliedSmartFocus" val="False"/>
              <entry key="WinSubProjectDisplayName" val=""/>
             </MetaData>
            </UnifiedMedia>
            <UnifiedMedia id="1802"  >
             <AMFile id="1803" start="8119" duration="291" scalar="1/1" mediaStart="8958/1" mediaDuration="291/1" trackNumber="1" src="4" channelNumber="0,1" >
              <Parameters>
               <InterpolatingParam id="1804" interp="linr"  time="0/1" value="1" leadInLength="0/1"  name="volume"/>
               <Parameter id="1805"  name="captions"/>
              </Parameters>
              <Attributes>
               <Attribute id="1806" value="" name="ident"/>
               <Attribute id="1807" value="44100" name="sampleRate"/>
               <Attribute id="1808" value="16" name="bitDepth"/>
               <Attribute id="1809" value="1" name="gain"/>
               <Attribute id="1810" value="0" name="mixToMono"/>
              </Attributes>
             </AMFile>
             <ScreenVMFile id="1811" start="8119" duration="291" scalar="1/1" mediaStart="8958/1" mediaDuration="291/1" trackNumber="0" src="4" >
              <Transformer>
               <VectorParam id="1812"  name="translation">
                <InterpolatingParam id="1813" interp="linr"  time="-9999999/1" value="0" leadInLength="0/1"  />
                <InterpolatingParam id="1814" interp="linr"  time="-9999999/1" value="0" leadInLength="0/1"  />
                <InterpolatingParam id="1815" interp="linr"  time="-9999999/1" value="0" leadInLength="0/1"  />
               </VectorParam>
               <VectorParam id="1816"  name="rotation">
                <InterpolatingParam id="1817" interp="linr"  time="-9999999/1" value="0" leadInLength="0/1"  />
                <InterpolatingParam id="1818" interp="linr"  time="-9999999/1" value="0" leadInLength="0/1"  />
                <InterpolatingParam id="1819" interp="linr"  time="-9999999/1" value="0" leadInLength="0/1"  />
               </VectorParam>
               <VectorParam id="1820"  name="shear">
                <InterpolatingParam id="1821" interp="linr"  time="-9999999/1" value="0" leadInLength="0/1"  />
                <InterpolatingParam id="1822" interp="linr"  time="-9999999/1" value="0" leadInLength="0/1"  />
                <InterpolatingParam id="1823" interp="linr"  time="-9999999/1" value="0" leadInLength="0/1"  />
               </VectorParam>
               <VectorParam id="1824"  name="scale">
                <InterpolatingParam id="1825" interp="linr"  time="-9999999/1" value="1" leadInLength="0/1"  />
                <InterpolatingParam id="1826" interp="linr"  time="-9999999/1" value="1" leadInLength="0/1"  />
                <InterpolatingParam id="1827" interp="linr"  time="-9999999/1" value="1" leadInLength="0/1"  />
               </VectorParam>
               <VectorParam id="1828"  name="anchor">
                <InterpolatingParam id="1829" interp="linr"  time="0/1" value="0" leadInLength="0/1"  />
                <InterpolatingParam id="1830" interp="linr"  time="0/1" value="0" leadInLength="0/1"  />
                <InterpolatingParam id="1831" interp="linr"  time="0/1" value="0" leadInLength="0/1"  />
               </VectorParam>
              </Transformer>
              <Parameters>
               <VectorParam id="1832"  name="sourceCrop">
                <InterpolatingParam id="1833" interp="linr"  time="0/1" value="0" leadInLength="0/1"  />
                <InterpolatingParam id="1834" interp="linr"  time="0/1" value="0" leadInLength="0/1"  />
                <InterpolatingParam id="1835" interp="linr"  time="0/1" value="0" leadInLength="0/1"  />
                <InterpolatingParam id="1836" interp="linr"  time="0/1" value="0" leadInLength="0/1"  />
               </VectorParam>
               <VectorParam id="1837"  name="geometryCrop">
                <InterpolatingParam id="1838" interp="linr"  time="-9999999/1" value="0" leadInLength="0/1"  />
                <InterpolatingParam id="1839" interp="linr"  time="-9999999/1" value="0" leadInLength="0/1"  />
                <InterpolatingParam id="1840" interp="linr"  time="-9999999/1" value="0" leadInLength="0/1"  />
                <InterpolatingParam id="1841" interp="linr"  time="-9999999/1" value="0" leadInLength="0/1"  />
               </VectorParam>
               <InterpolatingParam id="1842" interp="linr"  time="-9999999/1" value="1" leadInLength="0/1"  name="opacity"/>
               <InterpolatingParam id="1843" interp="linr"  time="0/1" value="0" leadInLength="0/1"  name="cursorOpacity"/>
               <InterpolatingParam id="1844" interp="linr"  time="0/1" value="0" leadInLength="0/1"  name="cursorScale"/>
              </Parameters>
              <Attributes>
               <Attribute id="1845" value="" name="ident"/>
              </Attributes>
              <ExtraData>
               <Entry key="ZoomPanBin">
                <ZoomPanBin id="1846"  >
                 <ZoomPanKeyframes>
                  <ZoomPanKeyframe id="1847" timeRangeEnd="-9999999/1" timeRangeDuration="0/1" interpolaterName="linr"  />
                 </ZoomPanKeyframes>
                </ZoomPanBin>
               </Entry>
               <Entry key="CursorEffectBin">
                <CursorEffectBin id="1848"  >
                 <CursorEffectKeyframes>
                 </CursorEffectKeyframes>
                </CursorEffectBin>
               </Entry>
              </ExtraData>
             </ScreenVMFile>
             <MetaData>
              <entry key="AutoAppliedSmartFocus" val="False"/>
              <entry key="WinSubProjectDisplayName" val=""/>
             </MetaData>
            </UnifiedMedia>
            <UnifiedMedia id="1849"  >
             <AMFile id="1850" start="8410" duration="70" scalar="1/1" mediaStart="9295/1" mediaDuration="70/1" trackNumber="1" src="4" channelNumber="0,1" >
              <Parameters>
               <InterpolatingParam id="1851" interp="linr"  time="0/1" value="1" leadInLength="0/1"  name="volume"/>
               <Parameter id="1852"  name="captions"/>
              </Parameters>
              <Attributes>
               <Attribute id="1853" value="" name="ident"/>
               <Attribute id="1854" value="44100" name="sampleRate"/>
               <Attribute id="1855" value="16" name="bitDepth"/>
               <Attribute id="1856" value="1" name="gain"/>
               <Attribute id="1857" value="0" name="mixToMono"/>
              </Attributes>
             </AMFile>
             <ScreenVMFile id="1858" start="8410" duration="70" scalar="1/1" mediaStart="9295/1" mediaDuration="70/1" trackNumber="0" src="4" >
              <Transformer>
               <VectorParam id="1859"  name="translation">
                <InterpolatingParam id="1860" interp="linr"  time="-9999999/1" value="0" leadInLength="0/1"  />
                <InterpolatingParam id="1861" interp="linr"  time="-9999999/1" value="0" leadInLength="0/1"  />
                <InterpolatingParam id="1862" interp="linr"  time="-9999999/1" value="0" leadInLength="0/1"  />
               </VectorParam>
               <VectorParam id="1863"  name="rotation">
                <InterpolatingParam id="1864" interp="linr"  time="-9999999/1" value="0" leadInLength="0/1"  />
                <InterpolatingParam id="1865" interp="linr"  time="-9999999/1" value="0" leadInLength="0/1"  />
                <InterpolatingParam id="1866" interp="linr"  time="-9999999/1" value="0" leadInLength="0/1"  />
               </VectorParam>
               <VectorParam id="1867"  name="shear">
                <InterpolatingParam id="1868" interp="linr"  time="-9999999/1" value="0" leadInLength="0/1"  />
                <InterpolatingParam id="1869" interp="linr"  time="-9999999/1" value="0" leadInLength="0/1"  />
                <InterpolatingParam id="1870" interp="linr"  time="-9999999/1" value="0" leadInLength="0/1"  />
               </VectorParam>
               <VectorParam id="1871"  name="scale">
                <InterpolatingParam id="1872" interp="linr"  time="-9999999/1" value="1" leadInLength="0/1"  />
                <InterpolatingParam id="1873" interp="linr"  time="-9999999/1" value="1" leadInLength="0/1"  />
                <InterpolatingParam id="1874" interp="linr"  time="-9999999/1" value="1" leadInLength="0/1"  />
               </VectorParam>
               <VectorParam id="1875"  name="anchor">
                <InterpolatingParam id="1876" interp="linr"  time="0/1" value="0" leadInLength="0/1"  />
                <InterpolatingParam id="1877" interp="linr"  time="0/1" value="0" leadInLength="0/1"  />
                <InterpolatingParam id="1878" interp="linr"  time="0/1" value="0" leadInLength="0/1"  />
               </VectorParam>
              </Transformer>
              <Parameters>
               <VectorParam id="1879"  name="sourceCrop">
                <InterpolatingParam id="1880" interp="linr"  time="0/1" value="0" leadInLength="0/1"  />
                <InterpolatingParam id="1881" interp="linr"  time="0/1" value="0" leadInLength="0/1"  />
                <InterpolatingParam id="1882" interp="linr"  time="0/1" value="0" leadInLength="0/1"  />
                <InterpolatingParam id="1883" interp="linr"  time="0/1" value="0" leadInLength="0/1"  />
               </VectorParam>
               <VectorParam id="1884"  name="geometryCrop">
                <InterpolatingParam id="1885" interp="linr"  time="-9999999/1" value="0" leadInLength="0/1"  />
                <InterpolatingParam id="1886" interp="linr"  time="-9999999/1" value="0" leadInLength="0/1"  />
                <InterpolatingParam id="1887" interp="linr"  time="-9999999/1" value="0" leadInLength="0/1"  />
                <InterpolatingParam id="1888" interp="linr"  time="-9999999/1" value="0" leadInLength="0/1"  />
               </VectorParam>
               <InterpolatingParam id="1889" interp="linr"  time="-9999999/1" value="1" leadInLength="0/1"  name="opacity"/>
               <InterpolatingParam id="1890" interp="linr"  time="0/1" value="0" leadInLength="0/1"  name="cursorOpacity"/>
               <InterpolatingParam id="1891" interp="linr"  time="0/1" value="0" leadInLength="0/1"  name="cursorScale"/>
              </Parameters>
              <Attributes>
               <Attribute id="1892" value="" name="ident"/>
              </Attributes>
              <ExtraData>
               <Entry key="ZoomPanBin">
                <ZoomPanBin id="1893"  >
                 <ZoomPanKeyframes>
                  <ZoomPanKeyframe id="1894" timeRangeEnd="-9999999/1" timeRangeDuration="0/1" interpolaterName="linr"  />
                 </ZoomPanKeyframes>
                </ZoomPanBin>
               </Entry>
               <Entry key="CursorEffectBin">
                <CursorEffectBin id="1895"  >
                 <CursorEffectKeyframes>
                 </CursorEffectKeyframes>
                </CursorEffectBin>
               </Entry>
              </ExtraData>
             </ScreenVMFile>
             <MetaData>
              <entry key="AutoAppliedSmartFocus" val="False"/>
              <entry key="WinSubProjectDisplayName" val=""/>
             </MetaData>
            </UnifiedMedia>
            <UnifiedMedia id="1896"  >
             <AMFile id="1897" start="8480" duration="20" scalar="1/1" mediaStart="9387/1" mediaDuration="20/1" trackNumber="1" src="4" channelNumber="0,1" >
              <Parameters>
               <InterpolatingParam id="1898" interp="linr"  time="0/1" value="1" leadInLength="0/1"  name="volume"/>
               <Parameter id="1899"  name="captions"/>
              </Parameters>
              <Attributes>
               <Attribute id="1900" value="" name="ident"/>
               <Attribute id="1901" value="44100" name="sampleRate"/>
               <Attribute id="1902" value="16" name="bitDepth"/>
               <Attribute id="1903" value="1" name="gain"/>
               <Attribute id="1904" value="0" name="mixToMono"/>
              </Attributes>
             </AMFile>
             <ScreenVMFile id="1905" start="8480" duration="20" scalar="1/1" mediaStart="9387/1" mediaDuration="20/1" trackNumber="0" src="4" >
              <Transformer>
               <VectorParam id="1906"  name="translation">
                <InterpolatingParam id="1907" interp="linr"  time="-9999999/1" value="0" leadInLength="0/1"  />
                <InterpolatingParam id="1908" interp="linr"  time="-9999999/1" value="0" leadInLength="0/1"  />
                <InterpolatingParam id="1909" interp="linr"  time="-9999999/1" value="0" leadInLength="0/1"  />
               </VectorParam>
               <VectorParam id="1910"  name="rotation">
                <InterpolatingParam id="1911" interp="linr"  time="-9999999/1" value="0" leadInLength="0/1"  />
                <InterpolatingParam id="1912" interp="linr"  time="-9999999/1" value="0" leadInLength="0/1"  />
                <InterpolatingParam id="1913" interp="linr"  time="-9999999/1" value="0" leadInLength="0/1"  />
               </VectorParam>
               <VectorParam id="1914"  name="shear">
                <InterpolatingParam id="1915" interp="linr"  time="-9999999/1" value="0" leadInLength="0/1"  />
                <InterpolatingParam id="1916" interp="linr"  time="-9999999/1" value="0" leadInLength="0/1"  />
                <InterpolatingParam id="1917" interp="linr"  time="-9999999/1" value="0" leadInLength="0/1"  />
               </VectorParam>
               <VectorParam id="1918"  name="scale">
                <InterpolatingParam id="1919" interp="linr"  time="-9999999/1" value="1" leadInLength="0/1"  />
                <InterpolatingParam id="1920" interp="linr"  time="-9999999/1" value="1" leadInLength="0/1"  />
                <InterpolatingParam id="1921" interp="linr"  time="-9999999/1" value="1" leadInLength="0/1"  />
               </VectorParam>
               <VectorParam id="1922"  name="anchor">
                <InterpolatingParam id="1923" interp="linr"  time="0/1" value="0" leadInLength="0/1"  />
                <InterpolatingParam id="1924" interp="linr"  time="0/1" value="0" leadInLength="0/1"  />
                <InterpolatingParam id="1925" interp="linr"  time="0/1" value="0" leadInLength="0/1"  />
               </VectorParam>
              </Transformer>
              <Parameters>
               <VectorParam id="1926"  name="sourceCrop">
                <InterpolatingParam id="1927" interp="linr"  time="0/1" value="0" leadInLength="0/1"  />
                <InterpolatingParam id="1928" interp="linr"  time="0/1" value="0" leadInLength="0/1"  />
                <InterpolatingParam id="1929" interp="linr"  time="0/1" value="0" leadInLength="0/1"  />
                <InterpolatingParam id="1930" interp="linr"  time="0/1" value="0" leadInLength="0/1"  />
               </VectorParam>
               <VectorParam id="1931"  name="geometryCrop">
                <InterpolatingParam id="1932" interp="linr"  time="-9999999/1" value="0" leadInLength="0/1"  />
                <InterpolatingParam id="1933" interp="linr"  time="-9999999/1" value="0" leadInLength="0/1"  />
                <InterpolatingParam id="1934" interp="linr"  time="-9999999/1" value="0" leadInLength="0/1"  />
                <InterpolatingParam id="1935" interp="linr"  time="-9999999/1" value="0" leadInLength="0/1"  />
               </VectorParam>
               <InterpolatingParam id="1936" interp="linr"  time="-9999999/1" value="1" leadInLength="0/1"  name="opacity"/>
               <InterpolatingParam id="1937" interp="linr"  time="0/1" value="0" leadInLength="0/1"  name="cursorOpacity"/>
               <InterpolatingParam id="1938" interp="linr"  time="0/1" value="0" leadInLength="0/1"  name="cursorScale"/>
              </Parameters>
              <Attributes>
               <Attribute id="1939" value="" name="ident"/>
              </Attributes>
              <ExtraData>
               <Entry key="ZoomPanBin">
                <ZoomPanBin id="1940"  >
                 <ZoomPanKeyframes>
                  <ZoomPanKeyframe id="1941" timeRangeEnd="-9999999/1" timeRangeDuration="0/1" interpolaterName="linr"  />
                 </ZoomPanKeyframes>
                </ZoomPanBin>
               </Entry>
               <Entry key="CursorEffectBin">
                <CursorEffectBin id="1942"  >
                 <CursorEffectKeyframes>
                 </CursorEffectKeyframes>
                </CursorEffectBin>
               </Entry>
              </ExtraData>
             </ScreenVMFile>
             <MetaData>
              <entry key="AutoAppliedSmartFocus" val="False"/>
              <entry key="WinSubProjectDisplayName" val=""/>
             </MetaData>
            </UnifiedMedia>
            <UnifiedMedia id="1943"  >
             <AMFile id="1944" start="8500" duration="7" scalar="1/1" mediaStart="9435/1" mediaDuration="7/1" trackNumber="1" src="4" channelNumber="0,1" >
              <Parameters>
               <InterpolatingParam id="1945" interp="linr"  time="0/1" value="1" leadInLength="0/1"  name="volume"/>
               <Parameter id="1946"  name="captions"/>
              </Parameters>
              <Attributes>
               <Attribute id="1947" value="" name="ident"/>
               <Attribute id="1948" value="44100" name="sampleRate"/>
               <Attribute id="1949" value="16" name="bitDepth"/>
               <Attribute id="1950" value="1" name="gain"/>
               <Attribute id="1951" value="0" name="mixToMono"/>
              </Attributes>
             </AMFile>
             <ScreenVMFile id="1952" start="8500" duration="7" scalar="1/1" mediaStart="9435/1" mediaDuration="7/1" trackNumber="0" src="4" >
              <Transformer>
               <VectorParam id="1953"  name="translation">
                <InterpolatingParam id="1954" interp="linr"  time="-9999999/1" value="0" leadInLength="0/1"  />
                <InterpolatingParam id="1955" interp="linr"  time="-9999999/1" value="0" leadInLength="0/1"  />
                <InterpolatingParam id="1956" interp="linr"  time="-9999999/1" value="0" leadInLength="0/1"  />
               </VectorParam>
               <VectorParam id="1957"  name="rotation">
                <InterpolatingParam id="1958" interp="linr"  time="-9999999/1" value="0" leadInLength="0/1"  />
                <InterpolatingParam id="1959" interp="linr"  time="-9999999/1" value="0" leadInLength="0/1"  />
                <InterpolatingParam id="1960" interp="linr"  time="-9999999/1" value="0" leadInLength="0/1"  />
               </VectorParam>
               <VectorParam id="1961"  name="shear">
                <InterpolatingParam id="1962" interp="linr"  time="-9999999/1" value="0" leadInLength="0/1"  />
                <InterpolatingParam id="1963" interp="linr"  time="-9999999/1" value="0" leadInLength="0/1"  />
                <InterpolatingParam id="1964" interp="linr"  time="-9999999/1" value="0" leadInLength="0/1"  />
               </VectorParam>
               <VectorParam id="1965"  name="scale">
                <InterpolatingParam id="1966" interp="linr"  time="-9999999/1" value="1" leadInLength="0/1"  />
                <InterpolatingParam id="1967" interp="linr"  time="-9999999/1" value="1" leadInLength="0/1"  />
                <InterpolatingParam id="1968" interp="linr"  time="-9999999/1" value="1" leadInLength="0/1"  />
               </VectorParam>
               <VectorParam id="1969"  name="anchor">
                <InterpolatingParam id="1970" interp="linr"  time="0/1" value="0" leadInLength="0/1"  />
                <InterpolatingParam id="1971" interp="linr"  time="0/1" value="0" leadInLength="0/1"  />
                <InterpolatingParam id="1972" interp="linr"  time="0/1" value="0" leadInLength="0/1"  />
               </VectorParam>
              </Transformer>
              <Parameters>
               <VectorParam id="1973"  name="sourceCrop">
                <InterpolatingParam id="1974" interp="linr"  time="0/1" value="0" leadInLength="0/1"  />
                <InterpolatingParam id="1975" interp="linr"  time="0/1" value="0" leadInLength="0/1"  />
                <InterpolatingParam id="1976" interp="linr"  time="0/1" value="0" leadInLength="0/1"  />
                <InterpolatingParam id="1977" interp="linr"  time="0/1" value="0" leadInLength="0/1"  />
               </VectorParam>
               <VectorParam id="1978"  name="geometryCrop">
                <InterpolatingParam id="1979" interp="linr"  time="-9999999/1" value="0" leadInLength="0/1"  />
                <InterpolatingParam id="1980" interp="linr"  time="-9999999/1" value="0" leadInLength="0/1"  />
                <InterpolatingParam id="1981" interp="linr"  time="-9999999/1" value="0" leadInLength="0/1"  />
                <InterpolatingParam id="1982" interp="linr"  time="-9999999/1" value="0" leadInLength="0/1"  />
               </VectorParam>
               <InterpolatingParam id="1983" interp="linr"  time="-9999999/1" value="1" leadInLength="0/1"  name="opacity"/>
               <InterpolatingParam id="1984" interp="linr"  time="0/1" value="0" leadInLength="0/1"  name="cursorOpacity"/>
               <InterpolatingParam id="1985" interp="linr"  time="0/1" value="0" leadInLength="0/1"  name="cursorScale"/>
              </Parameters>
              <Attributes>
               <Attribute id="1986" value="" name="ident"/>
              </Attributes>
              <ExtraData>
               <Entry key="ZoomPanBin">
                <ZoomPanBin id="1987"  >
                 <ZoomPanKeyframes>
                  <ZoomPanKeyframe id="1988" timeRangeEnd="-9999999/1" timeRangeDuration="0/1" interpolaterName="linr"  />
                 </ZoomPanKeyframes>
                </ZoomPanBin>
               </Entry>
               <Entry key="CursorEffectBin">
                <CursorEffectBin id="1989"  >
                 <CursorEffectKeyframes>
                 </CursorEffectKeyframes>
                </CursorEffectBin>
               </Entry>
              </ExtraData>
             </ScreenVMFile>
             <MetaData>
              <entry key="AutoAppliedSmartFocus" val="False"/>
              <entry key="WinSubProjectDisplayName" val=""/>
             </MetaData>
            </UnifiedMedia>
            <UnifiedMedia id="1990"  >
             <AMFile id="1991" start="8507" duration="17" scalar="1/1" mediaStart="9456/1" mediaDuration="17/1" trackNumber="1" src="4" channelNumber="0,1" >
              <Parameters>
               <InterpolatingParam id="1992" interp="linr"  time="0/1" value="1" leadInLength="0/1"  name="volume"/>
               <Parameter id="1993"  name="captions"/>
              </Parameters>
              <Attributes>
               <Attribute id="1994" value="" name="ident"/>
               <Attribute id="1995" value="44100" name="sampleRate"/>
               <Attribute id="1996" value="16" name="bitDepth"/>
               <Attribute id="1997" value="1" name="gain"/>
               <Attribute id="1998" value="0" name="mixToMono"/>
              </Attributes>
             </AMFile>
             <ScreenVMFile id="1999" start="8507" duration="17" scalar="1/1" mediaStart="9456/1" mediaDuration="17/1" trackNumber="0" src="4" >
              <Transformer>
               <VectorParam id="2000"  name="translation">
                <InterpolatingParam id="2001" interp="linr"  time="-9999999/1" value="0" leadInLength="0/1"  />
                <InterpolatingParam id="2002" interp="linr"  time="-9999999/1" value="0" leadInLength="0/1"  />
                <InterpolatingParam id="2003" interp="linr"  time="-9999999/1" value="0" leadInLength="0/1"  />
               </VectorParam>
               <VectorParam id="2004"  name="rotation">
                <InterpolatingParam id="2005" interp="linr"  time="-9999999/1" value="0" leadInLength="0/1"  />
                <InterpolatingParam id="2006" interp="linr"  time="-9999999/1" value="0" leadInLength="0/1"  />
                <InterpolatingParam id="2007" interp="linr"  time="-9999999/1" value="0" leadInLength="0/1"  />
               </VectorParam>
               <VectorParam id="2008"  name="shear">
                <InterpolatingParam id="2009" interp="linr"  time="-9999999/1" value="0" leadInLength="0/1"  />
                <InterpolatingParam id="2010" interp="linr"  time="-9999999/1" value="0" leadInLength="0/1"  />
                <InterpolatingParam id="2011" interp="linr"  time="-9999999/1" value="0" leadInLength="0/1"  />
               </VectorParam>
               <VectorParam id="2012"  name="scale">
                <InterpolatingParam id="2013" interp="linr"  time="-9999999/1" value="1" leadInLength="0/1"  />
                <InterpolatingParam id="2014" interp="linr"  time="-9999999/1" value="1" leadInLength="0/1"  />
                <InterpolatingParam id="2015" interp="linr"  time="-9999999/1" value="1" leadInLength="0/1"  />
               </VectorParam>
               <VectorParam id="2016"  name="anchor">
                <InterpolatingParam id="2017" interp="linr"  time="0/1" value="0" leadInLength="0/1"  />
                <InterpolatingParam id="2018" interp="linr"  time="0/1" value="0" leadInLength="0/1"  />
                <InterpolatingParam id="2019" interp="linr"  time="0/1" value="0" leadInLength="0/1"  />
               </VectorParam>
              </Transformer>
              <Parameters>
               <VectorParam id="2020"  name="sourceCrop">
                <InterpolatingParam id="2021" interp="linr"  time="0/1" value="0" leadInLength="0/1"  />
                <InterpolatingParam id="2022" interp="linr"  time="0/1" value="0" leadInLength="0/1"  />
                <InterpolatingParam id="2023" interp="linr"  time="0/1" value="0" leadInLength="0/1"  />
                <InterpolatingParam id="2024" interp="linr"  time="0/1" value="0" leadInLength="0/1"  />
               </VectorParam>
               <VectorParam id="2025"  name="geometryCrop">
                <InterpolatingParam id="2026" interp="linr"  time="-9999999/1" value="0" leadInLength="0/1"  />
                <InterpolatingParam id="2027" interp="linr"  time="-9999999/1" value="0" leadInLength="0/1"  />
                <InterpolatingParam id="2028" interp="linr"  time="-9999999/1" value="0" leadInLength="0/1"  />
                <InterpolatingParam id="2029" interp="linr"  time="-9999999/1" value="0" leadInLength="0/1"  />
               </VectorParam>
               <InterpolatingParam id="2030" interp="linr"  time="-9999999/1" value="1" leadInLength="0/1"  name="opacity"/>
               <InterpolatingParam id="2031" interp="linr"  time="0/1" value="0" leadInLength="0/1"  name="cursorOpacity"/>
               <InterpolatingParam id="2032" interp="linr"  time="0/1" value="0" leadInLength="0/1"  name="cursorScale"/>
              </Parameters>
              <Attributes>
               <Attribute id="2033" value="" name="ident"/>
              </Attributes>
              <ExtraData>
               <Entry key="ZoomPanBin">
                <ZoomPanBin id="2034"  >
                 <ZoomPanKeyframes>
                  <ZoomPanKeyframe id="2035" timeRangeEnd="-9999999/1" timeRangeDuration="0/1" interpolaterName="linr"  />
                 </ZoomPanKeyframes>
                </ZoomPanBin>
               </Entry>
               <Entry key="CursorEffectBin">
                <CursorEffectBin id="2036"  >
                 <CursorEffectKeyframes>
                 </CursorEffectKeyframes>
                </CursorEffectBin>
               </Entry>
              </ExtraData>
             </ScreenVMFile>
             <MetaData>
              <entry key="AutoAppliedSmartFocus" val="False"/>
              <entry key="WinSubProjectDisplayName" val=""/>
             </MetaData>
            </UnifiedMedia>
            <UnifiedMedia id="2037"  >
             <AMFile id="2038" start="8524" duration="48" scalar="1/1" mediaStart="9495/1" mediaDuration="48/1" trackNumber="1" src="4" channelNumber="0,1" >
              <Parameters>
               <InterpolatingParam id="2039" interp="linr"  time="0/1" value="1" leadInLength="0/1"  name="volume"/>
               <Parameter id="2040"  name="captions"/>
              </Parameters>
              <Attributes>
               <Attribute id="2041" value="" name="ident"/>
               <Attribute id="2042" value="44100" name="sampleRate"/>
               <Attribute id="2043" value="16" name="bitDepth"/>
               <Attribute id="2044" value="1" name="gain"/>
               <Attribute id="2045" value="0" name="mixToMono"/>
              </Attributes>
             </AMFile>
             <ScreenVMFile id="2046" start="8524" duration="48" scalar="1/1" mediaStart="9495/1" mediaDuration="48/1" trackNumber="0" src="4" >
              <Transformer>
               <VectorParam id="2047"  name="translation">
                <InterpolatingParam id="2048" interp="linr"  time="-9999999/1" value="0" leadInLength="0/1"  />
                <InterpolatingParam id="2049" interp="linr"  time="-9999999/1" value="0" leadInLength="0/1"  />
                <InterpolatingParam id="2050" interp="linr"  time="-9999999/1" value="0" leadInLength="0/1"  />
               </VectorParam>
               <VectorParam id="2051"  name="rotation">
                <InterpolatingParam id="2052" interp="linr"  time="-9999999/1" value="0" leadInLength="0/1"  />
                <InterpolatingParam id="2053" interp="linr"  time="-9999999/1" value="0" leadInLength="0/1"  />
                <InterpolatingParam id="2054" interp="linr"  time="-9999999/1" value="0" leadInLength="0/1"  />
               </VectorParam>
               <VectorParam id="2055"  name="shear">
                <InterpolatingParam id="2056" interp="linr"  time="-9999999/1" value="0" leadInLength="0/1"  />
                <InterpolatingParam id="2057" interp="linr"  time="-9999999/1" value="0" leadInLength="0/1"  />
                <InterpolatingParam id="2058" interp="linr"  time="-9999999/1" value="0" leadInLength="0/1"  />
               </VectorParam>
               <VectorParam id="2059"  name="scale">
                <InterpolatingParam id="2060" interp="linr"  time="-9999999/1" value="1" leadInLength="0/1"  />
                <InterpolatingParam id="2061" interp="linr"  time="-9999999/1" value="1" leadInLength="0/1"  />
                <InterpolatingParam id="2062" interp="linr"  time="-9999999/1" value="1" leadInLength="0/1"  />
               </VectorParam>
               <VectorParam id="2063"  name="anchor">
                <InterpolatingParam id="2064" interp="linr"  time="0/1" value="0" leadInLength="0/1"  />
                <InterpolatingParam id="2065" interp="linr"  time="0/1" value="0" leadInLength="0/1"  />
                <InterpolatingParam id="2066" interp="linr"  time="0/1" value="0" leadInLength="0/1"  />
               </VectorParam>
              </Transformer>
              <Parameters>
               <VectorParam id="2067"  name="sourceCrop">
                <InterpolatingParam id="2068" interp="linr"  time="0/1" value="0" leadInLength="0/1"  />
                <InterpolatingParam id="2069" interp="linr"  time="0/1" value="0" leadInLength="0/1"  />
                <InterpolatingParam id="2070" interp="linr"  time="0/1" value="0" leadInLength="0/1"  />
                <InterpolatingParam id="2071" interp="linr"  time="0/1" value="0" leadInLength="0/1"  />
               </VectorParam>
               <VectorParam id="2072"  name="geometryCrop">
                <InterpolatingParam id="2073" interp="linr"  time="-9999999/1" value="0" leadInLength="0/1"  />
                <InterpolatingParam id="2074" interp="linr"  time="-9999999/1" value="0" leadInLength="0/1"  />
                <InterpolatingParam id="2075" interp="linr"  time="-9999999/1" value="0" leadInLength="0/1"  />
                <InterpolatingParam id="2076" interp="linr"  time="-9999999/1" value="0" leadInLength="0/1"  />
               </VectorParam>
               <InterpolatingParam id="2077" interp="linr"  time="-9999999/1" value="1" leadInLength="0/1"  name="opacity"/>
               <InterpolatingParam id="2078" interp="linr"  time="0/1" value="0" leadInLength="0/1"  name="cursorOpacity"/>
               <InterpolatingParam id="2079" interp="linr"  time="0/1" value="0" leadInLength="0/1"  name="cursorScale"/>
              </Parameters>
              <Attributes>
               <Attribute id="2080" value="" name="ident"/>
              </Attributes>
              <ExtraData>
               <Entry key="ZoomPanBin">
                <ZoomPanBin id="2081"  >
                 <ZoomPanKeyframes>
                  <ZoomPanKeyframe id="2082" timeRangeEnd="-9999999/1" timeRangeDuration="0/1" interpolaterName="linr"  />
                 </ZoomPanKeyframes>
                </ZoomPanBin>
               </Entry>
               <Entry key="CursorEffectBin">
                <CursorEffectBin id="2083"  >
                 <CursorEffectKeyframes>
                 </CursorEffectKeyframes>
                </CursorEffectBin>
               </Entry>
              </ExtraData>
             </ScreenVMFile>
             <MetaData>
              <entry key="AutoAppliedSmartFocus" val="False"/>
              <entry key="WinSubProjectDisplayName" val=""/>
             </MetaData>
            </UnifiedMedia>
            <UnifiedMedia id="2084"  >
             <AMFile id="2085" start="8572" duration="272" scalar="1/1" mediaStart="9640/1" mediaDuration="272/1" trackNumber="1" src="4" channelNumber="0,1" >
              <Parameters>
               <InterpolatingParam id="2086" interp="linr"  time="0/1" value="1" leadInLength="0/1"  name="volume"/>
               <Parameter id="2087"  name="captions"/>
              </Parameters>
              <Attributes>
               <Attribute id="2088" value="" name="ident"/>
               <Attribute id="2089" value="44100" name="sampleRate"/>
               <Attribute id="2090" value="16" name="bitDepth"/>
               <Attribute id="2091" value="1" name="gain"/>
               <Attribute id="2092" value="0" name="mixToMono"/>
              </Attributes>
             </AMFile>
             <ScreenVMFile id="2093" start="8572" duration="272" scalar="1/1" mediaStart="9640/1" mediaDuration="272/1" trackNumber="0" src="4" >
              <Transformer>
               <VectorParam id="2094"  name="translation">
                <InterpolatingParam id="2095" interp="linr"  time="-9999999/1" value="0" leadInLength="0/1"  />
                <InterpolatingParam id="2096" interp="linr"  time="-9999999/1" value="0" leadInLength="0/1"  />
                <InterpolatingParam id="2097" interp="linr"  time="-9999999/1" value="0" leadInLength="0/1"  />
               </VectorParam>
               <VectorParam id="2098"  name="rotation">
                <InterpolatingParam id="2099" interp="linr"  time="-9999999/1" value="0" leadInLength="0/1"  />
                <InterpolatingParam id="2100" interp="linr"  time="-9999999/1" value="0" leadInLength="0/1"  />
                <InterpolatingParam id="2101" interp="linr"  time="-9999999/1" value="0" leadInLength="0/1"  />
               </VectorParam>
               <VectorParam id="2102"  name="shear">
                <InterpolatingParam id="2103" interp="linr"  time="-9999999/1" value="0" leadInLength="0/1"  />
                <InterpolatingParam id="2104" interp="linr"  time="-9999999/1" value="0" leadInLength="0/1"  />
                <InterpolatingParam id="2105" interp="linr"  time="-9999999/1" value="0" leadInLength="0/1"  />
               </VectorParam>
               <VectorParam id="2106"  name="scale">
                <InterpolatingParam id="2107" interp="linr"  time="-9999999/1" value="1" leadInLength="0/1"  />
                <InterpolatingParam id="2108" interp="linr"  time="-9999999/1" value="1" leadInLength="0/1"  />
                <InterpolatingParam id="2109" interp="linr"  time="-9999999/1" value="1" leadInLength="0/1"  />
               </VectorParam>
               <VectorParam id="2110"  name="anchor">
                <InterpolatingParam id="2111" interp="linr"  time="0/1" value="0" leadInLength="0/1"  />
                <InterpolatingParam id="2112" interp="linr"  time="0/1" value="0" leadInLength="0/1"  />
                <InterpolatingParam id="2113" interp="linr"  time="0/1" value="0" leadInLength="0/1"  />
               </VectorParam>
              </Transformer>
              <Parameters>
               <VectorParam id="2114"  name="sourceCrop">
                <InterpolatingParam id="2115" interp="linr"  time="0/1" value="0" leadInLength="0/1"  />
                <InterpolatingParam id="2116" interp="linr"  time="0/1" value="0" leadInLength="0/1"  />
                <InterpolatingParam id="2117" interp="linr"  time="0/1" value="0" leadInLength="0/1"  />
                <InterpolatingParam id="2118" interp="linr"  time="0/1" value="0" leadInLength="0/1"  />
               </VectorParam>
               <VectorParam id="2119"  name="geometryCrop">
                <InterpolatingParam id="2120" interp="linr"  time="-9999999/1" value="0" leadInLength="0/1"  />
                <InterpolatingParam id="2121" interp="linr"  time="-9999999/1" value="0" leadInLength="0/1"  />
                <InterpolatingParam id="2122" interp="linr"  time="-9999999/1" value="0" leadInLength="0/1"  />
                <InterpolatingParam id="2123" interp="linr"  time="-9999999/1" value="0" leadInLength="0/1"  />
               </VectorParam>
               <InterpolatingParam id="2124" interp="linr"  time="-9999999/1" value="1" leadInLength="0/1"  name="opacity"/>
               <InterpolatingParam id="2125" interp="linr"  time="0/1" value="0" leadInLength="0/1"  name="cursorOpacity"/>
               <InterpolatingParam id="2126" interp="linr"  time="0/1" value="0" leadInLength="0/1"  name="cursorScale"/>
              </Parameters>
              <Attributes>
               <Attribute id="2127" value="" name="ident"/>
              </Attributes>
              <ExtraData>
               <Entry key="ZoomPanBin">
                <ZoomPanBin id="2128"  >
                 <ZoomPanKeyframes>
                  <ZoomPanKeyframe id="2129" timeRangeEnd="-9999999/1" timeRangeDuration="0/1" interpolaterName="linr"  />
                 </ZoomPanKeyframes>
                </ZoomPanBin>
               </Entry>
               <Entry key="CursorEffectBin">
                <CursorEffectBin id="2130"  >
                 <CursorEffectKeyframes>
                 </CursorEffectKeyframes>
                </CursorEffectBin>
               </Entry>
              </ExtraData>
             </ScreenVMFile>
             <MetaData>
              <entry key="AutoAppliedSmartFocus" val="False"/>
              <entry key="WinSubProjectDisplayName" val=""/>
             </MetaData>
            </UnifiedMedia>
            <UnifiedMedia id="2131"  >
             <AMFile id="2132" start="8844" duration="22" scalar="1/1" mediaStart="9933/1" mediaDuration="22/1" trackNumber="1" src="4" channelNumber="0,1" >
              <Parameters>
               <InterpolatingParam id="2133" interp="linr"  time="0/1" value="1" leadInLength="0/1"  name="volume"/>
               <Parameter id="2134"  name="captions"/>
              </Parameters>
              <Attributes>
               <Attribute id="2135" value="" name="ident"/>
               <Attribute id="2136" value="44100" name="sampleRate"/>
               <Attribute id="2137" value="16" name="bitDepth"/>
               <Attribute id="2138" value="1" name="gain"/>
               <Attribute id="2139" value="0" name="mixToMono"/>
              </Attributes>
             </AMFile>
             <ScreenVMFile id="2140" start="8844" duration="22" scalar="1/1" mediaStart="9933/1" mediaDuration="22/1" trackNumber="0" src="4" >
              <Transformer>
               <VectorParam id="2141"  name="translation">
                <InterpolatingParam id="2142" interp="linr"  time="-9999999/1" value="0" leadInLength="0/1"  />
                <InterpolatingParam id="2143" interp="linr"  time="-9999999/1" value="0" leadInLength="0/1"  />
                <InterpolatingParam id="2144" interp="linr"  time="-9999999/1" value="0" leadInLength="0/1"  />
               </VectorParam>
               <VectorParam id="2145"  name="rotation">
                <InterpolatingParam id="2146" interp="linr"  time="-9999999/1" value="0" leadInLength="0/1"  />
                <InterpolatingParam id="2147" interp="linr"  time="-9999999/1" value="0" leadInLength="0/1"  />
                <InterpolatingParam id="2148" interp="linr"  time="-9999999/1" value="0" leadInLength="0/1"  />
               </VectorParam>
               <VectorParam id="2149"  name="shear">
                <InterpolatingParam id="2150" interp="linr"  time="-9999999/1" value="0" leadInLength="0/1"  />
                <InterpolatingParam id="2151" interp="linr"  time="-9999999/1" value="0" leadInLength="0/1"  />
                <InterpolatingParam id="2152" interp="linr"  time="-9999999/1" value="0" leadInLength="0/1"  />
               </VectorParam>
               <VectorParam id="2153"  name="scale">
                <InterpolatingParam id="2154" interp="linr"  time="-9999999/1" value="1" leadInLength="0/1"  />
                <InterpolatingParam id="2155" interp="linr"  time="-9999999/1" value="1" leadInLength="0/1"  />
                <InterpolatingParam id="2156" interp="linr"  time="-9999999/1" value="1" leadInLength="0/1"  />
               </VectorParam>
               <VectorParam id="2157"  name="anchor">
                <InterpolatingParam id="2158" interp="linr"  time="0/1" value="0" leadInLength="0/1"  />
                <InterpolatingParam id="2159" interp="linr"  time="0/1" value="0" leadInLength="0/1"  />
                <InterpolatingParam id="2160" interp="linr"  time="0/1" value="0" leadInLength="0/1"  />
               </VectorParam>
              </Transformer>
              <Parameters>
               <VectorParam id="2161"  name="sourceCrop">
                <InterpolatingParam id="2162" interp="linr"  time="0/1" value="0" leadInLength="0/1"  />
                <InterpolatingParam id="2163" interp="linr"  time="0/1" value="0" leadInLength="0/1"  />
                <InterpolatingParam id="2164" interp="linr"  time="0/1" value="0" leadInLength="0/1"  />
                <InterpolatingParam id="2165" interp="linr"  time="0/1" value="0" leadInLength="0/1"  />
               </VectorParam>
               <VectorParam id="2166"  name="geometryCrop">
                <InterpolatingParam id="2167" interp="linr"  time="-9999999/1" value="0" leadInLength="0/1"  />
                <InterpolatingParam id="2168" interp="linr"  time="-9999999/1" value="0" leadInLength="0/1"  />
                <InterpolatingParam id="2169" interp="linr"  time="-9999999/1" value="0" leadInLength="0/1"  />
                <InterpolatingParam id="2170" interp="linr"  time="-9999999/1" value="0" leadInLength="0/1"  />
               </VectorParam>
               <InterpolatingParam id="2171" interp="linr"  time="-9999999/1" value="1" leadInLength="0/1"  name="opacity"/>
               <InterpolatingParam id="2172" interp="linr"  time="0/1" value="0" leadInLength="0/1"  name="cursorOpacity"/>
               <InterpolatingParam id="2173" interp="linr"  time="0/1" value="0" leadInLength="0/1"  name="cursorScale"/>
              </Parameters>
              <Attributes>
               <Attribute id="2174" value="" name="ident"/>
              </Attributes>
              <ExtraData>
               <Entry key="ZoomPanBin">
                <ZoomPanBin id="2175"  >
                 <ZoomPanKeyframes>
                  <ZoomPanKeyframe id="2176" timeRangeEnd="-9999999/1" timeRangeDuration="0/1" interpolaterName="linr"  />
                 </ZoomPanKeyframes>
                </ZoomPanBin>
               </Entry>
               <Entry key="CursorEffectBin">
                <CursorEffectBin id="2177"  >
                 <CursorEffectKeyframes>
                 </CursorEffectKeyframes>
                </CursorEffectBin>
               </Entry>
              </ExtraData>
             </ScreenVMFile>
             <MetaData>
              <entry key="AutoAppliedSmartFocus" val="False"/>
              <entry key="WinSubProjectDisplayName" val=""/>
             </MetaData>
            </UnifiedMedia>
            <UnifiedMedia id="2178"  >
             <AMFile id="2179" start="8866" duration="57" scalar="1/1" mediaStart="10043/1" mediaDuration="57/1" trackNumber="1" src="4" channelNumber="0,1" >
              <Parameters>
               <InterpolatingParam id="2180" interp="linr"  time="0/1" value="1" leadInLength="0/1"  name="volume"/>
               <Parameter id="2181"  name="captions"/>
              </Parameters>
              <Attributes>
               <Attribute id="2182" value="" name="ident"/>
               <Attribute id="2183" value="44100" name="sampleRate"/>
               <Attribute id="2184" value="16" name="bitDepth"/>
               <Attribute id="2185" value="1" name="gain"/>
               <Attribute id="2186" value="0" name="mixToMono"/>
              </Attributes>
             </AMFile>
             <ScreenVMFile id="2187" start="8866" duration="57" scalar="1/1" mediaStart="10043/1" mediaDuration="57/1" trackNumber="0" src="4" >
              <Transformer>
               <VectorParam id="2188"  name="translation">
                <InterpolatingParam id="2189" interp="linr"  time="-9999999/1" value="0" leadInLength="0/1"  />
                <InterpolatingParam id="2190" interp="linr"  time="-9999999/1" value="0" leadInLength="0/1"  />
                <InterpolatingParam id="2191" interp="linr"  time="-9999999/1" value="0" leadInLength="0/1"  />
               </VectorParam>
               <VectorParam id="2192"  name="rotation">
                <InterpolatingParam id="2193" interp="linr"  time="-9999999/1" value="0" leadInLength="0/1"  />
                <InterpolatingParam id="2194" interp="linr"  time="-9999999/1" value="0" leadInLength="0/1"  />
                <InterpolatingParam id="2195" interp="linr"  time="-9999999/1" value="0" leadInLength="0/1"  />
               </VectorParam>
               <VectorParam id="2196"  name="shear">
                <InterpolatingParam id="2197" interp="linr"  time="-9999999/1" value="0" leadInLength="0/1"  />
                <InterpolatingParam id="2198" interp="linr"  time="-9999999/1" value="0" leadInLength="0/1"  />
                <InterpolatingParam id="2199" interp="linr"  time="-9999999/1" value="0" leadInLength="0/1"  />
               </VectorParam>
               <VectorParam id="2200"  name="scale">
                <InterpolatingParam id="2201" interp="linr"  time="-9999999/1" value="1" leadInLength="0/1"  />
                <InterpolatingParam id="2202" interp="linr"  time="-9999999/1" value="1" leadInLength="0/1"  />
                <InterpolatingParam id="2203" interp="linr"  time="-9999999/1" value="1" leadInLength="0/1"  />
               </VectorParam>
               <VectorParam id="2204"  name="anchor">
                <InterpolatingParam id="2205" interp="linr"  time="0/1" value="0" leadInLength="0/1"  />
                <InterpolatingParam id="2206" interp="linr"  time="0/1" value="0" leadInLength="0/1"  />
                <InterpolatingParam id="2207" interp="linr"  time="0/1" value="0" leadInLength="0/1"  />
               </VectorParam>
              </Transformer>
              <Parameters>
               <VectorParam id="2208"  name="sourceCrop">
                <InterpolatingParam id="2209" interp="linr"  time="0/1" value="0" leadInLength="0/1"  />
                <InterpolatingParam id="2210" interp="linr"  time="0/1" value="0" leadInLength="0/1"  />
                <InterpolatingParam id="2211" interp="linr"  time="0/1" value="0" leadInLength="0/1"  />
                <InterpolatingParam id="2212" interp="linr"  time="0/1" value="0" leadInLength="0/1"  />
               </VectorParam>
               <VectorParam id="2213"  name="geometryCrop">
                <InterpolatingParam id="2214" interp="linr"  time="-9999999/1" value="0" leadInLength="0/1"  />
                <InterpolatingParam id="2215" interp="linr"  time="-9999999/1" value="0" leadInLength="0/1"  />
                <InterpolatingParam id="2216" interp="linr"  time="-9999999/1" value="0" leadInLength="0/1"  />
                <InterpolatingParam id="2217" interp="linr"  time="-9999999/1" value="0" leadInLength="0/1"  />
               </VectorParam>
               <InterpolatingParam id="2218" interp="linr"  time="-9999999/1" value="1" leadInLength="0/1"  name="opacity"/>
               <InterpolatingParam id="2219" interp="linr"  time="0/1" value="0" leadInLength="0/1"  name="cursorOpacity"/>
               <InterpolatingParam id="2220" interp="linr"  time="0/1" value="0" leadInLength="0/1"  name="cursorScale"/>
              </Parameters>
              <Attributes>
               <Attribute id="2221" value="" name="ident"/>
              </Attributes>
              <ExtraData>
               <Entry key="ZoomPanBin">
                <ZoomPanBin id="2222"  >
                 <ZoomPanKeyframes>
                  <ZoomPanKeyframe id="2223" timeRangeEnd="-9999999/1" timeRangeDuration="0/1" interpolaterName="linr"  />
                 </ZoomPanKeyframes>
                </ZoomPanBin>
               </Entry>
               <Entry key="CursorEffectBin">
                <CursorEffectBin id="2224"  >
                 <CursorEffectKeyframes>
                 </CursorEffectKeyframes>
                </CursorEffectBin>
               </Entry>
              </ExtraData>
             </ScreenVMFile>
             <MetaData>
              <entry key="AutoAppliedSmartFocus" val="False"/>
              <entry key="WinSubProjectDisplayName" val=""/>
             </MetaData>
            </UnifiedMedia>
            <UnifiedMedia id="2225"  >
             <AMFile id="2226" start="8923" duration="79" scalar="1/1" mediaStart="10151/1" mediaDuration="79/1" trackNumber="1" src="4" channelNumber="0,1" >
              <Parameters>
               <InterpolatingParam id="2227" interp="linr"  time="0/1" value="1" leadInLength="0/1"  name="volume"/>
               <Parameter id="2228"  name="captions"/>
              </Parameters>
              <Attributes>
               <Attribute id="2229" value="" name="ident"/>
               <Attribute id="2230" value="44100" name="sampleRate"/>
               <Attribute id="2231" value="16" name="bitDepth"/>
               <Attribute id="2232" value="1" name="gain"/>
               <Attribute id="2233" value="0" name="mixToMono"/>
              </Attributes>
             </AMFile>
             <ScreenVMFile id="2234" start="8923" duration="79" scalar="1/1" mediaStart="10151/1" mediaDuration="79/1" trackNumber="0" src="4" >
              <Transformer>
               <VectorParam id="2235"  name="translation">
                <InterpolatingParam id="2236" interp="linr"  time="-9999999/1" value="0" leadInLength="0/1"  />
                <InterpolatingParam id="2237" interp="linr"  time="-9999999/1" value="0" leadInLength="0/1"  />
                <InterpolatingParam id="2238" interp="linr"  time="-9999999/1" value="0" leadInLength="0/1"  />
               </VectorParam>
               <VectorParam id="2239"  name="rotation">
                <InterpolatingParam id="2240" interp="linr"  time="-9999999/1" value="0" leadInLength="0/1"  />
                <InterpolatingParam id="2241" interp="linr"  time="-9999999/1" value="0" leadInLength="0/1"  />
                <InterpolatingParam id="2242" interp="linr"  time="-9999999/1" value="0" leadInLength="0/1"  />
               </VectorParam>
               <VectorParam id="2243"  name="shear">
                <InterpolatingParam id="2244" interp="linr"  time="-9999999/1" value="0" leadInLength="0/1"  />
                <InterpolatingParam id="2245" interp="linr"  time="-9999999/1" value="0" leadInLength="0/1"  />
                <InterpolatingParam id="2246" interp="linr"  time="-9999999/1" value="0" leadInLength="0/1"  />
               </VectorParam>
               <VectorParam id="2247"  name="scale">
                <InterpolatingParam id="2248" interp="linr"  time="-9999999/1" value="1" leadInLength="0/1"  />
                <InterpolatingParam id="2249" interp="linr"  time="-9999999/1" value="1" leadInLength="0/1"  />
                <InterpolatingParam id="2250" interp="linr"  time="-9999999/1" value="1" leadInLength="0/1"  />
               </VectorParam>
               <VectorParam id="2251"  name="anchor">
                <InterpolatingParam id="2252" interp="linr"  time="0/1" value="0" leadInLength="0/1"  />
                <InterpolatingParam id="2253" interp="linr"  time="0/1" value="0" leadInLength="0/1"  />
                <InterpolatingParam id="2254" interp="linr"  time="0/1" value="0" leadInLength="0/1"  />
               </VectorParam>
              </Transformer>
              <Parameters>
               <VectorParam id="2255"  name="sourceCrop">
                <InterpolatingParam id="2256" interp="linr"  time="0/1" value="0" leadInLength="0/1"  />
                <InterpolatingParam id="2257" interp="linr"  time="0/1" value="0" leadInLength="0/1"  />
                <InterpolatingParam id="2258" interp="linr"  time="0/1" value="0" leadInLength="0/1"  />
                <InterpolatingParam id="2259" interp="linr"  time="0/1" value="0" leadInLength="0/1"  />
               </VectorParam>
               <VectorParam id="2260"  name="geometryCrop">
                <InterpolatingParam id="2261" interp="linr"  time="-9999999/1" value="0" leadInLength="0/1"  />
                <InterpolatingParam id="2262" interp="linr"  time="-9999999/1" value="0" leadInLength="0/1"  />
                <InterpolatingParam id="2263" interp="linr"  time="-9999999/1" value="0" leadInLength="0/1"  />
                <InterpolatingParam id="2264" interp="linr"  time="-9999999/1" value="0" leadInLength="0/1"  />
               </VectorParam>
               <InterpolatingParam id="2265" interp="linr"  time="-9999999/1" value="1" leadInLength="0/1"  name="opacity"/>
               <InterpolatingParam id="2266" interp="linr"  time="0/1" value="0" leadInLength="0/1"  name="cursorOpacity"/>
               <InterpolatingParam id="2267" interp="linr"  time="0/1" value="0" leadInLength="0/1"  name="cursorScale"/>
              </Parameters>
              <Attributes>
               <Attribute id="2268" value="" name="ident"/>
              </Attributes>
              <ExtraData>
               <Entry key="ZoomPanBin">
                <ZoomPanBin id="2269"  >
                 <ZoomPanKeyframes>
                  <ZoomPanKeyframe id="2270" timeRangeEnd="-9999999/1" timeRangeDuration="0/1" interpolaterName="linr"  />
                 </ZoomPanKeyframes>
                </ZoomPanBin>
               </Entry>
               <Entry key="CursorEffectBin">
                <CursorEffectBin id="2271"  >
                 <CursorEffectKeyframes>
                 </CursorEffectKeyframes>
                </CursorEffectBin>
               </Entry>
              </ExtraData>
             </ScreenVMFile>
             <MetaData>
              <entry key="AutoAppliedSmartFocus" val="False"/>
              <entry key="WinSubProjectDisplayName" val=""/>
             </MetaData>
            </UnifiedMedia>
           </Medias>
          </GenericTrack>
         </StitchedMedia>
        </Medias>
       </GenericTrack>
       <GenericTrack id="2272"  >
        <Attributes>
         <Attribute id="2273" value="" name="ident"/>
         <Attribute id="2274" value="0" name="audioMuted"/>
         <Attribute id="2275" value="0" name="videoHidden"/>
        </Attributes>
        <MetaData>
         <entry key="IsLocked" val="False"/>
         <entry key="WinTrackHeight" val="59.613636363636367"/>
        </MetaData>
        <Medias>
         <StitchedMedia id="2276" start="12499" duration="17300" scalar="1/1" mediaStart="0/1" mediaDuration="17300/1" minMediaStart="0/1" >
          <Transformer>
           <VectorParam id="2277"  name="translation">
            <InterpolatingParam id="2278" interp="linr"  time="0/1" value="0" leadInLength="0/1"  />
            <InterpolatingParam id="2279" interp="linr"  time="0/1" value="0" leadInLength="0/1"  />
            <InterpolatingParam id="2280" interp="linr"  time="0/1" value="0" leadInLength="0/1"  />
           </VectorParam>
           <VectorParam id="2281"  name="rotation">
            <InterpolatingParam id="2282" interp="linr"  time="0/1" value="0" leadInLength="0/1"  />
            <InterpolatingParam id="2283" interp="linr"  time="0/1" value="0" leadInLength="0/1"  />
            <InterpolatingParam id="2284" interp="linr"  time="0/1" value="0" leadInLength="0/1"  />
           </VectorParam>
           <VectorParam id="2285"  name="shear">
            <InterpolatingParam id="2286" interp="linr"  time="0/1" value="0" leadInLength="0/1"  />
            <InterpolatingParam id="2287" interp="linr"  time="0/1" value="0" leadInLength="0/1"  />
            <InterpolatingParam id="2288" interp="linr"  time="0/1" value="0" leadInLength="0/1"  />
           </VectorParam>
           <VectorParam id="2289"  name="scale">
            <InterpolatingParam id="2290" interp="linr"  time="0/1" value="1" leadInLength="0/1"  />
            <InterpolatingParam id="2291" interp="linr"  time="0/1" value="1" leadInLength="0/1"  />
            <InterpolatingParam id="2292" interp="linr"  time="0/1" value="1" leadInLength="0/1"  />
           </VectorParam>
           <VectorParam id="2293"  name="anchor">
            <InterpolatingParam id="2294" interp="linr"  time="0/1" value="0" leadInLength="0/1"  />
            <InterpolatingParam id="2295" interp="linr"  time="0/1" value="0" leadInLength="0/1"  />
            <InterpolatingParam id="2296" interp="linr"  time="0/1" value="0" leadInLength="0/1"  />
           </VectorParam>
          </Transformer>
          <Parameters>
           <InterpolatingParam id="2297" interp="linr"  time="0/1" value="1" leadInLength="0/1"  name="cursorOpacity"/>
           <InterpolatingParam id="2298" interp="linr"  time="0/1" value="1" leadInLength="0/1"  name="cursorScale"/>
           <InterpolatingParam id="2299" interp="linr"  time="0/1" value="1" leadInLength="0/1"  name="volume"/>
           <Parameter id="2300"  name="captions"/>
          </Parameters>
          <Attributes>
           <Attribute id="2301" value="" name="ident"/>
           <Attribute id="2302" value="0" name="mixToMono"/>
          </Attributes>
          <MetaData>
           <entry key="WinSubProjectDisplayName" val=""/>
          </MetaData>
          <ExtraData>
           <Entry key="ZoomPanBin">
            <ZoomPanBin id="2303"  >
             <ZoomPanKeyframes>
             </ZoomPanKeyframes>
            </ZoomPanBin>
           </Entry>
           <Entry key="CursorEffectBin">
            <CursorEffectBin id="2304"  >
             <CursorEffectKeyframes>
             </CursorEffectKeyframes>
            </CursorEffectBin>
           </Entry>
          </ExtraData>
          <GenericTrack id="2305"  >
           <Attributes>
            <Attribute id="2306" value="" name="ident"/>
            <Attribute id="2307" value="0" name="audioMuted"/>
            <Attribute id="2308" value="0" name="videoHidden"/>
           </Attributes>
           <MetaData>
            <entry key="IsLocked" val="False"/>
            <entry key="WinTrackHeight" val="0"/>
           </MetaData>
           <Medias>
            <AMFile id="2309" start="0" duration="1220" scalar="1/1" mediaStart="0/1" mediaDuration="1220/1" trackNumber="2" src="6" channelNumber="0,1" >
             <Parameters>
              <InterpolatingParam id="2310" interp="linr"  time="0/1" value="1" leadInLength="0/1"  name="volume"/>
              <Parameter id="2311"  name="captions"/>
             </Parameters>
             <Attributes>
              <Attribute id="2312" value="" name="ident"/>
              <Attribute id="2313" value="44100" name="sampleRate"/>
              <Attribute id="2314" value="16" name="bitDepth"/>
              <Attribute id="2315" value="1" name="gain"/>
              <Attribute id="2316" value="0" name="mixToMono"/>
             </Attributes>
             <MetaData>
              <entry key="WinSubProjectDisplayName" val=""/>
             </MetaData>
            </AMFile>
            <AMFile id="2317" start="1220" duration="384" scalar="1/1" mediaStart="1232/1" mediaDuration="384/1" trackNumber="2" src="6" channelNumber="0,1" >
             <Parameters>
              <InterpolatingParam id="2318" interp="linr"  time="0/1" value="1" leadInLength="0/1"  name="volume"/>
              <Parameter id="2319"  name="captions"/>
             </Parameters>
             <Attributes>
              <Attribute id="2320" value="" name="ident"/>
              <Attribute id="2321" value="44100" name="sampleRate"/>
              <Attribute id="2322" value="16" name="bitDepth"/>
              <Attribute id="2323" value="1" name="gain"/>
              <Attribute id="2324" value="0" name="mixToMono"/>
             </Attributes>
             <MetaData>
              <entry key="WinSubProjectDisplayName" val=""/>
             </MetaData>
            </AMFile>
            <AMFile id="2325" start="1604" duration="76" scalar="1/1" mediaStart="1620/1" mediaDuration="76/1" trackNumber="2" src="6" channelNumber="0,1" >
             <Parameters>
              <InterpolatingParam id="2326" interp="linr"  time="0/1" value="1" leadInLength="0/1"  name="volume"/>
              <Parameter id="2327"  name="captions"/>
             </Parameters>
             <Attributes>
              <Attribute id="2328" value="" name="ident"/>
              <Attribute id="2329" value="44100" name="sampleRate"/>
              <Attribute id="2330" value="16" name="bitDepth"/>
              <Attribute id="2331" value="1" name="gain"/>
              <Attribute id="2332" value="0" name="mixToMono"/>
             </Attributes>
             <MetaData>
              <entry key="WinSubProjectDisplayName" val=""/>
             </MetaData>
            </AMFile>
            <AMFile id="2333" start="1680" duration="139" scalar="1/1" mediaStart="2001/1" mediaDuration="139/1" trackNumber="2" src="6" channelNumber="0,1" >
             <Parameters>
              <InterpolatingParam id="2334" interp="linr"  time="0/1" value="1" leadInLength="0/1"  name="volume"/>
              <Parameter id="2335"  name="captions"/>
             </Parameters>
             <Attributes>
              <Attribute id="2336" value="" name="ident"/>
              <Attribute id="2337" value="44100" name="sampleRate"/>
              <Attribute id="2338" value="16" name="bitDepth"/>
              <Attribute id="2339" value="1" name="gain"/>
              <Attribute id="2340" value="0" name="mixToMono"/>
             </Attributes>
             <MetaData>
              <entry key="WinSubProjectDisplayName" val=""/>
             </MetaData>
            </AMFile>
            <AMFile id="2341" start="1819" duration="1421" scalar="1/1" mediaStart="2159/1" mediaDuration="1421/1" trackNumber="2" src="6" channelNumber="0,1" >
             <Parameters>
              <InterpolatingParam id="2342" interp="linr"  time="0/1" value="1" leadInLength="0/1"  name="volume"/>
              <Parameter id="2343"  name="captions"/>
             </Parameters>
             <Attributes>
              <Attribute id="2344" value="" name="ident"/>
              <Attribute id="2345" value="44100" name="sampleRate"/>
              <Attribute id="2346" value="16" name="bitDepth"/>
              <Attribute id="2347" value="1" name="gain"/>
              <Attribute id="2348" value="0" name="mixToMono"/>
             </Attributes>
             <MetaData>
              <entry key="WinSubProjectDisplayName" val=""/>
             </MetaData>
            </AMFile>
            <AMFile id="2349" start="3240" duration="40" scalar="1/1" mediaStart="3601/1" mediaDuration="40/1" trackNumber="2" src="6" channelNumber="0,1" >
             <Parameters>
              <InterpolatingParam id="2350" interp="linr"  time="0/1" value="1" leadInLength="0/1"  name="volume"/>
              <Parameter id="2351"  name="captions"/>
             </Parameters>
             <Attributes>
              <Attribute id="2352" value="" name="ident"/>
              <Attribute id="2353" value="44100" name="sampleRate"/>
              <Attribute id="2354" value="16" name="bitDepth"/>
              <Attribute id="2355" value="1" name="gain"/>
              <Attribute id="2356" value="0" name="mixToMono"/>
             </Attributes>
             <MetaData>
              <entry key="WinSubProjectDisplayName" val=""/>
             </MetaData>
            </AMFile>
            <AMFile id="2357" start="3280" duration="1074" scalar="1/1" mediaStart="3672/1" mediaDuration="1074/1" trackNumber="2" src="6" channelNumber="0,1" >
             <Parameters>
              <InterpolatingParam id="2358" interp="linr"  time="0/1" value="1" leadInLength="0/1"  name="volume"/>
              <Parameter id="2359"  name="captions"/>
             </Parameters>
             <Attributes>
              <Attribute id="2360" value="" name="ident"/>
              <Attribute id="2361" value="44100" name="sampleRate"/>
              <Attribute id="2362" value="16" name="bitDepth"/>
              <Attribute id="2363" value="1" name="gain"/>
              <Attribute id="2364" value="0" name="mixToMono"/>
             </Attributes>
             <MetaData>
              <entry key="WinSubProjectDisplayName" val=""/>
             </MetaData>
            </AMFile>
            <AMFile id="2365" start="4354" duration="85" scalar="1/1" mediaStart="4764/1" mediaDuration="85/1" trackNumber="2" src="6" channelNumber="0,1" >
             <Parameters>
              <InterpolatingParam id="2366" interp="linr"  time="0/1" value="1" leadInLength="0/1"  name="volume"/>
              <Parameter id="2367"  name="captions"/>
             </Parameters>
             <Attributes>
              <Attribute id="2368" value="" name="ident"/>
              <Attribute id="2369" value="44100" name="sampleRate"/>
              <Attribute id="2370" value="16" name="bitDepth"/>
              <Attribute id="2371" value="1" name="gain"/>
              <Attribute id="2372" value="0" name="mixToMono"/>
             </Attributes>
             <MetaData>
              <entry key="WinSubProjectDisplayName" val=""/>
             </MetaData>
            </AMFile>
            <AMFile id="2373" start="4439" duration="1460" scalar="1/1" mediaStart="5485/1" mediaDuration="1460/1" trackNumber="2" src="6" channelNumber="0,1" >
             <Parameters>
              <InterpolatingParam id="2374" interp="linr"  time="0/1" value="1" leadInLength="0/1"  name="volume"/>
              <Parameter id="2375"  name="captions"/>
             </Parameters>
             <Attributes>
              <Attribute id="2376" value="" name="ident"/>
              <Attribute id="2377" value="44100" name="sampleRate"/>
              <Attribute id="2378" value="16" name="bitDepth"/>
              <Attribute id="2379" value="1" name="gain"/>
              <Attribute id="2380" value="0" name="mixToMono"/>
             </Attributes>
             <MetaData>
              <entry key="WinSubProjectDisplayName" val=""/>
             </MetaData>
            </AMFile>
            <AMFile id="2381" start="5899" duration="2351" scalar="1/1" mediaStart="6962/1" mediaDuration="2351/1" trackNumber="2" src="6" channelNumber="0,1" >
             <Parameters>
              <InterpolatingParam id="2382" interp="linr"  time="0/1" value="1" leadInLength="0/1"  name="volume"/>
              <Parameter id="2383"  name="captions"/>
             </Parameters>
             <Attributes>
              <Attribute id="2384" value="" name="ident"/>
              <Attribute id="2385" value="44100" name="sampleRate"/>
              <Attribute id="2386" value="16" name="bitDepth"/>
              <Attribute id="2387" value="1" name="gain"/>
              <Attribute id="2388" value="0" name="mixToMono"/>
             </Attributes>
             <MetaData>
              <entry key="WinSubProjectDisplayName" val=""/>
             </MetaData>
            </AMFile>
            <AMFile id="2389" start="8250" duration="19" scalar="1/1" mediaStart="9674/1" mediaDuration="19/1" trackNumber="2" src="6" channelNumber="0,1" >
             <Parameters>
              <InterpolatingParam id="2390" interp="linr"  time="0/1" value="1" leadInLength="0/1"  name="volume"/>
              <Parameter id="2391"  name="captions"/>
             </Parameters>
             <Attributes>
              <Attribute id="2392" value="" name="ident"/>
              <Attribute id="2393" value="44100" name="sampleRate"/>
              <Attribute id="2394" value="16" name="bitDepth"/>
              <Attribute id="2395" value="1" name="gain"/>
              <Attribute id="2396" value="0" name="mixToMono"/>
             </Attributes>
             <MetaData>
              <entry key="WinSubProjectDisplayName" val=""/>
             </MetaData>
            </AMFile>
            <AMFile id="2397" start="8269" duration="1042" scalar="1/1" mediaStart="9972/1" mediaDuration="1042/1" trackNumber="2" src="6" channelNumber="0,1" >
             <Parameters>
              <InterpolatingParam id="2398" interp="linr"  time="0/1" value="1" leadInLength="0/1"  name="volume"/>
              <Parameter id="2399"  name="captions"/>
             </Parameters>
             <Attributes>
              <Attribute id="2400" value="" name="ident"/>
              <Attribute id="2401" value="44100" name="sampleRate"/>
              <Attribute id="2402" value="16" name="bitDepth"/>
              <Attribute id="2403" value="1" name="gain"/>
              <Attribute id="2404" value="0" name="mixToMono"/>
             </Attributes>
             <MetaData>
              <entry key="WinSubProjectDisplayName" val=""/>
             </MetaData>
            </AMFile>
            <AMFile id="2405" start="9311" duration="316" scalar="1/1" mediaStart="11040/1" mediaDuration="316/1" trackNumber="2" src="6" channelNumber="0,1" >
             <Parameters>
              <InterpolatingParam id="2406" interp="linr"  time="0/1" value="1" leadInLength="0/1"  name="volume"/>
              <Parameter id="2407"  name="captions"/>
             </Parameters>
             <Attributes>
              <Attribute id="2408" value="" name="ident"/>
              <Attribute id="2409" value="44100" name="sampleRate"/>
              <Attribute id="2410" value="16" name="bitDepth"/>
              <Attribute id="2411" value="1" name="gain"/>
              <Attribute id="2412" value="0" name="mixToMono"/>
             </Attributes>
             <MetaData>
              <entry key="WinSubProjectDisplayName" val=""/>
             </MetaData>
            </AMFile>
            <AMFile id="2413" start="9627" duration="3044" scalar="1/1" mediaStart="11383/1" mediaDuration="3044/1" trackNumber="2" src="6" channelNumber="0,1" >
             <Parameters>
              <InterpolatingParam id="2414" interp="linr"  time="0/1" value="1" leadInLength="0/1"  name="volume"/>
              <Parameter id="2415"  name="captions"/>
             </Parameters>
             <Attributes>
              <Attribute id="2416" value="" name="ident"/>
              <Attribute id="2417" value="44100" name="sampleRate"/>
              <Attribute id="2418" value="16" name="bitDepth"/>
              <Attribute id="2419" value="1" name="gain"/>
              <Attribute id="2420" value="0" name="mixToMono"/>
             </Attributes>
             <MetaData>
              <entry key="WinSubProjectDisplayName" val=""/>
             </MetaData>
            </AMFile>
            <AMFile id="2421" start="12671" duration="178" scalar="1/1" mediaStart="14446/1" mediaDuration="178/1" trackNumber="2" src="6" channelNumber="0,1" >
             <Parameters>
              <InterpolatingParam id="2422" interp="linr"  time="0/1" value="1" leadInLength="0/1"  name="volume"/>
              <Parameter id="2423"  name="captions"/>
             </Parameters>
             <Attributes>
              <Attribute id="2424" value="" name="ident"/>
              <Attribute id="2425" value="44100" name="sampleRate"/>
              <Attribute id="2426" value="16" name="bitDepth"/>
              <Attribute id="2427" value="1" name="gain"/>
              <Attribute id="2428" value="0" name="mixToMono"/>
             </Attributes>
             <MetaData>
              <entry key="WinSubProjectDisplayName" val=""/>
             </MetaData>
            </AMFile>
            <AMFile id="2429" start="12849" duration="15" scalar="1/1" mediaStart="14644/1" mediaDuration="15/1" trackNumber="2" src="6" channelNumber="0,1" >
             <Parameters>
              <InterpolatingParam id="2430" interp="linr"  time="0/1" value="1" leadInLength="0/1"  name="volume"/>
              <Parameter id="2431"  name="captions"/>
             </Parameters>
             <Attributes>
              <Attribute id="2432" value="" name="ident"/>
              <Attribute id="2433" value="44100" name="sampleRate"/>
              <Attribute id="2434" value="16" name="bitDepth"/>
              <Attribute id="2435" value="1" name="gain"/>
              <Attribute id="2436" value="0" name="mixToMono"/>
             </Attributes>
             <MetaData>
              <entry key="WinSubProjectDisplayName" val=""/>
             </MetaData>
            </AMFile>
            <AMFile id="2437" start="12864" duration="305" scalar="1/1" mediaStart="14725/1" mediaDuration="305/1" trackNumber="2" src="6" channelNumber="0,1" >
             <Parameters>
              <InterpolatingParam id="2438" interp="linr"  time="0/1" value="1" leadInLength="0/1"  name="volume"/>
              <Parameter id="2439"  name="captions"/>
             </Parameters>
             <Attributes>
              <Attribute id="2440" value="" name="ident"/>
              <Attribute id="2441" value="44100" name="sampleRate"/>
              <Attribute id="2442" value="16" name="bitDepth"/>
              <Attribute id="2443" value="1" name="gain"/>
              <Attribute id="2444" value="0" name="mixToMono"/>
             </Attributes>
             <MetaData>
              <entry key="WinSubProjectDisplayName" val=""/>
             </MetaData>
            </AMFile>
            <AMFile id="2445" start="13169" duration="512" scalar="1/1" mediaStart="15044/1" mediaDuration="512/1" trackNumber="2" src="6" channelNumber="0,1" >
             <Parameters>
              <InterpolatingParam id="2446" interp="linr"  time="0/1" value="1" leadInLength="0/1"  name="volume"/>
              <Parameter id="2447"  name="captions"/>
             </Parameters>
             <Attributes>
              <Attribute id="2448" value="" name="ident"/>
              <Attribute id="2449" value="44100" name="sampleRate"/>
              <Attribute id="2450" value="16" name="bitDepth"/>
              <Attribute id="2451" value="1" name="gain"/>
              <Attribute id="2452" value="0" name="mixToMono"/>
             </Attributes>
             <MetaData>
              <entry key="WinSubProjectDisplayName" val=""/>
             </MetaData>
            </AMFile>
            <AMFile id="2453" start="13681" duration="35" scalar="1/1" mediaStart="15626/1" mediaDuration="35/1" trackNumber="2" src="6" channelNumber="0,1" >
             <Parameters>
              <InterpolatingParam id="2454" interp="linr"  time="0/1" value="1" leadInLength="0/1"  name="volume"/>
              <Parameter id="2455"  name="captions"/>
             </Parameters>
             <Attributes>
              <Attribute id="2456" value="" name="ident"/>
              <Attribute id="2457" value="44100" name="sampleRate"/>
              <Attribute id="2458" value="16" name="bitDepth"/>
              <Attribute id="2459" value="1" name="gain"/>
              <Attribute id="2460" value="0" name="mixToMono"/>
             </Attributes>
             <MetaData>
              <entry key="WinSubProjectDisplayName" val=""/>
             </MetaData>
            </AMFile>
            <AMFile id="2461" start="13716" duration="374" scalar="1/1" mediaStart="15685/1" mediaDuration="374/1" trackNumber="2" src="6" channelNumber="0,1" >
             <Parameters>
              <InterpolatingParam id="2462" interp="linr"  time="0/1" value="1" leadInLength="0/1"  name="volume"/>
              <Parameter id="2463"  name="captions"/>
             </Parameters>
             <Attributes>
              <Attribute id="2464" value="" name="ident"/>
              <Attribute id="2465" value="44100" name="sampleRate"/>
              <Attribute id="2466" value="16" name="bitDepth"/>
              <Attribute id="2467" value="1" name="gain"/>
              <Attribute id="2468" value="0" name="mixToMono"/>
             </Attributes>
             <MetaData>
              <entry key="WinSubProjectDisplayName" val=""/>
             </MetaData>
            </AMFile>
            <AMFile id="2469" start="14090" duration="76" scalar="1/1" mediaStart="16185/1" mediaDuration="76/1" trackNumber="2" src="6" channelNumber="0,1" >
             <Parameters>
              <InterpolatingParam id="2470" interp="linr"  time="0/1" value="1" leadInLength="0/1"  name="volume"/>
              <Parameter id="2471"  name="captions"/>
             </Parameters>
             <Attributes>
              <Attribute id="2472" value="" name="ident"/>
              <Attribute id="2473" value="44100" name="sampleRate"/>
              <Attribute id="2474" value="16" name="bitDepth"/>
              <Attribute id="2475" value="1" name="gain"/>
              <Attribute id="2476" value="0" name="mixToMono"/>
             </Attributes>
             <MetaData>
              <entry key="WinSubProjectDisplayName" val=""/>
             </MetaData>
            </AMFile>
            <AMFile id="2477" start="14166" duration="269" scalar="1/1" mediaStart="16282/1" mediaDuration="269/1" trackNumber="2" src="6" channelNumber="0,1" >
             <Parameters>
              <InterpolatingParam id="2478" interp="linr"  time="0/1" value="1" leadInLength="0/1"  name="volume"/>
              <Parameter id="2479"  name="captions"/>
             </Parameters>
             <Attributes>
              <Attribute id="2480" value="" name="ident"/>
              <Attribute id="2481" value="44100" name="sampleRate"/>
              <Attribute id="2482" value="16" name="bitDepth"/>
              <Attribute id="2483" value="1" name="gain"/>
              <Attribute id="2484" value="0" name="mixToMono"/>
             </Attributes>
             <MetaData>
              <entry key="WinSubProjectDisplayName" val=""/>
             </MetaData>
            </AMFile>
            <AMFile id="2485" start="14435" duration="861" scalar="1/1" mediaStart="16818/1" mediaDuration="861/1" trackNumber="2" src="6" channelNumber="0,1" >
             <Parameters>
              <InterpolatingParam id="2486" interp="linr"  time="0/1" value="1" leadInLength="0/1"  name="volume"/>
              <Parameter id="2487"  name="captions"/>
             </Parameters>
             <Attributes>
              <Attribute id="2488" value="" name="ident"/>
              <Attribute id="2489" value="44100" name="sampleRate"/>
              <Attribute id="2490" value="16" name="bitDepth"/>
              <Attribute id="2491" value="1" name="gain"/>
              <Attribute id="2492" value="0" name="mixToMono"/>
             </Attributes>
             <MetaData>
              <entry key="WinSubProjectDisplayName" val=""/>
             </MetaData>
            </AMFile>
            <AMFile id="2493" start="15296" duration="341" scalar="1/1" mediaStart="18059/1" mediaDuration="341/1" trackNumber="2" src="6" channelNumber="0,1" >
             <Parameters>
              <InterpolatingParam id="2494" interp="linr"  time="0/1" value="1" leadInLength="0/1"  name="volume"/>
              <Parameter id="2495"  name="captions"/>
             </Parameters>
             <Attributes>
              <Attribute id="2496" value="" name="ident"/>
              <Attribute id="2497" value="44100" name="sampleRate"/>
              <Attribute id="2498" value="16" name="bitDepth"/>
              <Attribute id="2499" value="1" name="gain"/>
              <Attribute id="2500" value="0" name="mixToMono"/>
             </Attributes>
             <MetaData>
              <entry key="WinSubProjectDisplayName" val=""/>
             </MetaData>
            </AMFile>
            <AMFile id="2501" start="15637" duration="63" scalar="1/1" mediaStart="18414/1" mediaDuration="63/1" trackNumber="2" src="6" channelNumber="0,1" >
             <Parameters>
              <InterpolatingParam id="2502" interp="linr"  time="0/1" value="1" leadInLength="0/1"  name="volume"/>
              <Parameter id="2503"  name="captions"/>
             </Parameters>
             <Attributes>
              <Attribute id="2504" value="" name="ident"/>
              <Attribute id="2505" value="44100" name="sampleRate"/>
              <Attribute id="2506" value="16" name="bitDepth"/>
              <Attribute id="2507" value="1" name="gain"/>
              <Attribute id="2508" value="0" name="mixToMono"/>
             </Attributes>
             <MetaData>
              <entry key="WinSubProjectDisplayName" val=""/>
             </MetaData>
            </AMFile>
            <AMFile id="2509" start="15700" duration="2127" scalar="1/1" mediaStart="18513/1" mediaDuration="2127/1" trackNumber="2" src="6" channelNumber="0,1" >
             <Parameters>
              <InterpolatingParam id="2510" interp="linr"  time="0/1" value="1" leadInLength="0/1"  name="volume"/>
              <Parameter id="2511"  name="captions"/>
             </Parameters>
             <Attributes>
              <Attribute id="2512" value="" name="ident"/>
              <Attribute id="2513" value="44100" name="sampleRate"/>
              <Attribute id="2514" value="16" name="bitDepth"/>
              <Attribute id="2515" value="1" name="gain"/>
              <Attribute id="2516" value="0" name="mixToMono"/>
             </Attributes>
             <MetaData>
              <entry key="WinSubProjectDisplayName" val=""/>
             </MetaData>
            </AMFile>
           </Medias>
          </GenericTrack>
         </StitchedMedia>
        </Medias>
       </GenericTrack>
       <GenericTrack id="2517"  >
        <Attributes>
         <Attribute id="2518" value="" name="ident"/>
         <Attribute id="2519" value="0" name="audioMuted"/>
         <Attribute id="2520" value="0" name="videoHidden"/>
        </Attributes>
        <MetaData>
         <entry key="IsLocked" val="False"/>
         <entry key="WinTrackHeight" val="59.613636363636367"/>
        </MetaData>
        <Medias>
         <StitchedMedia id="2521" start="12499" duration="17300" scalar="1/1" mediaStart="0/1" mediaDuration="17300/1" minMediaStart="0/1" >
          <Transformer>
           <VectorParam id="2522"  name="translation">
            <InterpolatingParam id="2523" interp="linr"  time="-9999999/1" value="0" leadInLength="0/1"  />
            <InterpolatingParam id="2524" interp="linr"  time="-9999999/1" value="0" leadInLength="0/1"  />
            <InterpolatingParam id="2525" interp="linr"  time="-9999999/1" value="0" leadInLength="0/1"  />
           </VectorParam>
           <VectorParam id="2526"  name="rotation">
            <InterpolatingParam id="2527" interp="linr"  time="-9999999/1" value="0" leadInLength="0/1"  />
            <InterpolatingParam id="2528" interp="linr"  time="-9999999/1" value="0" leadInLength="0/1"  />
            <InterpolatingParam id="2529" interp="linr"  time="-9999999/1" value="0" leadInLength="0/1"  />
           </VectorParam>
           <VectorParam id="2530"  name="shear">
            <InterpolatingParam id="2531" interp="linr"  time="-9999999/1" value="0" leadInLength="0/1"  />
            <InterpolatingParam id="2532" interp="linr"  time="-9999999/1" value="0" leadInLength="0/1"  />
            <InterpolatingParam id="2533" interp="linr"  time="-9999999/1" value="0" leadInLength="0/1"  />
           </VectorParam>
           <VectorParam id="2534"  name="scale">
            <InterpolatingParam id="2535" interp="linr"  time="-9999999/1" value="0.93695014662756593" leadInLength="0/1"  />
            <InterpolatingParam id="2536" interp="linr"  time="-9999999/1" value="0.93695014662756593" leadInLength="0/1"  />
            <InterpolatingParam id="2537" interp="linr"  time="-9999999/1" value="1" leadInLength="0/1"  />
           </VectorParam>
           <VectorParam id="2538"  name="anchor">
            <InterpolatingParam id="2539" interp="linr"  time="0/1" value="0" leadInLength="0/1"  />
            <InterpolatingParam id="2540" interp="linr"  time="0/1" value="0" leadInLength="0/1"  />
            <InterpolatingParam id="2541" interp="linr"  time="0/1" value="0" leadInLength="0/1"  />
           </VectorParam>
          </Transformer>
          <Parameters>
           <VectorParam id="2542"  name="sourceCrop">
            <InterpolatingParam id="2543" interp="linr"  time="0/1" value="0" leadInLength="0/1"  />
            <InterpolatingParam id="2544" interp="linr"  time="0/1" value="0" leadInLength="0/1"  />
            <InterpolatingParam id="2545" interp="linr"  time="0/1" value="0" leadInLength="0/1"  />
            <InterpolatingParam id="2546" interp="linr"  time="0/1" value="0" leadInLength="0/1"  />
           </VectorParam>
           <VectorParam id="2547"  name="geometryCrop">
            <InterpolatingParam id="2548" interp="linr"  time="-9999999/1" value="0" leadInLength="0/1"  />
            <InterpolatingParam id="2549" interp="linr"  time="-9999999/1" value="0" leadInLength="0/1"  />
            <InterpolatingParam id="2550" interp="linr"  time="-9999999/1" value="0" leadInLength="0/1"  />
            <InterpolatingParam id="2551" interp="linr"  time="-9999999/1" value="0" leadInLength="0/1"  />
           </VectorParam>
           <InterpolatingParam id="2552" interp="linr"  time="-9999999/1" value="1" leadInLength="0/1"  name="opacity"/>
           <InterpolatingParam id="2553" interp="linr"  time="0/1" value="1" leadInLength="0/1"  name="cursorOpacity"/>
           <InterpolatingParam id="2554" interp="linr"  time="0/1" value="1" leadInLength="0/1"  name="cursorScale"/>
           <InterpolatingParam id="2555" interp="linr"  time="0/1" value="1" leadInLength="0/1"  name="volume"/>
           <Parameter id="2556"  name="captions"/>
          </Parameters>
          <Effects>
           <GenericEffect id="2557" name = "CursorBaseEffectName" >
            <Parameters>
            <InterpolatingParam id="2558" interp="linr"  time="-9999999/1" value="1" leadInLength="0/1"   name="cursorSize"/>
            <InterpolatingParam id="2559" interp="linr"  time="-9999999/1" value="0" leadInLength="0/1"   name="highlightBlurRadius"/>
            <InterpolatingParam id="2560" interp="linr"  time="-9999999/1" value="0" leadInLength="0/1"   name="highlightColorBlue"/>
            <InterpolatingParam id="2561" interp="linr"  time="-9999999/1" value="255" leadInLength="0/1"   name="highlightColorGreen"/>
            <InterpolatingParam id="2562" interp="linr"  time="-9999999/1" value="255" leadInLength="0/1"   name="highlightColorRed"/>
            <InterpolatingParam id="2563" interp="linr"  time="-9999999/1" value="5" leadInLength="0/1"   name="highlightFeatherSize"/>
            <InterpolatingParam id="2564" interp="linr"  time="-9999999/1" value="2" leadInLength="0/1"   name="highlightMagnification"/>
            <InterpolatingParam id="2565" interp="linr"  time="-9999999/1" value="1" leadInLength="0/1"   name="highlightOpacity"/>
            <InterpolatingParam id="2566" interp="linr"  time="-9999999/1" value="45" leadInLength="0/1"   name="highlightSize"/>
            <Parameter id="2567"   name="highlightType">
             <Keyframes>
             <Keyframe id="2568"  time="-9999999/1" value="0" leadInLength="0/1"  />
             </Keyframes>
            </Parameter>
            <InterpolatingParam id="2569" interp="linr"  time="-9999999/1" value="0" leadInLength="0/1"   name="leftClickColorBlue"/>
            <InterpolatingParam id="2570" interp="linr"  time="-9999999/1" value="0" leadInLength="0/1"   name="leftClickColorGreen"/>
            <InterpolatingParam id="2571" interp="linr"  time="-9999999/1" value="255" leadInLength="0/1"   name="leftClickColorRed"/>
            <InterpolatingParam id="2572" interp="linr"  time="-9999999/1" value="0.80000000000000004" leadInLength="0/1"   name="leftClickDuration"/>
            <InterpolatingParam id="2573" interp="linr"  time="-9999999/1" value="20" leadInLength="0/1"   name="leftClickSize"/>
            <Parameter id="2574"   name="leftClickSoundFilename">
             <Keyframes>
             <Keyframe id="2575"  time="-9999999/1" value="" leadInLength="0/1"  />
             </Keyframes>
            </Parameter>
            <InterpolatingParam id="2576" interp="linr"  time="-9999999/1" value="1" leadInLength="0/1"   name="leftClickSoundVolume"/>
            <Parameter id="2577"   name="leftClickType">
             <Keyframes>
             <Keyframe id="2578"  time="-9999999/1" value="0" leadInLength="0/1"  />
             </Keyframes>
            </Parameter>
            <InterpolatingParam id="2579" interp="linr"  time="-9999999/1" value="1" leadInLength="0/1"   name="opacity"/>
            <InterpolatingParam id="2580" interp="linr"  time="-9999999/1" value="255" leadInLength="0/1"   name="rightClickColorBlue"/>
            <InterpolatingParam id="2581" interp="linr"  time="-9999999/1" value="0" leadInLength="0/1"   name="rightClickColorGreen"/>
            <InterpolatingParam id="2582" interp="linr"  time="-9999999/1" value="0" leadInLength="0/1"   name="rightClickColorRed"/>
            <InterpolatingParam id="2583" interp="linr"  time="-9999999/1" value="0.80000000000000004" leadInLength="0/1"   name="rightClickDuration"/>
            <InterpolatingParam id="2584" interp="linr"  time="-9999999/1" value="20" leadInLength="0/1"   name="rightClickSize"/>
            <Parameter id="2585"   name="rightClickSoundFilename">
             <Keyframes>
             <Keyframe id="2586"  time="-9999999/1" value="" leadInLength="0/1"  />
             </Keyframes>
            </Parameter>
            <InterpolatingParam id="2587" interp="linr"  time="-9999999/1" value="1" leadInLength="0/1"   name="rightClickSoundVolume"/>
            <Parameter id="2588"   name="rightClickType">
             <Keyframes>
             <Keyframe id="2589"  time="-9999999/1" value="0" leadInLength="0/1"  />
             </Keyframes>
            </Parameter>
            </Parameters>
            <MetaData>
             <entry key="effectIndex" val="0"/>
            </MetaData>
           </GenericEffect>
          </Effects>
          <Attributes>
           <Attribute id="2590" value="" name="ident"/>
           <Attribute id="2591" value="0" name="mixToMono"/>
          </Attributes>
          <MetaData>
           <entry key="AutoAppliedSmartFocus" val="False"/>
           <entry key="WinSubProjectDisplayName" val=""/>
          </MetaData>
          <ExtraData>
           <Entry key="ZoomPanBin">
            <ZoomPanBin id="2592"  >
             <ZoomPanKeyframes>
              <ZoomPanKeyframe id="2593" timeRangeEnd="-9999999/1" timeRangeDuration="0/1" interpolaterName="linr"  />
             </ZoomPanKeyframes>
            </ZoomPanBin>
           </Entry>
           <Entry key="CursorEffectBin">
            <CursorEffectBin id="2594"  >
             <CursorEffectKeyframes>
              <CursorEffectKeyframe id="2595" timeRangeEnd="-9999999/1" timeRangeDuration="0/1" interpolaterName=""  />
             </CursorEffectKeyframes>
            </CursorEffectBin>
           </Entry>
          </ExtraData>
          <GenericTrack id="2596"  >
           <Attributes>
            <Attribute id="2597" value="" name="ident"/>
            <Attribute id="2598" value="0" name="audioMuted"/>
            <Attribute id="2599" value="0" name="videoHidden"/>
           </Attributes>
           <MetaData>
            <entry key="IsLocked" val="False"/>
            <entry key="WinTrackHeight" val="0"/>
           </MetaData>
           <Medias>
            <UnifiedMedia id="2600"  >
             <AMFile id="2601" start="0" duration="1220" scalar="1/1" mediaStart="0/1" mediaDuration="1220/1" trackNumber="1" src="6" channelNumber="0,1" >
              <Parameters>
               <InterpolatingParam id="2602" interp="linr"  time="0/1" value="1" leadInLength="0/1"  name="volume"/>
               <Parameter id="2603"  name="captions"/>
              </Parameters>
              <Attributes>
               <Attribute id="2604" value="" name="ident"/>
               <Attribute id="2605" value="44100" name="sampleRate"/>
               <Attribute id="2606" value="16" name="bitDepth"/>
               <Attribute id="2607" value="1" name="gain"/>
               <Attribute id="2608" value="0" name="mixToMono"/>
              </Attributes>
             </AMFile>
             <ScreenVMFile id="2609" start="0" duration="1220" scalar="1/1" mediaStart="0/1" mediaDuration="1220/1" trackNumber="0" src="6" >
              <Transformer>
               <VectorParam id="2610"  name="translation">
                <InterpolatingParam id="2611" interp="linr"  time="-9999999/1" value="0" leadInLength="0/1"  />
                <InterpolatingParam id="2612" interp="linr"  time="-9999999/1" value="0" leadInLength="0/1"  />
                <InterpolatingParam id="2613" interp="linr"  time="-9999999/1" value="0" leadInLength="0/1"  />
               </VectorParam>
               <VectorParam id="2614"  name="rotation">
                <InterpolatingParam id="2615" interp="linr"  time="-9999999/1" value="0" leadInLength="0/1"  />
                <InterpolatingParam id="2616" interp="linr"  time="-9999999/1" value="0" leadInLength="0/1"  />
                <InterpolatingParam id="2617" interp="linr"  time="-9999999/1" value="0" leadInLength="0/1"  />
               </VectorParam>
               <VectorParam id="2618"  name="shear">
                <InterpolatingParam id="2619" interp="linr"  time="-9999999/1" value="0" leadInLength="0/1"  />
                <InterpolatingParam id="2620" interp="linr"  time="-9999999/1" value="0" leadInLength="0/1"  />
                <InterpolatingParam id="2621" interp="linr"  time="-9999999/1" value="0" leadInLength="0/1"  />
               </VectorParam>
               <VectorParam id="2622"  name="scale">
                <InterpolatingParam id="2623" interp="linr"  time="-9999999/1" value="1" leadInLength="0/1"  />
                <InterpolatingParam id="2624" interp="linr"  time="-9999999/1" value="1" leadInLength="0/1"  />
                <InterpolatingParam id="2625" interp="linr"  time="-9999999/1" value="1" leadInLength="0/1"  />
               </VectorParam>
               <VectorParam id="2626"  name="anchor">
                <InterpolatingParam id="2627" interp="linr"  time="0/1" value="0" leadInLength="0/1"  />
                <InterpolatingParam id="2628" interp="linr"  time="0/1" value="0" leadInLength="0/1"  />
                <InterpolatingParam id="2629" interp="linr"  time="0/1" value="0" leadInLength="0/1"  />
               </VectorParam>
              </Transformer>
              <Parameters>
               <VectorParam id="2630"  name="sourceCrop">
                <InterpolatingParam id="2631" interp="linr"  time="0/1" value="0" leadInLength="0/1"  />
                <InterpolatingParam id="2632" interp="linr"  time="0/1" value="0" leadInLength="0/1"  />
                <InterpolatingParam id="2633" interp="linr"  time="0/1" value="0" leadInLength="0/1"  />
                <InterpolatingParam id="2634" interp="linr"  time="0/1" value="0" leadInLength="0/1"  />
               </VectorParam>
               <VectorParam id="2635"  name="geometryCrop">
                <InterpolatingParam id="2636" interp="linr"  time="-9999999/1" value="0" leadInLength="0/1"  />
                <InterpolatingParam id="2637" interp="linr"  time="-9999999/1" value="0" leadInLength="0/1"  />
                <InterpolatingParam id="2638" interp="linr"  time="-9999999/1" value="0" leadInLength="0/1"  />
                <InterpolatingParam id="2639" interp="linr"  time="-9999999/1" value="0" leadInLength="0/1"  />
               </VectorParam>
               <InterpolatingParam id="2640" interp="linr"  time="-9999999/1" value="1" leadInLength="0/1"  name="opacity"/>
               <InterpolatingParam id="2641" interp="linr"  time="0/1" value="0" leadInLength="0/1"  name="cursorOpacity"/>
               <InterpolatingParam id="2642" interp="linr"  time="0/1" value="0" leadInLength="0/1"  name="cursorScale"/>
              </Parameters>
              <Attributes>
               <Attribute id="2643" value="" name="ident"/>
              </Attributes>
              <ExtraData>
               <Entry key="ZoomPanBin">
                <ZoomPanBin id="2644"  >
                 <ZoomPanKeyframes>
                  <ZoomPanKeyframe id="2645" timeRangeEnd="-9999999/1" timeRangeDuration="0/1" interpolaterName="linr"  />
                 </ZoomPanKeyframes>
                </ZoomPanBin>
               </Entry>
               <Entry key="CursorEffectBin">
                <CursorEffectBin id="2646"  >
                 <CursorEffectKeyframes>
                 </CursorEffectKeyframes>
                </CursorEffectBin>
               </Entry>
              </ExtraData>
             </ScreenVMFile>
             <MetaData>
              <entry key="AutoAppliedSmartFocus" val="False"/>
              <entry key="WinSubProjectDisplayName" val=""/>
             </MetaData>
            </UnifiedMedia>
            <UnifiedMedia id="2647"  >
             <AMFile id="2648" start="1220" duration="384" scalar="1/1" mediaStart="1232/1" mediaDuration="384/1" trackNumber="1" src="6" channelNumber="0,1" >
              <Parameters>
               <InterpolatingParam id="2649" interp="linr"  time="0/1" value="1" leadInLength="0/1"  name="volume"/>
               <Parameter id="2650"  name="captions"/>
              </Parameters>
              <Attributes>
               <Attribute id="2651" value="" name="ident"/>
               <Attribute id="2652" value="44100" name="sampleRate"/>
               <Attribute id="2653" value="16" name="bitDepth"/>
               <Attribute id="2654" value="1" name="gain"/>
               <Attribute id="2655" value="0" name="mixToMono"/>
              </Attributes>
             </AMFile>
             <ScreenVMFile id="2656" start="1220" duration="384" scalar="1/1" mediaStart="1232/1" mediaDuration="384/1" trackNumber="0" src="6" >
              <Transformer>
               <VectorParam id="2657"  name="translation">
                <InterpolatingParam id="2658" interp="linr"  time="-9999999/1" value="0" leadInLength="0/1"  />
                <InterpolatingParam id="2659" interp="linr"  time="-9999999/1" value="0" leadInLength="0/1"  />
                <InterpolatingParam id="2660" interp="linr"  time="-9999999/1" value="0" leadInLength="0/1"  />
               </VectorParam>
               <VectorParam id="2661"  name="rotation">
                <InterpolatingParam id="2662" interp="linr"  time="-9999999/1" value="0" leadInLength="0/1"  />
                <InterpolatingParam id="2663" interp="linr"  time="-9999999/1" value="0" leadInLength="0/1"  />
                <InterpolatingParam id="2664" interp="linr"  time="-9999999/1" value="0" leadInLength="0/1"  />
               </VectorParam>
               <VectorParam id="2665"  name="shear">
                <InterpolatingParam id="2666" interp="linr"  time="-9999999/1" value="0" leadInLength="0/1"  />
                <InterpolatingParam id="2667" interp="linr"  time="-9999999/1" value="0" leadInLength="0/1"  />
                <InterpolatingParam id="2668" interp="linr"  time="-9999999/1" value="0" leadInLength="0/1"  />
               </VectorParam>
               <VectorParam id="2669"  name="scale">
                <InterpolatingParam id="2670" interp="linr"  time="-9999999/1" value="1" leadInLength="0/1"  />
                <InterpolatingParam id="2671" interp="linr"  time="-9999999/1" value="1" leadInLength="0/1"  />
                <InterpolatingParam id="2672" interp="linr"  time="-9999999/1" value="1" leadInLength="0/1"  />
               </VectorParam>
               <VectorParam id="2673"  name="anchor">
                <InterpolatingParam id="2674" interp="linr"  time="0/1" value="0" leadInLength="0/1"  />
                <InterpolatingParam id="2675" interp="linr"  time="0/1" value="0" leadInLength="0/1"  />
                <InterpolatingParam id="2676" interp="linr"  time="0/1" value="0" leadInLength="0/1"  />
               </VectorParam>
              </Transformer>
              <Parameters>
               <VectorParam id="2677"  name="sourceCrop">
                <InterpolatingParam id="2678" interp="linr"  time="0/1" value="0" leadInLength="0/1"  />
                <InterpolatingParam id="2679" interp="linr"  time="0/1" value="0" leadInLength="0/1"  />
                <InterpolatingParam id="2680" interp="linr"  time="0/1" value="0" leadInLength="0/1"  />
                <InterpolatingParam id="2681" interp="linr"  time="0/1" value="0" leadInLength="0/1"  />
               </VectorParam>
               <VectorParam id="2682"  name="geometryCrop">
                <InterpolatingParam id="2683" interp="linr"  time="-9999999/1" value="0" leadInLength="0/1"  />
                <InterpolatingParam id="2684" interp="linr"  time="-9999999/1" value="0" leadInLength="0/1"  />
                <InterpolatingParam id="2685" interp="linr"  time="-9999999/1" value="0" leadInLength="0/1"  />
                <InterpolatingParam id="2686" interp="linr"  time="-9999999/1" value="0" leadInLength="0/1"  />
               </VectorParam>
               <InterpolatingParam id="2687" interp="linr"  time="-9999999/1" value="1" leadInLength="0/1"  name="opacity"/>
               <InterpolatingParam id="2688" interp="linr"  time="0/1" value="0" leadInLength="0/1"  name="cursorOpacity"/>
               <InterpolatingParam id="2689" interp="linr"  time="0/1" value="0" leadInLength="0/1"  name="cursorScale"/>
              </Parameters>
              <Attributes>
               <Attribute id="2690" value="" name="ident"/>
              </Attributes>
              <ExtraData>
               <Entry key="ZoomPanBin">
                <ZoomPanBin id="2691"  >
                 <ZoomPanKeyframes>
                  <ZoomPanKeyframe id="2692" timeRangeEnd="-9999999/1" timeRangeDuration="0/1" interpolaterName="linr"  />
                 </ZoomPanKeyframes>
                </ZoomPanBin>
               </Entry>
               <Entry key="CursorEffectBin">
                <CursorEffectBin id="2693"  >
                 <CursorEffectKeyframes>
                 </CursorEffectKeyframes>
                </CursorEffectBin>
               </Entry>
              </ExtraData>
             </ScreenVMFile>
             <MetaData>
              <entry key="AutoAppliedSmartFocus" val="False"/>
              <entry key="WinSubProjectDisplayName" val=""/>
             </MetaData>
            </UnifiedMedia>
            <UnifiedMedia id="2694"  >
             <AMFile id="2695" start="1604" duration="76" scalar="1/1" mediaStart="1620/1" mediaDuration="76/1" trackNumber="1" src="6" channelNumber="0,1" >
              <Parameters>
               <InterpolatingParam id="2696" interp="linr"  time="0/1" value="1" leadInLength="0/1"  name="volume"/>
               <Parameter id="2697"  name="captions"/>
              </Parameters>
              <Attributes>
               <Attribute id="2698" value="" name="ident"/>
               <Attribute id="2699" value="44100" name="sampleRate"/>
               <Attribute id="2700" value="16" name="bitDepth"/>
               <Attribute id="2701" value="1" name="gain"/>
               <Attribute id="2702" value="0" name="mixToMono"/>
              </Attributes>
             </AMFile>
             <ScreenVMFile id="2703" start="1604" duration="76" scalar="1/1" mediaStart="1620/1" mediaDuration="76/1" trackNumber="0" src="6" >
              <Transformer>
               <VectorParam id="2704"  name="translation">
                <InterpolatingParam id="2705" interp="linr"  time="-9999999/1" value="0" leadInLength="0/1"  />
                <InterpolatingParam id="2706" interp="linr"  time="-9999999/1" value="0" leadInLength="0/1"  />
                <InterpolatingParam id="2707" interp="linr"  time="-9999999/1" value="0" leadInLength="0/1"  />
               </VectorParam>
               <VectorParam id="2708"  name="rotation">
                <InterpolatingParam id="2709" interp="linr"  time="-9999999/1" value="0" leadInLength="0/1"  />
                <InterpolatingParam id="2710" interp="linr"  time="-9999999/1" value="0" leadInLength="0/1"  />
                <InterpolatingParam id="2711" interp="linr"  time="-9999999/1" value="0" leadInLength="0/1"  />
               </VectorParam>
               <VectorParam id="2712"  name="shear">
                <InterpolatingParam id="2713" interp="linr"  time="-9999999/1" value="0" leadInLength="0/1"  />
                <InterpolatingParam id="2714" interp="linr"  time="-9999999/1" value="0" leadInLength="0/1"  />
                <InterpolatingParam id="2715" interp="linr"  time="-9999999/1" value="0" leadInLength="0/1"  />
               </VectorParam>
               <VectorParam id="2716"  name="scale">
                <InterpolatingParam id="2717" interp="linr"  time="-9999999/1" value="1" leadInLength="0/1"  />
                <InterpolatingParam id="2718" interp="linr"  time="-9999999/1" value="1" leadInLength="0/1"  />
                <InterpolatingParam id="2719" interp="linr"  time="-9999999/1" value="1" leadInLength="0/1"  />
               </VectorParam>
               <VectorParam id="2720"  name="anchor">
                <InterpolatingParam id="2721" interp="linr"  time="0/1" value="0" leadInLength="0/1"  />
                <InterpolatingParam id="2722" interp="linr"  time="0/1" value="0" leadInLength="0/1"  />
                <InterpolatingParam id="2723" interp="linr"  time="0/1" value="0" leadInLength="0/1"  />
               </VectorParam>
              </Transformer>
              <Parameters>
               <VectorParam id="2724"  name="sourceCrop">
                <InterpolatingParam id="2725" interp="linr"  time="0/1" value="0" leadInLength="0/1"  />
                <InterpolatingParam id="2726" interp="linr"  time="0/1" value="0" leadInLength="0/1"  />
                <InterpolatingParam id="2727" interp="linr"  time="0/1" value="0" leadInLength="0/1"  />
                <InterpolatingParam id="2728" interp="linr"  time="0/1" value="0" leadInLength="0/1"  />
               </VectorParam>
               <VectorParam id="2729"  name="geometryCrop">
                <InterpolatingParam id="2730" interp="linr"  time="-9999999/1" value="0" leadInLength="0/1"  />
                <InterpolatingParam id="2731" interp="linr"  time="-9999999/1" value="0" leadInLength="0/1"  />
                <InterpolatingParam id="2732" interp="linr"  time="-9999999/1" value="0" leadInLength="0/1"  />
                <InterpolatingParam id="2733" interp="linr"  time="-9999999/1" value="0" leadInLength="0/1"  />
               </VectorParam>
               <InterpolatingParam id="2734" interp="linr"  time="-9999999/1" value="1" leadInLength="0/1"  name="opacity"/>
               <InterpolatingParam id="2735" interp="linr"  time="0/1" value="0" leadInLength="0/1"  name="cursorOpacity"/>
               <InterpolatingParam id="2736" interp="linr"  time="0/1" value="0" leadInLength="0/1"  name="cursorScale"/>
              </Parameters>
              <Attributes>
               <Attribute id="2737" value="" name="ident"/>
              </Attributes>
              <ExtraData>
               <Entry key="ZoomPanBin">
                <ZoomPanBin id="2738"  >
                 <ZoomPanKeyframes>
                  <ZoomPanKeyframe id="2739" timeRangeEnd="-9999999/1" timeRangeDuration="0/1" interpolaterName="linr"  />
                 </ZoomPanKeyframes>
                </ZoomPanBin>
               </Entry>
               <Entry key="CursorEffectBin">
                <CursorEffectBin id="2740"  >
                 <CursorEffectKeyframes>
                 </CursorEffectKeyframes>
                </CursorEffectBin>
               </Entry>
              </ExtraData>
             </ScreenVMFile>
             <MetaData>
              <entry key="AutoAppliedSmartFocus" val="False"/>
              <entry key="WinSubProjectDisplayName" val=""/>
             </MetaData>
            </UnifiedMedia>
            <UnifiedMedia id="2741"  >
             <AMFile id="2742" start="1680" duration="139" scalar="1/1" mediaStart="2001/1" mediaDuration="139/1" trackNumber="1" src="6" channelNumber="0,1" >
              <Parameters>
               <InterpolatingParam id="2743" interp="linr"  time="0/1" value="1" leadInLength="0/1"  name="volume"/>
               <Parameter id="2744"  name="captions"/>
              </Parameters>
              <Attributes>
               <Attribute id="2745" value="" name="ident"/>
               <Attribute id="2746" value="44100" name="sampleRate"/>
               <Attribute id="2747" value="16" name="bitDepth"/>
               <Attribute id="2748" value="1" name="gain"/>
               <Attribute id="2749" value="0" name="mixToMono"/>
              </Attributes>
             </AMFile>
             <ScreenVMFile id="2750" start="1680" duration="139" scalar="1/1" mediaStart="2001/1" mediaDuration="139/1" trackNumber="0" src="6" >
              <Transformer>
               <VectorParam id="2751"  name="translation">
                <InterpolatingParam id="2752" interp="linr"  time="-9999999/1" value="0" leadInLength="0/1"  />
                <InterpolatingParam id="2753" interp="linr"  time="-9999999/1" value="0" leadInLength="0/1"  />
                <InterpolatingParam id="2754" interp="linr"  time="-9999999/1" value="0" leadInLength="0/1"  />
               </VectorParam>
               <VectorParam id="2755"  name="rotation">
                <InterpolatingParam id="2756" interp="linr"  time="-9999999/1" value="0" leadInLength="0/1"  />
                <InterpolatingParam id="2757" interp="linr"  time="-9999999/1" value="0" leadInLength="0/1"  />
                <InterpolatingParam id="2758" interp="linr"  time="-9999999/1" value="0" leadInLength="0/1"  />
               </VectorParam>
               <VectorParam id="2759"  name="shear">
                <InterpolatingParam id="2760" interp="linr"  time="-9999999/1" value="0" leadInLength="0/1"  />
                <InterpolatingParam id="2761" interp="linr"  time="-9999999/1" value="0" leadInLength="0/1"  />
                <InterpolatingParam id="2762" interp="linr"  time="-9999999/1" value="0" leadInLength="0/1"  />
               </VectorParam>
               <VectorParam id="2763"  name="scale">
                <InterpolatingParam id="2764" interp="linr"  time="-9999999/1" value="1" leadInLength="0/1"  />
                <InterpolatingParam id="2765" interp="linr"  time="-9999999/1" value="1" leadInLength="0/1"  />
                <InterpolatingParam id="2766" interp="linr"  time="-9999999/1" value="1" leadInLength="0/1"  />
               </VectorParam>
               <VectorParam id="2767"  name="anchor">
                <InterpolatingParam id="2768" interp="linr"  time="0/1" value="0" leadInLength="0/1"  />
                <InterpolatingParam id="2769" interp="linr"  time="0/1" value="0" leadInLength="0/1"  />
                <InterpolatingParam id="2770" interp="linr"  time="0/1" value="0" leadInLength="0/1"  />
               </VectorParam>
              </Transformer>
              <Parameters>
               <VectorParam id="2771"  name="sourceCrop">
                <InterpolatingParam id="2772" interp="linr"  time="0/1" value="0" leadInLength="0/1"  />
                <InterpolatingParam id="2773" interp="linr"  time="0/1" value="0" leadInLength="0/1"  />
                <InterpolatingParam id="2774" interp="linr"  time="0/1" value="0" leadInLength="0/1"  />
                <InterpolatingParam id="2775" interp="linr"  time="0/1" value="0" leadInLength="0/1"  />
               </VectorParam>
               <VectorParam id="2776"  name="geometryCrop">
                <InterpolatingParam id="2777" interp="linr"  time="-9999999/1" value="0" leadInLength="0/1"  />
                <InterpolatingParam id="2778" interp="linr"  time="-9999999/1" value="0" leadInLength="0/1"  />
                <InterpolatingParam id="2779" interp="linr"  time="-9999999/1" value="0" leadInLength="0/1"  />
                <InterpolatingParam id="2780" interp="linr"  time="-9999999/1" value="0" leadInLength="0/1"  />
               </VectorParam>
               <InterpolatingParam id="2781" interp="linr"  time="-9999999/1" value="1" leadInLength="0/1"  name="opacity"/>
               <InterpolatingParam id="2782" interp="linr"  time="0/1" value="0" leadInLength="0/1"  name="cursorOpacity"/>
               <InterpolatingParam id="2783" interp="linr"  time="0/1" value="0" leadInLength="0/1"  name="cursorScale"/>
              </Parameters>
              <Attributes>
               <Attribute id="2784" value="" name="ident"/>
              </Attributes>
              <ExtraData>
               <Entry key="ZoomPanBin">
                <ZoomPanBin id="2785"  >
                 <ZoomPanKeyframes>
                  <ZoomPanKeyframe id="2786" timeRangeEnd="-9999999/1" timeRangeDuration="0/1" interpolaterName="linr"  />
                 </ZoomPanKeyframes>
                </ZoomPanBin>
               </Entry>
               <Entry key="CursorEffectBin">
                <CursorEffectBin id="2787"  >
                 <CursorEffectKeyframes>
                 </CursorEffectKeyframes>
                </CursorEffectBin>
               </Entry>
              </ExtraData>
             </ScreenVMFile>
             <MetaData>
              <entry key="AutoAppliedSmartFocus" val="False"/>
              <entry key="WinSubProjectDisplayName" val=""/>
             </MetaData>
            </UnifiedMedia>
            <UnifiedMedia id="2788"  >
             <AMFile id="2789" start="1819" duration="1421" scalar="1/1" mediaStart="2159/1" mediaDuration="1421/1" trackNumber="1" src="6" channelNumber="0,1" >
              <Parameters>
               <InterpolatingParam id="2790" interp="linr"  time="0/1" value="1" leadInLength="0/1"  name="volume"/>
               <Parameter id="2791"  name="captions"/>
              </Parameters>
              <Attributes>
               <Attribute id="2792" value="" name="ident"/>
               <Attribute id="2793" value="44100" name="sampleRate"/>
               <Attribute id="2794" value="16" name="bitDepth"/>
               <Attribute id="2795" value="1" name="gain"/>
               <Attribute id="2796" value="0" name="mixToMono"/>
              </Attributes>
             </AMFile>
             <ScreenVMFile id="2797" start="1819" duration="1421" scalar="1/1" mediaStart="2159/1" mediaDuration="1421/1" trackNumber="0" src="6" >
              <Transformer>
               <VectorParam id="2798"  name="translation">
                <InterpolatingParam id="2799" interp="linr"  time="-9999999/1" value="0" leadInLength="0/1"  />
                <InterpolatingParam id="2800" interp="linr"  time="-9999999/1" value="0" leadInLength="0/1"  />
                <InterpolatingParam id="2801" interp="linr"  time="-9999999/1" value="0" leadInLength="0/1"  />
               </VectorParam>
               <VectorParam id="2802"  name="rotation">
                <InterpolatingParam id="2803" interp="linr"  time="-9999999/1" value="0" leadInLength="0/1"  />
                <InterpolatingParam id="2804" interp="linr"  time="-9999999/1" value="0" leadInLength="0/1"  />
                <InterpolatingParam id="2805" interp="linr"  time="-9999999/1" value="0" leadInLength="0/1"  />
               </VectorParam>
               <VectorParam id="2806"  name="shear">
                <InterpolatingParam id="2807" interp="linr"  time="-9999999/1" value="0" leadInLength="0/1"  />
                <InterpolatingParam id="2808" interp="linr"  time="-9999999/1" value="0" leadInLength="0/1"  />
                <InterpolatingParam id="2809" interp="linr"  time="-9999999/1" value="0" leadInLength="0/1"  />
               </VectorParam>
               <VectorParam id="2810"  name="scale">
                <InterpolatingParam id="2811" interp="linr"  time="-9999999/1" value="1" leadInLength="0/1"  />
                <InterpolatingParam id="2812" interp="linr"  time="-9999999/1" value="1" leadInLength="0/1"  />
                <InterpolatingParam id="2813" interp="linr"  time="-9999999/1" value="1" leadInLength="0/1"  />
               </VectorParam>
               <VectorParam id="2814"  name="anchor">
                <InterpolatingParam id="2815" interp="linr"  time="0/1" value="0" leadInLength="0/1"  />
                <InterpolatingParam id="2816" interp="linr"  time="0/1" value="0" leadInLength="0/1"  />
                <InterpolatingParam id="2817" interp="linr"  time="0/1" value="0" leadInLength="0/1"  />
               </VectorParam>
              </Transformer>
              <Parameters>
               <VectorParam id="2818"  name="sourceCrop">
                <InterpolatingParam id="2819" interp="linr"  time="0/1" value="0" leadInLength="0/1"  />
                <InterpolatingParam id="2820" interp="linr"  time="0/1" value="0" leadInLength="0/1"  />
                <InterpolatingParam id="2821" interp="linr"  time="0/1" value="0" leadInLength="0/1"  />
                <InterpolatingParam id="2822" interp="linr"  time="0/1" value="0" leadInLength="0/1"  />
               </VectorParam>
               <VectorParam id="2823"  name="geometryCrop">
                <InterpolatingParam id="2824" interp="linr"  time="-9999999/1" value="0" leadInLength="0/1"  />
                <InterpolatingParam id="2825" interp="linr"  time="-9999999/1" value="0" leadInLength="0/1"  />
                <InterpolatingParam id="2826" interp="linr"  time="-9999999/1" value="0" leadInLength="0/1"  />
                <InterpolatingParam id="2827" interp="linr"  time="-9999999/1" value="0" leadInLength="0/1"  />
               </VectorParam>
               <InterpolatingParam id="2828" interp="linr"  time="-9999999/1" value="1" leadInLength="0/1"  name="opacity"/>
               <InterpolatingParam id="2829" interp="linr"  time="0/1" value="0" leadInLength="0/1"  name="cursorOpacity"/>
               <InterpolatingParam id="2830" interp="linr"  time="0/1" value="0" leadInLength="0/1"  name="cursorScale"/>
              </Parameters>
              <Attributes>
               <Attribute id="2831" value="" name="ident"/>
              </Attributes>
              <ExtraData>
               <Entry key="ZoomPanBin">
                <ZoomPanBin id="2832"  >
                 <ZoomPanKeyframes>
                  <ZoomPanKeyframe id="2833" timeRangeEnd="-9999999/1" timeRangeDuration="0/1" interpolaterName="linr"  />
                 </ZoomPanKeyframes>
                </ZoomPanBin>
               </Entry>
               <Entry key="CursorEffectBin">
                <CursorEffectBin id="2834"  >
                 <CursorEffectKeyframes>
                 </CursorEffectKeyframes>
                </CursorEffectBin>
               </Entry>
              </ExtraData>
             </ScreenVMFile>
             <MetaData>
              <entry key="AutoAppliedSmartFocus" val="False"/>
              <entry key="WinSubProjectDisplayName" val=""/>
             </MetaData>
            </UnifiedMedia>
            <UnifiedMedia id="2835"  >
             <AMFile id="2836" start="3240" duration="40" scalar="1/1" mediaStart="3601/1" mediaDuration="40/1" trackNumber="1" src="6" channelNumber="0,1" >
              <Parameters>
               <InterpolatingParam id="2837" interp="linr"  time="0/1" value="1" leadInLength="0/1"  name="volume"/>
               <Parameter id="2838"  name="captions"/>
              </Parameters>
              <Attributes>
               <Attribute id="2839" value="" name="ident"/>
               <Attribute id="2840" value="44100" name="sampleRate"/>
               <Attribute id="2841" value="16" name="bitDepth"/>
               <Attribute id="2842" value="1" name="gain"/>
               <Attribute id="2843" value="0" name="mixToMono"/>
              </Attributes>
             </AMFile>
             <ScreenVMFile id="2844" start="3240" duration="40" scalar="1/1" mediaStart="3601/1" mediaDuration="40/1" trackNumber="0" src="6" >
              <Transformer>
               <VectorParam id="2845"  name="translation">
                <InterpolatingParam id="2846" interp="linr"  time="-9999999/1" value="0" leadInLength="0/1"  />
                <InterpolatingParam id="2847" interp="linr"  time="-9999999/1" value="0" leadInLength="0/1"  />
                <InterpolatingParam id="2848" interp="linr"  time="-9999999/1" value="0" leadInLength="0/1"  />
               </VectorParam>
               <VectorParam id="2849"  name="rotation">
                <InterpolatingParam id="2850" interp="linr"  time="-9999999/1" value="0" leadInLength="0/1"  />
                <InterpolatingParam id="2851" interp="linr"  time="-9999999/1" value="0" leadInLength="0/1"  />
                <InterpolatingParam id="2852" interp="linr"  time="-9999999/1" value="0" leadInLength="0/1"  />
               </VectorParam>
               <VectorParam id="2853"  name="shear">
                <InterpolatingParam id="2854" interp="linr"  time="-9999999/1" value="0" leadInLength="0/1"  />
                <InterpolatingParam id="2855" interp="linr"  time="-9999999/1" value="0" leadInLength="0/1"  />
                <InterpolatingParam id="2856" interp="linr"  time="-9999999/1" value="0" leadInLength="0/1"  />
               </VectorParam>
               <VectorParam id="2857"  name="scale">
                <InterpolatingParam id="2858" interp="linr"  time="-9999999/1" value="1" leadInLength="0/1"  />
                <InterpolatingParam id="2859" interp="linr"  time="-9999999/1" value="1" leadInLength="0/1"  />
                <InterpolatingParam id="2860" interp="linr"  time="-9999999/1" value="1" leadInLength="0/1"  />
               </VectorParam>
               <VectorParam id="2861"  name="anchor">
                <InterpolatingParam id="2862" interp="linr"  time="0/1" value="0" leadInLength="0/1"  />
                <InterpolatingParam id="2863" interp="linr"  time="0/1" value="0" leadInLength="0/1"  />
                <InterpolatingParam id="2864" interp="linr"  time="0/1" value="0" leadInLength="0/1"  />
               </VectorParam>
              </Transformer>
              <Parameters>
               <VectorParam id="2865"  name="sourceCrop">
                <InterpolatingParam id="2866" interp="linr"  time="0/1" value="0" leadInLength="0/1"  />
                <InterpolatingParam id="2867" interp="linr"  time="0/1" value="0" leadInLength="0/1"  />
                <InterpolatingParam id="2868" interp="linr"  time="0/1" value="0" leadInLength="0/1"  />
                <InterpolatingParam id="2869" interp="linr"  time="0/1" value="0" leadInLength="0/1"  />
               </VectorParam>
               <VectorParam id="2870"  name="geometryCrop">
                <InterpolatingParam id="2871" interp="linr"  time="-9999999/1" value="0" leadInLength="0/1"  />
                <InterpolatingParam id="2872" interp="linr"  time="-9999999/1" value="0" leadInLength="0/1"  />
                <InterpolatingParam id="2873" interp="linr"  time="-9999999/1" value="0" leadInLength="0/1"  />
                <InterpolatingParam id="2874" interp="linr"  time="-9999999/1" value="0" leadInLength="0/1"  />
               </VectorParam>
               <InterpolatingParam id="2875" interp="linr"  time="-9999999/1" value="1" leadInLength="0/1"  name="opacity"/>
               <InterpolatingParam id="2876" interp="linr"  time="0/1" value="0" leadInLength="0/1"  name="cursorOpacity"/>
               <InterpolatingParam id="2877" interp="linr"  time="0/1" value="0" leadInLength="0/1"  name="cursorScale"/>
              </Parameters>
              <Attributes>
               <Attribute id="2878" value="" name="ident"/>
              </Attributes>
              <ExtraData>
               <Entry key="ZoomPanBin">
                <ZoomPanBin id="2879"  >
                 <ZoomPanKeyframes>
                  <ZoomPanKeyframe id="2880" timeRangeEnd="-9999999/1" timeRangeDuration="0/1" interpolaterName="linr"  />
                 </ZoomPanKeyframes>
                </ZoomPanBin>
               </Entry>
               <Entry key="CursorEffectBin">
                <CursorEffectBin id="2881"  >
                 <CursorEffectKeyframes>
                 </CursorEffectKeyframes>
                </CursorEffectBin>
               </Entry>
              </ExtraData>
             </ScreenVMFile>
             <MetaData>
              <entry key="AutoAppliedSmartFocus" val="False"/>
              <entry key="WinSubProjectDisplayName" val=""/>
             </MetaData>
            </UnifiedMedia>
            <UnifiedMedia id="2882"  >
             <AMFile id="2883" start="3280" duration="1074" scalar="1/1" mediaStart="3672/1" mediaDuration="1074/1" trackNumber="1" src="6" channelNumber="0,1" >
              <Parameters>
               <InterpolatingParam id="2884" interp="linr"  time="0/1" value="1" leadInLength="0/1"  name="volume"/>
               <Parameter id="2885"  name="captions"/>
              </Parameters>
              <Attributes>
               <Attribute id="2886" value="" name="ident"/>
               <Attribute id="2887" value="44100" name="sampleRate"/>
               <Attribute id="2888" value="16" name="bitDepth"/>
               <Attribute id="2889" value="1" name="gain"/>
               <Attribute id="2890" value="0" name="mixToMono"/>
              </Attributes>
             </AMFile>
             <ScreenVMFile id="2891" start="3280" duration="1074" scalar="1/1" mediaStart="3672/1" mediaDuration="1074/1" trackNumber="0" src="6" >
              <Transformer>
               <VectorParam id="2892"  name="translation">
                <InterpolatingParam id="2893" interp="linr"  time="-9999999/1" value="0" leadInLength="0/1"  />
                <InterpolatingParam id="2894" interp="linr"  time="-9999999/1" value="0" leadInLength="0/1"  />
                <InterpolatingParam id="2895" interp="linr"  time="-9999999/1" value="0" leadInLength="0/1"  />
               </VectorParam>
               <VectorParam id="2896"  name="rotation">
                <InterpolatingParam id="2897" interp="linr"  time="-9999999/1" value="0" leadInLength="0/1"  />
                <InterpolatingParam id="2898" interp="linr"  time="-9999999/1" value="0" leadInLength="0/1"  />
                <InterpolatingParam id="2899" interp="linr"  time="-9999999/1" value="0" leadInLength="0/1"  />
               </VectorParam>
               <VectorParam id="2900"  name="shear">
                <InterpolatingParam id="2901" interp="linr"  time="-9999999/1" value="0" leadInLength="0/1"  />
                <InterpolatingParam id="2902" interp="linr"  time="-9999999/1" value="0" leadInLength="0/1"  />
                <InterpolatingParam id="2903" interp="linr"  time="-9999999/1" value="0" leadInLength="0/1"  />
               </VectorParam>
               <VectorParam id="2904"  name="scale">
                <InterpolatingParam id="2905" interp="linr"  time="-9999999/1" value="1" leadInLength="0/1"  />
                <InterpolatingParam id="2906" interp="linr"  time="-9999999/1" value="1" leadInLength="0/1"  />
                <InterpolatingParam id="2907" interp="linr"  time="-9999999/1" value="1" leadInLength="0/1"  />
               </VectorParam>
               <VectorParam id="2908"  name="anchor">
                <InterpolatingParam id="2909" interp="linr"  time="0/1" value="0" leadInLength="0/1"  />
                <InterpolatingParam id="2910" interp="linr"  time="0/1" value="0" leadInLength="0/1"  />
                <InterpolatingParam id="2911" interp="linr"  time="0/1" value="0" leadInLength="0/1"  />
               </VectorParam>
              </Transformer>
              <Parameters>
               <VectorParam id="2912"  name="sourceCrop">
                <InterpolatingParam id="2913" interp="linr"  time="0/1" value="0" leadInLength="0/1"  />
                <InterpolatingParam id="2914" interp="linr"  time="0/1" value="0" leadInLength="0/1"  />
                <InterpolatingParam id="2915" interp="linr"  time="0/1" value="0" leadInLength="0/1"  />
                <InterpolatingParam id="2916" interp="linr"  time="0/1" value="0" leadInLength="0/1"  />
               </VectorParam>
               <VectorParam id="2917"  name="geometryCrop">
                <InterpolatingParam id="2918" interp="linr"  time="-9999999/1" value="0" leadInLength="0/1"  />
                <InterpolatingParam id="2919" interp="linr"  time="-9999999/1" value="0" leadInLength="0/1"  />
                <InterpolatingParam id="2920" interp="linr"  time="-9999999/1" value="0" leadInLength="0/1"  />
                <InterpolatingParam id="2921" interp="linr"  time="-9999999/1" value="0" leadInLength="0/1"  />
               </VectorParam>
               <InterpolatingParam id="2922" interp="linr"  time="-9999999/1" value="1" leadInLength="0/1"  name="opacity"/>
               <InterpolatingParam id="2923" interp="linr"  time="0/1" value="0" leadInLength="0/1"  name="cursorOpacity"/>
               <InterpolatingParam id="2924" interp="linr"  time="0/1" value="0" leadInLength="0/1"  name="cursorScale"/>
              </Parameters>
              <Attributes>
               <Attribute id="2925" value="" name="ident"/>
              </Attributes>
              <ExtraData>
               <Entry key="ZoomPanBin">
                <ZoomPanBin id="2926"  >
                 <ZoomPanKeyframes>
                  <ZoomPanKeyframe id="2927" timeRangeEnd="-9999999/1" timeRangeDuration="0/1" interpolaterName="linr"  />
                 </ZoomPanKeyframes>
                </ZoomPanBin>
               </Entry>
               <Entry key="CursorEffectBin">
                <CursorEffectBin id="2928"  >
                 <CursorEffectKeyframes>
                 </CursorEffectKeyframes>
                </CursorEffectBin>
               </Entry>
              </ExtraData>
             </ScreenVMFile>
             <MetaData>
              <entry key="AutoAppliedSmartFocus" val="False"/>
              <entry key="WinSubProjectDisplayName" val=""/>
             </MetaData>
            </UnifiedMedia>
            <UnifiedMedia id="2929"  >
             <AMFile id="2930" start="4354" duration="85" scalar="1/1" mediaStart="4764/1" mediaDuration="85/1" trackNumber="1" src="6" channelNumber="0,1" >
              <Parameters>
               <InterpolatingParam id="2931" interp="linr"  time="0/1" value="1" leadInLength="0/1"  name="volume"/>
               <Parameter id="2932"  name="captions"/>
              </Parameters>
              <Attributes>
               <Attribute id="2933" value="" name="ident"/>
               <Attribute id="2934" value="44100" name="sampleRate"/>
               <Attribute id="2935" value="16" name="bitDepth"/>
               <Attribute id="2936" value="1" name="gain"/>
               <Attribute id="2937" value="0" name="mixToMono"/>
              </Attributes>
             </AMFile>
             <ScreenVMFile id="2938" start="4354" duration="85" scalar="1/1" mediaStart="4764/1" mediaDuration="85/1" trackNumber="0" src="6" >
              <Transformer>
               <VectorParam id="2939"  name="translation">
                <InterpolatingParam id="2940" interp="linr"  time="-9999999/1" value="0" leadInLength="0/1"  />
                <InterpolatingParam id="2941" interp="linr"  time="-9999999/1" value="0" leadInLength="0/1"  />
                <InterpolatingParam id="2942" interp="linr"  time="-9999999/1" value="0" leadInLength="0/1"  />
               </VectorParam>
               <VectorParam id="2943"  name="rotation">
                <InterpolatingParam id="2944" interp="linr"  time="-9999999/1" value="0" leadInLength="0/1"  />
                <InterpolatingParam id="2945" interp="linr"  time="-9999999/1" value="0" leadInLength="0/1"  />
                <InterpolatingParam id="2946" interp="linr"  time="-9999999/1" value="0" leadInLength="0/1"  />
               </VectorParam>
               <VectorParam id="2947"  name="shear">
                <InterpolatingParam id="2948" interp="linr"  time="-9999999/1" value="0" leadInLength="0/1"  />
                <InterpolatingParam id="2949" interp="linr"  time="-9999999/1" value="0" leadInLength="0/1"  />
                <InterpolatingParam id="2950" interp="linr"  time="-9999999/1" value="0" leadInLength="0/1"  />
               </VectorParam>
               <VectorParam id="2951"  name="scale">
                <InterpolatingParam id="2952" interp="linr"  time="-9999999/1" value="1" leadInLength="0/1"  />
                <InterpolatingParam id="2953" interp="linr"  time="-9999999/1" value="1" leadInLength="0/1"  />
                <InterpolatingParam id="2954" interp="linr"  time="-9999999/1" value="1" leadInLength="0/1"  />
               </VectorParam>
               <VectorParam id="2955"  name="anchor">
                <InterpolatingParam id="2956" interp="linr"  time="0/1" value="0" leadInLength="0/1"  />
                <InterpolatingParam id="2957" interp="linr"  time="0/1" value="0" leadInLength="0/1"  />
                <InterpolatingParam id="2958" interp="linr"  time="0/1" value="0" leadInLength="0/1"  />
               </VectorParam>
              </Transformer>
              <Parameters>
               <VectorParam id="2959"  name="sourceCrop">
                <InterpolatingParam id="2960" interp="linr"  time="0/1" value="0" leadInLength="0/1"  />
                <InterpolatingParam id="2961" interp="linr"  time="0/1" value="0" leadInLength="0/1"  />
                <InterpolatingParam id="2962" interp="linr"  time="0/1" value="0" leadInLength="0/1"  />
                <InterpolatingParam id="2963" interp="linr"  time="0/1" value="0" leadInLength="0/1"  />
               </VectorParam>
               <VectorParam id="2964"  name="geometryCrop">
                <InterpolatingParam id="2965" interp="linr"  time="-9999999/1" value="0" leadInLength="0/1"  />
                <InterpolatingParam id="2966" interp="linr"  time="-9999999/1" value="0" leadInLength="0/1"  />
                <InterpolatingParam id="2967" interp="linr"  time="-9999999/1" value="0" leadInLength="0/1"  />
                <InterpolatingParam id="2968" interp="linr"  time="-9999999/1" value="0" leadInLength="0/1"  />
               </VectorParam>
               <InterpolatingParam id="2969" interp="linr"  time="-9999999/1" value="1" leadInLength="0/1"  name="opacity"/>
               <InterpolatingParam id="2970" interp="linr"  time="0/1" value="0" leadInLength="0/1"  name="cursorOpacity"/>
               <InterpolatingParam id="2971" interp="linr"  time="0/1" value="0" leadInLength="0/1"  name="cursorScale"/>
              </Parameters>
              <Attributes>
               <Attribute id="2972" value="" name="ident"/>
              </Attributes>
              <ExtraData>
               <Entry key="ZoomPanBin">
                <ZoomPanBin id="2973"  >
                 <ZoomPanKeyframes>
                  <ZoomPanKeyframe id="2974" timeRangeEnd="-9999999/1" timeRangeDuration="0/1" interpolaterName="linr"  />
                 </ZoomPanKeyframes>
                </ZoomPanBin>
               </Entry>
               <Entry key="CursorEffectBin">
                <CursorEffectBin id="2975"  >
                 <CursorEffectKeyframes>
                 </CursorEffectKeyframes>
                </CursorEffectBin>
               </Entry>
              </ExtraData>
             </ScreenVMFile>
             <MetaData>
              <entry key="AutoAppliedSmartFocus" val="False"/>
              <entry key="WinSubProjectDisplayName" val=""/>
             </MetaData>
            </UnifiedMedia>
            <UnifiedMedia id="2976"  >
             <AMFile id="2977" start="4439" duration="1460" scalar="1/1" mediaStart="5485/1" mediaDuration="1460/1" trackNumber="1" src="6" channelNumber="0,1" >
              <Parameters>
               <InterpolatingParam id="2978" interp="linr"  time="0/1" value="1" leadInLength="0/1"  name="volume"/>
               <Parameter id="2979"  name="captions"/>
              </Parameters>
              <Attributes>
               <Attribute id="2980" value="" name="ident"/>
               <Attribute id="2981" value="44100" name="sampleRate"/>
               <Attribute id="2982" value="16" name="bitDepth"/>
               <Attribute id="2983" value="1" name="gain"/>
               <Attribute id="2984" value="0" name="mixToMono"/>
              </Attributes>
             </AMFile>
             <ScreenVMFile id="2985" start="4439" duration="1460" scalar="1/1" mediaStart="5485/1" mediaDuration="1460/1" trackNumber="0" src="6" >
              <Transformer>
               <VectorParam id="2986"  name="translation">
                <InterpolatingParam id="2987" interp="linr"  time="-9999999/1" value="0" leadInLength="0/1"  />
                <InterpolatingParam id="2988" interp="linr"  time="-9999999/1" value="0" leadInLength="0/1"  />
                <InterpolatingParam id="2989" interp="linr"  time="-9999999/1" value="0" leadInLength="0/1"  />
               </VectorParam>
               <VectorParam id="2990"  name="rotation">
                <InterpolatingParam id="2991" interp="linr"  time="-9999999/1" value="0" leadInLength="0/1"  />
                <InterpolatingParam id="2992" interp="linr"  time="-9999999/1" value="0" leadInLength="0/1"  />
                <InterpolatingParam id="2993" interp="linr"  time="-9999999/1" value="0" leadInLength="0/1"  />
               </VectorParam>
               <VectorParam id="2994"  name="shear">
                <InterpolatingParam id="2995" interp="linr"  time="-9999999/1" value="0" leadInLength="0/1"  />
                <InterpolatingParam id="2996" interp="linr"  time="-9999999/1" value="0" leadInLength="0/1"  />
                <InterpolatingParam id="2997" interp="linr"  time="-9999999/1" value="0" leadInLength="0/1"  />
               </VectorParam>
               <VectorParam id="2998"  name="scale">
                <InterpolatingParam id="2999" interp="linr"  time="-9999999/1" value="1" leadInLength="0/1"  />
                <InterpolatingParam id="3000" interp="linr"  time="-9999999/1" value="1" leadInLength="0/1"  />
                <InterpolatingParam id="3001" interp="linr"  time="-9999999/1" value="1" leadInLength="0/1"  />
               </VectorParam>
               <VectorParam id="3002"  name="anchor">
                <InterpolatingParam id="3003" interp="linr"  time="0/1" value="0" leadInLength="0/1"  />
                <InterpolatingParam id="3004" interp="linr"  time="0/1" value="0" leadInLength="0/1"  />
                <InterpolatingParam id="3005" interp="linr"  time="0/1" value="0" leadInLength="0/1"  />
               </VectorParam>
              </Transformer>
              <Parameters>
               <VectorParam id="3006"  name="sourceCrop">
                <InterpolatingParam id="3007" interp="linr"  time="0/1" value="0" leadInLength="0/1"  />
                <InterpolatingParam id="3008" interp="linr"  time="0/1" value="0" leadInLength="0/1"  />
                <InterpolatingParam id="3009" interp="linr"  time="0/1" value="0" leadInLength="0/1"  />
                <InterpolatingParam id="3010" interp="linr"  time="0/1" value="0" leadInLength="0/1"  />
               </VectorParam>
               <VectorParam id="3011"  name="geometryCrop">
                <InterpolatingParam id="3012" interp="linr"  time="-9999999/1" value="0" leadInLength="0/1"  />
                <InterpolatingParam id="3013" interp="linr"  time="-9999999/1" value="0" leadInLength="0/1"  />
                <InterpolatingParam id="3014" interp="linr"  time="-9999999/1" value="0" leadInLength="0/1"  />
                <InterpolatingParam id="3015" interp="linr"  time="-9999999/1" value="0" leadInLength="0/1"  />
               </VectorParam>
               <InterpolatingParam id="3016" interp="linr"  time="-9999999/1" value="1" leadInLength="0/1"  name="opacity"/>
               <InterpolatingParam id="3017" interp="linr"  time="0/1" value="0" leadInLength="0/1"  name="cursorOpacity"/>
               <InterpolatingParam id="3018" interp="linr"  time="0/1" value="0" leadInLength="0/1"  name="cursorScale"/>
              </Parameters>
              <Attributes>
               <Attribute id="3019" value="" name="ident"/>
              </Attributes>
              <ExtraData>
               <Entry key="ZoomPanBin">
                <ZoomPanBin id="3020"  >
                 <ZoomPanKeyframes>
                  <ZoomPanKeyframe id="3021" timeRangeEnd="-9999999/1" timeRangeDuration="0/1" interpolaterName="linr"  />
                 </ZoomPanKeyframes>
                </ZoomPanBin>
               </Entry>
               <Entry key="CursorEffectBin">
                <CursorEffectBin id="3022"  >
                 <CursorEffectKeyframes>
                 </CursorEffectKeyframes>
                </CursorEffectBin>
               </Entry>
              </ExtraData>
             </ScreenVMFile>
             <MetaData>
              <entry key="AutoAppliedSmartFocus" val="False"/>
              <entry key="WinSubProjectDisplayName" val=""/>
             </MetaData>
            </UnifiedMedia>
            <UnifiedMedia id="3023"  >
             <AMFile id="3024" start="5899" duration="2351" scalar="1/1" mediaStart="6962/1" mediaDuration="2351/1" trackNumber="1" src="6" channelNumber="0,1" >
              <Parameters>
               <InterpolatingParam id="3025" interp="linr"  time="0/1" value="1" leadInLength="0/1"  name="volume"/>
               <Parameter id="3026"  name="captions"/>
              </Parameters>
              <Attributes>
               <Attribute id="3027" value="" name="ident"/>
               <Attribute id="3028" value="44100" name="sampleRate"/>
               <Attribute id="3029" value="16" name="bitDepth"/>
               <Attribute id="3030" value="1" name="gain"/>
               <Attribute id="3031" value="0" name="mixToMono"/>
              </Attributes>
             </AMFile>
             <ScreenVMFile id="3032" start="5899" duration="2351" scalar="1/1" mediaStart="6962/1" mediaDuration="2351/1" trackNumber="0" src="6" >
              <Transformer>
               <VectorParam id="3033"  name="translation">
                <InterpolatingParam id="3034" interp="linr"  time="-9999999/1" value="0" leadInLength="0/1"  />
                <InterpolatingParam id="3035" interp="linr"  time="-9999999/1" value="0" leadInLength="0/1"  />
                <InterpolatingParam id="3036" interp="linr"  time="-9999999/1" value="0" leadInLength="0/1"  />
               </VectorParam>
               <VectorParam id="3037"  name="rotation">
                <InterpolatingParam id="3038" interp="linr"  time="-9999999/1" value="0" leadInLength="0/1"  />
                <InterpolatingParam id="3039" interp="linr"  time="-9999999/1" value="0" leadInLength="0/1"  />
                <InterpolatingParam id="3040" interp="linr"  time="-9999999/1" value="0" leadInLength="0/1"  />
               </VectorParam>
               <VectorParam id="3041"  name="shear">
                <InterpolatingParam id="3042" interp="linr"  time="-9999999/1" value="0" leadInLength="0/1"  />
                <InterpolatingParam id="3043" interp="linr"  time="-9999999/1" value="0" leadInLength="0/1"  />
                <InterpolatingParam id="3044" interp="linr"  time="-9999999/1" value="0" leadInLength="0/1"  />
               </VectorParam>
               <VectorParam id="3045"  name="scale">
                <InterpolatingParam id="3046" interp="linr"  time="-9999999/1" value="1" leadInLength="0/1"  />
                <InterpolatingParam id="3047" interp="linr"  time="-9999999/1" value="1" leadInLength="0/1"  />
                <InterpolatingParam id="3048" interp="linr"  time="-9999999/1" value="1" leadInLength="0/1"  />
               </VectorParam>
               <VectorParam id="3049"  name="anchor">
                <InterpolatingParam id="3050" interp="linr"  time="0/1" value="0" leadInLength="0/1"  />
                <InterpolatingParam id="3051" interp="linr"  time="0/1" value="0" leadInLength="0/1"  />
                <InterpolatingParam id="3052" interp="linr"  time="0/1" value="0" leadInLength="0/1"  />
               </VectorParam>
              </Transformer>
              <Parameters>
               <VectorParam id="3053"  name="sourceCrop">
                <InterpolatingParam id="3054" interp="linr"  time="0/1" value="0" leadInLength="0/1"  />
                <InterpolatingParam id="3055" interp="linr"  time="0/1" value="0" leadInLength="0/1"  />
                <InterpolatingParam id="3056" interp="linr"  time="0/1" value="0" leadInLength="0/1"  />
                <InterpolatingParam id="3057" interp="linr"  time="0/1" value="0" leadInLength="0/1"  />
               </VectorParam>
               <VectorParam id="3058"  name="geometryCrop">
                <InterpolatingParam id="3059" interp="linr"  time="-9999999/1" value="0" leadInLength="0/1"  />
                <InterpolatingParam id="3060" interp="linr"  time="-9999999/1" value="0" leadInLength="0/1"  />
                <InterpolatingParam id="3061" interp="linr"  time="-9999999/1" value="0" leadInLength="0/1"  />
                <InterpolatingParam id="3062" interp="linr"  time="-9999999/1" value="0" leadInLength="0/1"  />
               </VectorParam>
               <InterpolatingParam id="3063" interp="linr"  time="-9999999/1" value="1" leadInLength="0/1"  name="opacity"/>
               <InterpolatingParam id="3064" interp="linr"  time="0/1" value="0" leadInLength="0/1"  name="cursorOpacity"/>
               <InterpolatingParam id="3065" interp="linr"  time="0/1" value="0" leadInLength="0/1"  name="cursorScale"/>
              </Parameters>
              <Attributes>
               <Attribute id="3066" value="" name="ident"/>
              </Attributes>
              <ExtraData>
               <Entry key="ZoomPanBin">
                <ZoomPanBin id="3067"  >
                 <ZoomPanKeyframes>
                  <ZoomPanKeyframe id="3068" timeRangeEnd="-9999999/1" timeRangeDuration="0/1" interpolaterName="linr"  />
                 </ZoomPanKeyframes>
                </ZoomPanBin>
               </Entry>
               <Entry key="CursorEffectBin">
                <CursorEffectBin id="3069"  >
                 <CursorEffectKeyframes>
                 </CursorEffectKeyframes>
                </CursorEffectBin>
               </Entry>
              </ExtraData>
             </ScreenVMFile>
             <MetaData>
              <entry key="AutoAppliedSmartFocus" val="False"/>
              <entry key="WinSubProjectDisplayName" val=""/>
             </MetaData>
            </UnifiedMedia>
            <UnifiedMedia id="3070"  >
             <AMFile id="3071" start="8250" duration="19" scalar="1/1" mediaStart="9674/1" mediaDuration="19/1" trackNumber="1" src="6" channelNumber="0,1" >
              <Parameters>
               <InterpolatingParam id="3072" interp="linr"  time="0/1" value="1" leadInLength="0/1"  name="volume"/>
               <Parameter id="3073"  name="captions"/>
              </Parameters>
              <Attributes>
               <Attribute id="3074" value="" name="ident"/>
               <Attribute id="3075" value="44100" name="sampleRate"/>
               <Attribute id="3076" value="16" name="bitDepth"/>
               <Attribute id="3077" value="1" name="gain"/>
               <Attribute id="3078" value="0" name="mixToMono"/>
              </Attributes>
             </AMFile>
             <ScreenVMFile id="3079" start="8250" duration="19" scalar="1/1" mediaStart="9674/1" mediaDuration="19/1" trackNumber="0" src="6" >
              <Transformer>
               <VectorParam id="3080"  name="translation">
                <InterpolatingParam id="3081" interp="linr"  time="-9999999/1" value="0" leadInLength="0/1"  />
                <InterpolatingParam id="3082" interp="linr"  time="-9999999/1" value="0" leadInLength="0/1"  />
                <InterpolatingParam id="3083" interp="linr"  time="-9999999/1" value="0" leadInLength="0/1"  />
               </VectorParam>
               <VectorParam id="3084"  name="rotation">
                <InterpolatingParam id="3085" interp="linr"  time="-9999999/1" value="0" leadInLength="0/1"  />
                <InterpolatingParam id="3086" interp="linr"  time="-9999999/1" value="0" leadInLength="0/1"  />
                <InterpolatingParam id="3087" interp="linr"  time="-9999999/1" value="0" leadInLength="0/1"  />
               </VectorParam>
               <VectorParam id="3088"  name="shear">
                <InterpolatingParam id="3089" interp="linr"  time="-9999999/1" value="0" leadInLength="0/1"  />
                <InterpolatingParam id="3090" interp="linr"  time="-9999999/1" value="0" leadInLength="0/1"  />
                <InterpolatingParam id="3091" interp="linr"  time="-9999999/1" value="0" leadInLength="0/1"  />
               </VectorParam>
               <VectorParam id="3092"  name="scale">
                <InterpolatingParam id="3093" interp="linr"  time="-9999999/1" value="1" leadInLength="0/1"  />
                <InterpolatingParam id="3094" interp="linr"  time="-9999999/1" value="1" leadInLength="0/1"  />
                <InterpolatingParam id="3095" interp="linr"  time="-9999999/1" value="1" leadInLength="0/1"  />
               </VectorParam>
               <VectorParam id="3096"  name="anchor">
                <InterpolatingParam id="3097" interp="linr"  time="0/1" value="0" leadInLength="0/1"  />
                <InterpolatingParam id="3098" interp="linr"  time="0/1" value="0" leadInLength="0/1"  />
                <InterpolatingParam id="3099" interp="linr"  time="0/1" value="0" leadInLength="0/1"  />
               </VectorParam>
              </Transformer>
              <Parameters>
               <VectorParam id="3100"  name="sourceCrop">
                <InterpolatingParam id="3101" interp="linr"  time="0/1" value="0" leadInLength="0/1"  />
                <InterpolatingParam id="3102" interp="linr"  time="0/1" value="0" leadInLength="0/1"  />
                <InterpolatingParam id="3103" interp="linr"  time="0/1" value="0" leadInLength="0/1"  />
                <InterpolatingParam id="3104" interp="linr"  time="0/1" value="0" leadInLength="0/1"  />
               </VectorParam>
               <VectorParam id="3105"  name="geometryCrop">
                <InterpolatingParam id="3106" interp="linr"  time="-9999999/1" value="0" leadInLength="0/1"  />
                <InterpolatingParam id="3107" interp="linr"  time="-9999999/1" value="0" leadInLength="0/1"  />
                <InterpolatingParam id="3108" interp="linr"  time="-9999999/1" value="0" leadInLength="0/1"  />
                <InterpolatingParam id="3109" interp="linr"  time="-9999999/1" value="0" leadInLength="0/1"  />
               </VectorParam>
               <InterpolatingParam id="3110" interp="linr"  time="-9999999/1" value="1" leadInLength="0/1"  name="opacity"/>
               <InterpolatingParam id="3111" interp="linr"  time="0/1" value="0" leadInLength="0/1"  name="cursorOpacity"/>
               <InterpolatingParam id="3112" interp="linr"  time="0/1" value="0" leadInLength="0/1"  name="cursorScale"/>
              </Parameters>
              <Attributes>
               <Attribute id="3113" value="" name="ident"/>
              </Attributes>
              <ExtraData>
               <Entry key="ZoomPanBin">
                <ZoomPanBin id="3114"  >
                 <ZoomPanKeyframes>
                  <ZoomPanKeyframe id="3115" timeRangeEnd="-9999999/1" timeRangeDuration="0/1" interpolaterName="linr"  />
                 </ZoomPanKeyframes>
                </ZoomPanBin>
               </Entry>
               <Entry key="CursorEffectBin">
                <CursorEffectBin id="3116"  >
                 <CursorEffectKeyframes>
                 </CursorEffectKeyframes>
                </CursorEffectBin>
               </Entry>
              </ExtraData>
             </ScreenVMFile>
             <MetaData>
              <entry key="AutoAppliedSmartFocus" val="False"/>
              <entry key="WinSubProjectDisplayName" val=""/>
             </MetaData>
            </UnifiedMedia>
            <UnifiedMedia id="3117"  >
             <AMFile id="3118" start="8269" duration="1042" scalar="1/1" mediaStart="9972/1" mediaDuration="1042/1" trackNumber="1" src="6" channelNumber="0,1" >
              <Parameters>
               <InterpolatingParam id="3119" interp="linr"  time="0/1" value="1" leadInLength="0/1"  name="volume"/>
               <Parameter id="3120"  name="captions"/>
              </Parameters>
              <Attributes>
               <Attribute id="3121" value="" name="ident"/>
               <Attribute id="3122" value="44100" name="sampleRate"/>
               <Attribute id="3123" value="16" name="bitDepth"/>
               <Attribute id="3124" value="1" name="gain"/>
               <Attribute id="3125" value="0" name="mixToMono"/>
              </Attributes>
             </AMFile>
             <ScreenVMFile id="3126" start="8269" duration="1042" scalar="1/1" mediaStart="9972/1" mediaDuration="1042/1" trackNumber="0" src="6" >
              <Transformer>
               <VectorParam id="3127"  name="translation">
                <InterpolatingParam id="3128" interp="linr"  time="-9999999/1" value="0" leadInLength="0/1"  />
                <InterpolatingParam id="3129" interp="linr"  time="-9999999/1" value="0" leadInLength="0/1"  />
                <InterpolatingParam id="3130" interp="linr"  time="-9999999/1" value="0" leadInLength="0/1"  />
               </VectorParam>
               <VectorParam id="3131"  name="rotation">
                <InterpolatingParam id="3132" interp="linr"  time="-9999999/1" value="0" leadInLength="0/1"  />
                <InterpolatingParam id="3133" interp="linr"  time="-9999999/1" value="0" leadInLength="0/1"  />
                <InterpolatingParam id="3134" interp="linr"  time="-9999999/1" value="0" leadInLength="0/1"  />
               </VectorParam>
               <VectorParam id="3135"  name="shear">
                <InterpolatingParam id="3136" interp="linr"  time="-9999999/1" value="0" leadInLength="0/1"  />
                <InterpolatingParam id="3137" interp="linr"  time="-9999999/1" value="0" leadInLength="0/1"  />
                <InterpolatingParam id="3138" interp="linr"  time="-9999999/1" value="0" leadInLength="0/1"  />
               </VectorParam>
               <VectorParam id="3139"  name="scale">
                <InterpolatingParam id="3140" interp="linr"  time="-9999999/1" value="1" leadInLength="0/1"  />
                <InterpolatingParam id="3141" interp="linr"  time="-9999999/1" value="1" leadInLength="0/1"  />
                <InterpolatingParam id="3142" interp="linr"  time="-9999999/1" value="1" leadInLength="0/1"  />
               </VectorParam>
               <VectorParam id="3143"  name="anchor">
                <InterpolatingParam id="3144" interp="linr"  time="0/1" value="0" leadInLength="0/1"  />
                <InterpolatingParam id="3145" interp="linr"  time="0/1" value="0" leadInLength="0/1"  />
                <InterpolatingParam id="3146" interp="linr"  time="0/1" value="0" leadInLength="0/1"  />
               </VectorParam>
              </Transformer>
              <Parameters>
               <VectorParam id="3147"  name="sourceCrop">
                <InterpolatingParam id="3148" interp="linr"  time="0/1" value="0" leadInLength="0/1"  />
                <InterpolatingParam id="3149" interp="linr"  time="0/1" value="0" leadInLength="0/1"  />
                <InterpolatingParam id="3150" interp="linr"  time="0/1" value="0" leadInLength="0/1"  />
                <InterpolatingParam id="3151" interp="linr"  time="0/1" value="0" leadInLength="0/1"  />
               </VectorParam>
               <VectorParam id="3152"  name="geometryCrop">
                <InterpolatingParam id="3153" interp="linr"  time="-9999999/1" value="0" leadInLength="0/1"  />
                <InterpolatingParam id="3154" interp="linr"  time="-9999999/1" value="0" leadInLength="0/1"  />
                <InterpolatingParam id="3155" interp="linr"  time="-9999999/1" value="0" leadInLength="0/1"  />
                <InterpolatingParam id="3156" interp="linr"  time="-9999999/1" value="0" leadInLength="0/1"  />
               </VectorParam>
               <InterpolatingParam id="3157" interp="linr"  time="-9999999/1" value="1" leadInLength="0/1"  name="opacity"/>
               <InterpolatingParam id="3158" interp="linr"  time="0/1" value="0" leadInLength="0/1"  name="cursorOpacity"/>
               <InterpolatingParam id="3159" interp="linr"  time="0/1" value="0" leadInLength="0/1"  name="cursorScale"/>
              </Parameters>
              <Attributes>
               <Attribute id="3160" value="" name="ident"/>
              </Attributes>
              <ExtraData>
               <Entry key="ZoomPanBin">
                <ZoomPanBin id="3161"  >
                 <ZoomPanKeyframes>
                  <ZoomPanKeyframe id="3162" timeRangeEnd="-9999999/1" timeRangeDuration="0/1" interpolaterName="linr"  />
                 </ZoomPanKeyframes>
                </ZoomPanBin>
               </Entry>
               <Entry key="CursorEffectBin">
                <CursorEffectBin id="3163"  >
                 <CursorEffectKeyframes>
                 </CursorEffectKeyframes>
                </CursorEffectBin>
               </Entry>
              </ExtraData>
             </ScreenVMFile>
             <MetaData>
              <entry key="AutoAppliedSmartFocus" val="False"/>
              <entry key="WinSubProjectDisplayName" val=""/>
             </MetaData>
            </UnifiedMedia>
            <UnifiedMedia id="3164"  >
             <AMFile id="3165" start="9311" duration="316" scalar="1/1" mediaStart="11040/1" mediaDuration="316/1" trackNumber="1" src="6" channelNumber="0,1" >
              <Parameters>
               <InterpolatingParam id="3166" interp="linr"  time="0/1" value="1" leadInLength="0/1"  name="volume"/>
               <Parameter id="3167"  name="captions"/>
              </Parameters>
              <Attributes>
               <Attribute id="3168" value="" name="ident"/>
               <Attribute id="3169" value="44100" name="sampleRate"/>
               <Attribute id="3170" value="16" name="bitDepth"/>
               <Attribute id="3171" value="1" name="gain"/>
               <Attribute id="3172" value="0" name="mixToMono"/>
              </Attributes>
             </AMFile>
             <ScreenVMFile id="3173" start="9311" duration="316" scalar="1/1" mediaStart="11040/1" mediaDuration="316/1" trackNumber="0" src="6" >
              <Transformer>
               <VectorParam id="3174"  name="translation">
                <InterpolatingParam id="3175" interp="linr"  time="-9999999/1" value="0" leadInLength="0/1"  />
                <InterpolatingParam id="3176" interp="linr"  time="-9999999/1" value="0" leadInLength="0/1"  />
                <InterpolatingParam id="3177" interp="linr"  time="-9999999/1" value="0" leadInLength="0/1"  />
               </VectorParam>
               <VectorParam id="3178"  name="rotation">
                <InterpolatingParam id="3179" interp="linr"  time="-9999999/1" value="0" leadInLength="0/1"  />
                <InterpolatingParam id="3180" interp="linr"  time="-9999999/1" value="0" leadInLength="0/1"  />
                <InterpolatingParam id="3181" interp="linr"  time="-9999999/1" value="0" leadInLength="0/1"  />
               </VectorParam>
               <VectorParam id="3182"  name="shear">
                <InterpolatingParam id="3183" interp="linr"  time="-9999999/1" value="0" leadInLength="0/1"  />
                <InterpolatingParam id="3184" interp="linr"  time="-9999999/1" value="0" leadInLength="0/1"  />
                <InterpolatingParam id="3185" interp="linr"  time="-9999999/1" value="0" leadInLength="0/1"  />
               </VectorParam>
               <VectorParam id="3186"  name="scale">
                <InterpolatingParam id="3187" interp="linr"  time="-9999999/1" value="1" leadInLength="0/1"  />
                <InterpolatingParam id="3188" interp="linr"  time="-9999999/1" value="1" leadInLength="0/1"  />
                <InterpolatingParam id="3189" interp="linr"  time="-9999999/1" value="1" leadInLength="0/1"  />
               </VectorParam>
               <VectorParam id="3190"  name="anchor">
                <InterpolatingParam id="3191" interp="linr"  time="0/1" value="0" leadInLength="0/1"  />
                <InterpolatingParam id="3192" interp="linr"  time="0/1" value="0" leadInLength="0/1"  />
                <InterpolatingParam id="3193" interp="linr"  time="0/1" value="0" leadInLength="0/1"  />
               </VectorParam>
              </Transformer>
              <Parameters>
               <VectorParam id="3194"  name="sourceCrop">
                <InterpolatingParam id="3195" interp="linr"  time="0/1" value="0" leadInLength="0/1"  />
                <InterpolatingParam id="3196" interp="linr"  time="0/1" value="0" leadInLength="0/1"  />
                <InterpolatingParam id="3197" interp="linr"  time="0/1" value="0" leadInLength="0/1"  />
                <InterpolatingParam id="3198" interp="linr"  time="0/1" value="0" leadInLength="0/1"  />
               </VectorParam>
               <VectorParam id="3199"  name="geometryCrop">
                <InterpolatingParam id="3200" interp="linr"  time="-9999999/1" value="0" leadInLength="0/1"  />
                <InterpolatingParam id="3201" interp="linr"  time="-9999999/1" value="0" leadInLength="0/1"  />
                <InterpolatingParam id="3202" interp="linr"  time="-9999999/1" value="0" leadInLength="0/1"  />
                <InterpolatingParam id="3203" interp="linr"  time="-9999999/1" value="0" leadInLength="0/1"  />
               </VectorParam>
               <InterpolatingParam id="3204" interp="linr"  time="-9999999/1" value="1" leadInLength="0/1"  name="opacity"/>
               <InterpolatingParam id="3205" interp="linr"  time="0/1" value="0" leadInLength="0/1"  name="cursorOpacity"/>
               <InterpolatingParam id="3206" interp="linr"  time="0/1" value="0" leadInLength="0/1"  name="cursorScale"/>
              </Parameters>
              <Attributes>
               <Attribute id="3207" value="" name="ident"/>
              </Attributes>
              <ExtraData>
               <Entry key="ZoomPanBin">
                <ZoomPanBin id="3208"  >
                 <ZoomPanKeyframes>
                  <ZoomPanKeyframe id="3209" timeRangeEnd="-9999999/1" timeRangeDuration="0/1" interpolaterName="linr"  />
                 </ZoomPanKeyframes>
                </ZoomPanBin>
               </Entry>
               <Entry key="CursorEffectBin">
                <CursorEffectBin id="3210"  >
                 <CursorEffectKeyframes>
                 </CursorEffectKeyframes>
                </CursorEffectBin>
               </Entry>
              </ExtraData>
             </ScreenVMFile>
             <MetaData>
              <entry key="AutoAppliedSmartFocus" val="False"/>
              <entry key="WinSubProjectDisplayName" val=""/>
             </MetaData>
            </UnifiedMedia>
            <UnifiedMedia id="3211"  >
             <AMFile id="3212" start="9627" duration="3044" scalar="1/1" mediaStart="11383/1" mediaDuration="3044/1" trackNumber="1" src="6" channelNumber="0,1" >
              <Parameters>
               <InterpolatingParam id="3213" interp="linr"  time="0/1" value="1" leadInLength="0/1"  name="volume"/>
               <Parameter id="3214"  name="captions"/>
              </Parameters>
              <Attributes>
               <Attribute id="3215" value="" name="ident"/>
               <Attribute id="3216" value="44100" name="sampleRate"/>
               <Attribute id="3217" value="16" name="bitDepth"/>
               <Attribute id="3218" value="1" name="gain"/>
               <Attribute id="3219" value="0" name="mixToMono"/>
              </Attributes>
             </AMFile>
             <ScreenVMFile id="3220" start="9627" duration="3044" scalar="1/1" mediaStart="11383/1" mediaDuration="3044/1" trackNumber="0" src="6" >
              <Transformer>
               <VectorParam id="3221"  name="translation">
                <InterpolatingParam id="3222" interp="linr"  time="-9999999/1" value="0" leadInLength="0/1"  />
                <InterpolatingParam id="3223" interp="linr"  time="-9999999/1" value="0" leadInLength="0/1"  />
                <InterpolatingParam id="3224" interp="linr"  time="-9999999/1" value="0" leadInLength="0/1"  />
               </VectorParam>
               <VectorParam id="3225"  name="rotation">
                <InterpolatingParam id="3226" interp="linr"  time="-9999999/1" value="0" leadInLength="0/1"  />
                <InterpolatingParam id="3227" interp="linr"  time="-9999999/1" value="0" leadInLength="0/1"  />
                <InterpolatingParam id="3228" interp="linr"  time="-9999999/1" value="0" leadInLength="0/1"  />
               </VectorParam>
               <VectorParam id="3229"  name="shear">
                <InterpolatingParam id="3230" interp="linr"  time="-9999999/1" value="0" leadInLength="0/1"  />
                <InterpolatingParam id="3231" interp="linr"  time="-9999999/1" value="0" leadInLength="0/1"  />
                <InterpolatingParam id="3232" interp="linr"  time="-9999999/1" value="0" leadInLength="0/1"  />
               </VectorParam>
               <VectorParam id="3233"  name="scale">
                <InterpolatingParam id="3234" interp="linr"  time="-9999999/1" value="1" leadInLength="0/1"  />
                <InterpolatingParam id="3235" interp="linr"  time="-9999999/1" value="1" leadInLength="0/1"  />
                <InterpolatingParam id="3236" interp="linr"  time="-9999999/1" value="1" leadInLength="0/1"  />
               </VectorParam>
               <VectorParam id="3237"  name="anchor">
                <InterpolatingParam id="3238" interp="linr"  time="0/1" value="0" leadInLength="0/1"  />
                <InterpolatingParam id="3239" interp="linr"  time="0/1" value="0" leadInLength="0/1"  />
                <InterpolatingParam id="3240" interp="linr"  time="0/1" value="0" leadInLength="0/1"  />
               </VectorParam>
              </Transformer>
              <Parameters>
               <VectorParam id="3241"  name="sourceCrop">
                <InterpolatingParam id="3242" interp="linr"  time="0/1" value="0" leadInLength="0/1"  />
                <InterpolatingParam id="3243" interp="linr"  time="0/1" value="0" leadInLength="0/1"  />
                <InterpolatingParam id="3244" interp="linr"  time="0/1" value="0" leadInLength="0/1"  />
                <InterpolatingParam id="3245" interp="linr"  time="0/1" value="0" leadInLength="0/1"  />
               </VectorParam>
               <VectorParam id="3246"  name="geometryCrop">
                <InterpolatingParam id="3247" interp="linr"  time="-9999999/1" value="0" leadInLength="0/1"  />
                <InterpolatingParam id="3248" interp="linr"  time="-9999999/1" value="0" leadInLength="0/1"  />
                <InterpolatingParam id="3249" interp="linr"  time="-9999999/1" value="0" leadInLength="0/1"  />
                <InterpolatingParam id="3250" interp="linr"  time="-9999999/1" value="0" leadInLength="0/1"  />
               </VectorParam>
               <InterpolatingParam id="3251" interp="linr"  time="-9999999/1" value="1" leadInLength="0/1"  name="opacity"/>
               <InterpolatingParam id="3252" interp="linr"  time="0/1" value="0" leadInLength="0/1"  name="cursorOpacity"/>
               <InterpolatingParam id="3253" interp="linr"  time="0/1" value="0" leadInLength="0/1"  name="cursorScale"/>
              </Parameters>
              <Attributes>
               <Attribute id="3254" value="" name="ident"/>
              </Attributes>
              <ExtraData>
               <Entry key="ZoomPanBin">
                <ZoomPanBin id="3255"  >
                 <ZoomPanKeyframes>
                  <ZoomPanKeyframe id="3256" timeRangeEnd="-9999999/1" timeRangeDuration="0/1" interpolaterName="linr"  />
                 </ZoomPanKeyframes>
                </ZoomPanBin>
               </Entry>
               <Entry key="CursorEffectBin">
                <CursorEffectBin id="3257"  >
                 <CursorEffectKeyframes>
                 </CursorEffectKeyframes>
                </CursorEffectBin>
               </Entry>
              </ExtraData>
             </ScreenVMFile>
             <MetaData>
              <entry key="AutoAppliedSmartFocus" val="False"/>
              <entry key="WinSubProjectDisplayName" val=""/>
             </MetaData>
            </UnifiedMedia>
            <UnifiedMedia id="3258"  >
             <AMFile id="3259" start="12671" duration="178" scalar="1/1" mediaStart="14446/1" mediaDuration="178/1" trackNumber="1" src="6" channelNumber="0,1" >
              <Parameters>
               <InterpolatingParam id="3260" interp="linr"  time="0/1" value="1" leadInLength="0/1"  name="volume"/>
               <Parameter id="3261"  name="captions"/>
              </Parameters>
              <Attributes>
               <Attribute id="3262" value="" name="ident"/>
               <Attribute id="3263" value="44100" name="sampleRate"/>
               <Attribute id="3264" value="16" name="bitDepth"/>
               <Attribute id="3265" value="1" name="gain"/>
               <Attribute id="3266" value="0" name="mixToMono"/>
              </Attributes>
             </AMFile>
             <ScreenVMFile id="3267" start="12671" duration="178" scalar="1/1" mediaStart="14446/1" mediaDuration="178/1" trackNumber="0" src="6" >
              <Transformer>
               <VectorParam id="3268"  name="translation">
                <InterpolatingParam id="3269" interp="linr"  time="-9999999/1" value="0" leadInLength="0/1"  />
                <InterpolatingParam id="3270" interp="linr"  time="-9999999/1" value="0" leadInLength="0/1"  />
                <InterpolatingParam id="3271" interp="linr"  time="-9999999/1" value="0" leadInLength="0/1"  />
               </VectorParam>
               <VectorParam id="3272"  name="rotation">
                <InterpolatingParam id="3273" interp="linr"  time="-9999999/1" value="0" leadInLength="0/1"  />
                <InterpolatingParam id="3274" interp="linr"  time="-9999999/1" value="0" leadInLength="0/1"  />
                <InterpolatingParam id="3275" interp="linr"  time="-9999999/1" value="0" leadInLength="0/1"  />
               </VectorParam>
               <VectorParam id="3276"  name="shear">
                <InterpolatingParam id="3277" interp="linr"  time="-9999999/1" value="0" leadInLength="0/1"  />
                <InterpolatingParam id="3278" interp="linr"  time="-9999999/1" value="0" leadInLength="0/1"  />
                <InterpolatingParam id="3279" interp="linr"  time="-9999999/1" value="0" leadInLength="0/1"  />
               </VectorParam>
               <VectorParam id="3280"  name="scale">
                <InterpolatingParam id="3281" interp="linr"  time="-9999999/1" value="1" leadInLength="0/1"  />
                <InterpolatingParam id="3282" interp="linr"  time="-9999999/1" value="1" leadInLength="0/1"  />
                <InterpolatingParam id="3283" interp="linr"  time="-9999999/1" value="1" leadInLength="0/1"  />
               </VectorParam>
               <VectorParam id="3284"  name="anchor">
                <InterpolatingParam id="3285" interp="linr"  time="0/1" value="0" leadInLength="0/1"  />
                <InterpolatingParam id="3286" interp="linr"  time="0/1" value="0" leadInLength="0/1"  />
                <InterpolatingParam id="3287" interp="linr"  time="0/1" value="0" leadInLength="0/1"  />
               </VectorParam>
              </Transformer>
              <Parameters>
               <VectorParam id="3288"  name="sourceCrop">
                <InterpolatingParam id="3289" interp="linr"  time="0/1" value="0" leadInLength="0/1"  />
                <InterpolatingParam id="3290" interp="linr"  time="0/1" value="0" leadInLength="0/1"  />
                <InterpolatingParam id="3291" interp="linr"  time="0/1" value="0" leadInLength="0/1"  />
                <InterpolatingParam id="3292" interp="linr"  time="0/1" value="0" leadInLength="0/1"  />
               </VectorParam>
               <VectorParam id="3293"  name="geometryCrop">
                <InterpolatingParam id="3294" interp="linr"  time="-9999999/1" value="0" leadInLength="0/1"  />
                <InterpolatingParam id="3295" interp="linr"  time="-9999999/1" value="0" leadInLength="0/1"  />
                <InterpolatingParam id="3296" interp="linr"  time="-9999999/1" value="0" leadInLength="0/1"  />
                <InterpolatingParam id="3297" interp="linr"  time="-9999999/1" value="0" leadInLength="0/1"  />
               </VectorParam>
               <InterpolatingParam id="3298" interp="linr"  time="-9999999/1" value="1" leadInLength="0/1"  name="opacity"/>
               <InterpolatingParam id="3299" interp="linr"  time="0/1" value="0" leadInLength="0/1"  name="cursorOpacity"/>
               <InterpolatingParam id="3300" interp="linr"  time="0/1" value="0" leadInLength="0/1"  name="cursorScale"/>
              </Parameters>
              <Attributes>
               <Attribute id="3301" value="" name="ident"/>
              </Attributes>
              <ExtraData>
               <Entry key="ZoomPanBin">
                <ZoomPanBin id="3302"  >
                 <ZoomPanKeyframes>
                  <ZoomPanKeyframe id="3303" timeRangeEnd="-9999999/1" timeRangeDuration="0/1" interpolaterName="linr"  />
                 </ZoomPanKeyframes>
                </ZoomPanBin>
               </Entry>
               <Entry key="CursorEffectBin">
                <CursorEffectBin id="3304"  >
                 <CursorEffectKeyframes>
                 </CursorEffectKeyframes>
                </CursorEffectBin>
               </Entry>
              </ExtraData>
             </ScreenVMFile>
             <MetaData>
              <entry key="AutoAppliedSmartFocus" val="False"/>
              <entry key="WinSubProjectDisplayName" val=""/>
             </MetaData>
            </UnifiedMedia>
            <UnifiedMedia id="3305"  >
             <AMFile id="3306" start="12849" duration="15" scalar="1/1" mediaStart="14644/1" mediaDuration="15/1" trackNumber="1" src="6" channelNumber="0,1" >
              <Parameters>
               <InterpolatingParam id="3307" interp="linr"  time="0/1" value="1" leadInLength="0/1"  name="volume"/>
               <Parameter id="3308"  name="captions"/>
              </Parameters>
              <Attributes>
               <Attribute id="3309" value="" name="ident"/>
               <Attribute id="3310" value="44100" name="sampleRate"/>
               <Attribute id="3311" value="16" name="bitDepth"/>
               <Attribute id="3312" value="1" name="gain"/>
               <Attribute id="3313" value="0" name="mixToMono"/>
              </Attributes>
             </AMFile>
             <ScreenVMFile id="3314" start="12849" duration="15" scalar="1/1" mediaStart="14644/1" mediaDuration="15/1" trackNumber="0" src="6" >
              <Transformer>
               <VectorParam id="3315"  name="translation">
                <InterpolatingParam id="3316" interp="linr"  time="-9999999/1" value="0" leadInLength="0/1"  />
                <InterpolatingParam id="3317" interp="linr"  time="-9999999/1" value="0" leadInLength="0/1"  />
                <InterpolatingParam id="3318" interp="linr"  time="-9999999/1" value="0" leadInLength="0/1"  />
               </VectorParam>
               <VectorParam id="3319"  name="rotation">
                <InterpolatingParam id="3320" interp="linr"  time="-9999999/1" value="0" leadInLength="0/1"  />
                <InterpolatingParam id="3321" interp="linr"  time="-9999999/1" value="0" leadInLength="0/1"  />
                <InterpolatingParam id="3322" interp="linr"  time="-9999999/1" value="0" leadInLength="0/1"  />
               </VectorParam>
               <VectorParam id="3323"  name="shear">
                <InterpolatingParam id="3324" interp="linr"  time="-9999999/1" value="0" leadInLength="0/1"  />
                <InterpolatingParam id="3325" interp="linr"  time="-9999999/1" value="0" leadInLength="0/1"  />
                <InterpolatingParam id="3326" interp="linr"  time="-9999999/1" value="0" leadInLength="0/1"  />
               </VectorParam>
               <VectorParam id="3327"  name="scale">
                <InterpolatingParam id="3328" interp="linr"  time="-9999999/1" value="1" leadInLength="0/1"  />
                <InterpolatingParam id="3329" interp="linr"  time="-9999999/1" value="1" leadInLength="0/1"  />
                <InterpolatingParam id="3330" interp="linr"  time="-9999999/1" value="1" leadInLength="0/1"  />
               </VectorParam>
               <VectorParam id="3331"  name="anchor">
                <InterpolatingParam id="3332" interp="linr"  time="0/1" value="0" leadInLength="0/1"  />
                <InterpolatingParam id="3333" interp="linr"  time="0/1" value="0" leadInLength="0/1"  />
                <InterpolatingParam id="3334" interp="linr"  time="0/1" value="0" leadInLength="0/1"  />
               </VectorParam>
              </Transformer>
              <Parameters>
               <VectorParam id="3335"  name="sourceCrop">
                <InterpolatingParam id="3336" interp="linr"  time="0/1" value="0" leadInLength="0/1"  />
                <InterpolatingParam id="3337" interp="linr"  time="0/1" value="0" leadInLength="0/1"  />
                <InterpolatingParam id="3338" interp="linr"  time="0/1" value="0" leadInLength="0/1"  />
                <InterpolatingParam id="3339" interp="linr"  time="0/1" value="0" leadInLength="0/1"  />
               </VectorParam>
               <VectorParam id="3340"  name="geometryCrop">
                <InterpolatingParam id="3341" interp="linr"  time="-9999999/1" value="0" leadInLength="0/1"  />
                <InterpolatingParam id="3342" interp="linr"  time="-9999999/1" value="0" leadInLength="0/1"  />
                <InterpolatingParam id="3343" interp="linr"  time="-9999999/1" value="0" leadInLength="0/1"  />
                <InterpolatingParam id="3344" interp="linr"  time="-9999999/1" value="0" leadInLength="0/1"  />
               </VectorParam>
               <InterpolatingParam id="3345" interp="linr"  time="-9999999/1" value="1" leadInLength="0/1"  name="opacity"/>
               <InterpolatingParam id="3346" interp="linr"  time="0/1" value="0" leadInLength="0/1"  name="cursorOpacity"/>
               <InterpolatingParam id="3347" interp="linr"  time="0/1" value="0" leadInLength="0/1"  name="cursorScale"/>
              </Parameters>
              <Attributes>
               <Attribute id="3348" value="" name="ident"/>
              </Attributes>
              <ExtraData>
               <Entry key="ZoomPanBin">
                <ZoomPanBin id="3349"  >
                 <ZoomPanKeyframes>
                  <ZoomPanKeyframe id="3350" timeRangeEnd="-9999999/1" timeRangeDuration="0/1" interpolaterName="linr"  />
                 </ZoomPanKeyframes>
                </ZoomPanBin>
               </Entry>
               <Entry key="CursorEffectBin">
                <CursorEffectBin id="3351"  >
                 <CursorEffectKeyframes>
                 </CursorEffectKeyframes>
                </CursorEffectBin>
               </Entry>
              </ExtraData>
             </ScreenVMFile>
             <MetaData>
              <entry key="AutoAppliedSmartFocus" val="False"/>
              <entry key="WinSubProjectDisplayName" val=""/>
             </MetaData>
            </UnifiedMedia>
            <UnifiedMedia id="3352"  >
             <AMFile id="3353" start="12864" duration="305" scalar="1/1" mediaStart="14725/1" mediaDuration="305/1" trackNumber="1" src="6" channelNumber="0,1" >
              <Parameters>
               <InterpolatingParam id="3354" interp="linr"  time="0/1" value="1" leadInLength="0/1"  name="volume"/>
               <Parameter id="3355"  name="captions"/>
              </Parameters>
              <Attributes>
               <Attribute id="3356" value="" name="ident"/>
               <Attribute id="3357" value="44100" name="sampleRate"/>
               <Attribute id="3358" value="16" name="bitDepth"/>
               <Attribute id="3359" value="1" name="gain"/>
               <Attribute id="3360" value="0" name="mixToMono"/>
              </Attributes>
             </AMFile>
             <ScreenVMFile id="3361" start="12864" duration="305" scalar="1/1" mediaStart="14725/1" mediaDuration="305/1" trackNumber="0" src="6" >
              <Transformer>
               <VectorParam id="3362"  name="translation">
                <InterpolatingParam id="3363" interp="linr"  time="-9999999/1" value="0" leadInLength="0/1"  />
                <InterpolatingParam id="3364" interp="linr"  time="-9999999/1" value="0" leadInLength="0/1"  />
                <InterpolatingParam id="3365" interp="linr"  time="-9999999/1" value="0" leadInLength="0/1"  />
               </VectorParam>
               <VectorParam id="3366"  name="rotation">
                <InterpolatingParam id="3367" interp="linr"  time="-9999999/1" value="0" leadInLength="0/1"  />
                <InterpolatingParam id="3368" interp="linr"  time="-9999999/1" value="0" leadInLength="0/1"  />
                <InterpolatingParam id="3369" interp="linr"  time="-9999999/1" value="0" leadInLength="0/1"  />
               </VectorParam>
               <VectorParam id="3370"  name="shear">
                <InterpolatingParam id="3371" interp="linr"  time="-9999999/1" value="0" leadInLength="0/1"  />
                <InterpolatingParam id="3372" interp="linr"  time="-9999999/1" value="0" leadInLength="0/1"  />
                <InterpolatingParam id="3373" interp="linr"  time="-9999999/1" value="0" leadInLength="0/1"  />
               </VectorParam>
               <VectorParam id="3374"  name="scale">
                <InterpolatingParam id="3375" interp="linr"  time="-9999999/1" value="1" leadInLength="0/1"  />
                <InterpolatingParam id="3376" interp="linr"  time="-9999999/1" value="1" leadInLength="0/1"  />
                <InterpolatingParam id="3377" interp="linr"  time="-9999999/1" value="1" leadInLength="0/1"  />
               </VectorParam>
               <VectorParam id="3378"  name="anchor">
                <InterpolatingParam id="3379" interp="linr"  time="0/1" value="0" leadInLength="0/1"  />
                <InterpolatingParam id="3380" interp="linr"  time="0/1" value="0" leadInLength="0/1"  />
                <InterpolatingParam id="3381" interp="linr"  time="0/1" value="0" leadInLength="0/1"  />
               </VectorParam>
              </Transformer>
              <Parameters>
               <VectorParam id="3382"  name="sourceCrop">
                <InterpolatingParam id="3383" interp="linr"  time="0/1" value="0" leadInLength="0/1"  />
                <InterpolatingParam id="3384" interp="linr"  time="0/1" value="0" leadInLength="0/1"  />
                <InterpolatingParam id="3385" interp="linr"  time="0/1" value="0" leadInLength="0/1"  />
                <InterpolatingParam id="3386" interp="linr"  time="0/1" value="0" leadInLength="0/1"  />
               </VectorParam>
               <VectorParam id="3387"  name="geometryCrop">
                <InterpolatingParam id="3388" interp="linr"  time="-9999999/1" value="0" leadInLength="0/1"  />
                <InterpolatingParam id="3389" interp="linr"  time="-9999999/1" value="0" leadInLength="0/1"  />
                <InterpolatingParam id="3390" interp="linr"  time="-9999999/1" value="0" leadInLength="0/1"  />
                <InterpolatingParam id="3391" interp="linr"  time="-9999999/1" value="0" leadInLength="0/1"  />
               </VectorParam>
               <InterpolatingParam id="3392" interp="linr"  time="-9999999/1" value="1" leadInLength="0/1"  name="opacity"/>
               <InterpolatingParam id="3393" interp="linr"  time="0/1" value="0" leadInLength="0/1"  name="cursorOpacity"/>
               <InterpolatingParam id="3394" interp="linr"  time="0/1" value="0" leadInLength="0/1"  name="cursorScale"/>
              </Parameters>
              <Attributes>
               <Attribute id="3395" value="" name="ident"/>
              </Attributes>
              <ExtraData>
               <Entry key="ZoomPanBin">
                <ZoomPanBin id="3396"  >
                 <ZoomPanKeyframes>
                  <ZoomPanKeyframe id="3397" timeRangeEnd="-9999999/1" timeRangeDuration="0/1" interpolaterName="linr"  />
                 </ZoomPanKeyframes>
                </ZoomPanBin>
               </Entry>
               <Entry key="CursorEffectBin">
                <CursorEffectBin id="3398"  >
                 <CursorEffectKeyframes>
                 </CursorEffectKeyframes>
                </CursorEffectBin>
               </Entry>
              </ExtraData>
             </ScreenVMFile>
             <MetaData>
              <entry key="AutoAppliedSmartFocus" val="False"/>
              <entry key="WinSubProjectDisplayName" val=""/>
             </MetaData>
            </UnifiedMedia>
            <UnifiedMedia id="3399"  >
             <AMFile id="3400" start="13169" duration="512" scalar="1/1" mediaStart="15044/1" mediaDuration="512/1" trackNumber="1" src="6" channelNumber="0,1" >
              <Parameters>
               <InterpolatingParam id="3401" interp="linr"  time="0/1" value="1" leadInLength="0/1"  name="volume"/>
               <Parameter id="3402"  name="captions"/>
              </Parameters>
              <Attributes>
               <Attribute id="3403" value="" name="ident"/>
               <Attribute id="3404" value="44100" name="sampleRate"/>
               <Attribute id="3405" value="16" name="bitDepth"/>
               <Attribute id="3406" value="1" name="gain"/>
               <Attribute id="3407" value="0" name="mixToMono"/>
              </Attributes>
             </AMFile>
             <ScreenVMFile id="3408" start="13169" duration="512" scalar="1/1" mediaStart="15044/1" mediaDuration="512/1" trackNumber="0" src="6" >
              <Transformer>
               <VectorParam id="3409"  name="translation">
                <InterpolatingParam id="3410" interp="linr"  time="-9999999/1" value="0" leadInLength="0/1"  />
                <InterpolatingParam id="3411" interp="linr"  time="-9999999/1" value="0" leadInLength="0/1"  />
                <InterpolatingParam id="3412" interp="linr"  time="-9999999/1" value="0" leadInLength="0/1"  />
               </VectorParam>
               <VectorParam id="3413"  name="rotation">
                <InterpolatingParam id="3414" interp="linr"  time="-9999999/1" value="0" leadInLength="0/1"  />
                <InterpolatingParam id="3415" interp="linr"  time="-9999999/1" value="0" leadInLength="0/1"  />
                <InterpolatingParam id="3416" interp="linr"  time="-9999999/1" value="0" leadInLength="0/1"  />
               </VectorParam>
               <VectorParam id="3417"  name="shear">
                <InterpolatingParam id="3418" interp="linr"  time="-9999999/1" value="0" leadInLength="0/1"  />
                <InterpolatingParam id="3419" interp="linr"  time="-9999999/1" value="0" leadInLength="0/1"  />
                <InterpolatingParam id="3420" interp="linr"  time="-9999999/1" value="0" leadInLength="0/1"  />
               </VectorParam>
               <VectorParam id="3421"  name="scale">
                <InterpolatingParam id="3422" interp="linr"  time="-9999999/1" value="1" leadInLength="0/1"  />
                <InterpolatingParam id="3423" interp="linr"  time="-9999999/1" value="1" leadInLength="0/1"  />
                <InterpolatingParam id="3424" interp="linr"  time="-9999999/1" value="1" leadInLength="0/1"  />
               </VectorParam>
               <VectorParam id="3425"  name="anchor">
                <InterpolatingParam id="3426" interp="linr"  time="0/1" value="0" leadInLength="0/1"  />
                <InterpolatingParam id="3427" interp="linr"  time="0/1" value="0" leadInLength="0/1"  />
                <InterpolatingParam id="3428" interp="linr"  time="0/1" value="0" leadInLength="0/1"  />
               </VectorParam>
              </Transformer>
              <Parameters>
               <VectorParam id="3429"  name="sourceCrop">
                <InterpolatingParam id="3430" interp="linr"  time="0/1" value="0" leadInLength="0/1"  />
                <InterpolatingParam id="3431" interp="linr"  time="0/1" value="0" leadInLength="0/1"  />
                <InterpolatingParam id="3432" interp="linr"  time="0/1" value="0" leadInLength="0/1"  />
                <InterpolatingParam id="3433" interp="linr"  time="0/1" value="0" leadInLength="0/1"  />
               </VectorParam>
               <VectorParam id="3434"  name="geometryCrop">
                <InterpolatingParam id="3435" interp="linr"  time="-9999999/1" value="0" leadInLength="0/1"  />
                <InterpolatingParam id="3436" interp="linr"  time="-9999999/1" value="0" leadInLength="0/1"  />
                <InterpolatingParam id="3437" interp="linr"  time="-9999999/1" value="0" leadInLength="0/1"  />
                <InterpolatingParam id="3438" interp="linr"  time="-9999999/1" value="0" leadInLength="0/1"  />
               </VectorParam>
               <InterpolatingParam id="3439" interp="linr"  time="-9999999/1" value="1" leadInLength="0/1"  name="opacity"/>
               <InterpolatingParam id="3440" interp="linr"  time="0/1" value="0" leadInLength="0/1"  name="cursorOpacity"/>
               <InterpolatingParam id="3441" interp="linr"  time="0/1" value="0" leadInLength="0/1"  name="cursorScale"/>
              </Parameters>
              <Attributes>
               <Attribute id="3442" value="" name="ident"/>
              </Attributes>
              <ExtraData>
               <Entry key="ZoomPanBin">
                <ZoomPanBin id="3443"  >
                 <ZoomPanKeyframes>
                  <ZoomPanKeyframe id="3444" timeRangeEnd="-9999999/1" timeRangeDuration="0/1" interpolaterName="linr"  />
                 </ZoomPanKeyframes>
                </ZoomPanBin>
               </Entry>
               <Entry key="CursorEffectBin">
                <CursorEffectBin id="3445"  >
                 <CursorEffectKeyframes>
                 </CursorEffectKeyframes>
                </CursorEffectBin>
               </Entry>
              </ExtraData>
             </ScreenVMFile>
             <MetaData>
              <entry key="AutoAppliedSmartFocus" val="False"/>
              <entry key="WinSubProjectDisplayName" val=""/>
             </MetaData>
            </UnifiedMedia>
            <UnifiedMedia id="3446"  >
             <AMFile id="3447" start="13681" duration="35" scalar="1/1" mediaStart="15626/1" mediaDuration="35/1" trackNumber="1" src="6" channelNumber="0,1" >
              <Parameters>
               <InterpolatingParam id="3448" interp="linr"  time="0/1" value="1" leadInLength="0/1"  name="volume"/>
               <Parameter id="3449"  name="captions"/>
              </Parameters>
              <Attributes>
               <Attribute id="3450" value="" name="ident"/>
               <Attribute id="3451" value="44100" name="sampleRate"/>
               <Attribute id="3452" value="16" name="bitDepth"/>
               <Attribute id="3453" value="1" name="gain"/>
               <Attribute id="3454" value="0" name="mixToMono"/>
              </Attributes>
             </AMFile>
             <ScreenVMFile id="3455" start="13681" duration="35" scalar="1/1" mediaStart="15626/1" mediaDuration="35/1" trackNumber="0" src="6" >
              <Transformer>
               <VectorParam id="3456"  name="translation">
                <InterpolatingParam id="3457" interp="linr"  time="-9999999/1" value="0" leadInLength="0/1"  />
                <InterpolatingParam id="3458" interp="linr"  time="-9999999/1" value="0" leadInLength="0/1"  />
                <InterpolatingParam id="3459" interp="linr"  time="-9999999/1" value="0" leadInLength="0/1"  />
               </VectorParam>
               <VectorParam id="3460"  name="rotation">
                <InterpolatingParam id="3461" interp="linr"  time="-9999999/1" value="0" leadInLength="0/1"  />
                <InterpolatingParam id="3462" interp="linr"  time="-9999999/1" value="0" leadInLength="0/1"  />
                <InterpolatingParam id="3463" interp="linr"  time="-9999999/1" value="0" leadInLength="0/1"  />
               </VectorParam>
               <VectorParam id="3464"  name="shear">
                <InterpolatingParam id="3465" interp="linr"  time="-9999999/1" value="0" leadInLength="0/1"  />
                <InterpolatingParam id="3466" interp="linr"  time="-9999999/1" value="0" leadInLength="0/1"  />
                <InterpolatingParam id="3467" interp="linr"  time="-9999999/1" value="0" leadInLength="0/1"  />
               </VectorParam>
               <VectorParam id="3468"  name="scale">
                <InterpolatingParam id="3469" interp="linr"  time="-9999999/1" value="1" leadInLength="0/1"  />
                <InterpolatingParam id="3470" interp="linr"  time="-9999999/1" value="1" leadInLength="0/1"  />
                <InterpolatingParam id="3471" interp="linr"  time="-9999999/1" value="1" leadInLength="0/1"  />
               </VectorParam>
               <VectorParam id="3472"  name="anchor">
                <InterpolatingParam id="3473" interp="linr"  time="0/1" value="0" leadInLength="0/1"  />
                <InterpolatingParam id="3474" interp="linr"  time="0/1" value="0" leadInLength="0/1"  />
                <InterpolatingParam id="3475" interp="linr"  time="0/1" value="0" leadInLength="0/1"  />
               </VectorParam>
              </Transformer>
              <Parameters>
               <VectorParam id="3476"  name="sourceCrop">
                <InterpolatingParam id="3477" interp="linr"  time="0/1" value="0" leadInLength="0/1"  />
                <InterpolatingParam id="3478" interp="linr"  time="0/1" value="0" leadInLength="0/1"  />
                <InterpolatingParam id="3479" interp="linr"  time="0/1" value="0" leadInLength="0/1"  />
                <InterpolatingParam id="3480" interp="linr"  time="0/1" value="0" leadInLength="0/1"  />
               </VectorParam>
               <VectorParam id="3481"  name="geometryCrop">
                <InterpolatingParam id="3482" interp="linr"  time="-9999999/1" value="0" leadInLength="0/1"  />
                <InterpolatingParam id="3483" interp="linr"  time="-9999999/1" value="0" leadInLength="0/1"  />
                <InterpolatingParam id="3484" interp="linr"  time="-9999999/1" value="0" leadInLength="0/1"  />
                <InterpolatingParam id="3485" interp="linr"  time="-9999999/1" value="0" leadInLength="0/1"  />
               </VectorParam>
               <InterpolatingParam id="3486" interp="linr"  time="-9999999/1" value="1" leadInLength="0/1"  name="opacity"/>
               <InterpolatingParam id="3487" interp="linr"  time="0/1" value="0" leadInLength="0/1"  name="cursorOpacity"/>
               <InterpolatingParam id="3488" interp="linr"  time="0/1" value="0" leadInLength="0/1"  name="cursorScale"/>
              </Parameters>
              <Attributes>
               <Attribute id="3489" value="" name="ident"/>
              </Attributes>
              <ExtraData>
               <Entry key="ZoomPanBin">
                <ZoomPanBin id="3490"  >
                 <ZoomPanKeyframes>
                  <ZoomPanKeyframe id="3491" timeRangeEnd="-9999999/1" timeRangeDuration="0/1" interpolaterName="linr"  />
                 </ZoomPanKeyframes>
                </ZoomPanBin>
               </Entry>
               <Entry key="CursorEffectBin">
                <CursorEffectBin id="3492"  >
                 <CursorEffectKeyframes>
                 </CursorEffectKeyframes>
                </CursorEffectBin>
               </Entry>
              </ExtraData>
             </ScreenVMFile>
             <MetaData>
              <entry key="AutoAppliedSmartFocus" val="False"/>
              <entry key="WinSubProjectDisplayName" val=""/>
             </MetaData>
            </UnifiedMedia>
            <UnifiedMedia id="3493"  >
             <AMFile id="3494" start="13716" duration="374" scalar="1/1" mediaStart="15685/1" mediaDuration="374/1" trackNumber="1" src="6" channelNumber="0,1" >
              <Parameters>
               <InterpolatingParam id="3495" interp="linr"  time="0/1" value="1" leadInLength="0/1"  name="volume"/>
               <Parameter id="3496"  name="captions"/>
              </Parameters>
              <Attributes>
               <Attribute id="3497" value="" name="ident"/>
               <Attribute id="3498" value="44100" name="sampleRate"/>
               <Attribute id="3499" value="16" name="bitDepth"/>
               <Attribute id="3500" value="1" name="gain"/>
               <Attribute id="3501" value="0" name="mixToMono"/>
              </Attributes>
             </AMFile>
             <ScreenVMFile id="3502" start="13716" duration="374" scalar="1/1" mediaStart="15685/1" mediaDuration="374/1" trackNumber="0" src="6" >
              <Transformer>
               <VectorParam id="3503"  name="translation">
                <InterpolatingParam id="3504" interp="linr"  time="-9999999/1" value="0" leadInLength="0/1"  />
                <InterpolatingParam id="3505" interp="linr"  time="-9999999/1" value="0" leadInLength="0/1"  />
                <InterpolatingParam id="3506" interp="linr"  time="-9999999/1" value="0" leadInLength="0/1"  />
               </VectorParam>
               <VectorParam id="3507"  name="rotation">
                <InterpolatingParam id="3508" interp="linr"  time="-9999999/1" value="0" leadInLength="0/1"  />
                <InterpolatingParam id="3509" interp="linr"  time="-9999999/1" value="0" leadInLength="0/1"  />
                <InterpolatingParam id="3510" interp="linr"  time="-9999999/1" value="0" leadInLength="0/1"  />
               </VectorParam>
               <VectorParam id="3511"  name="shear">
                <InterpolatingParam id="3512" interp="linr"  time="-9999999/1" value="0" leadInLength="0/1"  />
                <InterpolatingParam id="3513" interp="linr"  time="-9999999/1" value="0" leadInLength="0/1"  />
                <InterpolatingParam id="3514" interp="linr"  time="-9999999/1" value="0" leadInLength="0/1"  />
               </VectorParam>
               <VectorParam id="3515"  name="scale">
                <InterpolatingParam id="3516" interp="linr"  time="-9999999/1" value="1" leadInLength="0/1"  />
                <InterpolatingParam id="3517" interp="linr"  time="-9999999/1" value="1" leadInLength="0/1"  />
                <InterpolatingParam id="3518" interp="linr"  time="-9999999/1" value="1" leadInLength="0/1"  />
               </VectorParam>
               <VectorParam id="3519"  name="anchor">
                <InterpolatingParam id="3520" interp="linr"  time="0/1" value="0" leadInLength="0/1"  />
                <InterpolatingParam id="3521" interp="linr"  time="0/1" value="0" leadInLength="0/1"  />
                <InterpolatingParam id="3522" interp="linr"  time="0/1" value="0" leadInLength="0/1"  />
               </VectorParam>
              </Transformer>
              <Parameters>
               <VectorParam id="3523"  name="sourceCrop">
                <InterpolatingParam id="3524" interp="linr"  time="0/1" value="0" leadInLength="0/1"  />
                <InterpolatingParam id="3525" interp="linr"  time="0/1" value="0" leadInLength="0/1"  />
                <InterpolatingParam id="3526" interp="linr"  time="0/1" value="0" leadInLength="0/1"  />
                <InterpolatingParam id="3527" interp="linr"  time="0/1" value="0" leadInLength="0/1"  />
               </VectorParam>
               <VectorParam id="3528"  name="geometryCrop">
                <InterpolatingParam id="3529" interp="linr"  time="-9999999/1" value="0" leadInLength="0/1"  />
                <InterpolatingParam id="3530" interp="linr"  time="-9999999/1" value="0" leadInLength="0/1"  />
                <InterpolatingParam id="3531" interp="linr"  time="-9999999/1" value="0" leadInLength="0/1"  />
                <InterpolatingParam id="3532" interp="linr"  time="-9999999/1" value="0" leadInLength="0/1"  />
               </VectorParam>
               <InterpolatingParam id="3533" interp="linr"  time="-9999999/1" value="1" leadInLength="0/1"  name="opacity"/>
               <InterpolatingParam id="3534" interp="linr"  time="0/1" value="0" leadInLength="0/1"  name="cursorOpacity"/>
               <InterpolatingParam id="3535" interp="linr"  time="0/1" value="0" leadInLength="0/1"  name="cursorScale"/>
              </Parameters>
              <Attributes>
               <Attribute id="3536" value="" name="ident"/>
              </Attributes>
              <ExtraData>
               <Entry key="ZoomPanBin">
                <ZoomPanBin id="3537"  >
                 <ZoomPanKeyframes>
                  <ZoomPanKeyframe id="3538" timeRangeEnd="-9999999/1" timeRangeDuration="0/1" interpolaterName="linr"  />
                 </ZoomPanKeyframes>
                </ZoomPanBin>
               </Entry>
               <Entry key="CursorEffectBin">
                <CursorEffectBin id="3539"  >
                 <CursorEffectKeyframes>
                 </CursorEffectKeyframes>
                </CursorEffectBin>
               </Entry>
              </ExtraData>
             </ScreenVMFile>
             <MetaData>
              <entry key="AutoAppliedSmartFocus" val="False"/>
              <entry key="WinSubProjectDisplayName" val=""/>
             </MetaData>
            </UnifiedMedia>
            <UnifiedMedia id="3540"  >
             <AMFile id="3541" start="14090" duration="76" scalar="1/1" mediaStart="16185/1" mediaDuration="76/1" trackNumber="1" src="6" channelNumber="0,1" >
              <Parameters>
               <InterpolatingParam id="3542" interp="linr"  time="0/1" value="1" leadInLength="0/1"  name="volume"/>
               <Parameter id="3543"  name="captions"/>
              </Parameters>
              <Attributes>
               <Attribute id="3544" value="" name="ident"/>
               <Attribute id="3545" value="44100" name="sampleRate"/>
               <Attribute id="3546" value="16" name="bitDepth"/>
               <Attribute id="3547" value="1" name="gain"/>
               <Attribute id="3548" value="0" name="mixToMono"/>
              </Attributes>
             </AMFile>
             <ScreenVMFile id="3549" start="14090" duration="76" scalar="1/1" mediaStart="16185/1" mediaDuration="76/1" trackNumber="0" src="6" >
              <Transformer>
               <VectorParam id="3550"  name="translation">
                <InterpolatingParam id="3551" interp="linr"  time="-9999999/1" value="0" leadInLength="0/1"  />
                <InterpolatingParam id="3552" interp="linr"  time="-9999999/1" value="0" leadInLength="0/1"  />
                <InterpolatingParam id="3553" interp="linr"  time="-9999999/1" value="0" leadInLength="0/1"  />
               </VectorParam>
               <VectorParam id="3554"  name="rotation">
                <InterpolatingParam id="3555" interp="linr"  time="-9999999/1" value="0" leadInLength="0/1"  />
                <InterpolatingParam id="3556" interp="linr"  time="-9999999/1" value="0" leadInLength="0/1"  />
                <InterpolatingParam id="3557" interp="linr"  time="-9999999/1" value="0" leadInLength="0/1"  />
               </VectorParam>
               <VectorParam id="3558"  name="shear">
                <InterpolatingParam id="3559" interp="linr"  time="-9999999/1" value="0" leadInLength="0/1"  />
                <InterpolatingParam id="3560" interp="linr"  time="-9999999/1" value="0" leadInLength="0/1"  />
                <InterpolatingParam id="3561" interp="linr"  time="-9999999/1" value="0" leadInLength="0/1"  />
               </VectorParam>
               <VectorParam id="3562"  name="scale">
                <InterpolatingParam id="3563" interp="linr"  time="-9999999/1" value="1" leadInLength="0/1"  />
                <InterpolatingParam id="3564" interp="linr"  time="-9999999/1" value="1" leadInLength="0/1"  />
                <InterpolatingParam id="3565" interp="linr"  time="-9999999/1" value="1" leadInLength="0/1"  />
               </VectorParam>
               <VectorParam id="3566"  name="anchor">
                <InterpolatingParam id="3567" interp="linr"  time="0/1" value="0" leadInLength="0/1"  />
                <InterpolatingParam id="3568" interp="linr"  time="0/1" value="0" leadInLength="0/1"  />
                <InterpolatingParam id="3569" interp="linr"  time="0/1" value="0" leadInLength="0/1"  />
               </VectorParam>
              </Transformer>
              <Parameters>
               <VectorParam id="3570"  name="sourceCrop">
                <InterpolatingParam id="3571" interp="linr"  time="0/1" value="0" leadInLength="0/1"  />
                <InterpolatingParam id="3572" interp="linr"  time="0/1" value="0" leadInLength="0/1"  />
                <InterpolatingParam id="3573" interp="linr"  time="0/1" value="0" leadInLength="0/1"  />
                <InterpolatingParam id="3574" interp="linr"  time="0/1" value="0" leadInLength="0/1"  />
               </VectorParam>
               <VectorParam id="3575"  name="geometryCrop">
                <InterpolatingParam id="3576" interp="linr"  time="-9999999/1" value="0" leadInLength="0/1"  />
                <InterpolatingParam id="3577" interp="linr"  time="-9999999/1" value="0" leadInLength="0/1"  />
                <InterpolatingParam id="3578" interp="linr"  time="-9999999/1" value="0" leadInLength="0/1"  />
                <InterpolatingParam id="3579" interp="linr"  time="-9999999/1" value="0" leadInLength="0/1"  />
               </VectorParam>
               <InterpolatingParam id="3580" interp="linr"  time="-9999999/1" value="1" leadInLength="0/1"  name="opacity"/>
               <InterpolatingParam id="3581" interp="linr"  time="0/1" value="0" leadInLength="0/1"  name="cursorOpacity"/>
               <InterpolatingParam id="3582" interp="linr"  time="0/1" value="0" leadInLength="0/1"  name="cursorScale"/>
              </Parameters>
              <Attributes>
               <Attribute id="3583" value="" name="ident"/>
              </Attributes>
              <ExtraData>
               <Entry key="ZoomPanBin">
                <ZoomPanBin id="3584"  >
                 <ZoomPanKeyframes>
                  <ZoomPanKeyframe id="3585" timeRangeEnd="-9999999/1" timeRangeDuration="0/1" interpolaterName="linr"  />
                 </ZoomPanKeyframes>
                </ZoomPanBin>
               </Entry>
               <Entry key="CursorEffectBin">
                <CursorEffectBin id="3586"  >
                 <CursorEffectKeyframes>
                 </CursorEffectKeyframes>
                </CursorEffectBin>
               </Entry>
              </ExtraData>
             </ScreenVMFile>
             <MetaData>
              <entry key="AutoAppliedSmartFocus" val="False"/>
              <entry key="WinSubProjectDisplayName" val=""/>
             </MetaData>
            </UnifiedMedia>
            <UnifiedMedia id="3587"  >
             <AMFile id="3588" start="14166" duration="269" scalar="1/1" mediaStart="16282/1" mediaDuration="269/1" trackNumber="1" src="6" channelNumber="0,1" >
              <Parameters>
               <InterpolatingParam id="3589" interp="linr"  time="0/1" value="1" leadInLength="0/1"  name="volume"/>
               <Parameter id="3590"  name="captions"/>
              </Parameters>
              <Attributes>
               <Attribute id="3591" value="" name="ident"/>
               <Attribute id="3592" value="44100" name="sampleRate"/>
               <Attribute id="3593" value="16" name="bitDepth"/>
               <Attribute id="3594" value="1" name="gain"/>
               <Attribute id="3595" value="0" name="mixToMono"/>
              </Attributes>
             </AMFile>
             <ScreenVMFile id="3596" start="14166" duration="269" scalar="1/1" mediaStart="16282/1" mediaDuration="269/1" trackNumber="0" src="6" >
              <Transformer>
               <VectorParam id="3597"  name="translation">
                <InterpolatingParam id="3598" interp="linr"  time="-9999999/1" value="0" leadInLength="0/1"  />
                <InterpolatingParam id="3599" interp="linr"  time="-9999999/1" value="0" leadInLength="0/1"  />
                <InterpolatingParam id="3600" interp="linr"  time="-9999999/1" value="0" leadInLength="0/1"  />
               </VectorParam>
               <VectorParam id="3601"  name="rotation">
                <InterpolatingParam id="3602" interp="linr"  time="-9999999/1" value="0" leadInLength="0/1"  />
                <InterpolatingParam id="3603" interp="linr"  time="-9999999/1" value="0" leadInLength="0/1"  />
                <InterpolatingParam id="3604" interp="linr"  time="-9999999/1" value="0" leadInLength="0/1"  />
               </VectorParam>
               <VectorParam id="3605"  name="shear">
                <InterpolatingParam id="3606" interp="linr"  time="-9999999/1" value="0" leadInLength="0/1"  />
                <InterpolatingParam id="3607" interp="linr"  time="-9999999/1" value="0" leadInLength="0/1"  />
                <InterpolatingParam id="3608" interp="linr"  time="-9999999/1" value="0" leadInLength="0/1"  />
               </VectorParam>
               <VectorParam id="3609"  name="scale">
                <InterpolatingParam id="3610" interp="linr"  time="-9999999/1" value="1" leadInLength="0/1"  />
                <InterpolatingParam id="3611" interp="linr"  time="-9999999/1" value="1" leadInLength="0/1"  />
                <InterpolatingParam id="3612" interp="linr"  time="-9999999/1" value="1" leadInLength="0/1"  />
               </VectorParam>
               <VectorParam id="3613"  name="anchor">
                <InterpolatingParam id="3614" interp="linr"  time="0/1" value="0" leadInLength="0/1"  />
                <InterpolatingParam id="3615" interp="linr"  time="0/1" value="0" leadInLength="0/1"  />
                <InterpolatingParam id="3616" interp="linr"  time="0/1" value="0" leadInLength="0/1"  />
               </VectorParam>
              </Transformer>
              <Parameters>
               <VectorParam id="3617"  name="sourceCrop">
                <InterpolatingParam id="3618" interp="linr"  time="0/1" value="0" leadInLength="0/1"  />
                <InterpolatingParam id="3619" interp="linr"  time="0/1" value="0" leadInLength="0/1"  />
                <InterpolatingParam id="3620" interp="linr"  time="0/1" value="0" leadInLength="0/1"  />
                <InterpolatingParam id="3621" interp="linr"  time="0/1" value="0" leadInLength="0/1"  />
               </VectorParam>
               <VectorParam id="3622"  name="geometryCrop">
                <InterpolatingParam id="3623" interp="linr"  time="-9999999/1" value="0" leadInLength="0/1"  />
                <InterpolatingParam id="3624" interp="linr"  time="-9999999/1" value="0" leadInLength="0/1"  />
                <InterpolatingParam id="3625" interp="linr"  time="-9999999/1" value="0" leadInLength="0/1"  />
                <InterpolatingParam id="3626" interp="linr"  time="-9999999/1" value="0" leadInLength="0/1"  />
               </VectorParam>
               <InterpolatingParam id="3627" interp="linr"  time="-9999999/1" value="1" leadInLength="0/1"  name="opacity"/>
               <InterpolatingParam id="3628" interp="linr"  time="0/1" value="0" leadInLength="0/1"  name="cursorOpacity"/>
               <InterpolatingParam id="3629" interp="linr"  time="0/1" value="0" leadInLength="0/1"  name="cursorScale"/>
              </Parameters>
              <Attributes>
               <Attribute id="3630" value="" name="ident"/>
              </Attributes>
              <ExtraData>
               <Entry key="ZoomPanBin">
                <ZoomPanBin id="3631"  >
                 <ZoomPanKeyframes>
                  <ZoomPanKeyframe id="3632" timeRangeEnd="-9999999/1" timeRangeDuration="0/1" interpolaterName="linr"  />
                 </ZoomPanKeyframes>
                </ZoomPanBin>
               </Entry>
               <Entry key="CursorEffectBin">
                <CursorEffectBin id="3633"  >
                 <CursorEffectKeyframes>
                 </CursorEffectKeyframes>
                </CursorEffectBin>
               </Entry>
              </ExtraData>
             </ScreenVMFile>
             <MetaData>
              <entry key="AutoAppliedSmartFocus" val="False"/>
              <entry key="WinSubProjectDisplayName" val=""/>
             </MetaData>
            </UnifiedMedia>
            <UnifiedMedia id="3634"  >
             <AMFile id="3635" start="14435" duration="861" scalar="1/1" mediaStart="16818/1" mediaDuration="861/1" trackNumber="1" src="6" channelNumber="0,1" >
              <Parameters>
               <InterpolatingParam id="3636" interp="linr"  time="0/1" value="1" leadInLength="0/1"  name="volume"/>
               <Parameter id="3637"  name="captions"/>
              </Parameters>
              <Attributes>
               <Attribute id="3638" value="" name="ident"/>
               <Attribute id="3639" value="44100" name="sampleRate"/>
               <Attribute id="3640" value="16" name="bitDepth"/>
               <Attribute id="3641" value="1" name="gain"/>
               <Attribute id="3642" value="0" name="mixToMono"/>
              </Attributes>
             </AMFile>
             <ScreenVMFile id="3643" start="14435" duration="861" scalar="1/1" mediaStart="16818/1" mediaDuration="861/1" trackNumber="0" src="6" >
              <Transformer>
               <VectorParam id="3644"  name="translation">
                <InterpolatingParam id="3645" interp="linr"  time="-9999999/1" value="0" leadInLength="0/1"  />
                <InterpolatingParam id="3646" interp="linr"  time="-9999999/1" value="0" leadInLength="0/1"  />
                <InterpolatingParam id="3647" interp="linr"  time="-9999999/1" value="0" leadInLength="0/1"  />
               </VectorParam>
               <VectorParam id="3648"  name="rotation">
                <InterpolatingParam id="3649" interp="linr"  time="-9999999/1" value="0" leadInLength="0/1"  />
                <InterpolatingParam id="3650" interp="linr"  time="-9999999/1" value="0" leadInLength="0/1"  />
                <InterpolatingParam id="3651" interp="linr"  time="-9999999/1" value="0" leadInLength="0/1"  />
               </VectorParam>
               <VectorParam id="3652"  name="shear">
                <InterpolatingParam id="3653" interp="linr"  time="-9999999/1" value="0" leadInLength="0/1"  />
                <InterpolatingParam id="3654" interp="linr"  time="-9999999/1" value="0" leadInLength="0/1"  />
                <InterpolatingParam id="3655" interp="linr"  time="-9999999/1" value="0" leadInLength="0/1"  />
               </VectorParam>
               <VectorParam id="3656"  name="scale">
                <InterpolatingParam id="3657" interp="linr"  time="-9999999/1" value="1" leadInLength="0/1"  />
                <InterpolatingParam id="3658" interp="linr"  time="-9999999/1" value="1" leadInLength="0/1"  />
                <InterpolatingParam id="3659" interp="linr"  time="-9999999/1" value="1" leadInLength="0/1"  />
               </VectorParam>
               <VectorParam id="3660"  name="anchor">
                <InterpolatingParam id="3661" interp="linr"  time="0/1" value="0" leadInLength="0/1"  />
                <InterpolatingParam id="3662" interp="linr"  time="0/1" value="0" leadInLength="0/1"  />
                <InterpolatingParam id="3663" interp="linr"  time="0/1" value="0" leadInLength="0/1"  />
               </VectorParam>
              </Transformer>
              <Parameters>
               <VectorParam id="3664"  name="sourceCrop">
                <InterpolatingParam id="3665" interp="linr"  time="0/1" value="0" leadInLength="0/1"  />
                <InterpolatingParam id="3666" interp="linr"  time="0/1" value="0" leadInLength="0/1"  />
                <InterpolatingParam id="3667" interp="linr"  time="0/1" value="0" leadInLength="0/1"  />
                <InterpolatingParam id="3668" interp="linr"  time="0/1" value="0" leadInLength="0/1"  />
               </VectorParam>
               <VectorParam id="3669"  name="geometryCrop">
                <InterpolatingParam id="3670" interp="linr"  time="-9999999/1" value="0" leadInLength="0/1"  />
                <InterpolatingParam id="3671" interp="linr"  time="-9999999/1" value="0" leadInLength="0/1"  />
                <InterpolatingParam id="3672" interp="linr"  time="-9999999/1" value="0" leadInLength="0/1"  />
                <InterpolatingParam id="3673" interp="linr"  time="-9999999/1" value="0" leadInLength="0/1"  />
               </VectorParam>
               <InterpolatingParam id="3674" interp="linr"  time="-9999999/1" value="1" leadInLength="0/1"  name="opacity"/>
               <InterpolatingParam id="3675" interp="linr"  time="0/1" value="0" leadInLength="0/1"  name="cursorOpacity"/>
               <InterpolatingParam id="3676" interp="linr"  time="0/1" value="0" leadInLength="0/1"  name="cursorScale"/>
              </Parameters>
              <Attributes>
               <Attribute id="3677" value="" name="ident"/>
              </Attributes>
              <ExtraData>
               <Entry key="ZoomPanBin">
                <ZoomPanBin id="3678"  >
                 <ZoomPanKeyframes>
                  <ZoomPanKeyframe id="3679" timeRangeEnd="-9999999/1" timeRangeDuration="0/1" interpolaterName="linr"  />
                 </ZoomPanKeyframes>
                </ZoomPanBin>
               </Entry>
               <Entry key="CursorEffectBin">
                <CursorEffectBin id="3680"  >
                 <CursorEffectKeyframes>
                 </CursorEffectKeyframes>
                </CursorEffectBin>
               </Entry>
              </ExtraData>
             </ScreenVMFile>
             <MetaData>
              <entry key="AutoAppliedSmartFocus" val="False"/>
              <entry key="WinSubProjectDisplayName" val=""/>
             </MetaData>
            </UnifiedMedia>
            <UnifiedMedia id="3681"  >
             <AMFile id="3682" start="15296" duration="341" scalar="1/1" mediaStart="18059/1" mediaDuration="341/1" trackNumber="1" src="6" channelNumber="0,1" >
              <Parameters>
               <InterpolatingParam id="3683" interp="linr"  time="0/1" value="1" leadInLength="0/1"  name="volume"/>
               <Parameter id="3684"  name="captions"/>
              </Parameters>
              <Attributes>
               <Attribute id="3685" value="" name="ident"/>
               <Attribute id="3686" value="44100" name="sampleRate"/>
               <Attribute id="3687" value="16" name="bitDepth"/>
               <Attribute id="3688" value="1" name="gain"/>
               <Attribute id="3689" value="0" name="mixToMono"/>
              </Attributes>
             </AMFile>
             <ScreenVMFile id="3690" start="15296" duration="341" scalar="1/1" mediaStart="18059/1" mediaDuration="341/1" trackNumber="0" src="6" >
              <Transformer>
               <VectorParam id="3691"  name="translation">
                <InterpolatingParam id="3692" interp="linr"  time="-9999999/1" value="0" leadInLength="0/1"  />
                <InterpolatingParam id="3693" interp="linr"  time="-9999999/1" value="0" leadInLength="0/1"  />
                <InterpolatingParam id="3694" interp="linr"  time="-9999999/1" value="0" leadInLength="0/1"  />
               </VectorParam>
               <VectorParam id="3695"  name="rotation">
                <InterpolatingParam id="3696" interp="linr"  time="-9999999/1" value="0" leadInLength="0/1"  />
                <InterpolatingParam id="3697" interp="linr"  time="-9999999/1" value="0" leadInLength="0/1"  />
                <InterpolatingParam id="3698" interp="linr"  time="-9999999/1" value="0" leadInLength="0/1"  />
               </VectorParam>
               <VectorParam id="3699"  name="shear">
                <InterpolatingParam id="3700" interp="linr"  time="-9999999/1" value="0" leadInLength="0/1"  />
                <InterpolatingParam id="3701" interp="linr"  time="-9999999/1" value="0" leadInLength="0/1"  />
                <InterpolatingParam id="3702" interp="linr"  time="-9999999/1" value="0" leadInLength="0/1"  />
               </VectorParam>
               <VectorParam id="3703"  name="scale">
                <InterpolatingParam id="3704" interp="linr"  time="-9999999/1" value="1" leadInLength="0/1"  />
                <InterpolatingParam id="3705" interp="linr"  time="-9999999/1" value="1" leadInLength="0/1"  />
                <InterpolatingParam id="3706" interp="linr"  time="-9999999/1" value="1" leadInLength="0/1"  />
               </VectorParam>
               <VectorParam id="3707"  name="anchor">
                <InterpolatingParam id="3708" interp="linr"  time="0/1" value="0" leadInLength="0/1"  />
                <InterpolatingParam id="3709" interp="linr"  time="0/1" value="0" leadInLength="0/1"  />
                <InterpolatingParam id="3710" interp="linr"  time="0/1" value="0" leadInLength="0/1"  />
               </VectorParam>
              </Transformer>
              <Parameters>
               <VectorParam id="3711"  name="sourceCrop">
                <InterpolatingParam id="3712" interp="linr"  time="0/1" value="0" leadInLength="0/1"  />
                <InterpolatingParam id="3713" interp="linr"  time="0/1" value="0" leadInLength="0/1"  />
                <InterpolatingParam id="3714" interp="linr"  time="0/1" value="0" leadInLength="0/1"  />
                <InterpolatingParam id="3715" interp="linr"  time="0/1" value="0" leadInLength="0/1"  />
               </VectorParam>
               <VectorParam id="3716"  name="geometryCrop">
                <InterpolatingParam id="3717" interp="linr"  time="-9999999/1" value="0" leadInLength="0/1"  />
                <InterpolatingParam id="3718" interp="linr"  time="-9999999/1" value="0" leadInLength="0/1"  />
                <InterpolatingParam id="3719" interp="linr"  time="-9999999/1" value="0" leadInLength="0/1"  />
                <InterpolatingParam id="3720" interp="linr"  time="-9999999/1" value="0" leadInLength="0/1"  />
               </VectorParam>
               <InterpolatingParam id="3721" interp="linr"  time="-9999999/1" value="1" leadInLength="0/1"  name="opacity"/>
               <InterpolatingParam id="3722" interp="linr"  time="0/1" value="0" leadInLength="0/1"  name="cursorOpacity"/>
               <InterpolatingParam id="3723" interp="linr"  time="0/1" value="0" leadInLength="0/1"  name="cursorScale"/>
              </Parameters>
              <Attributes>
               <Attribute id="3724" value="" name="ident"/>
              </Attributes>
              <ExtraData>
               <Entry key="ZoomPanBin">
                <ZoomPanBin id="3725"  >
                 <ZoomPanKeyframes>
                  <ZoomPanKeyframe id="3726" timeRangeEnd="-9999999/1" timeRangeDuration="0/1" interpolaterName="linr"  />
                 </ZoomPanKeyframes>
                </ZoomPanBin>
               </Entry>
               <Entry key="CursorEffectBin">
                <CursorEffectBin id="3727"  >
                 <CursorEffectKeyframes>
                 </CursorEffectKeyframes>
                </CursorEffectBin>
               </Entry>
              </ExtraData>
             </ScreenVMFile>
             <MetaData>
              <entry key="AutoAppliedSmartFocus" val="False"/>
              <entry key="WinSubProjectDisplayName" val=""/>
             </MetaData>
            </UnifiedMedia>
            <UnifiedMedia id="3728"  >
             <AMFile id="3729" start="15637" duration="63" scalar="1/1" mediaStart="18414/1" mediaDuration="63/1" trackNumber="1" src="6" channelNumber="0,1" >
              <Parameters>
               <InterpolatingParam id="3730" interp="linr"  time="0/1" value="1" leadInLength="0/1"  name="volume"/>
               <Parameter id="3731"  name="captions"/>
              </Parameters>
              <Attributes>
               <Attribute id="3732" value="" name="ident"/>
               <Attribute id="3733" value="44100" name="sampleRate"/>
               <Attribute id="3734" value="16" name="bitDepth"/>
               <Attribute id="3735" value="1" name="gain"/>
               <Attribute id="3736" value="0" name="mixToMono"/>
              </Attributes>
             </AMFile>
             <ScreenVMFile id="3737" start="15637" duration="63" scalar="1/1" mediaStart="18414/1" mediaDuration="63/1" trackNumber="0" src="6" >
              <Transformer>
               <VectorParam id="3738"  name="translation">
                <InterpolatingParam id="3739" interp="linr"  time="-9999999/1" value="0" leadInLength="0/1"  />
                <InterpolatingParam id="3740" interp="linr"  time="-9999999/1" value="0" leadInLength="0/1"  />
                <InterpolatingParam id="3741" interp="linr"  time="-9999999/1" value="0" leadInLength="0/1"  />
               </VectorParam>
               <VectorParam id="3742"  name="rotation">
                <InterpolatingParam id="3743" interp="linr"  time="-9999999/1" value="0" leadInLength="0/1"  />
                <InterpolatingParam id="3744" interp="linr"  time="-9999999/1" value="0" leadInLength="0/1"  />
                <InterpolatingParam id="3745" interp="linr"  time="-9999999/1" value="0" leadInLength="0/1"  />
               </VectorParam>
               <VectorParam id="3746"  name="shear">
                <InterpolatingParam id="3747" interp="linr"  time="-9999999/1" value="0" leadInLength="0/1"  />
                <InterpolatingParam id="3748" interp="linr"  time="-9999999/1" value="0" leadInLength="0/1"  />
                <InterpolatingParam id="3749" interp="linr"  time="-9999999/1" value="0" leadInLength="0/1"  />
               </VectorParam>
               <VectorParam id="3750"  name="scale">
                <InterpolatingParam id="3751" interp="linr"  time="-9999999/1" value="1" leadInLength="0/1"  />
                <InterpolatingParam id="3752" interp="linr"  time="-9999999/1" value="1" leadInLength="0/1"  />
                <InterpolatingParam id="3753" interp="linr"  time="-9999999/1" value="1" leadInLength="0/1"  />
               </VectorParam>
               <VectorParam id="3754"  name="anchor">
                <InterpolatingParam id="3755" interp="linr"  time="0/1" value="0" leadInLength="0/1"  />
                <InterpolatingParam id="3756" interp="linr"  time="0/1" value="0" leadInLength="0/1"  />
                <InterpolatingParam id="3757" interp="linr"  time="0/1" value="0" leadInLength="0/1"  />
               </VectorParam>
              </Transformer>
              <Parameters>
               <VectorParam id="3758"  name="sourceCrop">
                <InterpolatingParam id="3759" interp="linr"  time="0/1" value="0" leadInLength="0/1"  />
                <InterpolatingParam id="3760" interp="linr"  time="0/1" value="0" leadInLength="0/1"  />
                <InterpolatingParam id="3761" interp="linr"  time="0/1" value="0" leadInLength="0/1"  />
                <InterpolatingParam id="3762" interp="linr"  time="0/1" value="0" leadInLength="0/1"  />
               </VectorParam>
               <VectorParam id="3763"  name="geometryCrop">
                <InterpolatingParam id="3764" interp="linr"  time="-9999999/1" value="0" leadInLength="0/1"  />
                <InterpolatingParam id="3765" interp="linr"  time="-9999999/1" value="0" leadInLength="0/1"  />
                <InterpolatingParam id="3766" interp="linr"  time="-9999999/1" value="0" leadInLength="0/1"  />
                <InterpolatingParam id="3767" interp="linr"  time="-9999999/1" value="0" leadInLength="0/1"  />
               </VectorParam>
               <InterpolatingParam id="3768" interp="linr"  time="-9999999/1" value="1" leadInLength="0/1"  name="opacity"/>
               <InterpolatingParam id="3769" interp="linr"  time="0/1" value="0" leadInLength="0/1"  name="cursorOpacity"/>
               <InterpolatingParam id="3770" interp="linr"  time="0/1" value="0" leadInLength="0/1"  name="cursorScale"/>
              </Parameters>
              <Attributes>
               <Attribute id="3771" value="" name="ident"/>
              </Attributes>
              <ExtraData>
               <Entry key="ZoomPanBin">
                <ZoomPanBin id="3772"  >
                 <ZoomPanKeyframes>
                  <ZoomPanKeyframe id="3773" timeRangeEnd="-9999999/1" timeRangeDuration="0/1" interpolaterName="linr"  />
                 </ZoomPanKeyframes>
                </ZoomPanBin>
               </Entry>
               <Entry key="CursorEffectBin">
                <CursorEffectBin id="3774"  >
                 <CursorEffectKeyframes>
                 </CursorEffectKeyframes>
                </CursorEffectBin>
               </Entry>
              </ExtraData>
             </ScreenVMFile>
             <MetaData>
              <entry key="AutoAppliedSmartFocus" val="False"/>
              <entry key="WinSubProjectDisplayName" val=""/>
             </MetaData>
            </UnifiedMedia>
            <UnifiedMedia id="3775"  >
             <AMFile id="3776" start="15700" duration="2143" scalar="1/1" mediaStart="18513/1" mediaDuration="2143/1" trackNumber="1" src="6" channelNumber="0,1" >
              <Parameters>
               <InterpolatingParam id="3777" interp="linr"  time="0/1" value="1" leadInLength="0/1"  name="volume"/>
               <Parameter id="3778"  name="captions"/>
              </Parameters>
              <Attributes>
               <Attribute id="3779" value="" name="ident"/>
               <Attribute id="3780" value="44100" name="sampleRate"/>
               <Attribute id="3781" value="16" name="bitDepth"/>
               <Attribute id="3782" value="1" name="gain"/>
               <Attribute id="3783" value="0" name="mixToMono"/>
              </Attributes>
             </AMFile>
             <ScreenVMFile id="3784" start="15700" duration="2143" scalar="1/1" mediaStart="18513/1" mediaDuration="2143/1" trackNumber="0" src="6" >
              <Transformer>
               <VectorParam id="3785"  name="translation">
                <InterpolatingParam id="3786" interp="linr"  time="-9999999/1" value="0" leadInLength="0/1"  />
                <InterpolatingParam id="3787" interp="linr"  time="-9999999/1" value="0" leadInLength="0/1"  />
                <InterpolatingParam id="3788" interp="linr"  time="-9999999/1" value="0" leadInLength="0/1"  />
               </VectorParam>
               <VectorParam id="3789"  name="rotation">
                <InterpolatingParam id="3790" interp="linr"  time="-9999999/1" value="0" leadInLength="0/1"  />
                <InterpolatingParam id="3791" interp="linr"  time="-9999999/1" value="0" leadInLength="0/1"  />
                <InterpolatingParam id="3792" interp="linr"  time="-9999999/1" value="0" leadInLength="0/1"  />
               </VectorParam>
               <VectorParam id="3793"  name="shear">
                <InterpolatingParam id="3794" interp="linr"  time="-9999999/1" value="0" leadInLength="0/1"  />
                <InterpolatingParam id="3795" interp="linr"  time="-9999999/1" value="0" leadInLength="0/1"  />
                <InterpolatingParam id="3796" interp="linr"  time="-9999999/1" value="0" leadInLength="0/1"  />
               </VectorParam>
               <VectorParam id="3797"  name="scale">
                <InterpolatingParam id="3798" interp="linr"  time="-9999999/1" value="1" leadInLength="0/1"  />
                <InterpolatingParam id="3799" interp="linr"  time="-9999999/1" value="1" leadInLength="0/1"  />
                <InterpolatingParam id="3800" interp="linr"  time="-9999999/1" value="1" leadInLength="0/1"  />
               </VectorParam>
               <VectorParam id="3801"  name="anchor">
                <InterpolatingParam id="3802" interp="linr"  time="0/1" value="0" leadInLength="0/1"  />
                <InterpolatingParam id="3803" interp="linr"  time="0/1" value="0" leadInLength="0/1"  />
                <InterpolatingParam id="3804" interp="linr"  time="0/1" value="0" leadInLength="0/1"  />
               </VectorParam>
              </Transformer>
              <Parameters>
               <VectorParam id="3805"  name="sourceCrop">
                <InterpolatingParam id="3806" interp="linr"  time="0/1" value="0" leadInLength="0/1"  />
                <InterpolatingParam id="3807" interp="linr"  time="0/1" value="0" leadInLength="0/1"  />
                <InterpolatingParam id="3808" interp="linr"  time="0/1" value="0" leadInLength="0/1"  />
                <InterpolatingParam id="3809" interp="linr"  time="0/1" value="0" leadInLength="0/1"  />
               </VectorParam>
               <VectorParam id="3810"  name="geometryCrop">
                <InterpolatingParam id="3811" interp="linr"  time="-9999999/1" value="0" leadInLength="0/1"  />
                <InterpolatingParam id="3812" interp="linr"  time="-9999999/1" value="0" leadInLength="0/1"  />
                <InterpolatingParam id="3813" interp="linr"  time="-9999999/1" value="0" leadInLength="0/1"  />
                <InterpolatingParam id="3814" interp="linr"  time="-9999999/1" value="0" leadInLength="0/1"  />
               </VectorParam>
               <InterpolatingParam id="3815" interp="linr"  time="-9999999/1" value="1" leadInLength="0/1"  name="opacity"/>
               <InterpolatingParam id="3816" interp="linr"  time="0/1" value="0" leadInLength="0/1"  name="cursorOpacity"/>
               <InterpolatingParam id="3817" interp="linr"  time="0/1" value="0" leadInLength="0/1"  name="cursorScale"/>
              </Parameters>
              <Attributes>
               <Attribute id="3818" value="" name="ident"/>
              </Attributes>
              <ExtraData>
               <Entry key="ZoomPanBin">
                <ZoomPanBin id="3819"  >
                 <ZoomPanKeyframes>
                  <ZoomPanKeyframe id="3820" timeRangeEnd="-9999999/1" timeRangeDuration="0/1" interpolaterName="linr"  />
                 </ZoomPanKeyframes>
                </ZoomPanBin>
               </Entry>
               <Entry key="CursorEffectBin">
                <CursorEffectBin id="3821"  >
                 <CursorEffectKeyframes>
                 </CursorEffectKeyframes>
                </CursorEffectBin>
               </Entry>
              </ExtraData>
             </ScreenVMFile>
             <MetaData>
              <entry key="AutoAppliedSmartFocus" val="False"/>
              <entry key="WinSubProjectDisplayName" val=""/>
             </MetaData>
            </UnifiedMedia>
           </Medias>
          </GenericTrack>
         </StitchedMedia>
        </Medias>
       </GenericTrack>
       <GenericTrack id="3822"  >
        <Attributes>
         <Attribute id="3823" value="" name="ident"/>
         <Attribute id="3824" value="0" name="audioMuted"/>
         <Attribute id="3825" value="0" name="videoHidden"/>
        </Attributes>
        <MetaData>
         <entry key="IsLocked" val="False"/>
         <entry key="WinTrackHeight" val="59.613636363636367"/>
        </MetaData>
        <Medias>
         <AMFile id="3826" start="29780" duration="330" scalar="1/1" mediaStart="0/1" mediaDuration="330/1" trackNumber="2" src="7" channelNumber="0,1" >
          <Parameters>
           <InterpolatingParam id="3827" interp="linr"  time="0/1" value="1" leadInLength="0/1"  name="volume"/>
           <Parameter id="3828"  name="captions"/>
          </Parameters>
          <Attributes>
           <Attribute id="3829" value="" name="ident"/>
           <Attribute id="3830" value="44100" name="sampleRate"/>
           <Attribute id="3831" value="16" name="bitDepth"/>
           <Attribute id="3832" value="1" name="gain"/>
           <Attribute id="3833" value="0" name="mixToMono"/>
          </Attributes>
          <MetaData>
           <entry key="WinSubProjectDisplayName" val=""/>
          </MetaData>
         </AMFile>
        </Medias>
       </GenericTrack>
       <GenericTrack id="3834"  >
        <Attributes>
         <Attribute id="3835" value="" name="ident"/>
         <Attribute id="3836" value="0" name="audioMuted"/>
         <Attribute id="3837" value="0" name="videoHidden"/>
        </Attributes>
        <MetaData>
         <entry key="IsLocked" val="False"/>
         <entry key="WinTrackHeight" val="59.613636363636367"/>
        </MetaData>
        <Medias>
         <UnifiedMedia id="3838"  >
          <AMFile id="3839" start="29780" duration="330" scalar="1/1" mediaStart="0/1" mediaDuration="330/1" trackNumber="1" src="7" channelNumber="0,1" >
           <Parameters>
            <InterpolatingParam id="3840" interp="linr"  time="0/1" value="1" leadInLength="0/1"  name="volume"/>
            <Parameter id="3841"  name="captions"/>
           </Parameters>
           <Attributes>
            <Attribute id="3842" value="" name="ident"/>
            <Attribute id="3843" value="44100" name="sampleRate"/>
            <Attribute id="3844" value="16" name="bitDepth"/>
            <Attribute id="3845" value="1" name="gain"/>
            <Attribute id="3846" value="0" name="mixToMono"/>
           </Attributes>
          </AMFile>
          <ScreenVMFile id="3847" start="29780" duration="330" scalar="1/1" mediaStart="0/1" mediaDuration="330/1" trackNumber="0" src="7" >
           <Transformer>
            <VectorParam id="3848"  name="translation">
             <InterpolatingParam id="3849" interp="linr"  time="-9999999/1" value="0" leadInLength="0/1"  />
             <InterpolatingParam id="3850" interp="linr"  time="-9999999/1" value="0" leadInLength="0/1"  />
             <InterpolatingParam id="3851" interp="linr"  time="-9999999/1" value="0" leadInLength="0/1"  />
            </VectorParam>
            <VectorParam id="3852"  name="rotation">
             <InterpolatingParam id="3853" interp="linr"  time="-9999999/1" value="0" leadInLength="0/1"  />
             <InterpolatingParam id="3854" interp="linr"  time="-9999999/1" value="0" leadInLength="0/1"  />
             <InterpolatingParam id="3855" interp="linr"  time="-9999999/1" value="0" leadInLength="0/1"  />
            </VectorParam>
            <VectorParam id="3856"  name="shear">
             <InterpolatingParam id="3857" interp="linr"  time="-9999999/1" value="0" leadInLength="0/1"  />
             <InterpolatingParam id="3858" interp="linr"  time="-9999999/1" value="0" leadInLength="0/1"  />
             <InterpolatingParam id="3859" interp="linr"  time="-9999999/1" value="0" leadInLength="0/1"  />
            </VectorParam>
            <VectorParam id="3860"  name="scale">
             <InterpolatingParam id="3861" interp="linr"  time="-9999999/1" value="0.93695014662756593" leadInLength="0/1"  />
             <InterpolatingParam id="3862" interp="linr"  time="-9999999/1" value="0.93695014662756593" leadInLength="0/1"  />
             <InterpolatingParam id="3863" interp="linr"  time="-9999999/1" value="1" leadInLength="0/1"  />
            </VectorParam>
            <VectorParam id="3864"  name="anchor">
             <InterpolatingParam id="3865" interp="linr"  time="0/1" value="0" leadInLength="0/1"  />
             <InterpolatingParam id="3866" interp="linr"  time="0/1" value="0" leadInLength="0/1"  />
             <InterpolatingParam id="3867" interp="linr"  time="0/1" value="0" leadInLength="0/1"  />
            </VectorParam>
           </Transformer>
           <Parameters>
            <VectorParam id="3868"  name="sourceCrop">
             <InterpolatingParam id="3869" interp="linr"  time="0/1" value="0" leadInLength="0/1"  />
             <InterpolatingParam id="3870" interp="linr"  time="0/1" value="0" leadInLength="0/1"  />
             <InterpolatingParam id="3871" interp="linr"  time="0/1" value="0" leadInLength="0/1"  />
             <InterpolatingParam id="3872" interp="linr"  time="0/1" value="0" leadInLength="0/1"  />
            </VectorParam>
            <VectorParam id="3873"  name="geometryCrop">
             <InterpolatingParam id="3874" interp="linr"  time="-9999999/1" value="0" leadInLength="0/1"  />
             <InterpolatingParam id="3875" interp="linr"  time="-9999999/1" value="0" leadInLength="0/1"  />
             <InterpolatingParam id="3876" interp="linr"  time="-9999999/1" value="0" leadInLength="0/1"  />
             <InterpolatingParam id="3877" interp="linr"  time="-9999999/1" value="0" leadInLength="0/1"  />
            </VectorParam>
            <InterpolatingParam id="3878" interp="linr"  time="-9999999/1" value="1" leadInLength="0/1"  name="opacity"/>
            <InterpolatingParam id="3879" interp="linr"  time="0/1" value="1" leadInLength="0/1"  name="cursorOpacity"/>
            <InterpolatingParam id="3880" interp="linr"  time="0/1" value="1" leadInLength="0/1"  name="cursorScale"/>
           </Parameters>
           <Effects>
            <GenericEffect id="3881" name = "CursorBaseEffectName" >
             <Parameters>
             <InterpolatingParam id="3882" interp="linr"  time="-9999999/1" value="1" leadInLength="0/1"   name="cursorSize"/>
             <InterpolatingParam id="3883" interp="linr"  time="-9999999/1" value="0" leadInLength="0/1"   name="highlightBlurRadius"/>
             <InterpolatingParam id="3884" interp="linr"  time="-9999999/1" value="0" leadInLength="0/1"   name="highlightColorBlue"/>
             <InterpolatingParam id="3885" interp="linr"  time="-9999999/1" value="255" leadInLength="0/1"   name="highlightColorGreen"/>
             <InterpolatingParam id="3886" interp="linr"  time="-9999999/1" value="255" leadInLength="0/1"   name="highlightColorRed"/>
             <InterpolatingParam id="3887" interp="linr"  time="-9999999/1" value="5" leadInLength="0/1"   name="highlightFeatherSize"/>
             <InterpolatingParam id="3888" interp="linr"  time="-9999999/1" value="2" leadInLength="0/1"   name="highlightMagnification"/>
             <InterpolatingParam id="3889" interp="linr"  time="-9999999/1" value="1" leadInLength="0/1"   name="highlightOpacity"/>
             <InterpolatingParam id="3890" interp="linr"  time="-9999999/1" value="45" leadInLength="0/1"   name="highlightSize"/>
             <Parameter id="3891"   name="highlightType">
              <Keyframes>
              <Keyframe id="3892"  time="-9999999/1" value="0" leadInLength="0/1"  />
              </Keyframes>
             </Parameter>
             <InterpolatingParam id="3893" interp="linr"  time="-9999999/1" value="0" leadInLength="0/1"   name="leftClickColorBlue"/>
             <InterpolatingParam id="3894" interp="linr"  time="-9999999/1" value="0" leadInLength="0/1"   name="leftClickColorGreen"/>
             <InterpolatingParam id="3895" interp="linr"  time="-9999999/1" value="255" leadInLength="0/1"   name="leftClickColorRed"/>
             <InterpolatingParam id="3896" interp="linr"  time="-9999999/1" value="0.80000000000000004" leadInLength="0/1"   name="leftClickDuration"/>
             <InterpolatingParam id="3897" interp="linr"  time="-9999999/1" value="20" leadInLength="0/1"   name="leftClickSize"/>
             <Parameter id="3898"   name="leftClickSoundFilename">
              <Keyframes>
              <Keyframe id="3899"  time="-9999999/1" value="" leadInLength="0/1"  />
              </Keyframes>
             </Parameter>
             <InterpolatingParam id="3900" interp="linr"  time="-9999999/1" value="1" leadInLength="0/1"   name="leftClickSoundVolume"/>
             <Parameter id="3901"   name="leftClickType">
              <Keyframes>
              <Keyframe id="3902"  time="-9999999/1" value="0" leadInLength="0/1"  />
              </Keyframes>
             </Parameter>
             <InterpolatingParam id="3903" interp="linr"  time="-9999999/1" value="1" leadInLength="0/1"   name="opacity"/>
             <InterpolatingParam id="3904" interp="linr"  time="-9999999/1" value="255" leadInLength="0/1"   name="rightClickColorBlue"/>
             <InterpolatingParam id="3905" interp="linr"  time="-9999999/1" value="0" leadInLength="0/1"   name="rightClickColorGreen"/>
             <InterpolatingParam id="3906" interp="linr"  time="-9999999/1" value="0" leadInLength="0/1"   name="rightClickColorRed"/>
             <InterpolatingParam id="3907" interp="linr"  time="-9999999/1" value="0.80000000000000004" leadInLength="0/1"   name="rightClickDuration"/>
             <InterpolatingParam id="3908" interp="linr"  time="-9999999/1" value="20" leadInLength="0/1"   name="rightClickSize"/>
             <Parameter id="3909"   name="rightClickSoundFilename">
              <Keyframes>
              <Keyframe id="3910"  time="-9999999/1" value="" leadInLength="0/1"  />
              </Keyframes>
             </Parameter>
             <InterpolatingParam id="3911" interp="linr"  time="-9999999/1" value="1" leadInLength="0/1"   name="rightClickSoundVolume"/>
             <Parameter id="3912"   name="rightClickType">
              <Keyframes>
              <Keyframe id="3913"  time="-9999999/1" value="0" leadInLength="0/1"  />
              </Keyframes>
             </Parameter>
             </Parameters>
             <MetaData>
              <entry key="effectIndex" val="0"/>
             </MetaData>
            </GenericEffect>
           </Effects>
           <Attributes>
            <Attribute id="3914" value="" name="ident"/>
           </Attributes>
           <ExtraData>
            <Entry key="ZoomPanBin">
             <ZoomPanBin id="3915"  >
              <ZoomPanKeyframes>
               <ZoomPanKeyframe id="3916" timeRangeEnd="-9999999/1" timeRangeDuration="0/1" interpolaterName="linr"  />
              </ZoomPanKeyframes>
             </ZoomPanBin>
            </Entry>
            <Entry key="CursorEffectBin">
             <CursorEffectBin id="3917"  >
              <CursorEffectKeyframes>
               <CursorEffectKeyframe id="3918" timeRangeEnd="-9999999/1" timeRangeDuration="0/1" interpolaterName=""  />
              </CursorEffectKeyframes>
             </CursorEffectBin>
            </Entry>
           </ExtraData>
          </ScreenVMFile>
          <MetaData>
           <entry key="AutoAppliedSmartFocus" val="False"/>
           <entry key="WinSubProjectDisplayName" val=""/>
          </MetaData>
         </UnifiedMedia>
        </Medias>
       </GenericTrack>
       <GenericTrack id="3919"  >
        <Attributes>
         <Attribute id="3920" value="" name="ident"/>
         <Attribute id="3921" value="0" name="audioMuted"/>
         <Attribute id="3922" value="0" name="videoHidden"/>
        </Attributes>
        <MetaData>
         <entry key="IsLocked" val="False"/>
         <entry key="WinTrackHeight" val="59.613636363636367"/>
        </MetaData>
        <Medias>
        </Medias>
       </GenericTrack>
      </Tracks>
     </GenericMixer>
    <CaptionAttributes id="3923"  >
     <Attribute id="3924" value="1" name="captionsEnabled"/>
     <Attribute id="3925" value="Arial" name="captionsFontName"/>
     <Attribute id="3926" value="28" name="captionsFontSize"/>
     <Attribute id="3927" value="(0,0,0,255)" name="captionsBackgroundColor"/>
     <Attribute id="3928" value="(255,255,255,255)" name="captionsForegroundColor"/>
     <Attribute id="3929" value="en" name="lang"/>
     <Attribute id="3930" value="0" name="captionsAlignment"/>
     <Attribute id="3931" value="1" name="captionsDefaultFontSize"/>
     <Attribute id="3932" value="0.5" name="captionsOpacity"/>
     <Attribute id="3933" value="1" name="captionsBackgroundEnabled"/>
     <Attribute id="3934" value="1" name="captionsBackgroundOnlyAroundText"/>
    </CaptionAttributes>
    <Parameters>
     <VectorParam id="3935"  name="eyePosition">
      <InterpolatingParam id="3936" interp="linr"  time="0/1" value="0" leadInLength="0/1"  />
      <InterpolatingParam id="3937" interp="linr"  time="0/1" value="0" leadInLength="0/1"  />
      <InterpolatingParam id="3938" interp="linr"  time="0/1" value="3000" leadInLength="0/1"  />
     </VectorParam>
     <VectorParam id="3939"  name="eyeLookAtPosition">
      <InterpolatingParam id="3940" interp="linr"  time="0/1" value="0" leadInLength="0/1"  />
      <InterpolatingParam id="3941" interp="linr"  time="0/1" value="0" leadInLength="0/1"  />
      <InterpolatingParam id="3942" interp="linr"  time="0/1" value="0" leadInLength="0/1"  />
     </VectorParam>
     <VectorParam id="3943"  name="eyeUpVector">
      <InterpolatingParam id="3944" interp="linr"  time="0/1" value="0" leadInLength="0/1"  />
      <InterpolatingParam id="3945" interp="linr"  time="0/1" value="1" leadInLength="0/1"  />
      <InterpolatingParam id="3946" interp="linr"  time="0/1" value="0" leadInLength="0/1"  />
     </VectorParam>
     <InterpolatingParam id="3947" interp="linr"  time="0/1" value="0.23885785" leadInLength="0/1"  name="fov"/>
     <InterpolatingParam id="3948" interp="linr"  time="0/1" value="1.5" leadInLength="0/1"  name="nearClipDistance"/>
     <InterpolatingParam id="3949" interp="linr"  time="0/1" value="6000" leadInLength="0/1"  name="farClipDistance"/>
    </Parameters>
   </Timeline>
  </Project>
 </GoProject>
</CSMLData>

</Project_Data>
